<?xml version="1.0" encoding="utf-8"?>
<!-- Generator: Adobe Illustrator 22.1.0, SVG Export Plug-In . SVG Version: 6.00 Build 0)  -->
<svg version="1.1" id="Layer_1" xmlns="http://www.w3.org/2000/svg" xmlns:xlink="http://www.w3.org/1999/xlink" x="0px" y="0px"
	 viewBox="0 0 32 32" style="enable-background:new 0 0 32 32;" xml:space="preserve">
<style type="text/css">
	.st0{fill:#00CDBC;}
	.st1{fill:#FFFFFF;}
</style>
<path class="st0" d="M29,32H3c-1.6,0-3-1.4-3-3V3c0-1.6,1.4-3,3-3h26c1.6,0,3,1.4,3,3v26C32,30.6,30.6,32,29,32z"/>
<title  id="at-svg-researchgate-2">ResearchGate</title>
<g>
	<path class="st1" d="M10.4,7.8c1.4,0,2.4,0.3,3.2,1s1.1,1.7,1.1,3.1c0,1.1-0.2,2-0.7,2.7c-0.4,0.7-1.1,1.1-2,1.3l0,0
		c0.8,0.1,1.4,0.4,1.8,0.8c0.4,0.4,0.6,1.1,0.7,2c0,0.3,0.1,0.6,0.1,1s0,0.8,0,1.2c0,0.9,0.1,1.5,0.1,2c0.1,0.5,0.3,0.8,0.6,0.9V24
		h-3.5c-0.2-0.2-0.3-0.5-0.3-0.8s-0.1-0.6-0.1-0.9l-0.1-3.1c0-0.6-0.2-1.1-0.5-1.5s-0.8-0.5-1.5-0.5H7.7V24H4.4V7.8H10.4L10.4,7.8z
		 M9,14.9c0.8,0,1.4-0.2,1.8-0.6c0.4-0.4,0.6-1,0.6-1.9c0-1.5-0.8-2.2-2.3-2.2H7.7v4.7H9L9,14.9z M24.2,11.7
		c-0.1-0.3-0.2-0.6-0.3-0.9c-0.1-0.3-0.3-0.5-0.6-0.7C23,10,22.8,9.9,22.4,9.9c-0.8,0-1.4,0.4-1.7,1.3c-0.4,0.9-0.5,2.3-0.5,4.4
		c0,1,0,1.8,0.1,2.6c0.1,0.8,0.2,1.5,0.3,2c0.2,0.6,0.4,1,0.7,1.3c0.3,0.3,0.7,0.4,1.1,0.4c0.2,0,0.4-0.1,0.6-0.2s0.5-0.3,0.7-0.5
		s0.4-0.5,0.5-0.8s0.2-0.7,0.2-1.1v-1.7h-2.2v-2.4h5.3V24h-2.4v-1.5l0,0c-0.4,0.6-0.9,1.1-1.4,1.4c-0.6,0.3-1.2,0.4-2,0.4
		c-1,0-1.8-0.2-2.4-0.5s-1.1-0.9-1.5-1.6s-0.6-1.6-0.7-2.7S17,17.1,17,15.7s0.1-2.6,0.3-3.6c0.2-1,0.5-1.9,0.9-2.6
		c0.4-0.7,1-1.2,1.7-1.6c0.7-0.3,1.6-0.5,2.6-0.5c1.8,0,3.1,0.4,3.9,1.3s1.2,2.2,1.2,3.8h-3.1C24.3,12.3,24.3,12,24.2,11.7
		L24.2,11.7z"/>
</g>
</svg>
