<?xml version="1.0" encoding="utf-8"?>
<!-- Generator: Adobe Illustrator 21.1.0, SVG Export Plug-In . SVG Version: 6.00 Build 0)  -->
<svg version="1.1" id="Layer_1" xmlns="http://www.w3.org/2000/svg" xmlns:xlink="http://www.w3.org/1999/xlink" x="0px" y="0px"
	 viewBox="0 0 127 127" style="enable-background:new 0 0 127 127;" xml:space="preserve">
<style type="text/css">
	.st0{fill:#FFFFFF;}
	.st1{fill:#1AC604;}
	.st2{fill:#6817FF;}
</style>
<rect class="st0" width="127" height="127"/>
<g>
	<path class="st1" d="M101.2,62.8c5.7,6.7,10.3,14.2,13.6,22.3c-15.1,15.7-34.4,26.9-56.1,32.3c-5.4-6.9-9.3-14.8-12.4-22.9
		C77,89.5,94.3,71.3,101.2,62.8z"/>
	<path class="st2" d="M59.2,8.5c-5.4,6.9-9.7,14.8-12.7,22.9c25.7,4.5,42.9,17.5,54.6,31.7c5.7-6.7,10.3-14.2,13.6-22.3
		C100,25.1,80.7,14,59.2,8.5z"/>
	<path d="M20.2,95.4c-6.1-20.8-6.1-42.5,0-64.6c5.7-0.6,14.8-1.2,26.3,0.6c-8.5,22.7-6.9,45-0.3,63.4C37.4,96,28.5,96.4,20.2,95.4z"
		/>
</g>
</svg>
