<?xml version="1.0" encoding="utf-8"?>
<!-- Generator: Adobe Illustrator 21.1.0, SVG Export Plug-In . SVG Version: 6.00 Build 0)  -->
<svg version="1.1" id="Layer_2_1_" xmlns="http://www.w3.org/2000/svg" xmlns:xlink="http://www.w3.org/1999/xlink" x="0px" y="0px"
	 viewBox="0 0 32 32" style="enable-background:new 0 0 32 32;" xml:space="preserve">
<style type="text/css">
	.st0{fill:#FFDC00;}
	.st1{fill:#005CA8;}
	.st2{fill:#04BAEE;}
	.st3{fill:#A1C517;}
	.st4{fill:#A61680;}
	.st5{fill:#5C2482;}
	.st6{fill:#F29100;}
	.st7{fill:#E3032E;}
</style>
<g>
	<path class="st0" d="M21.3,24.9c0.6-1,0.9-2.1,1.1-3.3c-1.4,1.7-3.5,2.7-5.8,2.9l0,0c-1,0.7-2,1.2-3.1,1.5c-3.4,1-7.2,0.1-9.9-2.6
		c-0.3-0.3-0.5-0.6-0.8-0.9c0,0.1,0.1,0.1,0.1,0.2c1.8,3.4,4.8,6,8.4,7.2c0.4,0,0.8,0.1,1.1,0.1C16.3,30.1,19.6,28,21.3,24.9z"/>
	<path class="st1" d="M7.5,16.6c0-0.2,0-0.4,0-0.6c0-2.1,0.8-4.1,2.1-5.6c0,0,0,0,0,0c0,0,0,0,0-0.1c0-0.1,0-0.1,0-0.2c0,0,0,0,0,0
		c0-0.1,0-0.1,0-0.2v0c0.8-3.9,3.9-7,7.9-7.8c1-0.2,2-0.2,3-0.1c-1.4-0.5-3-0.7-4.6-0.7c-2.4,0-4.6,0.6-6.6,1.6
		C9.1,3,8.8,3.3,8.5,3.6C5,7.1,4.7,12.6,7.5,16.6L7.5,16.6z"/>
	<path class="st2" d="M7.1,21.3c1,0.6,2.1,0.9,3.3,1.1c-1.7-1.4-2.7-3.5-2.9-5.8C4.7,12.6,5,7.1,8.5,3.6C8.8,3.3,9.1,3,9.4,2.8
		c0,0-0.1,0-0.1,0.1C5.9,4.6,3.2,7.6,2,11.3c0,0.4-0.1,0.8-0.1,1.1C1.9,16.3,4,19.6,7.1,21.3z"/>
	<path class="st3" d="M13.5,26c1.1-0.3,2.1-0.8,3.1-1.5l0,0c-0.2,0-0.4,0-0.6,0c-2.1,0-4.1-0.8-5.6-2.1c-1.2-0.2-2.3-0.6-3.3-1.1
		c-3.1-1.7-5.2-5-5.2-8.8c0-0.4,0-0.8,0.1-1.1c0,0.1,0,0.1-0.1,0.2c-0.5,1.4-0.7,2.9-0.7,4.5c0,2.4,0.6,4.6,1.6,6.6
		c0.2,0.3,0.5,0.6,0.8,0.9C6.3,26.1,10.1,27,13.5,26z"/>
	<path class="st4" d="M29.2,9.4c-0.2-0.3-0.5-0.6-0.8-0.9C25.8,5.9,21.9,5,18.5,6c-1.1,0.3-2.1,0.8-3.1,1.5c0.2,0,0.4,0,0.6,0
		c2.1,0,4.1,0.8,5.6,2.1c1.2,0.2,2.3,0.6,3.3,1.1c3.1,1.7,5.2,5,5.2,8.8c0,0.4,0,0.8-0.1,1.1l0.1-0.2c0.4-1.4,0.7-2.9,0.7-4.4
		C30.8,13.6,30.2,11.4,29.2,9.4z"/>
	<path class="st5" d="M17.6,2.1c-4,0.8-7,3.9-7.9,7.8v0c0,0.1,0,0.1,0,0.2c0,0,0,0,0,0c0,0.1,0,0.1,0,0.2c0,0,0,0,0,0.1c0,0,0,0,0,0
		c1.4-1.7,3.5-2.7,5.8-2.9c1-0.7,2-1.2,3.1-1.5c3.4-1,7.2-0.1,9.9,2.6c0.3,0.3,0.5,0.6,0.8,0.9c0-0.1-0.1-0.1-0.1-0.2
		c-1.8-3.4-4.8-6-8.4-7.2c0,0-0.1,0-0.1,0C19.6,1.9,18.5,1.9,17.6,2.1L17.6,2.1z"/>
	<path class="st6" d="M26,18.5c-0.3-1.1-0.8-2.1-1.5-3.1c0,0.2,0,0.4,0,0.6c0,2.1-0.8,4.1-2.1,5.6c-0.2,1.2-0.6,2.3-1.1,3.3
		c-1.7,3.1-5,5.2-8.8,5.2c-0.4,0-0.8,0-1.1-0.1c0.1,0,0.1,0,0.2,0.1c1.4,0.5,2.9,0.7,4.5,0.7c2.4,0,4.6-0.6,6.6-1.6
		c0.3-0.2,0.6-0.5,0.9-0.8C26.1,25.7,27,21.9,26,18.5L26,18.5z"/>
	<path class="st7" d="M24.9,10.7c-1-0.6-2.1-0.9-3.3-1.1c1.7,1.4,2.7,3.5,2.9,5.8c0.7,0.9,1.2,2,1.5,3.1c1,3.4,0.1,7.2-2.5,9.9
		c-0.3,0.3-0.6,0.5-0.9,0.8c0.1-0.1,0.2-0.1,0.3-0.2c3.3-1.8,5.9-4.8,7.1-8.4c0-0.4,0.1-0.8,0.1-1.1C30.1,15.7,28,12.4,24.9,10.7
		L24.9,10.7z"/>
</g>
</svg>
