<?xml version="1.0" encoding="utf-8"?>
<!-- Generator: Adobe Illustrator 20.1.0, SVG Export Plug-In . SVG Version: 6.00 Build 0)  -->
<svg version="1.1" id="Layer_1" xmlns="http://www.w3.org/2000/svg" xmlns:xlink="http://www.w3.org/1999/xlink" x="0px" y="0px"
	 viewBox="0 0 12 12" style="enable-background:new 0 0 12 12;" xml:space="preserve">
<path d="M11.2,2.8v6.4c0,0.5-0.2,1-0.6,1.4c-0.4,0.4-0.8,0.6-1.4,0.5H2.8c-0.5,0-1-0.2-1.4-0.5S0.9,9.8,0.9,9.2V2.8
	c0-0.5,0.2-1,0.6-1.4s0.8-0.6,1.4-0.5h6.4c0.5,0,1,0.2,1.4,0.5C11,1.8,11.2,2.2,11.2,2.8z M8,5.4L6.6,4L2.7,7.8v1.4h1.4L8,5.4z
	 M9.2,4.3c0.1-0.1,0.1-0.4,0-0.5L8.3,2.8c-0.1-0.1-0.4-0.1-0.5,0L7,3.6L8.4,5L9.2,4.3z"/>
</svg>
