<?xml version="1.0" encoding="utf-8"?>
<!-- Generator: Adobe Illustrator 20.1.0, SVG Export Plug-In . SVG Version: 6.00 Build 0)  -->
<svg version="1.1" id="Layer_1" xmlns="http://www.w3.org/2000/svg" xmlns:xlink="http://www.w3.org/1999/xlink" x="0px" y="0px"
	 viewBox="0 0 32 32" style="enable-background:new 0 0 32 32;" xml:space="preserve">
<style type="text/css">
	.st0{fill:#3D3D3D;}
	.st1{display:none;}
	.st2{display:inline;}
	.st3{fill:url(#path2488_1_);}
	.st4{fill:url(#path2510_1_);}
	.st5{fill:url(#path2532_1_);}
	.st6{fill:url(#path2554_1_);}
	.st7{fill:url(#path2576_1_);}
	.st8{display:inline;fill:#979898;}
	.st9{display:inline;fill:#126370;}
	.st10{display:inline;fill:#FDFDFD;}
	.st11{fill:#FFFFFF;}
</style>
<rect x="-0.2" class="st0" width="32.2" height="32"/>
<g id="svg3092" xmlns:svg="http://www.w3.org/2000/svg" class="st1">
	<g id="g2468" transform="matrix(1.25,0,0,-1.25,-503.275,83.22375)" class="st2">
		<g id="g2470">
			<g id="g2476">
				<g id="g2478">
					
						<linearGradient id="path2488_1_" gradientUnits="userSpaceOnUse" x1="705.6777" y1="-238.0781" x2="705.8071" y2="-238.0781" gradientTransform="matrix(-81.6659 -44.4069 -44.085 82.2621 47552.9648 50977.375)">
						<stop  offset="0" style="stop-color:#F79210"/>
						<stop  offset="0.5" style="stop-color:#F35C19"/>
						<stop  offset="1" style="stop-color:#F79210"/>
					</linearGradient>
					<path id="path2488" class="st3" d="M414.6,57.7c-0.2-0.1-0.3-0.4-0.2-0.6l0,0c0.1-0.2,0.4-0.3,0.6-0.2l0,0
						c0.2,0.1,0.3,0.4,0.2,0.6l0,0c-0.1,0.1-0.2,0.2-0.4,0.2l0,0C414.7,57.8,414.6,57.8,414.6,57.7 M415.7,57.7
						c-0.2-0.1-0.3-0.3-0.2-0.5l0,0c0.1-0.2,0.3-0.3,0.5-0.2l0,0c0.2,0.1,0.3,0.3,0.2,0.5l0,0c-0.1,0.1-0.2,0.2-0.3,0.2l0,0
						C415.8,57.8,415.8,57.8,415.7,57.7 M413.5,57.4c-0.2-0.1-0.3-0.4-0.2-0.7l0,0c0.1-0.2,0.4-0.3,0.7-0.2l0,0
						c0.2,0.1,0.3,0.4,0.2,0.7l0,0c-0.1,0.2-0.3,0.3-0.4,0.3l0,0C413.6,57.5,413.5,57.5,413.5,57.4 M416.8,57.4
						c-0.2-0.1-0.2-0.3-0.1-0.5l0,0c0.1-0.2,0.3-0.2,0.5-0.1l0,0c0.2,0.1,0.2,0.3,0.1,0.5l0,0c-0.1,0.1-0.2,0.2-0.3,0.2l0,0
						C416.9,57.4,416.9,57.4,416.8,57.4 M412.6,56.7c-0.2-0.1-0.3-0.4-0.2-0.6l0,0c0.1-0.2,0.4-0.3,0.6-0.2l0,0
						c0.2,0.1,0.3,0.4,0.2,0.6l0,0c-0.1,0.1-0.2,0.2-0.4,0.2l0,0C412.7,56.7,412.7,56.7,412.6,56.7 M417.8,56.7
						c-0.1-0.1-0.2-0.3-0.1-0.4l0,0c0.1-0.1,0.2-0.2,0.4-0.1l0,0c0.1,0.1,0.2,0.3,0.1,0.4l0,0c-0.1,0.1-0.2,0.2-0.3,0.2l0,0
						C417.9,56.7,417.8,56.7,417.8,56.7 M418.5,55.7c-0.1-0.1-0.2-0.2-0.1-0.3l0,0c0.1-0.1,0.2-0.2,0.3-0.1l0,0
						c0.1,0.1,0.2,0.2,0.1,0.3l0,0C418.8,55.7,418.7,55.7,418.5,55.7L418.5,55.7C418.6,55.7,418.5,55.7,418.5,55.7 M412,55.7
						c-0.2-0.1-0.3-0.3-0.2-0.5l0,0c0.1-0.2,0.3-0.3,0.5-0.2l0,0c0.2,0.1,0.3,0.3,0.2,0.5l0,0c-0.1,0.1-0.2,0.2-0.3,0.2l0,0
						C412.1,55.7,412,55.7,412,55.7 M418.8,54.7c-0.1-0.1-0.2-0.3-0.1-0.4l0,0c0.1-0.1,0.2-0.2,0.4-0.1l0,0c0.1,0.1,0.2,0.3,0.1,0.4
						l0,0c-0.1,0.1-0.2,0.2-0.3,0.2l0,0C418.9,54.7,418.9,54.7,418.8,54.7 M411.7,54.6c-0.2-0.1-0.2-0.3-0.1-0.5l0,0
						c0.1-0.2,0.3-0.2,0.5-0.1l0,0c0.2,0.1,0.2,0.3,0.1,0.5l0,0c-0.1,0.1-0.2,0.2-0.3,0.2l0,0C411.8,54.6,411.7,54.6,411.7,54.6
						 M418.8,53.6c-0.2-0.1-0.2-0.3-0.1-0.5l0,0c0.1-0.2,0.3-0.2,0.5-0.1l0,0c0.2,0.1,0.2,0.3,0.1,0.5l0,0c-0.1,0.1-0.2,0.2-0.3,0.2
						l0,0C418.9,53.6,418.9,53.6,418.8,53.6 M411.7,53.4c-0.1-0.1-0.2-0.3-0.1-0.4l0,0c0.1-0.1,0.3-0.2,0.4-0.1l0,0
						c0.1,0.1,0.2,0.3,0.1,0.4l0,0c-0.1,0.1-0.2,0.2-0.3,0.2l0,0C411.8,53.4,411.8,53.4,411.7,53.4 M418.5,52.5
						c-0.2-0.1-0.3-0.3-0.2-0.5l0,0c0.1-0.2,0.3-0.3,0.5-0.2l0,0c0.2,0.1,0.3,0.3,0.2,0.5l0,0c-0.1,0.1-0.2,0.2-0.3,0.2l0,0
						C418.6,52.6,418.6,52.6,418.5,52.5 M412.1,52.3c-0.1-0.1-0.2-0.2-0.1-0.3l0,0c0.1-0.1,0.2-0.2,0.3-0.1l0,0
						c0.1,0.1,0.2,0.2,0.1,0.3l0,0C412.4,52.3,412.3,52.3,412.1,52.3L412.1,52.3C412.2,52.3,412.2,52.3,412.1,52.3 M417.8,51.7
						c-0.2-0.1-0.3-0.4-0.2-0.6l0,0c0.1-0.2,0.4-0.3,0.6-0.2l0,0c0.2,0.1,0.3,0.4,0.2,0.6l0,0c-0.1,0.1-0.2,0.2-0.4,0.2l0,0
						C418,51.7,417.9,51.7,417.8,51.7 M412.8,51.4c-0.1-0.1-0.2-0.3-0.1-0.4l0,0c0.1-0.1,0.2-0.2,0.4-0.1l0,0
						c0.1,0.1,0.2,0.2,0.1,0.4l0,0c-0.1,0.1-0.1,0.1-0.3,0.1l0,0H412.8 M416.9,51c-0.2-0.1-0.3-0.4-0.2-0.7l0,0
						c0.1-0.2,0.4-0.3,0.7-0.2l0,0c0.2,0.1,0.3,0.4,0.2,0.7l0,0c-0.1,0.2-0.3,0.3-0.4,0.3l0,0C417.1,51.1,417,51.1,416.9,51
						 M413.7,50.8c-0.2-0.1-0.2-0.3-0.1-0.5l0,0c0.1-0.2,0.3-0.2,0.4-0.1l0,0c0.2,0.1,0.2,0.3,0.1,0.5l0,0c-0.1,0.1-0.2,0.2-0.3,0.2
						l0,0C413.8,50.8,413.8,50.8,413.7,50.8 M415.9,50.6c-0.2-0.1-0.3-0.4-0.2-0.6l0,0c0.1-0.2,0.4-0.3,0.6-0.2l0,0
						c0.2,0.1,0.3,0.4,0.2,0.6l0,0c-0.1,0.1-0.2,0.2-0.4,0.2l0,0C416,50.6,415.9,50.6,415.9,50.6 M414.8,50.5
						c-0.2-0.1-0.3-0.3-0.2-0.5l0,0c0.1-0.2,0.3-0.3,0.5-0.2l0,0c0.2,0.1,0.3,0.3,0.2,0.5l0,0c-0.1,0.1-0.2,0.2-0.3,0.2l0,0
						C414.9,50.6,414.8,50.5,414.8,50.5"/>
				</g>
			</g>
		</g>
	</g>
	<g id="g2490" transform="matrix(1.25,0,0,-1.25,-503.275,83.22375)" class="st2">
		<g id="g2492">
			<g id="g2498">
				<g id="g2500">
					
						<linearGradient id="path2510_1_" gradientUnits="userSpaceOnUse" x1="703.4033" y1="-238.1655" x2="703.5328" y2="-238.1655" gradientTransform="matrix(-119.9044 35.4724 35.2152 120.7799 93148.5312 3866.4963)">
						<stop  offset="0" style="stop-color:#F79210"/>
						<stop  offset="0.5" style="stop-color:#F35C19"/>
						<stop  offset="1" style="stop-color:#F79210"/>
					</linearGradient>
					<path id="path2510" class="st4" d="M414.8,58.9c-0.1-0.3,0.1-0.6,0.4-0.7l0,0c0.3-0.1,0.6,0.1,0.7,0.4l0,0
						c0.1,0.3-0.1,0.6-0.4,0.7l0,0c-0.1,0-0.1,0-0.2,0l0,0C415,59.3,414.8,59.2,414.8,58.9 M416.2,58.7c-0.1-0.3,0.1-0.7,0.4-0.8
						l0,0c0.3-0.1,0.7,0.1,0.8,0.4l0,0c0.1,0.3-0.1,0.7-0.4,0.8l0,0c-0.1,0-0.1,0-0.2,0l0,0C416.5,59.2,416.3,59,416.2,58.7
						 M413.3,58.6c-0.1-0.3,0.1-0.5,0.3-0.6l0,0c0.3-0.1,0.5,0.1,0.6,0.3l0,0c0.1,0.3-0.1,0.5-0.3,0.6l0,0h-0.1l0,0
						C413.6,59,413.4,58.8,413.3,58.6 M417.7,58c-0.1-0.3,0.1-0.6,0.4-0.7l0,0c0.3-0.1,0.6,0.1,0.7,0.4l0,0c0.1,0.3-0.1,0.6-0.4,0.7
						l0,0c-0.1,0-0.1,0-0.2,0l0,0C418,58.4,417.8,58.3,417.7,58 M412,57.8c-0.1-0.2,0.1-0.4,0.3-0.5l0,0c0.2-0.1,0.4,0.1,0.5,0.3
						l0,0c0.1,0.2-0.1,0.4-0.3,0.5l0,0h-0.1l0,0C412.2,58.1,412.1,58,412,57.8 M418.9,57c-0.1-0.3,0.1-0.5,0.3-0.6l0,0
						c0.3-0.1,0.5,0.1,0.6,0.3l0,0c0.1,0.3-0.1,0.5-0.3,0.6l0,0h-0.1l0,0C419.1,57.3,418.9,57.2,418.9,57 M411,56.7
						c0-0.2,0-0.3,0.2-0.4l0,0c0.2,0,0.3,0,0.4,0.2l0,0c0.1,0.2,0,0.3-0.2,0.4l0,0h-0.1l0,0C411.2,56.9,411.1,56.8,411,56.7
						 M419.7,55.6c-0.1-0.2,0.1-0.4,0.3-0.5l0,0c0.2-0.1,0.4,0.1,0.5,0.3l0,0c0.1,0.2-0.1,0.4-0.3,0.5l0,0h-0.1l0,0
						C419.9,55.8,419.8,55.7,419.7,55.6 M410.5,55.2c0-0.1,0-0.3,0.2-0.3l0,0c0.1,0,0.3,0,0.3,0.2l0,0c0,0.1,0,0.3-0.2,0.3l0,0
						c0,0,0,0-0.1,0l0,0C410.6,55.4,410.5,55.3,410.5,55.2 M420.1,54c0-0.2,0-0.3,0.2-0.4l0,0c0.2,0,0.3,0,0.4,0.2l0,0
						c0,0.2,0,0.3-0.2,0.4l0,0h-0.1l0,0C420.2,54.2,420.1,54.1,420.1,54 M410.2,53.7c0-0.2,0-0.3,0.2-0.4l0,0c0.2,0,0.3,0,0.4,0.2
						l0,0c0,0.2,0,0.3-0.2,0.4l0,0h-0.1l0,0C410.3,53.9,410.2,53.9,410.2,53.7 M419.9,52.4c0-0.1,0-0.3,0.2-0.3l0,0
						c0.1,0,0.3,0,0.3,0.2l0,0c0,0.1,0,0.3-0.2,0.3l0,0c0,0,0,0-0.1,0l0,0C420.1,52.6,420,52.5,419.9,52.4 M410.4,52.2
						c-0.1-0.2,0.1-0.4,0.3-0.5l0,0c0.2-0.1,0.4,0.1,0.5,0.3l0,0c0.1,0.2-0.1,0.4-0.3,0.5l0,0h-0.1l0,0
						C410.6,52.5,410.4,52.4,410.4,52.2 M419.2,51.1c0-0.2,0-0.3,0.2-0.4l0,0c0.2,0,0.3,0,0.4,0.2l0,0c0,0.2,0,0.3-0.2,0.4l0,0h-0.1
						l0,0C419.4,51.3,419.3,51.2,419.2,51.1 M411,50.9c-0.1-0.3,0.1-0.5,0.3-0.6l0,0c0.3-0.1,0.5,0.1,0.6,0.3l0,0
						c0.1,0.3-0.1,0.5-0.3,0.6l0,0h-0.1l0,0C411.3,51.2,411.1,51.1,411,50.9 M418.1,49.9c-0.1-0.2,0.1-0.4,0.3-0.5l0,0
						c0.2-0.1,0.4,0.1,0.5,0.3l0,0c0.1,0.2-0.1,0.4-0.3,0.5l0,0h-0.1l0,0C418.3,50.2,418.1,50.1,418.1,49.9 M412.1,49.8
						c-0.1-0.3,0.1-0.6,0.4-0.7l0,0c0.3-0.1,0.6,0.1,0.7,0.4l0,0c0.1,0.3-0.1,0.6-0.4,0.7l0,0c-0.1,0-0.1,0-0.2,0l0,0
						C412.4,50.2,412.2,50.1,412.1,49.8 M413.4,49.2c-0.1-0.3,0.1-0.7,0.4-0.8l0,0c0.3-0.1,0.7,0.1,0.8,0.4l0,0
						c0.1,0.3-0.1,0.7-0.4,0.8l0,0c-0.1,0-0.1,0-0.2,0l0,0C413.8,49.6,413.5,49.4,413.4,49.2 M416.6,49.2c-0.1-0.3,0.1-0.5,0.3-0.6
						l0,0c0.3-0.1,0.5,0.1,0.6,0.3l0,0c0.1,0.3-0.1,0.5-0.3,0.6l0,0h-0.1l0,0C416.9,49.6,416.7,49.4,416.6,49.2 M415,48.9
						c-0.1-0.3,0.1-0.6,0.4-0.7l0,0c0.3-0.1,0.6,0.1,0.7,0.4l0,0c0.1,0.3-0.1,0.6-0.4,0.7l0,0c-0.1,0-0.1,0-0.2,0l0,0
						C415.3,49.3,415.1,49.2,415,48.9"/>
				</g>
			</g>
		</g>
	</g>
	<g id="g2512" transform="matrix(1.25,0,0,-1.25,-503.275,83.22375)" class="st2">
		<g id="g2514">
			<g id="g2520">
				<g id="g2522">
					
						<linearGradient id="path2532_1_" gradientUnits="userSpaceOnUse" x1="702.5449" y1="-237.3427" x2="702.6743" y2="-237.3427" gradientTransform="matrix(-117.5447 118.4031 117.5447 118.4031 110899.1328 -55032.5039)">
						<stop  offset="0" style="stop-color:#F79210"/>
						<stop  offset="0.5" style="stop-color:#F35C19"/>
						<stop  offset="1" style="stop-color:#F79210"/>
					</linearGradient>
					<path id="path2532" class="st5" d="M415.8,60.8c-0.2-0.3-0.2-0.6,0-0.9l0,0c0.2-0.2,0.6-0.2,0.9,0l0,0c0.2,0.3,0.2,0.6,0,0.9
						l0,0c-0.1,0.1-0.3,0.2-0.4,0.2l0,0C416.1,61,415.9,60.9,415.8,60.8 M413.8,60.6c-0.2-0.2-0.2-0.5,0-0.7l0,0
						c0.2-0.2,0.5-0.2,0.7,0l0,0c0.2,0.2,0.2,0.5,0,0.7l0,0c-0.1,0.1-0.2,0.1-0.3,0.1l0,0C414.1,60.8,413.9,60.7,413.8,60.6
						 M417.7,60.3c-0.3-0.3-0.3-0.7,0-1l0,0c0.3-0.3,0.7-0.3,1,0l0,0c0.3,0.3,0.3,0.7,0,1l0,0c-0.1,0.1-0.3,0.2-0.5,0.2l0,0
						C418.1,60.5,417.9,60.4,417.7,60.3 M412,59.9c-0.1-0.2-0.1-0.4,0-0.6l0,0c0.2-0.1,0.4-0.1,0.6,0l0,0c0.1,0.2,0.1,0.4,0,0.6l0,0
						c-0.1,0.1-0.2,0.1-0.3,0.1l0,0C412.1,60,412,60,412,59.9 M419.4,59.2c-0.3-0.3-0.3-0.8,0-1.1l0,0c0.3-0.3,0.8-0.3,1.1,0l0,0
						c0.3,0.3,0.3,0.8,0,1.1l0,0c-0.2,0.1-0.4,0.2-0.5,0.2l0,0C419.7,59.4,419.5,59.3,419.4,59.2 M410.4,58.5
						c-0.1-0.1-0.1-0.3,0-0.4l0,0c0.1-0.1,0.3-0.1,0.4,0l0,0c0.1,0.1,0.1,0.3,0,0.4l0,0c-0.1,0.1-0.1,0.1-0.2,0.1l0,0
						C410.5,58.6,410.5,58.6,410.4,58.5 M420.7,57.5c-0.3-0.3-0.3-0.7,0-1l0,0c0.3-0.3,0.7-0.3,1,0l0,0c0.3,0.3,0.3,0.7,0,1l0,0
						c-0.1,0.1-0.3,0.2-0.5,0.2l0,0C421,57.7,420.8,57.6,420.7,57.5 M409.2,56.9c-0.2-0.2-0.1-0.4,0-0.6l0,0c0.2-0.1,0.4-0.1,0.6,0
						l0,0c0.1,0.2,0.1,0.4,0,0.6l0,0c-0.1,0.1-0.2,0.1-0.3,0.1l0,0C409.4,57,409.2,57,409.2,56.9 M421.5,55.4
						c-0.2-0.3-0.2-0.6,0-0.9l0,0c0.2-0.2,0.6-0.2,0.9,0l0,0c0.2,0.3,0.2,0.6,0,0.9l0,0c-0.1,0.1-0.3,0.2-0.4,0.2l0,0
						C421.7,55.6,421.6,55.6,421.5,55.4 M408.5,55c-0.2-0.2-0.2-0.5,0-0.7l0,0c0.2-0.2,0.5-0.2,0.7,0l0,0c0.2,0.2,0.2,0.5,0,0.7l0,0
						c-0.1,0.1-0.2,0.1-0.3,0.1l0,0C408.7,55.1,408.6,55.1,408.5,55 M421.6,53.3c-0.2-0.2-0.2-0.5,0-0.7l0,0c0.2-0.2,0.5-0.2,0.7,0
						l0,0c0.2,0.2,0.2,0.5,0,0.7l0,0c-0.1,0.1-0.2,0.1-0.3,0.1l0,0C421.8,53.4,421.7,53.4,421.6,53.3 M408.5,53
						c-0.2-0.3-0.2-0.6,0-0.9l0,0c0.3-0.2,0.6-0.2,0.9,0l0,0c0.2,0.3,0.2,0.6,0,0.9l0,0c-0.1,0.1-0.3,0.2-0.4,0.2l0,0
						C408.8,53.2,408.6,53.1,408.5,53 M421.1,51.2c-0.1-0.2-0.1-0.4,0-0.6l0,0c0.2-0.2,0.4-0.1,0.6,0l0,0c0.1,0.2,0.1,0.4,0,0.6l0,0
						c-0.1,0.1-0.2,0.1-0.3,0.1l0,0C421.3,51.3,421.2,51.3,421.1,51.2 M409.1,51.1c-0.3-0.3-0.3-0.7,0-1l0,0c0.3-0.3,0.7-0.3,1,0
						l0,0c0.3,0.3,0.3,0.7,0,1l0,0c-0.1,0.1-0.3,0.2-0.5,0.2l0,0C409.5,51.3,409.3,51.2,409.1,51.1 M410.3,49.5
						c-0.3-0.3-0.3-0.8,0-1.1l0,0c0.3-0.3,0.8-0.3,1.1,0l0,0c0.3,0.3,0.3,0.8,0,1.1l0,0c-0.2,0.1-0.4,0.2-0.6,0.2l0,0
						C410.7,49.8,410.5,49.7,410.3,49.5 M420,49.4c-0.1-0.1-0.1-0.3,0-0.4l0,0c0.1-0.1,0.3-0.1,0.4,0l0,0c0.1,0.1,0.1,0.3,0,0.4l0,0
						c-0.1,0.1-0.1,0.1-0.2,0.1l0,0C420.1,49.5,420.1,49.5,420,49.4 M412.1,48.2c-0.3-0.3-0.3-0.7,0-1l0,0c0.3-0.3,0.7-0.3,1,0l0,0
						c0.3,0.3,0.3,0.7,0,1l0,0c-0.1,0.1-0.3,0.2-0.5,0.2l0,0l0,0l0,0C412.4,48.5,412.2,48.4,412.1,48.2 M418.3,48.2
						c-0.2-0.2-0.1-0.4,0-0.6l0,0c0.2-0.2,0.4-0.1,0.6,0l0,0c0.1,0.2,0.1,0.4,0,0.6l0,0c-0.1,0.1-0.2,0.1-0.3,0.1l0,0
						C418.5,48.3,418.4,48.3,418.3,48.2 M414.1,47.6c-0.2-0.3-0.2-0.6,0-0.9l0,0c0.3-0.2,0.6-0.2,0.9,0l0,0c0.2,0.3,0.2,0.6,0,0.9
						l0,0c-0.1,0.1-0.3,0.2-0.4,0.2l0,0C414.4,47.8,414.3,47.7,414.1,47.6 M416.3,47.6c-0.2-0.2-0.2-0.5,0-0.7l0,0
						c0.2-0.2,0.5-0.2,0.7,0l0,0c0.2,0.2,0.2,0.5,0,0.7l0,0c-0.1,0.1-0.2,0.1-0.3,0.1l0,0C416.5,47.7,416.4,47.7,416.3,47.6"/>
				</g>
			</g>
		</g>
	</g>
	<g id="g2534" transform="matrix(1.25,0,0,-1.25,-503.275,83.22375)" class="st2">
		<g id="g2536">
			<g id="g2542">
				<g id="g2544">
					
						<linearGradient id="path2554_1_" gradientUnits="userSpaceOnUse" x1="702.3622" y1="-236.6316" x2="702.4918" y2="-236.6316" gradientTransform="matrix(-86.839 202.7915 201.3214 87.473 109050.4453 -121688.8047)">
						<stop  offset="0" style="stop-color:#F79210"/>
						<stop  offset="0.5" style="stop-color:#F35C19"/>
						<stop  offset="1" style="stop-color:#F79210"/>
					</linearGradient>
					<path id="path2554" class="st6" d="M416.3,63c-0.3-0.1-0.5-0.3-0.4-0.6l0,0c0.1-0.3,0.3-0.5,0.6-0.4l0,0
						c0.3,0.1,0.5,0.3,0.4,0.6l0,0c-0.1,0.3-0.3,0.4-0.5,0.4l0,0C416.4,63,416.4,63,416.3,63 M414.1,62.9c-0.2,0-0.4-0.2-0.4-0.5
						l0,0c0-0.2,0.2-0.4,0.5-0.4l0,0c0.2,0,0.4,0.2,0.4,0.5l0,0C414.5,62.7,414.4,62.9,414.1,62.9L414.1,62.9L414.1,62.9
						 M418.5,62.6c-0.3-0.1-0.6-0.4-0.5-0.8l0,0c0.1-0.4,0.4-0.6,0.8-0.5l0,0c0.3,0.1,0.6,0.4,0.5,0.8l0,0c-0.1,0.3-0.3,0.5-0.6,0.5
						l0,0C418.6,62.6,418.5,62.6,418.5,62.6 M411.8,62.2c-0.2-0.1-0.3-0.3-0.2-0.5l0,0c0.1-0.2,0.3-0.3,0.5-0.2l0,0
						c0.2,0.1,0.3,0.3,0.2,0.5l0,0c-0.1,0.1-0.2,0.2-0.4,0.2l0,0C411.9,62.2,411.9,62.2,411.8,62.2 M420.4,61.6
						c-0.4-0.1-0.7-0.6-0.5-1l0,0c0.1-0.4,0.6-0.7,1-0.5l0,0c0.4,0.1,0.7,0.6,0.5,1l0,0c-0.1,0.4-0.4,0.6-0.8,0.6l0,0
						C420.5,61.6,420.5,61.6,420.4,61.6 M409.8,61c-0.2-0.1-0.2-0.4-0.1-0.6l0,0c0.1-0.2,0.4-0.2,0.6-0.1l0,0
						c0.2,0.1,0.2,0.4,0.1,0.6l0,0c-0.1,0.1-0.2,0.2-0.3,0.2l0,0C409.9,61.1,409.8,61,409.8,61 M421.9,60.1
						c-0.5-0.2-0.7-0.7-0.5-1.2l0,0c0.2-0.5,0.7-0.7,1.1-0.5l0,0c0.5,0.2,0.7,0.7,0.5,1.2l0,0c-0.1,0.4-0.5,0.6-0.8,0.6l0,0
						C422.1,60.1,422,60.1,421.9,60.1 M408.1,59.5c-0.2-0.2-0.3-0.5-0.1-0.8l0,0c0.2-0.2,0.5-0.3,0.7-0.1l0,0
						c0.2,0.2,0.3,0.5,0.1,0.8l0,0c-0.1,0.1-0.3,0.2-0.4,0.2l0,0C408.3,59.6,408.2,59.5,408.1,59.5 M423,58.1
						c-0.5-0.2-0.7-0.8-0.5-1.3l0,0c0.2-0.5,0.8-0.7,1.3-0.5l0,0c0.5,0.2,0.7,0.8,0.5,1.3l0,0c-0.2,0.4-0.5,0.6-0.9,0.6l0,0
						C423.3,58.2,423.1,58.2,423,58.1 M407,57.6c-0.3-0.2-0.4-0.6-0.2-0.9l0,0c0.2-0.3,0.6-0.4,0.9-0.2l0,0c0.3,0.2,0.4,0.6,0.2,0.9
						l0,0c-0.1,0.2-0.3,0.3-0.5,0.3l0,0C407.2,57.7,407.1,57.6,407,57.6 M423.6,55.9c-0.4-0.2-0.6-0.8-0.4-1.2l0,0
						c0.2-0.4,0.8-0.6,1.2-0.4l0,0c0.4,0.2,0.6,0.8,0.4,1.2l0,0c-0.2,0.3-0.5,0.5-0.8,0.5l0,0C423.9,55.9,423.8,55.9,423.6,55.9
						 M406.4,55.5c-0.4-0.2-0.5-0.7-0.3-1.1l0,0c0.2-0.4,0.7-0.5,1.1-0.3l0,0c0.4,0.2,0.5,0.7,0.3,1.1l0,0c-0.1,0.3-0.4,0.4-0.7,0.4
						l0,0l0,0l0,0C406.6,55.6,406.5,55.6,406.4,55.5 M423.7,53.5c-0.4-0.2-0.5-0.7-0.3-1.1l0,0c0.2-0.4,0.7-0.5,1.1-0.3l0,0
						c0.4,0.2,0.5,0.7,0.3,1.1l0,0c-0.1,0.3-0.4,0.4-0.7,0.4l0,0C423.9,53.6,423.8,53.5,423.7,53.5 M406.4,53.3
						c-0.4-0.2-0.6-0.8-0.4-1.2l0,0c0.2-0.4,0.8-0.6,1.2-0.4l0,0c0.4,0.2,0.6,0.8,0.4,1.2l0,0c-0.2,0.3-0.5,0.5-0.8,0.5l0,0
						C406.7,53.4,406.5,53.4,406.4,53.3 M407.1,51.2c-0.5-0.2-0.7-0.8-0.5-1.3l0,0c0.2-0.5,0.8-0.7,1.3-0.5l0,0
						c0.5,0.2,0.7,0.8,0.5,1.3l0,0c-0.2,0.4-0.5,0.6-0.9,0.6l0,0C407.3,51.3,407.2,51.3,407.1,51.2 M423.2,51.1
						c-0.3-0.2-0.4-0.6-0.2-0.9l0,0c0.2-0.3,0.6-0.4,0.9-0.2l0,0c0.3,0.2,0.4,0.6,0.2,0.9l0,0c-0.1,0.2-0.3,0.3-0.6,0.3l0,0
						C423.4,51.2,423.3,51.2,423.2,51.1 M408.3,49.2c-0.5-0.2-0.7-0.7-0.5-1.2l0,0c0.2-0.5,0.7-0.7,1.1-0.5l0,0
						c0.5,0.2,0.7,0.7,0.5,1.2l0,0c-0.1,0.4-0.5,0.6-0.8,0.6l0,0C408.5,49.2,408.4,49.2,408.3,49.2 M422.1,49
						c-0.2-0.2-0.3-0.5-0.1-0.8l0,0c0.2-0.2,0.5-0.3,0.7-0.1l0,0c0.2,0.2,0.3,0.5,0.1,0.8l0,0c-0.1,0.1-0.3,0.2-0.4,0.2l0,0
						C422.3,49.1,422.2,49.1,422.1,49 M410,47.5c-0.4-0.1-0.7-0.6-0.5-1l0,0c0.1-0.4,0.6-0.7,1-0.5l0,0c0.4,0.1,0.7,0.6,0.5,1l0,0
						c-0.1,0.4-0.4,0.6-0.8,0.6l0,0C410.1,47.6,410.1,47.6,410,47.5 M420.6,47.2c-0.2-0.1-0.2-0.4-0.1-0.6l0,0
						c0.1-0.2,0.4-0.2,0.6-0.1l0,0c0.2,0.1,0.2,0.4,0.1,0.6l0,0c-0.1,0.1-0.2,0.2-0.3,0.2l0,0C420.7,47.3,420.6,47.3,420.6,47.2
						 M412,46.3c-0.3-0.1-0.6-0.4-0.5-0.8l0,0c0.1-0.4,0.4-0.6,0.8-0.5l0,0c0.3,0.1,0.6,0.4,0.5,0.8l0,0c-0.1,0.3-0.3,0.5-0.6,0.5
						l0,0C412.2,46.3,412.1,46.3,412,46.3 M418.7,46.1c-0.2-0.1-0.3-0.3-0.2-0.5l0,0c0.1-0.2,0.3-0.3,0.5-0.2l0,0
						c0.2,0.1,0.3,0.3,0.2,0.5l0,0c-0.1,0.1-0.2,0.2-0.4,0.2l0,0C418.8,46.1,418.8,46.1,418.7,46.1 M414.3,45.6
						c-0.3-0.1-0.5-0.3-0.4-0.6l0,0c0.1-0.3,0.3-0.5,0.6-0.4l0,0c0.3,0.1,0.5,0.3,0.4,0.6l0,0c-0.1,0.3-0.3,0.4-0.5,0.4l0,0H414.3
						 M416.6,45.5c-0.2,0-0.4-0.2-0.4-0.5l0,0c0-0.2,0.2-0.4,0.5-0.4l0,0c0.2,0,0.4,0.2,0.4,0.5l0,0
						C417.1,45.4,416.9,45.5,416.6,45.5L416.6,45.5C416.7,45.5,416.6,45.5,416.6,45.5"/>
				</g>
			</g>
		</g>
	</g>
	<g id="g2556" transform="matrix(1.25,0,0,-1.25,-503.275,83.22375)" class="st2">
		<g id="g2558">
			<g id="g2564">
				<g id="g2566">
					
						<linearGradient id="path2576_1_" gradientUnits="userSpaceOnUse" x1="702.3939" y1="-236.0596" x2="702.5234" y2="-236.0596" gradientTransform="matrix(0 282.852 280.8016 0 66701.2578 -198631.5)">
						<stop  offset="0" style="stop-color:#F79210"/>
						<stop  offset="0.5" style="stop-color:#F35C19"/>
						<stop  offset="1" style="stop-color:#F79210"/>
					</linearGradient>
					<path id="path2576" class="st7" d="M414.9,65c0-0.3,0.2-0.5,0.5-0.5l0,0c0.3,0,0.5,0.2,0.5,0.5l0,0c0,0.3-0.2,0.5-0.5,0.5l0,0
						C415.1,65.5,414.9,65.3,414.9,65 M412.4,65.1c-0.3-0.1-0.5-0.4-0.4-0.7l0,0c0.1-0.3,0.4-0.5,0.7-0.4l0,0
						c0.3,0.1,0.5,0.4,0.4,0.7l0,0c-0.1,0.2-0.3,0.4-0.5,0.4l0,0C412.5,65.2,412.4,65.1,412.4,65.1 M417.8,64.8
						c-0.1-0.3,0.1-0.6,0.4-0.7l0,0c0.3-0.1,0.6,0.1,0.7,0.4l0,0c0.1,0.3-0.1,0.6-0.4,0.7l0,0h-0.1l0,0
						C418.1,65.2,417.8,65,417.8,64.8 M409.7,64.2c-0.4-0.1-0.6-0.4-0.5-0.8l0,0c0.1-0.4,0.4-0.6,0.8-0.5l0,0
						c0.4,0.1,0.6,0.4,0.5,0.8l0,0C410.4,64,410.1,64.2,409.7,64.2L409.7,64.2C409.8,64.2,409.8,64.2,409.7,64.2 M420.3,63.6
						c-0.1-0.4,0.2-0.7,0.5-0.8l0,0c0.4-0.1,0.7,0.2,0.8,0.5l0,0c0.1,0.4-0.2,0.7-0.5,0.8l0,0H421l0,0
						C420.7,64.2,420.4,64,420.3,63.6 M407.4,62.5c-0.5-0.1-0.8-0.5-0.7-1l0,0c0.1-0.5,0.5-0.8,1-0.7l0,0c0.5,0.1,0.8,0.5,0.7,1l0,0
						c-0.1,0.4-0.4,0.7-0.8,0.7l0,0C407.5,62.5,407.5,62.5,407.4,62.5 M422.5,61.8c-0.1-0.5,0.2-0.9,0.7-1l0,0
						c0.5-0.1,0.9,0.2,1,0.7l0,0c0.1,0.5-0.2,0.9-0.7,1l0,0h-0.1l0,0C422.9,62.5,422.5,62.3,422.5,61.8 M424,59.5
						c-0.1-0.6,0.4-1.1,0.9-1.1l0,0c0.6-0.1,1.1,0.4,1.1,0.9l0,0c0.1,0.6-0.4,1.1-0.9,1.1l0,0H425l0,0C424.5,60.4,424.1,60,424,59.5
						 M405.7,60.4c-0.6-0.1-1-0.6-0.9-1.1l0,0c0.1-0.6,0.6-1,1.1-0.9l0,0c0.6,0.1,1,0.6,0.9,1.1l0,0c-0.1,0.5-0.5,0.9-1,0.9l0,0
						C405.7,60.4,405.7,60.4,405.7,60.4 M425,56.7c0-0.6,0.5-1.2,1.1-1.2l0,0c0.6,0,1.2,0.5,1.2,1.1l0,0c0,0.6-0.5,1.2-1.1,1.2l0,0
						c0,0,0,0-0.1,0l0,0C425.6,57.8,425.1,57.4,425,56.7 M404.6,57.8c-0.6,0-1.1-0.6-1.1-1.2l0,0c0-0.6,0.6-1.1,1.2-1.1l0,0
						c0.6,0,1.1,0.6,1.1,1.2l0,0C405.8,57.4,405.3,57.8,404.6,57.8L404.6,57.8L404.6,57.8 M425.3,53.8c0-0.7,0.6-1.3,1.2-1.3l0,0
						c0.7,0,1.2,0.6,1.2,1.3l0,0c0,0.7-0.6,1.3-1.2,1.3l0,0C425.9,55,425.3,54.5,425.3,53.8 M403,53.8c0-0.7,0.6-1.3,1.2-1.3l0,0
						c0.7,0,1.2,0.6,1.2,1.3l0,0c0,0.7-0.6,1.3-1.2,1.3l0,0C403.6,55,403,54.5,403,53.8 M426.1,52c-0.6,0-1.1-0.6-1.1-1.2l0,0
						c0-0.6,0.6-1.1,1.2-1.1l0,0c0.6,0,1.1,0.6,1.1,1.2l0,0C427.3,51.6,426.8,52,426.1,52L426.1,52C426.2,52,426.1,52,426.1,52
						 M403.5,50.9c0-0.6,0.5-1.2,1.1-1.2l0,0c0.6,0,1.2,0.5,1.2,1.1l0,0c0,0.6-0.5,1.2-1.1,1.2l0,0c0,0,0,0-0.1,0l0,0
						C404.1,52,403.5,51.6,403.5,50.9 M425,49.2c-0.6-0.1-1-0.6-0.9-1.2l0,0c0.1-0.6,0.6-1,1.1-0.9l0,0c0.6,0.1,1,0.6,0.9,1.1l0,0
						c-0.1,0.5-0.5,0.9-1,0.9l0,0C425,49.2,425,49.2,425,49.2 M404.7,48.3c-0.1-0.6,0.4-1.1,0.9-1.1l0,0c0.6-0.1,1.1,0.4,1.1,0.9
						l0,0c0.1,0.6-0.4,1.1-0.9,1.2l0,0h-0.1l0,0C405.2,49.2,404.8,48.8,404.7,48.3 M423.2,46.7c-0.5-0.1-0.8-0.5-0.7-1l0,0
						c0.1-0.5,0.5-0.8,1-0.7l0,0c0.5,0.1,0.8,0.5,0.7,1l0,0c-0.1,0.4-0.4,0.7-0.8,0.7l0,0C423.3,46.7,423.2,46.7,423.2,46.7
						 M406.7,46c-0.1-0.5,0.2-0.9,0.7-1l0,0c0.5-0.1,0.9,0.2,1,0.7l0,0c0.1,0.5-0.2,0.9-0.7,1l0,0h-0.1l0,0
						C407.1,46.7,406.8,46.4,406.7,46 M420.8,44.7c-0.4-0.1-0.6-0.4-0.5-0.8l0,0c0.1-0.4,0.4-0.6,0.8-0.5l0,0
						c0.4,0.1,0.6,0.4,0.5,0.8l0,0C421.5,44.5,421.2,44.7,420.8,44.7L420.8,44.7C420.9,44.8,420.9,44.8,420.8,44.7 M409.2,44.2
						c-0.1-0.4,0.2-0.7,0.5-0.8l0,0c0.4-0.1,0.7,0.2,0.8,0.5l0,0c0.1,0.4-0.2,0.7-0.5,0.8l0,0h-0.1l0,0
						C409.5,44.8,409.2,44.5,409.2,44.2 M418.2,43.5c-0.3-0.1-0.5-0.4-0.4-0.7l0,0c0.1-0.3,0.4-0.5,0.7-0.4l0,0
						c0.3,0.1,0.5,0.4,0.4,0.7l0,0c-0.1,0.2-0.3,0.4-0.5,0.4l0,0C418.3,43.5,418.2,43.5,418.2,43.5 M412,43.1
						c-0.1-0.3,0.1-0.6,0.4-0.7l0,0c0.3-0.1,0.6,0.1,0.7,0.4l0,0c0.1,0.3-0.1,0.6-0.4,0.7l0,0h-0.1l0,0
						C412.3,43.5,412.1,43.3,412,43.1 M414.9,42.6c0-0.3,0.2-0.5,0.5-0.5l0,0h0.1c0.3,0,0.5,0.2,0.5,0.5l0,0c0,0.3-0.2,0.5-0.5,0.5
						l0,0C415.1,43.1,414.9,42.8,414.9,42.6"/>
				</g>
			</g>
		</g>
	</g>
</g>
<g id="Layer_2" class="st1">
	<path class="st8" d="M14.4,1.5c1.1,0,2.2,0,3.3,0c0.1,0.2,0.3,0.1,0.4,0.1C24.5,2.5,29.5,7,30.8,13.2c0.1,0.5,0.1,0.9,0.3,1.4
		c0,1.1,0,2.1,0,3.2c-0.2,0.2-0.1,0.4-0.2,0.6c-1.2,6.3-5.6,10.8-11.8,12.1c-0.5,0.1-0.9,0.1-1.4,0.3c-1.1,0-2.2,0-3.3,0
		c-0.3-0.2-0.6-0.2-0.9-0.2c-5.9-1-10.7-5.6-12-11.4c-0.1-0.5-0.1-1-0.3-1.5c0-1.1,0-2.1,0-3.2c0.1-0.1,0.1-0.2,0.1-0.3
		C2.2,7.9,6.7,3.1,13,1.8C13.5,1.7,14,1.7,14.4,1.5z M2.7,16.1c0,7.3,6,13.2,13.5,13.2c7.4,0,13.5-5.9,13.5-13.2s-6-13.2-13.5-13.3
		C8.7,2.9,2.7,8.8,2.7,16.1z"/>
	<path class="st9" d="M2.7,16.1c0-7.3,6.1-13.3,13.5-13.2c7.5,0,13.5,6,13.5,13.3s-6.1,13.2-13.5,13.2C8.7,29.4,2.7,23.5,2.7,16.1z
		 M17.2,17.7c1.3,0.5,2.3,0.1,2.6-1c0.2-0.6,0.2-1.2-0.1-1.8c-0.4-1-1.4-1.3-2.3-0.8c-0.2,0.1-0.2,0.1-0.4,0
		c-0.5-0.4-0.9-0.2-0.9,0.4c0,1.5,0,2.9,0,4.4c0,0.3,0.1,0.6,0.5,0.6s0.6-0.2,0.6-0.6C17.2,18.5,17.2,18.2,17.2,17.7z M6,18
		c0.1,0,0.2,0,0.3,0c0.9-0.1,1.6-0.7,1.7-1.5c0.1-0.8-0.3-1.4-1.3-1.7c-0.3-0.1-0.6-0.2-0.8-0.3c-0.2-0.1-0.4-0.2-0.4-0.5
		c0.1-0.3,0.3-0.4,0.5-0.4c0.3,0,0.6,0.1,0.9,0.2c0.3,0.1,0.6,0,0.7-0.3s0-0.5-0.3-0.7c-0.7-0.4-1.8-0.3-2.5,0.2
		c-0.9,0.8-0.7,2,0.4,2.5c0.3,0.1,0.7,0.2,1,0.3s0.6,0.2,0.5,0.6s-0.4,0.5-0.8,0.5c-0.3,0-0.6-0.1-0.9-0.2S4.3,16.6,4.2,17
		c-0.1,0.4,0.1,0.6,0.4,0.8C5.1,17.9,5.5,18,6,18z M13.7,18c1.1,0,1.9-0.9,2-2c0-1.1-0.9-2.1-1.9-2.1c-1.1,0-2,0.9-1.9,2.1
		C11.8,17.1,12.6,18,13.7,18z M24,15.6c0-0.3,0-0.6,0-0.9c0-0.4-0.1-0.7-0.5-0.7C23,14,23,14.3,23,14.7c0,0.6,0,1.1,0,1.7
		c0,0.5-0.2,0.8-0.7,0.8c-0.4,0-0.7-0.3-0.7-0.8c0-0.6,0-1.1,0-1.7c0-0.3-0.1-0.6-0.5-0.6s-0.5,0.3-0.5,0.6c0,0.7,0,1.3,0,2
		c0,0.5,0.2,0.9,0.6,1.1c0.7,0.4,1.4,0.4,2.2,0.1c0.7-0.3,0.8-0.9,0.8-1.6C24,16,24,15.8,24,15.6z M26,18c0.8,0,1.4-0.4,1.5-1
		s-0.2-1-1-1.3h-0.1c-0.3-0.2-0.9-0.1-0.7-0.6c0.2-0.4,0.6-0.1,0.9,0s0.5,0.2,0.7-0.1s0-0.6-0.3-0.7c-0.5-0.3-1-0.3-1.6-0.2
		c-0.5,0.2-0.8,0.5-0.9,1s0.2,0.9,0.7,1.1c0.3,0.2,0.6,0.3,0.9,0.4c0.2,0.1,0.4,0.2,0.3,0.4c-0.1,0.2-0.3,0.2-0.4,0.2
		c-0.3,0-0.5-0.1-0.7-0.3c-0.3-0.1-0.6-0.2-0.8,0.2c-0.2,0.4,0.1,0.6,0.3,0.7C25.2,17.9,25.6,18,26,18z M10.2,18
		c0.3,0,0.6-0.1,0.9-0.2c0.3-0.1,0.5-0.3,0.4-0.7c-0.1-0.4-0.4-0.3-0.7-0.2c-0.7,0.2-1.2,0-1.4-0.6c-0.1-0.4-0.1-0.9,0.3-1.2
		c0.3-0.3,0.7-0.3,1.1-0.1c0.3,0.1,0.6,0.2,0.7-0.2c0.1-0.4-0.1-0.6-0.4-0.7c-0.7-0.3-1.6-0.2-2.2,0.3c-0.6,0.6-0.8,1.5-0.5,2.3
		C8.7,17.5,9.4,18,10.2,18z"/>
	<path class="st10" d="M17.2,17.7c0,0.4,0,0.8,0,1.2c0,0.4-0.2,0.6-0.6,0.6s-0.5-0.3-0.5-0.6c0-1.5,0-2.9,0-4.4
		c0-0.6,0.5-0.8,0.9-0.4c0.2,0.1,0.2,0.1,0.4,0c0.9-0.5,1.9-0.2,2.3,0.8c0.3,0.6,0.3,1.2,0.1,1.8C19.5,17.9,18.6,18.2,17.2,17.7z
		 M17.2,15.9c0,0.7,0.4,1.1,0.9,1.1s0.8-0.5,0.8-1c0-0.6-0.4-1.1-0.9-1.1C17.6,14.9,17.2,15.3,17.2,15.9z"/>
	<path class="st10" d="M6,18c-0.4,0-0.9-0.1-1.3-0.2c-0.3-0.1-0.6-0.4-0.4-0.8c0.1-0.4,0.5-0.3,0.8-0.3c0.3,0.1,0.6,0.2,0.9,0.2
		c0.4,0,0.7-0.1,0.8-0.5c0.1-0.4-0.2-0.5-0.5-0.6s-0.7-0.2-1-0.3C4.1,15,3.9,13.8,4.8,13c0.6-0.5,1.8-0.6,2.5-0.2
		c0.3,0.2,0.4,0.4,0.3,0.7s-0.4,0.4-0.7,0.3c-0.3-0.1-0.6-0.2-0.9-0.2S5.5,13.7,5.5,14c-0.1,0.3,0.2,0.4,0.4,0.5
		c0.3,0.1,0.6,0.2,0.8,0.3c1,0.3,1.4,0.9,1.3,1.7c-0.1,0.8-0.8,1.4-1.7,1.5C6.2,18,6.1,18,6,18z"/>
	<path class="st10" d="M13.7,18c-1.1,0-1.9-0.9-1.9-2c0-1.2,0.9-2.1,1.9-2.1c1.1,0,2,1,1.9,2.1C15.7,17.1,14.8,18,13.7,18z M12.9,16
		c0,0.6,0.4,1.1,0.9,1.1s0.9-0.4,0.9-1.1c0-0.6-0.4-1.1-0.9-1.1C13.2,14.9,12.9,15.3,12.9,16z"/>
	<path class="st10" d="M24,15.6c0,0.2,0,0.4,0,0.6c0,0.7-0.1,1.3-0.8,1.6c-0.7,0.3-1.5,0.3-2.2-0.1c-0.4-0.2-0.6-0.7-0.6-1.1
		c0-0.7,0-1.3,0-2c0-0.4,0.1-0.6,0.5-0.6s0.5,0.3,0.5,0.6c0,0.6,0,1.1,0,1.7c0,0.5,0.3,0.8,0.7,0.8c0.5,0,0.7-0.3,0.7-0.8
		c0-0.6,0-1.1,0-1.7c0-0.4,0.1-0.7,0.5-0.7c0.5,0,0.5,0.3,0.5,0.7C24,15,24,15.3,24,15.6z"/>
	<path class="st10" d="M26,18c-0.4,0-0.8-0.1-1.1-0.3c-0.3-0.2-0.5-0.4-0.3-0.7c0.2-0.3,0.5-0.3,0.8-0.2c0.2,0.1,0.4,0.3,0.7,0.3
		c0.2,0,0.4,0,0.4-0.2c0.1-0.2-0.1-0.3-0.3-0.4c-0.3-0.1-0.6-0.2-0.9-0.4c-0.4-0.2-0.7-0.6-0.7-1.1c0.1-0.5,0.4-0.9,0.9-1
		c0.6-0.2,1.1-0.1,1.6,0.2c0.3,0.2,0.5,0.4,0.3,0.7S27,15.2,26.7,15c-0.3-0.1-0.8-0.4-0.9,0c-0.2,0.5,0.4,0.4,0.7,0.6h0.1
		c0.8,0.3,1.1,0.7,1,1.3C27.4,17.6,26.7,18,26,18z"/>
	<path class="st10" d="M10.2,18c-0.8,0-1.5-0.5-1.8-1.2C8.1,16,8.3,15,8.9,14.5s1.5-0.7,2.2-0.3c0.3,0.1,0.5,0.3,0.4,0.7
		s-0.4,0.3-0.7,0.2c-0.4-0.2-0.8-0.2-1.1,0.1S9.3,16,9.4,16.4C9.6,17,10,17.2,10.8,17c0.3-0.1,0.6-0.1,0.7,0.2
		c0.1,0.4-0.1,0.5-0.4,0.7C10.8,17.9,10.5,18,10.2,18z"/>
	<path class="st9" d="M17.2,15.9c0-0.6,0.4-1,0.8-1c0.5,0,0.9,0.5,0.9,1.1s-0.4,1-0.8,1C17.6,17.1,17.2,16.6,17.2,15.9z"/>
	<path class="st9" d="M12.9,16c0-0.6,0.4-1.1,0.9-1.1s0.9,0.5,0.9,1.1s-0.4,1.1-0.9,1.1C13.2,17,12.9,16.6,12.9,16z"/>
</g>
<path class="st11" d="M23.5,7.2c0.1,0.4,0,0.7-0.1,1c-0.2,0.5-0.3,1-0.3,1.5s0,0.9,0,1.4c0,1-0.1,1.9-0.1,2.9c0,0.5,0,1,0.1,1.6
	c0,0.3,0.2,0.5,0.5,0.6c0.6,0.2,1,0,1-0.6c0.1-0.8,0.1-1.6,0-2.5c0-1.1-0.1-2.1-0.1-3.2c0-0.6-0.1-1.2-0.3-1.8
	c-0.3-0.8-0.2-1.4,0.5-1.8C24.9,6.2,25,6,25.1,5.9c-0.1,0-0.2,0-0.2,0c-3.7,0-7.3,0-11,0c-0.1,0-0.3,0.1-0.4,0.1
	c-2.1,1.8-4.3,3.7-6.4,5.6C7,11.7,7,11.7,6.8,11.8c0.8,0,1.5,0,2.2,0c0.7,0,1.4,0,2.1,0c0.1,1.3,0.5,2.4,1.5,3.2c1,0.8,2.2,1,3.5,1
	c-0.5,1-0.1,1.8,0.4,2.7h-0.1c-0.1,0-0.2,0-0.3,0c-1.3,0.1-2.5,0.2-3.7,0.7c-1.1,0.5-1.9,1.2-2.3,2.3c-0.4,1-0.3,1.9,0.4,2.7
	c0.4,0.4,0.8,0.8,1.3,1c2.5,1.3,5.1,1.2,7.6-0.1c2.1-1.1,2.4-3.2,1.9-4.9c-0.2-0.7-0.6-1.2-1.2-1.6c-0.5-0.4-1-0.7-1.5-1.1
	c-0.3-0.3-0.6-0.6-0.6-1c-0.1-0.6,0.1-1,0.5-1.4c0.4-0.3,0.8-0.6,1.1-0.9c0.9-0.9,1.3-1.9,1-3.1c-0.1-0.4-0.2-0.7-0.3-1.1
	c-0.1-0.3,0-0.6,0.2-0.8c1-0.8,1.8-1.4,2.5-2C23.2,7.3,23.3,7.3,23.5,7.2z"/>
<path class="st0" d="M16.4,25.4c-1.1,0-2.1-0.2-3-0.8c-1-0.7-1.5-1.6-1.3-2.9c0.1-0.7,0.5-1.2,1-1.6c1.5-1.1,4-1.4,6,0
	c1,0.7,1.3,1.7,1.1,2.9c-0.1,0.7-0.5,1.2-1.1,1.6C18.3,25.2,17.3,25.4,16.4,25.4z"/>
<path class="st0" d="M18.9,12.5c0,0.8-0.2,1.6-0.7,2.2c-0.6,0.7-1.3,0.9-2.1,0.6c-2-0.7-3.3-3.6-2.6-5.5c0.5-1.3,1.9-1.9,3.2-1.2
	c1.3,0.7,1.9,1.8,2.2,3.1c0,0.1,0,0.2,0.1,0.3C18.9,12.2,18.9,12.4,18.9,12.5z"/>
</svg>
