<?xml version="1.0" encoding="utf-8"?>
<!-- Generator: Adobe Illustrator 23.0.1, SVG Export Plug-In . SVG Version: 6.00 Build 0)  -->
<svg version="1.1" id="Layer_1" xmlns="http://www.w3.org/2000/svg" xmlns:xlink="http://www.w3.org/1999/xlink" x="0px" y="0px"
	 viewBox="0 0 256 281" style="enable-background:new 0 0 256 281;" xml:space="preserve">
<style type="text/css">
	.st0{display:none;}
	.st1{display:inline;fill:#F68212;}
	.st2{fill:#989898;}
</style>
<g class="st0">
	<path class="st1" d="M198,165.6c-1.5-3.6-3.3-7.1-5.4-10.4V94.6c0-17.2-6.7-33.4-18.9-45.5c-12.2-12.2-28.3-18.9-45.5-18.9
		c-17.2,0-33.4,6.7-45.6,18.9S63.7,77.4,63.7,94.6v8.8h25.8v-8.8c0-21.3,17.3-38.6,38.6-38.6c21.3,0,38.6,17.3,38.6,38.6v35.2
		c-3-1.7-6-3.3-9.2-4.7c-9.4-4-19.3-6-29.6-6c-10.2,0-20.2,2-29.6,6c-9,3.8-17.2,9.3-24.1,16.3c-7,7-12.4,15.1-16.3,24.1
		c-4,9.4-6,19.3-6,29.6s2,20.2,6,29.6c3.8,9,9.3,17.2,16.3,24.1c7,7,15.1,12.4,24.1,16.3c9.4,4,19.3,6,29.5,6s20.2-2,29.6-6
		c9-3.8,17.2-9.3,24.1-16.3c7-7,12.4-15.1,16.3-24.1c4-9.4,6-19.3,6-29.6S201.9,174.9,198,165.6z M128,245.3
		c-27.7,0-50.2-22.5-50.2-50.2S100.3,145,128,145s50.2,22.5,50.2,50.2S155.6,245.3,128,245.3z"/>
	<circle class="st1" cx="128.2" cy="195.4" r="21.3"/>
</g>
<g>
	<path class="st2" d="M198.8,165.1c-1.5-3.7-3.4-7.2-5.5-10.6V93.3c0-17.4-6.8-33.7-19.1-46c-12.3-12.3-28.6-19.1-46-19.1
		c-17.4,0-33.8,6.8-46,19.1s-19.1,28.6-19.1,46v8.9h26.1v-8.9c0-21.5,17.5-39,39.1-39c21.5,0,39,17.5,39,39v35.6
		c-3-1.8-6.1-3.4-9.3-4.7c-9.5-4-19.5-6-29.9-6s-20.4,2-29.9,6c-9.1,3.9-17.3,9.4-24.4,16.5c-7,7-12.6,15.3-16.5,24.4
		c-4,9.5-6,19.5-6,29.9s2,20.4,6,29.9c3.9,9.1,9.4,17.3,16.5,24.4c7,7,15.3,12.6,24.4,16.5c9.5,4,19.5,6,29.9,6s20.4-2,29.9-6
		c9.1-3.9,17.3-9.4,24.4-16.5c7-7,12.6-15.3,16.5-24.4c4-9.5,6-19.5,6-29.9S202.8,174.6,198.8,165.1z M128,245.7
		c-28,0-50.7-22.8-50.7-50.7s22.8-50.7,50.7-50.7s50.7,22.8,50.7,50.7S156,245.7,128,245.7z"/>
	<ellipse class="st2" cx="128.3" cy="195.2" rx="21.5" ry="21.5"/>
</g>
</svg>
