<?xml version="1.0" encoding="utf-8"?>
<!-- Generator: Adobe Illustrator 23.0.6, SVG Export Plug-In . SVG Version: 6.00 Build 0)  -->
<svg version="1.1" id="Layer_1" xmlns="http://www.w3.org/2000/svg" xmlns:xlink="http://www.w3.org/1999/xlink" x="0px" y="0px"
	 viewBox="0 0 256 281" style="enable-background:new 0 0 256 281;" xml:space="preserve">
<g>
	<path d="M198,165.6c-1.5-3.6-3.3-7.1-5.4-10.4V94.6c0-17.2-6.7-33.4-18.9-45.5c-12.2-12.2-28.3-18.9-45.5-18.9s-33.4,6.7-45.6,18.9
		S63.7,77.4,63.7,94.6v62.3h25.8V94.6c0-21.3,17.3-38.6,38.6-38.6s38.6,17.3,38.6,38.6v35.2c-3-1.7-6-3.3-9.2-4.7
		c-9.4-4-19.3-6-29.6-6c-10.2,0-20.2,2-29.6,6c-9,3.8-17.2,9.3-24.1,16.3c-7,7-12.4,15.1-16.3,24.1c-4,9.4-6,19.3-6,29.6
		s2,20.2,6,29.6c3.8,9,9.3,17.2,16.3,24.1c7,7,15.1,12.4,24.1,16.3c9.4,4,19.3,6,29.5,6s20.2-2,29.6-6c9-3.8,17.2-9.3,24.1-16.3
		c7-7,12.4-15.1,16.3-24.1c4-9.4,6-19.3,6-29.6S201.9,174.9,198,165.6z M128,245.3c-27.7,0-50.2-22.5-50.2-50.2S100.3,145,128,145
		s50.2,22.5,50.2,50.2S155.6,245.3,128,245.3z"/>
	<circle cx="128.2" cy="195.4" r="21.3"/>
</g>
</svg>
