<?xml version="1.0" encoding="utf-8"?>
<svg version="1.1" id="Layer_1" xmlns="http://www.w3.org/2000/svg" xmlns:xlink="http://www.w3.org/1999/xlink" x="0px" y="0px"
	 viewBox="0 0 1000 1000" style="enable-background:new 0 0 1000 1000;" xml:space="preserve">
<style type="text/css">
	.st0{fill:#FFFFFF;}
	.st1{fill:#989898;}
</style>
<rect x="180" y="0" class="st0" width="640" height="1000"/>
<g>
	<path class="st1" d="M784.2,560.6c-6.2-14.8-13.6-28.9-21.9-42.4V272.4c-0.1-69.8-27.3-135.5-76.7-184.9
		C636.2,38,570.5,10.8,500.7,10.8c-69.9,0-135.6,27.2-185,76.6c-49.4,49.4-76.6,115.1-76.6,185v35.7h104.8v-35.7
		c0-86.5,70.4-156.8,156.9-156.8c86.4,0,156.7,70.4,156.8,156.8v143c-12-7.1-24.5-13.5-37.4-18.9c-38.1-16.1-78.5-24.3-120.1-24.3
		c-41.6,0-82,8.2-120.1,24.3c-36.7,15.5-69.7,37.8-98,66.1c-28.3,28.3-50.5,61.3-66.1,98c-16.1,38.1-24.3,78.5-24.3,120.1
		s8.2,82,24.3,120.1c15.5,36.7,37.8,69.7,66.1,98c28.3,28.3,61.3,50.5,98,66.1C418,981,458.4,989.2,500,989.2
		c41.6,0,82-8.2,120.1-24.3c36.7-15.5,69.7-37.8,98-66.1s50.5-61.3,66.1-98c16.1-38.1,24.3-78.5,24.3-120.1S800.3,598.7,784.2,560.6
		z M500,884.4c-112.3,0-203.7-91.4-203.7-203.7C296.3,568.4,387.7,477,500,477c112.3,0,203.7,91.4,203.7,203.7
		C703.7,793,612.3,884.4,500,884.4z"/>
		<ellipse transform="matrix(0.7071 -0.7071 0.7071 0.7071 -335.2952 553.9258)" class="st1" cx="501" cy="681.7" rx="86.4" ry="86.4"/>
</g>
</svg>
