<svg
        xmlns="http://www.w3.org/2000/svg"
        viewBox="0 0 166.4 156.16"
        width="16"
        height="16"
        fill="none"
>
  <path
          fill="currentColor"
          d="m 31.359999,155.62441 c -7.316628,-1.59543 -9.877512,-2.60372 -14.557401,-5.73165 -4.122079,-2.75509 -7.4779666,-6.11571 -10.2039516,-10.21834 -2.664311,-4.0098 -3.727954,-6.48699 -5.072005,-11.81255 -0.93780702,-3.71588 -1.03787402,-4.5657 -1.03095102,-8.75533 0.0069,-4.18319 0.111759,-5.04955 1.06498302,-8.8 2.302817,-9.06042 7.012207,-16.050143 14.3030706,-21.228773 5.113986,-3.632415 9.063281,-5.111563 18.913495,-7.083759 6.660127,-1.333482 11.730657,-5.044834 14.462893,-10.586054 2.502846,-5.075995 2.881127,-10.109212 1.144828,-15.232517 -0.46765,-1.379896 -0.882427,-2.652901 -0.921727,-2.828901 -0.0393,-0.176 -0.38892,-1.321138 -0.776933,-2.544752 C 46.051405,42.492553 45.64432,36.954587 47.179735,30.306536 48.734751,23.573612 49.945476,20.799242 53.480473,15.86843 57.777125,9.8752186 64.434727,4.9862314 71.199998,2.8561582 c 7.89285,-2.48509625 13.58323,-2.72719335 20.92252,-0.8901484 5.17225,1.2946275 7.68327,2.3791765 11.654682,5.0338466 4.14335,2.7695946 7.47988,6.1061266 10.24947,10.2494706 2.67498,4.001797 3.74255,6.48904 5.07197,11.816838 0.9069,3.634447 1.02954,4.648707 1.03996,8.600371 0.0106,4.017456 -0.0955,4.905586 -1.02766,8.602045 -0.57171,2.267124 -1.40502,5.003124 -1.8518,6.08 -3.01732,7.272657 -3.04757,13.079978 -0.0993,19.059373 2.85943,5.799176 9.28337,10.211743 16.05093,11.025279 3.06045,0.367901 9.40976,2.168615 11.9092,3.377545 3.29666,1.594523 7.73387,4.752782 10.27183,7.311144 2.50451,2.524652 5.57031,6.973228 7.16682,10.399318 0.67285,1.44392 1.69916,4.4973 2.28068,6.7853 0.95322,3.75045 1.05807,4.61681 1.06498,8.8 0.007,4.18963 -0.0931,5.03945 -1.03095,8.75533 -1.34405,5.32556 -2.40769,7.80275 -5.072,11.81255 -2.73722,4.11954 -6.08411,7.46468 -10.26415,10.2588 -3.99234,2.66866 -6.4862,3.74103 -11.82187,5.08346 -3.65117,0.91862 -4.62063,1.03621 -8.59533,1.04263 -4.64901,0.008 -7.48193,-0.47044 -12.64,-2.13251 -6.12358,-1.97317 -12.69011,-6.775 -16.765992,-12.26026 -3.78279,-5.09081 -5.21288,-8.27429 -6.75629,-15.04 -1.34909,-5.91389 -1.24857,-9.99016 0.4064,-16.48 0.79181,-3.10504 1.71739,-5.85756 2.47491,-7.36 1.64897,-3.27052 2.37217,-5.490889 2.59909,-7.979743 0.7199,-7.89557 -5.0341,-15.194496 -12.94345,-16.41875 -8.27774,-1.281274 -16.12811,4.521862 -17.42158,12.878338 -0.51473,3.325491 -0.009,5.913743 2.01165,10.293355 1.11497,2.41671 2.09745,5.28172 2.94463,8.5868 1.13012,4.40894 1.27235,5.38663 1.28015,8.8 0.0138,6.05447 -2.01763,13.95411 -4.75315,18.48337 -3.94922,6.53881 -9.290079,11.67064 -15.314915,14.71554 -6.714854,3.39363 -16.470517,4.87691 -22.881434,3.47896 z"
  />
</svg>