<?xml version="1.0" encoding="utf-8"?>
<!-- Generator: Adobe Illustrator 23.0.5, SVG Export Plug-In . SVG Version: 6.00 Build 0)  -->
<svg version="1.1" id="Layer_1" xmlns="http://www.w3.org/2000/svg" xmlns:xlink="http://www.w3.org/1999/xlink" x="0px" y="0px"
	 viewBox="0 0 64 64" style="enable-background:new 0 0 64 64;" xml:space="preserve">
<style type="text/css">
	.st0{fill:#7F7F7F;}
	.st1{fill:#FFFFFF;}
</style>
<path class="st0" d="M0,0c21.4,0,42.7,0,64,0c0,21.4,0,42.6,0,64c-21.3,0-42.6,0-64,0C0,42.7,0,21.4,0,0z"/>
<path class="st1" d="M43.9,25.2H20.1c-2.8,0-5.1,2.3-5.1,5.1v10.2h6.8v6.8h20.4v-6.8H49V30.3C49,27.5,46.7,25.2,43.9,25.2z
	 M38.8,43.9H25.2v-8.5h13.6V43.9z M43.9,32c-0.9,0-1.7-0.8-1.7-1.7c0-0.9,0.8-1.7,1.7-1.7s1.7,0.8,1.7,1.7
	C45.6,31.2,44.8,32,43.9,32z M42.2,16.7H21.8v6.8h20.4V16.7z"/>
</svg>
