<?xml version="1.0" encoding="utf-8"?>
<!-- Generator: Adobe Illustrator 23.0.5, SVG Export Plug-In . SVG Version: 6.00 Build 0)  -->
<svg version="1.1" id="Layer_1" xmlns="http://www.w3.org/2000/svg" xmlns:xlink="http://www.w3.org/1999/xlink" x="0px" y="0px"
	 viewBox="0 0 64 64" style="enable-background:new 0 0 64 64;" xml:space="preserve">
<style type="text/css">
	.st0{fill:#00CDBC;}
	.st1{fill:#FFFFFF;}
</style>
<path class="st0" d="M58,64H6c-3.2,0-6-2.8-6-6V6c0-3.2,2.8-6,6-6h52c3.2,0,6,2.8,6,6v52C64,61.2,61.2,64,58,64z"/>
<title  id="at-svg-researchgate-2">ResearchGate</title>
<g>
	<path class="st1" d="M23.2,19.1c2.2,0,3.8,0.5,5,1.6c1.3,1.1,1.7,2.7,1.7,4.9c0,1.7-0.3,3.1-1.1,4.2c-0.6,1.1-1.7,1.7-3.1,2l0,0
		c1.3,0.2,2.2,0.6,2.8,1.3s0.9,1.7,1.1,3.1c0,0.5,0.2,0.9,0.2,1.6s0,1.3,0,1.9c0,1.4,0.2,2.4,0.2,3.1c0.2,0.8,0.5,1.3,0.9,1.4v0.3
		h-5.5c-0.3-0.3-0.5-0.8-0.5-1.3s-0.2-0.9-0.2-1.4L24.6,37c0-0.9-0.3-1.7-0.8-2.4c-0.5-0.6-1.3-0.8-2.4-0.8H19v10.7h-5.2V19.1H23.2
		L23.2,19.1z M21,30.2c1.3,0,2.2-0.3,2.8-0.9s0.9-1.6,0.9-3c0-2.4-1.3-3.5-3.6-3.5H19v7.4H21L21,30.2z M44.9,25.2
		c-0.2-0.5-0.3-0.9-0.5-1.4c-0.2-0.5-0.5-0.8-0.9-1.1c-0.5-0.2-0.8-0.3-1.4-0.3c-1.3,0-2.2,0.6-2.7,2c-0.6,1.4-0.8,3.6-0.8,6.9
		c0,1.6,0,2.8,0.2,4.1c0.2,1.3,0.3,2.4,0.5,3.1c0.3,0.9,0.6,1.6,1.1,2c0.5,0.5,1.1,0.6,1.7,0.6c0.3,0,0.6-0.2,0.9-0.3
		c0.3-0.2,0.8-0.5,1.1-0.8c0.3-0.3,0.6-0.8,0.8-1.3s0.3-1.1,0.3-1.7v-2.7h-3.5v-3.8H50v13.8h-3.8v-2.4l0,0c-0.6,0.9-1.4,1.7-2.2,2.2
		c-0.9,0.5-1.9,0.6-3.1,0.6c-1.6,0-2.8-0.3-3.8-0.8c-0.9-0.5-1.7-1.4-2.4-2.5s-0.9-2.5-1.1-4.2c-0.2-1.7-0.2-3.8-0.2-6
		c0-2.2,0.2-4.1,0.5-5.6c0.3-1.6,0.8-3,1.4-4.1c0.6-1.1,1.6-1.9,2.7-2.5c1.1-0.5,2.5-0.8,4.1-0.8c2.8,0,4.9,0.6,6.1,2
		c1.3,1.4,1.9,3.5,1.9,6h-4.9C45,26.1,45,25.7,44.9,25.2L44.9,25.2z"/>
</g>
</svg>
