<?xml version="1.0" encoding="utf-8"?>
<!-- Generator: Adobe Illustrator 20.1.0, SVG Export Plug-In . SVG Version: 6.00 Build 0)  -->
<svg version="1.1" id="Layer_2" xmlns="http://www.w3.org/2000/svg" xmlns:xlink="http://www.w3.org/1999/xlink" x="0px" y="0px"
	 viewBox="0 0 32 32" style="enable-background:new 0 0 32 32;" xml:space="preserve">
<style type="text/css">
	.st0{fill:#FFFFFF;}
	.st1{fill:#652EFC;}
	.st2{fill:#28C102;}
	.st3{fill:#020202;}
</style>
<rect class="st0" width="32" height="32"/>
<g>
	<path class="st1" d="M24,16C20.9,12.3,17,10,12.2,9c-0.1,0-0.3-0.1-0.4-0.1c0,0,0,0,0,0l0,0c0.9-1.6,1.8-3.2,2.7-4.8
		C14.5,4,14.9,3.9,15,3.9c4.6,1.2,8.5,3.5,11.8,6.9c0.1,0.1,0.2,0.5,0.1,0.6C26,12.9,25,14.5,24,16C24.1,16,24,16,24,16z"/>
	<path class="st2" d="M24,16C24,16,24.1,16,24,16c1,1.6,2,3.2,3,4.8c0.1,0.1-0.1,0.4-0.2,0.5c-3.3,3.3-7.3,5.7-11.9,6.8
		c-0.2,0.1-0.6-0.1-0.7-0.3c-0.8-1.5-1.6-2.9-2.4-4.4c0-0.1,0.1-0.4,0.2-0.4C16.9,22.1,20.9,19.7,24,16z"/>
	<path class="st3" d="M11.8,8.9L11.8,8.9C11.8,8.9,11.8,8.9,11.8,8.9c-0.4,1.6-0.8,3.2-1.1,4.8c-0.4,3.1,0,6.1,0.9,9
		c0,0.1-0.1,0.4-0.2,0.4c-1.8,0.1-3.5,0.1-5.3,0.1c-0.1,0-0.2-0.2-0.3-0.3c-1.3-4.6-1.2-9.3,0-13.9c0-0.1,0.2-0.3,0.2-0.3
		C8,8.8,9.9,8.9,11.8,8.9z"/>
</g>
</svg>
