<?xml version="1.0" encoding="utf-8"?>
<!-- Generator: Adobe Illustrator 20.1.0, SVG Export Plug-In . SVG Version: 6.00 Build 0)  -->
<svg version="1.1" id="Layer_1" xmlns="http://www.w3.org/2000/svg" xmlns:xlink="http://www.w3.org/1999/xlink" x="0px" y="0px"
	 viewBox="0 0 32 32" style="enable-background:new 0 0 32 32;" xml:space="preserve">
<style type="text/css">
	.st0{display:none;}
	.st1{display:inline;}
	.st2{fill:url(#path2488_1_);}
	.st3{fill:url(#path2510_1_);}
	.st4{fill:url(#path2532_1_);}
	.st5{fill:url(#path2554_1_);}
	.st6{fill:url(#path2576_1_);}
	.st7{fill:#FF6D00;}
</style>
<g id="svg3092" xmlns:svg="http://www.w3.org/2000/svg" class="st0">
	<g id="g2468" transform="matrix(1.25,0,0,-1.25,-503.275,83.22375)" class="st1">
		<g id="g2470">
			<g id="g2476">
				<g id="g2478">
					
						<linearGradient id="path2488_1_" gradientUnits="userSpaceOnUse" x1="1015.7546" y1="-168.9379" x2="1015.8841" y2="-168.9379" gradientTransform="matrix(-127.603 -69.3857 -68.8828 128.5345 118395.25 92248.8438)">
						<stop  offset="0" style="stop-color:#F79210"/>
						<stop  offset="0.5" style="stop-color:#F35C19"/>
						<stop  offset="1" style="stop-color:#F79210"/>
					</linearGradient>
					<path id="path2488" class="st2" d="M414.6,57.7c-0.2-0.1-0.3-0.4-0.2-0.6l0,0c0.1-0.2,0.4-0.3,0.6-0.2l0,0
						c0.2,0.1,0.3,0.4,0.2,0.6l0,0c-0.1,0.1-0.2,0.2-0.4,0.2l0,0C414.7,57.8,414.6,57.8,414.6,57.7 M415.7,57.7
						c-0.2-0.1-0.3-0.3-0.2-0.5l0,0c0.1-0.2,0.3-0.3,0.5-0.2l0,0c0.2,0.1,0.3,0.3,0.2,0.5l0,0c-0.1,0.1-0.2,0.2-0.3,0.2l0,0
						C415.8,57.8,415.8,57.8,415.7,57.7 M413.5,57.4c-0.2-0.1-0.3-0.4-0.2-0.7l0,0c0.1-0.2,0.4-0.3,0.7-0.2l0,0
						c0.2,0.1,0.3,0.4,0.2,0.7l0,0c-0.1,0.2-0.3,0.3-0.4,0.3l0,0C413.6,57.5,413.5,57.5,413.5,57.4 M416.8,57.4
						c-0.2-0.1-0.2-0.3-0.1-0.5l0,0c0.1-0.2,0.3-0.2,0.5-0.1l0,0c0.2,0.1,0.2,0.3,0.1,0.5l0,0c-0.1,0.1-0.2,0.2-0.3,0.2l0,0
						C416.9,57.4,416.9,57.4,416.8,57.4 M412.6,56.7c-0.2-0.1-0.3-0.4-0.2-0.6l0,0c0.1-0.2,0.4-0.3,0.6-0.2l0,0
						c0.2,0.1,0.3,0.4,0.2,0.6l0,0c-0.1,0.1-0.2,0.2-0.4,0.2l0,0C412.7,56.7,412.7,56.7,412.6,56.7 M417.8,56.7
						c-0.1-0.1-0.2-0.3-0.1-0.4l0,0c0.1-0.1,0.2-0.2,0.4-0.1l0,0c0.1,0.1,0.2,0.3,0.1,0.4l0,0c-0.1,0.1-0.2,0.2-0.3,0.2l0,0
						C417.9,56.7,417.8,56.7,417.8,56.7 M418.5,55.7c-0.1-0.1-0.2-0.2-0.1-0.3l0,0c0.1-0.1,0.2-0.2,0.3-0.1l0,0
						c0.1,0.1,0.2,0.2,0.1,0.3l0,0C418.8,55.7,418.7,55.7,418.5,55.7L418.5,55.7C418.6,55.7,418.5,55.7,418.5,55.7 M412,55.7
						c-0.2-0.1-0.3-0.3-0.2-0.5l0,0c0.1-0.2,0.3-0.3,0.5-0.2l0,0c0.2,0.1,0.3,0.3,0.2,0.5l0,0c-0.1,0.1-0.2,0.2-0.3,0.2l0,0
						C412.1,55.7,412,55.7,412,55.7 M418.8,54.7c-0.1-0.1-0.2-0.3-0.1-0.4l0,0c0.1-0.1,0.2-0.2,0.4-0.1l0,0c0.1,0.1,0.2,0.3,0.1,0.4
						l0,0c-0.1,0.1-0.2,0.2-0.3,0.2l0,0C418.9,54.7,418.9,54.7,418.8,54.7 M411.7,54.6c-0.2-0.1-0.2-0.3-0.1-0.5l0,0
						c0.1-0.2,0.3-0.2,0.5-0.1l0,0c0.2,0.1,0.2,0.3,0.1,0.5l0,0c-0.1,0.1-0.2,0.2-0.3,0.2l0,0C411.8,54.6,411.7,54.6,411.7,54.6
						 M418.8,53.6c-0.2-0.1-0.2-0.3-0.1-0.5l0,0c0.1-0.2,0.3-0.2,0.5-0.1l0,0c0.2,0.1,0.2,0.3,0.1,0.5l0,0c-0.1,0.1-0.2,0.2-0.3,0.2
						l0,0C418.9,53.6,418.9,53.6,418.8,53.6 M411.7,53.4c-0.1-0.1-0.2-0.3-0.1-0.4l0,0c0.1-0.1,0.3-0.2,0.4-0.1l0,0
						c0.1,0.1,0.2,0.3,0.1,0.4l0,0c-0.1,0.1-0.2,0.2-0.3,0.2l0,0C411.8,53.4,411.8,53.4,411.7,53.4 M418.5,52.5
						c-0.2-0.1-0.3-0.3-0.2-0.5l0,0c0.1-0.2,0.3-0.3,0.5-0.2l0,0c0.2,0.1,0.3,0.3,0.2,0.5l0,0c-0.1,0.1-0.2,0.2-0.3,0.2l0,0
						C418.6,52.6,418.6,52.6,418.5,52.5 M412.1,52.3c-0.1-0.1-0.2-0.2-0.1-0.3l0,0c0.1-0.1,0.2-0.2,0.3-0.1l0,0
						c0.1,0.1,0.2,0.2,0.1,0.3l0,0C412.4,52.3,412.3,52.3,412.1,52.3L412.1,52.3C412.2,52.3,412.2,52.3,412.1,52.3 M417.8,51.7
						c-0.2-0.1-0.3-0.4-0.2-0.6l0,0c0.1-0.2,0.4-0.3,0.6-0.2l0,0c0.2,0.1,0.3,0.4,0.2,0.6l0,0c-0.1,0.1-0.2,0.2-0.4,0.2l0,0
						C418,51.7,417.9,51.7,417.8,51.7 M412.8,51.4c-0.1-0.1-0.2-0.3-0.1-0.4l0,0c0.1-0.1,0.2-0.2,0.4-0.1l0,0
						c0.1,0.1,0.2,0.2,0.1,0.4l0,0c-0.1,0.1-0.1,0.1-0.3,0.1l0,0H412.8 M416.9,51c-0.2-0.1-0.3-0.4-0.2-0.7l0,0
						c0.1-0.2,0.4-0.3,0.7-0.2l0,0c0.2,0.1,0.3,0.4,0.2,0.7l0,0c-0.1,0.2-0.3,0.3-0.4,0.3l0,0C417.1,51.1,417,51.1,416.9,51
						 M413.7,50.8c-0.2-0.1-0.2-0.3-0.1-0.5l0,0c0.1-0.2,0.3-0.2,0.4-0.1l0,0c0.2,0.1,0.2,0.3,0.1,0.5l0,0c-0.1,0.1-0.2,0.2-0.3,0.2
						l0,0C413.8,50.8,413.8,50.8,413.7,50.8 M415.9,50.6c-0.2-0.1-0.3-0.4-0.2-0.6l0,0c0.1-0.2,0.4-0.3,0.6-0.2l0,0
						c0.2,0.1,0.3,0.4,0.2,0.6l0,0c-0.1,0.1-0.2,0.2-0.4,0.2l0,0C416,50.6,415.9,50.6,415.9,50.6 M414.8,50.5
						c-0.2-0.1-0.3-0.3-0.2-0.5l0,0c0.1-0.2,0.3-0.3,0.5-0.2l0,0c0.2,0.1,0.3,0.3,0.2,0.5l0,0c-0.1,0.1-0.2,0.2-0.3,0.2l0,0
						C414.9,50.6,414.8,50.5,414.8,50.5"/>
				</g>
			</g>
		</g>
	</g>
	<g id="g2490" transform="matrix(1.25,0,0,-1.25,-503.275,83.22375)" class="st1">
		<g id="g2492">
			<g id="g2498">
				<g id="g2500">
					
						<linearGradient id="path2510_1_" gradientUnits="userSpaceOnUse" x1="1014.0393" y1="-168.0417" x2="1014.1687" y2="-168.0417" gradientTransform="matrix(-187.3506 55.4256 55.0238 188.7186 199647.5156 -24438.8691)">
						<stop  offset="0" style="stop-color:#F79210"/>
						<stop  offset="0.5" style="stop-color:#F35C19"/>
						<stop  offset="1" style="stop-color:#F79210"/>
					</linearGradient>
					<path id="path2510" class="st3" d="M414.8,58.9c-0.1-0.3,0.1-0.6,0.4-0.7l0,0c0.3-0.1,0.6,0.1,0.7,0.4l0,0
						c0.1,0.3-0.1,0.6-0.4,0.7l0,0c-0.1,0-0.1,0-0.2,0l0,0C415,59.3,414.8,59.2,414.8,58.9 M416.2,58.7c-0.1-0.3,0.1-0.7,0.4-0.8
						l0,0c0.3-0.1,0.7,0.1,0.8,0.4l0,0c0.1,0.3-0.1,0.7-0.4,0.8l0,0c-0.1,0-0.1,0-0.2,0l0,0C416.5,59.2,416.3,59,416.2,58.7
						 M413.3,58.6c-0.1-0.3,0.1-0.5,0.3-0.6l0,0c0.3-0.1,0.5,0.1,0.6,0.3l0,0c0.1,0.3-0.1,0.5-0.3,0.6l0,0h-0.1l0,0
						C413.6,59,413.4,58.8,413.3,58.6 M417.7,58c-0.1-0.3,0.1-0.6,0.4-0.7l0,0c0.3-0.1,0.6,0.1,0.7,0.4l0,0c0.1,0.3-0.1,0.6-0.4,0.7
						l0,0c-0.1,0-0.1,0-0.2,0l0,0C418,58.4,417.8,58.3,417.7,58 M412,57.8c-0.1-0.2,0.1-0.4,0.3-0.5l0,0c0.2-0.1,0.4,0.1,0.5,0.3
						l0,0c0.1,0.2-0.1,0.4-0.3,0.5l0,0h-0.1l0,0C412.2,58.1,412.1,58,412,57.8 M418.9,57c-0.1-0.3,0.1-0.5,0.3-0.6l0,0
						c0.3-0.1,0.5,0.1,0.6,0.3l0,0c0.1,0.3-0.1,0.5-0.3,0.6l0,0h-0.1l0,0C419.1,57.3,418.9,57.2,418.9,57 M411,56.7
						c0-0.2,0-0.3,0.2-0.4l0,0c0.2,0,0.3,0,0.4,0.2l0,0c0.1,0.2,0,0.3-0.2,0.4l0,0h-0.1l0,0C411.2,56.9,411.1,56.8,411,56.7
						 M419.7,55.6c-0.1-0.2,0.1-0.4,0.3-0.5l0,0c0.2-0.1,0.4,0.1,0.5,0.3l0,0c0.1,0.2-0.1,0.4-0.3,0.5l0,0h-0.1l0,0
						C419.9,55.8,419.8,55.7,419.7,55.6 M410.5,55.2c0-0.1,0-0.3,0.2-0.3l0,0c0.1,0,0.3,0,0.3,0.2l0,0c0,0.1,0,0.3-0.2,0.3l0,0
						c0,0,0,0-0.1,0l0,0C410.6,55.4,410.5,55.3,410.5,55.2 M420.1,54c0-0.2,0-0.3,0.2-0.4l0,0c0.2,0,0.3,0,0.4,0.2l0,0
						c0,0.2,0,0.3-0.2,0.4l0,0h-0.1l0,0C420.2,54.2,420.1,54.1,420.1,54 M410.2,53.7c0-0.2,0-0.3,0.2-0.4l0,0c0.2,0,0.3,0,0.4,0.2
						l0,0c0,0.2,0,0.3-0.2,0.4l0,0h-0.1l0,0C410.3,53.9,410.2,53.9,410.2,53.7 M419.9,52.4c0-0.1,0-0.3,0.2-0.3l0,0
						c0.1,0,0.3,0,0.3,0.2l0,0c0,0.1,0,0.3-0.2,0.3l0,0c0,0,0,0-0.1,0l0,0C420.1,52.6,420,52.5,419.9,52.4 M410.4,52.2
						c-0.1-0.2,0.1-0.4,0.3-0.5l0,0c0.2-0.1,0.4,0.1,0.5,0.3l0,0c0.1,0.2-0.1,0.4-0.3,0.5l0,0h-0.1l0,0
						C410.6,52.5,410.4,52.4,410.4,52.2 M419.2,51.1c0-0.2,0-0.3,0.2-0.4l0,0c0.2,0,0.3,0,0.4,0.2l0,0c0,0.2,0,0.3-0.2,0.4l0,0h-0.1
						l0,0C419.4,51.3,419.3,51.2,419.2,51.1 M411,50.9c-0.1-0.3,0.1-0.5,0.3-0.6l0,0c0.3-0.1,0.5,0.1,0.6,0.3l0,0
						c0.1,0.3-0.1,0.5-0.3,0.6l0,0h-0.1l0,0C411.3,51.2,411.1,51.1,411,50.9 M418.1,49.9c-0.1-0.2,0.1-0.4,0.3-0.5l0,0
						c0.2-0.1,0.4,0.1,0.5,0.3l0,0c0.1,0.2-0.1,0.4-0.3,0.5l0,0h-0.1l0,0C418.3,50.2,418.1,50.1,418.1,49.9 M412.1,49.8
						c-0.1-0.3,0.1-0.6,0.4-0.7l0,0c0.3-0.1,0.6,0.1,0.7,0.4l0,0c0.1,0.3-0.1,0.6-0.4,0.7l0,0c-0.1,0-0.1,0-0.2,0l0,0
						C412.4,50.2,412.2,50.1,412.1,49.8 M413.4,49.2c-0.1-0.3,0.1-0.7,0.4-0.8l0,0c0.3-0.1,0.7,0.1,0.8,0.4l0,0
						c0.1,0.3-0.1,0.7-0.4,0.8l0,0c-0.1,0-0.1,0-0.2,0l0,0C413.8,49.6,413.5,49.4,413.4,49.2 M416.6,49.2c-0.1-0.3,0.1-0.5,0.3-0.6
						l0,0c0.3-0.1,0.5,0.1,0.6,0.3l0,0c0.1,0.3-0.1,0.5-0.3,0.6l0,0h-0.1l0,0C416.9,49.6,416.7,49.4,416.6,49.2 M415,48.9
						c-0.1-0.3,0.1-0.6,0.4-0.7l0,0c0.3-0.1,0.6,0.1,0.7,0.4l0,0c0.1,0.3-0.1,0.6-0.4,0.7l0,0c-0.1,0-0.1,0-0.2,0l0,0
						C415.3,49.3,415.1,49.2,415,48.9"/>
				</g>
			</g>
		</g>
	</g>
	<g id="g2512" transform="matrix(1.25,0,0,-1.25,-503.275,83.22375)" class="st1">
		<g id="g2514">
			<g id="g2520">
				<g id="g2522">
					
						<linearGradient id="path2532_1_" gradientUnits="userSpaceOnUse" x1="1013.7532" y1="-167.0723" x2="1013.8826" y2="-167.0723" gradientTransform="matrix(-183.6636 185.0049 183.6636 185.0049 217294.9531 -156591.2188)">
						<stop  offset="0" style="stop-color:#F79210"/>
						<stop  offset="0.5" style="stop-color:#F35C19"/>
						<stop  offset="1" style="stop-color:#F79210"/>
					</linearGradient>
					<path id="path2532" class="st4" d="M415.8,60.8c-0.2-0.3-0.2-0.6,0-0.9l0,0c0.2-0.2,0.6-0.2,0.9,0l0,0c0.2,0.3,0.2,0.6,0,0.9
						l0,0c-0.1,0.1-0.3,0.2-0.4,0.2l0,0C416.1,61,415.9,60.9,415.8,60.8 M413.8,60.6c-0.2-0.2-0.2-0.5,0-0.7l0,0
						c0.2-0.2,0.5-0.2,0.7,0l0,0c0.2,0.2,0.2,0.5,0,0.7l0,0c-0.1,0.1-0.2,0.1-0.3,0.1l0,0C414.1,60.8,413.9,60.7,413.8,60.6
						 M417.7,60.3c-0.3-0.3-0.3-0.7,0-1l0,0c0.3-0.3,0.7-0.3,1,0l0,0c0.3,0.3,0.3,0.7,0,1l0,0c-0.1,0.1-0.3,0.2-0.5,0.2l0,0
						C418.1,60.5,417.9,60.4,417.7,60.3 M412,59.9c-0.1-0.2-0.1-0.4,0-0.6l0,0c0.2-0.1,0.4-0.1,0.6,0l0,0c0.1,0.2,0.1,0.4,0,0.6l0,0
						c-0.1,0.1-0.2,0.1-0.3,0.1l0,0C412.1,60,412,60,412,59.9 M419.4,59.2c-0.3-0.3-0.3-0.8,0-1.1l0,0c0.3-0.3,0.8-0.3,1.1,0l0,0
						c0.3,0.3,0.3,0.8,0,1.1l0,0c-0.2,0.1-0.4,0.2-0.5,0.2l0,0C419.7,59.4,419.5,59.3,419.4,59.2 M410.4,58.5
						c-0.1-0.1-0.1-0.3,0-0.4l0,0c0.1-0.1,0.3-0.1,0.4,0l0,0c0.1,0.1,0.1,0.3,0,0.4l0,0c-0.1,0.1-0.1,0.1-0.2,0.1l0,0
						C410.5,58.6,410.5,58.6,410.4,58.5 M420.7,57.5c-0.3-0.3-0.3-0.7,0-1l0,0c0.3-0.3,0.7-0.3,1,0l0,0c0.3,0.3,0.3,0.7,0,1l0,0
						c-0.1,0.1-0.3,0.2-0.5,0.2l0,0C421,57.7,420.8,57.6,420.7,57.5 M409.2,56.9c-0.2-0.2-0.1-0.4,0-0.6l0,0c0.2-0.1,0.4-0.1,0.6,0
						l0,0c0.1,0.2,0.1,0.4,0,0.6l0,0c-0.1,0.1-0.2,0.1-0.3,0.1l0,0C409.4,57,409.2,57,409.2,56.9 M421.5,55.4
						c-0.2-0.3-0.2-0.6,0-0.9l0,0c0.2-0.2,0.6-0.2,0.9,0l0,0c0.2,0.3,0.2,0.6,0,0.9l0,0c-0.1,0.1-0.3,0.2-0.4,0.2l0,0
						C421.7,55.6,421.6,55.6,421.5,55.4 M408.5,55c-0.2-0.2-0.2-0.5,0-0.7l0,0c0.2-0.2,0.5-0.2,0.7,0l0,0c0.2,0.2,0.2,0.5,0,0.7l0,0
						c-0.1,0.1-0.2,0.1-0.3,0.1l0,0C408.7,55.1,408.6,55.1,408.5,55 M421.6,53.3c-0.2-0.2-0.2-0.5,0-0.7l0,0c0.2-0.2,0.5-0.2,0.7,0
						l0,0c0.2,0.2,0.2,0.5,0,0.7l0,0c-0.1,0.1-0.2,0.1-0.3,0.1l0,0C421.8,53.4,421.7,53.4,421.6,53.3 M408.5,53
						c-0.2-0.3-0.2-0.6,0-0.9l0,0c0.3-0.2,0.6-0.2,0.9,0l0,0c0.2,0.3,0.2,0.6,0,0.9l0,0c-0.1,0.1-0.3,0.2-0.4,0.2l0,0
						C408.8,53.2,408.6,53.1,408.5,53 M421.1,51.2c-0.1-0.2-0.1-0.4,0-0.6l0,0c0.2-0.2,0.4-0.1,0.6,0l0,0c0.1,0.2,0.1,0.4,0,0.6l0,0
						c-0.1,0.1-0.2,0.1-0.3,0.1l0,0C421.3,51.3,421.2,51.3,421.1,51.2 M409.1,51.1c-0.3-0.3-0.3-0.7,0-1l0,0c0.3-0.3,0.7-0.3,1,0
						l0,0c0.3,0.3,0.3,0.7,0,1l0,0c-0.1,0.1-0.3,0.2-0.5,0.2l0,0C409.5,51.3,409.3,51.2,409.1,51.1 M410.3,49.5
						c-0.3-0.3-0.3-0.8,0-1.1l0,0c0.3-0.3,0.8-0.3,1.1,0l0,0c0.3,0.3,0.3,0.8,0,1.1l0,0c-0.2,0.1-0.4,0.2-0.6,0.2l0,0
						C410.7,49.8,410.5,49.7,410.3,49.5 M420,49.4c-0.1-0.1-0.1-0.3,0-0.4l0,0c0.1-0.1,0.3-0.1,0.4,0l0,0c0.1,0.1,0.1,0.3,0,0.4l0,0
						c-0.1,0.1-0.1,0.1-0.2,0.1l0,0C420.1,49.5,420.1,49.5,420,49.4 M412.1,48.2c-0.3-0.3-0.3-0.7,0-1l0,0c0.3-0.3,0.7-0.3,1,0l0,0
						c0.3,0.3,0.3,0.7,0,1l0,0c-0.1,0.1-0.3,0.2-0.5,0.2l0,0l0,0l0,0C412.4,48.5,412.2,48.4,412.1,48.2 M418.3,48.2
						c-0.2-0.2-0.1-0.4,0-0.6l0,0c0.2-0.2,0.4-0.1,0.6,0l0,0c0.1,0.2,0.1,0.4,0,0.6l0,0c-0.1,0.1-0.2,0.1-0.3,0.1l0,0
						C418.5,48.3,418.4,48.3,418.3,48.2 M414.1,47.6c-0.2-0.3-0.2-0.6,0-0.9l0,0c0.3-0.2,0.6-0.2,0.9,0l0,0c0.2,0.3,0.2,0.6,0,0.9
						l0,0c-0.1,0.1-0.3,0.2-0.4,0.2l0,0C414.4,47.8,414.3,47.7,414.1,47.6 M416.3,47.6c-0.2-0.2-0.2-0.5,0-0.7l0,0
						c0.2-0.2,0.5-0.2,0.7,0l0,0c0.2,0.2,0.2,0.5,0,0.7l0,0c-0.1,0.1-0.2,0.1-0.3,0.1l0,0C416.5,47.7,416.4,47.7,416.3,47.6"/>
				</g>
			</g>
		</g>
	</g>
	<g id="g2534" transform="matrix(1.25,0,0,-1.25,-503.275,83.22375)" class="st1">
		<g id="g2536">
			<g id="g2542">
				<g id="g2544">
					
						<linearGradient id="path2554_1_" gradientUnits="userSpaceOnUse" x1="1013.9185" y1="-166.4704" x2="1014.0482" y2="-166.4704" gradientTransform="matrix(-135.6859 316.8618 314.5646 136.6765 190359.1406 -298474)">
						<stop  offset="0" style="stop-color:#F79210"/>
						<stop  offset="0.5" style="stop-color:#F35C19"/>
						<stop  offset="1" style="stop-color:#F79210"/>
					</linearGradient>
					<path id="path2554" class="st5" d="M416.3,63c-0.3-0.1-0.5-0.3-0.4-0.6l0,0c0.1-0.3,0.3-0.5,0.6-0.4l0,0
						c0.3,0.1,0.5,0.3,0.4,0.6l0,0c-0.1,0.3-0.3,0.4-0.5,0.4l0,0C416.4,63,416.4,63,416.3,63 M414.1,62.9c-0.2,0-0.4-0.2-0.4-0.5
						l0,0c0-0.2,0.2-0.4,0.5-0.4l0,0c0.2,0,0.4,0.2,0.4,0.5l0,0C414.5,62.7,414.4,62.9,414.1,62.9L414.1,62.9L414.1,62.9
						 M418.5,62.6c-0.3-0.1-0.6-0.4-0.5-0.8l0,0c0.1-0.4,0.4-0.6,0.8-0.5l0,0c0.3,0.1,0.6,0.4,0.5,0.8l0,0c-0.1,0.3-0.3,0.5-0.6,0.5
						l0,0C418.6,62.6,418.5,62.6,418.5,62.6 M411.8,62.2c-0.2-0.1-0.3-0.3-0.2-0.5l0,0c0.1-0.2,0.3-0.3,0.5-0.2l0,0
						c0.2,0.1,0.3,0.3,0.2,0.5l0,0c-0.1,0.1-0.2,0.2-0.4,0.2l0,0C411.9,62.2,411.9,62.2,411.8,62.2 M420.4,61.6
						c-0.4-0.1-0.7-0.6-0.5-1l0,0c0.1-0.4,0.6-0.7,1-0.5l0,0c0.4,0.1,0.7,0.6,0.5,1l0,0c-0.1,0.4-0.4,0.6-0.8,0.6l0,0
						C420.5,61.6,420.5,61.6,420.4,61.6 M409.8,61c-0.2-0.1-0.2-0.4-0.1-0.6l0,0c0.1-0.2,0.4-0.2,0.6-0.1l0,0
						c0.2,0.1,0.2,0.4,0.1,0.6l0,0c-0.1,0.1-0.2,0.2-0.3,0.2l0,0C409.9,61.1,409.8,61,409.8,61 M421.9,60.1
						c-0.5-0.2-0.7-0.7-0.5-1.2l0,0c0.2-0.5,0.7-0.7,1.1-0.5l0,0c0.5,0.2,0.7,0.7,0.5,1.2l0,0c-0.1,0.4-0.5,0.6-0.8,0.6l0,0
						C422.1,60.1,422,60.1,421.9,60.1 M408.1,59.5c-0.2-0.2-0.3-0.5-0.1-0.8l0,0c0.2-0.2,0.5-0.3,0.7-0.1l0,0
						c0.2,0.2,0.3,0.5,0.1,0.8l0,0c-0.1,0.1-0.3,0.2-0.4,0.2l0,0C408.3,59.6,408.2,59.5,408.1,59.5 M423,58.1
						c-0.5-0.2-0.7-0.8-0.5-1.3l0,0c0.2-0.5,0.8-0.7,1.3-0.5l0,0c0.5,0.2,0.7,0.8,0.5,1.3l0,0c-0.2,0.4-0.5,0.6-0.9,0.6l0,0
						C423.3,58.2,423.1,58.2,423,58.1 M407,57.6c-0.3-0.2-0.4-0.6-0.2-0.9l0,0c0.2-0.3,0.6-0.4,0.9-0.2l0,0c0.3,0.2,0.4,0.6,0.2,0.9
						l0,0c-0.1,0.2-0.3,0.3-0.5,0.3l0,0C407.2,57.7,407.1,57.6,407,57.6 M423.6,55.9c-0.4-0.2-0.6-0.8-0.4-1.2l0,0
						c0.2-0.4,0.8-0.6,1.2-0.4l0,0c0.4,0.2,0.6,0.8,0.4,1.2l0,0c-0.2,0.3-0.5,0.5-0.8,0.5l0,0C423.9,55.9,423.8,55.9,423.6,55.9
						 M406.4,55.5c-0.4-0.2-0.5-0.7-0.3-1.1l0,0c0.2-0.4,0.7-0.5,1.1-0.3l0,0c0.4,0.2,0.5,0.7,0.3,1.1l0,0c-0.1,0.3-0.4,0.4-0.7,0.4
						l0,0l0,0l0,0C406.6,55.6,406.5,55.6,406.4,55.5 M423.7,53.5c-0.4-0.2-0.5-0.7-0.3-1.1l0,0c0.2-0.4,0.7-0.5,1.1-0.3l0,0
						c0.4,0.2,0.5,0.7,0.3,1.1l0,0c-0.1,0.3-0.4,0.4-0.7,0.4l0,0C423.9,53.6,423.8,53.5,423.7,53.5 M406.4,53.3
						c-0.4-0.2-0.6-0.8-0.4-1.2l0,0c0.2-0.4,0.8-0.6,1.2-0.4l0,0c0.4,0.2,0.6,0.8,0.4,1.2l0,0c-0.2,0.3-0.5,0.5-0.8,0.5l0,0
						C406.7,53.4,406.5,53.4,406.4,53.3 M407.1,51.2c-0.5-0.2-0.7-0.8-0.5-1.3l0,0c0.2-0.5,0.8-0.7,1.3-0.5l0,0
						c0.5,0.2,0.7,0.8,0.5,1.3l0,0c-0.2,0.4-0.5,0.6-0.9,0.6l0,0C407.3,51.3,407.2,51.3,407.1,51.2 M423.2,51.1
						c-0.3-0.2-0.4-0.6-0.2-0.9l0,0c0.2-0.3,0.6-0.4,0.9-0.2l0,0c0.3,0.2,0.4,0.6,0.2,0.9l0,0c-0.1,0.2-0.3,0.3-0.6,0.3l0,0
						C423.4,51.2,423.3,51.2,423.2,51.1 M408.3,49.2c-0.5-0.2-0.7-0.7-0.5-1.2l0,0c0.2-0.5,0.7-0.7,1.1-0.5l0,0
						c0.5,0.2,0.7,0.7,0.5,1.2l0,0c-0.1,0.4-0.5,0.6-0.8,0.6l0,0C408.5,49.2,408.4,49.2,408.3,49.2 M422.1,49
						c-0.2-0.2-0.3-0.5-0.1-0.8l0,0c0.2-0.2,0.5-0.3,0.7-0.1l0,0c0.2,0.2,0.3,0.5,0.1,0.8l0,0c-0.1,0.1-0.3,0.2-0.4,0.2l0,0
						C422.3,49.1,422.2,49.1,422.1,49 M410,47.5c-0.4-0.1-0.7-0.6-0.5-1l0,0c0.1-0.4,0.6-0.7,1-0.5l0,0c0.4,0.1,0.7,0.6,0.5,1l0,0
						c-0.1,0.4-0.4,0.6-0.8,0.6l0,0C410.1,47.6,410.1,47.6,410,47.5 M420.6,47.2c-0.2-0.1-0.2-0.4-0.1-0.6l0,0
						c0.1-0.2,0.4-0.2,0.6-0.1l0,0c0.2,0.1,0.2,0.4,0.1,0.6l0,0c-0.1,0.1-0.2,0.2-0.3,0.2l0,0C420.7,47.3,420.6,47.3,420.6,47.2
						 M412,46.3c-0.3-0.1-0.6-0.4-0.5-0.8l0,0c0.1-0.4,0.4-0.6,0.8-0.5l0,0c0.3,0.1,0.6,0.4,0.5,0.8l0,0c-0.1,0.3-0.3,0.5-0.6,0.5
						l0,0C412.2,46.3,412.1,46.3,412,46.3 M418.7,46.1c-0.2-0.1-0.3-0.3-0.2-0.5l0,0c0.1-0.2,0.3-0.3,0.5-0.2l0,0
						c0.2,0.1,0.3,0.3,0.2,0.5l0,0c-0.1,0.1-0.2,0.2-0.4,0.2l0,0C418.8,46.1,418.8,46.1,418.7,46.1 M414.3,45.6
						c-0.3-0.1-0.5-0.3-0.4-0.6l0,0c0.1-0.3,0.3-0.5,0.6-0.4l0,0c0.3,0.1,0.5,0.3,0.4,0.6l0,0c-0.1,0.3-0.3,0.4-0.5,0.4l0,0H414.3
						 M416.6,45.5c-0.2,0-0.4-0.2-0.4-0.5l0,0c0-0.2,0.2-0.4,0.5-0.4l0,0c0.2,0,0.4,0.2,0.4,0.5l0,0
						C417.1,45.4,416.9,45.5,416.6,45.5L416.6,45.5C416.7,45.5,416.6,45.5,416.6,45.5"/>
				</g>
			</g>
		</g>
	</g>
	<g id="g2556" transform="matrix(1.25,0,0,-1.25,-503.275,83.22375)" class="st1">
		<g id="g2558">
			<g id="g2564">
				<g id="g2566">
					
						<linearGradient id="path2576_1_" gradientUnits="userSpaceOnUse" x1="1014.1836" y1="-166.0615" x2="1014.3131" y2="-166.0615" gradientTransform="matrix(0 441.9562 438.7525 0 73275.2656 -448182.75)">
						<stop  offset="0" style="stop-color:#F79210"/>
						<stop  offset="0.5" style="stop-color:#F35C19"/>
						<stop  offset="1" style="stop-color:#F79210"/>
					</linearGradient>
					<path id="path2576" class="st6" d="M414.9,65c0-0.3,0.2-0.5,0.5-0.5l0,0c0.3,0,0.5,0.2,0.5,0.5l0,0c0,0.3-0.2,0.5-0.5,0.5l0,0
						C415.1,65.5,414.9,65.3,414.9,65 M412.4,65.1c-0.3-0.1-0.5-0.4-0.4-0.7l0,0c0.1-0.3,0.4-0.5,0.7-0.4l0,0
						c0.3,0.1,0.5,0.4,0.4,0.7l0,0c-0.1,0.2-0.3,0.4-0.5,0.4l0,0C412.5,65.2,412.4,65.1,412.4,65.1 M417.8,64.8
						c-0.1-0.3,0.1-0.6,0.4-0.7l0,0c0.3-0.1,0.6,0.1,0.7,0.4l0,0c0.1,0.3-0.1,0.6-0.4,0.7l0,0h-0.1l0,0
						C418.1,65.2,417.8,65,417.8,64.8 M409.7,64.2c-0.4-0.1-0.6-0.4-0.5-0.8l0,0c0.1-0.4,0.4-0.6,0.8-0.5l0,0
						c0.4,0.1,0.6,0.4,0.5,0.8l0,0C410.4,64,410.1,64.2,409.7,64.2L409.7,64.2C409.8,64.2,409.8,64.2,409.7,64.2 M420.3,63.6
						c-0.1-0.4,0.2-0.7,0.5-0.8l0,0c0.4-0.1,0.7,0.2,0.8,0.5l0,0c0.1,0.4-0.2,0.7-0.5,0.8l0,0H421l0,0
						C420.7,64.2,420.4,64,420.3,63.6 M407.4,62.5c-0.5-0.1-0.8-0.5-0.7-1l0,0c0.1-0.5,0.5-0.8,1-0.7l0,0c0.5,0.1,0.8,0.5,0.7,1l0,0
						c-0.1,0.4-0.4,0.7-0.8,0.7l0,0C407.5,62.5,407.5,62.5,407.4,62.5 M422.5,61.8c-0.1-0.5,0.2-0.9,0.7-1l0,0
						c0.5-0.1,0.9,0.2,1,0.7l0,0c0.1,0.5-0.2,0.9-0.7,1l0,0h-0.1l0,0C422.9,62.5,422.5,62.3,422.5,61.8 M424,59.5
						c-0.1-0.6,0.4-1.1,0.9-1.1l0,0c0.6-0.1,1.1,0.4,1.1,0.9l0,0c0.1,0.6-0.4,1.1-0.9,1.1l0,0H425l0,0C424.5,60.4,424.1,60,424,59.5
						 M405.7,60.4c-0.6-0.1-1-0.6-0.9-1.1l0,0c0.1-0.6,0.6-1,1.1-0.9l0,0c0.6,0.1,1,0.6,0.9,1.1l0,0c-0.1,0.5-0.5,0.9-1,0.9l0,0
						C405.7,60.4,405.7,60.4,405.7,60.4 M425,56.7c0-0.6,0.5-1.2,1.1-1.2l0,0c0.6,0,1.2,0.5,1.2,1.1l0,0c0,0.6-0.5,1.2-1.1,1.2l0,0
						c0,0,0,0-0.1,0l0,0C425.6,57.8,425.1,57.4,425,56.7 M404.6,57.8c-0.6,0-1.1-0.6-1.1-1.2l0,0c0-0.6,0.6-1.1,1.2-1.1l0,0
						c0.6,0,1.1,0.6,1.1,1.2l0,0C405.8,57.4,405.3,57.8,404.6,57.8L404.6,57.8L404.6,57.8 M425.3,53.8c0-0.7,0.6-1.3,1.2-1.3l0,0
						c0.7,0,1.2,0.6,1.2,1.3l0,0c0,0.7-0.6,1.3-1.2,1.3l0,0C425.9,55,425.3,54.5,425.3,53.8 M403,53.8c0-0.7,0.6-1.3,1.2-1.3l0,0
						c0.7,0,1.2,0.6,1.2,1.3l0,0c0,0.7-0.6,1.3-1.2,1.3l0,0C403.6,55,403,54.5,403,53.8 M426.1,52c-0.6,0-1.1-0.6-1.1-1.2l0,0
						c0-0.6,0.6-1.1,1.2-1.1l0,0c0.6,0,1.1,0.6,1.1,1.2l0,0C427.3,51.6,426.8,52,426.1,52L426.1,52C426.2,52,426.1,52,426.1,52
						 M403.5,50.9c0-0.6,0.5-1.2,1.1-1.2l0,0c0.6,0,1.2,0.5,1.2,1.1l0,0c0,0.6-0.5,1.2-1.1,1.2l0,0c0,0,0,0-0.1,0l0,0
						C404.1,52,403.5,51.6,403.5,50.9 M425,49.2c-0.6-0.1-1-0.6-0.9-1.2l0,0c0.1-0.6,0.6-1,1.1-0.9l0,0c0.6,0.1,1,0.6,0.9,1.1l0,0
						c-0.1,0.5-0.5,0.9-1,0.9l0,0C425,49.2,425,49.2,425,49.2 M404.7,48.3c-0.1-0.6,0.4-1.1,0.9-1.1l0,0c0.6-0.1,1.1,0.4,1.1,0.9
						l0,0c0.1,0.6-0.4,1.1-0.9,1.2l0,0h-0.1l0,0C405.2,49.2,404.8,48.8,404.7,48.3 M423.2,46.7c-0.5-0.1-0.8-0.5-0.7-1l0,0
						c0.1-0.5,0.5-0.8,1-0.7l0,0c0.5,0.1,0.8,0.5,0.7,1l0,0c-0.1,0.4-0.4,0.7-0.8,0.7l0,0C423.3,46.7,423.2,46.7,423.2,46.7
						 M406.7,46c-0.1-0.5,0.2-0.9,0.7-1l0,0c0.5-0.1,0.9,0.2,1,0.7l0,0c0.1,0.5-0.2,0.9-0.7,1l0,0h-0.1l0,0
						C407.1,46.7,406.8,46.4,406.7,46 M420.8,44.7c-0.4-0.1-0.6-0.4-0.5-0.8l0,0c0.1-0.4,0.4-0.6,0.8-0.5l0,0
						c0.4,0.1,0.6,0.4,0.5,0.8l0,0C421.5,44.5,421.2,44.7,420.8,44.7L420.8,44.7C420.9,44.8,420.9,44.8,420.8,44.7 M409.2,44.2
						c-0.1-0.4,0.2-0.7,0.5-0.8l0,0c0.4-0.1,0.7,0.2,0.8,0.5l0,0c0.1,0.4-0.2,0.7-0.5,0.8l0,0h-0.1l0,0
						C409.5,44.8,409.2,44.5,409.2,44.2 M418.2,43.5c-0.3-0.1-0.5-0.4-0.4-0.7l0,0c0.1-0.3,0.4-0.5,0.7-0.4l0,0
						c0.3,0.1,0.5,0.4,0.4,0.7l0,0c-0.1,0.2-0.3,0.4-0.5,0.4l0,0C418.3,43.5,418.2,43.5,418.2,43.5 M412,43.1
						c-0.1-0.3,0.1-0.6,0.4-0.7l0,0c0.3-0.1,0.6,0.1,0.7,0.4l0,0c0.1,0.3-0.1,0.6-0.4,0.7l0,0h-0.1l0,0
						C412.3,43.5,412.1,43.3,412,43.1 M414.9,42.6c0-0.3,0.2-0.5,0.5-0.5l0,0h0.1c0.3,0,0.5,0.2,0.5,0.5l0,0c0,0.3-0.2,0.5-0.5,0.5
						l0,0C415.1,43.1,414.9,42.8,414.9,42.6"/>
				</g>
			</g>
		</g>
	</g>
</g>
<g id="_x30_RoLaF_1_">
	<g>
		<path class="st7" d="M29.3,16c0,0.7-0.6,1.3-1.3,1.3c-0.7,0-1.3-0.6-1.3-1.3c0-0.7,0.6-1.3,1.3-1.3C28.7,14.7,29.3,15.2,29.3,16z"
			/>
		<path class="st7" d="M2.7,16c0-0.7,0.6-1.3,1.3-1.3c0.8,0,1.3,0.6,1.3,1.3c0,0.7-0.6,1.3-1.3,1.3C3.3,17.3,2.7,16.7,2.7,16z"/>
		<path class="st7" d="M4.4,20.3c-0.7,0-1.2-0.5-1.2-1.2c0-0.7,0.5-1.2,1.2-1.2c0.7,0,1.2,0.5,1.2,1.2C5.6,19.8,5.1,20.3,4.4,20.3z"
			/>
		<path class="st7" d="M27.6,17.9c0.7,0,1.2,0.5,1.2,1.2c0,0.7-0.5,1.2-1.2,1.2c-0.6,0-1.2-0.6-1.2-1.2
			C26.4,18.4,26.9,17.9,27.6,17.9z"/>
		<path class="st7" d="M28.8,12.9c0,0.7-0.5,1.2-1.2,1.2c-0.7,0-1.2-0.5-1.2-1.2c0-0.7,0.5-1.2,1.2-1.2
			C28.2,11.7,28.8,12.2,28.8,12.9z"/>
		<path class="st7" d="M4.4,14.1c-0.7,0-1.2-0.5-1.2-1.2c0-0.6,0.5-1.2,1.2-1.2c0.6,0,1.2,0.6,1.2,1.2C5.6,13.6,5.1,14.1,4.4,14.1z"
			/>
		<path class="st7" d="M26.4,11.1c-0.6,0-1.1-0.5-1.1-1.1c0-0.6,0.5-1.1,1.1-1.1c0.6,0,1.1,0.5,1.1,1.1C27.5,10.6,27,11.1,26.4,11.1
			z"/>
		<path class="st7" d="M6.7,10c0,0.6-0.5,1.1-1.1,1.1c-0.6,0-1.1-0.5-1.1-1.1c0-0.6,0.5-1.1,1.1-1.1C6.2,8.9,6.7,9.4,6.7,10z"/>
		<path class="st7" d="M5.6,23.1c-0.6,0-1.1-0.5-1.1-1.1c0-0.6,0.5-1.1,1.1-1.1c0.6,0,1.1,0.4,1.1,1C6.7,22.6,6.3,23,5.6,23.1z"/>
		<path class="st7" d="M26.4,23.1c-0.6,0-1.1-0.4-1.1-1.1c0-0.6,0.5-1.1,1.1-1.1c0.6,0,1.1,0.5,1.1,1.1C27.5,22.6,27,23.1,26.4,23.1
			z"/>
		<path class="st7" d="M24.6,13.3c-0.6,0-1-0.4-1-1c0-0.6,0.5-1,1-1c0.5,0,1,0.5,1,1C25.6,12.9,25.1,13.3,24.6,13.3z"/>
		<path class="st7" d="M7.4,18.7c0.6,0,1,0.4,1,1c0,0.6-0.4,1-1,1c-0.6,0-1-0.4-1-1C6.4,19.1,6.9,18.7,7.4,18.7z"/>
		<path class="st7" d="M22.4,10.2c0-0.5,0.4-0.9,0.9-0.9c0.5,0,0.9,0.4,0.9,0.9c0,0.5-0.4,0.9-0.9,0.9
			C22.8,11.1,22.4,10.7,22.4,10.2z"/>
		<path class="st7" d="M6.7,18.3c-0.5,0-0.9-0.4-0.9-0.9c0-0.5,0.4-0.9,0.9-0.9c0.5,0,0.9,0.4,0.9,0.9C7.7,17.9,7.3,18.3,6.7,18.3z"
			/>
		<path class="st7" d="M8.7,20.9c0.5,0,0.9,0.4,0.9,0.9c0,0.5-0.4,0.9-0.9,0.9c-0.5,0-0.9-0.4-0.9-0.9C7.7,21.3,8.2,20.9,8.7,20.9z"
			/>
		<path class="st7" d="M26.2,14.6c0,0.5-0.4,0.9-0.9,0.9c-0.5,0-0.9-0.4-0.9-0.9c0-0.5,0.4-0.9,0.9-0.9
			C25.8,13.7,26.2,14.1,26.2,14.6z"/>
		<path class="st7" d="M7.5,6.7C8,6.7,8.4,7,8.4,7.5C8.4,8,8,8.4,7.5,8.4C7,8.4,6.7,8,6.7,7.5C6.7,7,7.1,6.7,7.5,6.7z"/>
		<path class="st7" d="M7.5,23.6c0.5,0,0.8,0.4,0.8,0.9c0,0.5-0.4,0.9-0.9,0.9c-0.5,0-0.8-0.4-0.9-0.9C6.7,24,7.1,23.6,7.5,23.6z"/>
		<path class="st7" d="M25.3,24.5c0,0.5-0.4,0.8-0.8,0.9c-0.5,0-0.9-0.4-0.9-0.9c0-0.5,0.4-0.8,0.9-0.8C25,23.6,25.3,24,25.3,24.5z"
			/>
		<path class="st7" d="M23.6,7.5c0-0.5,0.4-0.9,0.9-0.9c0.5,0,0.8,0.4,0.8,0.8c0,0.5-0.4,0.9-0.8,0.9C24,8.4,23.6,8,23.6,7.5z"/>
		<path class="st7" d="M24.5,17.1c0-0.5,0.4-0.9,0.8-0.9c0.4,0,0.8,0.4,0.8,0.8c0,0.5-0.4,0.9-0.8,0.9
			C24.8,17.9,24.5,17.5,24.5,17.1z"/>
		<path class="st7" d="M11.2,23.5c0,0.5-0.4,0.8-0.8,0.8c-0.5,0-0.8-0.4-0.8-0.9c0-0.5,0.4-0.8,0.8-0.8C10.9,22.7,11.2,23,11.2,23.5
			z"/>
		<path class="st7" d="M7.5,14.9c0,0.5-0.4,0.8-0.8,0.8c-0.5,0-0.8-0.4-0.9-0.8c0-0.5,0.3-0.8,0.8-0.8C7.2,14.1,7.5,14.4,7.5,14.9z"
			/>
		<path class="st7" d="M22.4,8.5c0,0.5-0.4,0.8-0.8,0.8c-0.4,0-0.8-0.4-0.8-0.8c0-0.5,0.4-0.8,0.8-0.8C22.1,7.7,22.4,8,22.4,8.5z"/>
		<path class="st7" d="M20.9,11.6c-0.5,0-0.9-0.4-0.8-0.8c0-0.4,0.4-0.8,0.8-0.8c0.5,0,0.8,0.4,0.8,0.8
			C21.7,11.3,21.3,11.6,20.9,11.6z"/>
		<path class="st7" d="M11.1,22c-0.5,0-0.8-0.4-0.8-0.8c0-0.5,0.4-0.8,0.8-0.8c0.5,0,0.8,0.4,0.8,0.9C11.9,21.6,11.6,22,11.1,22z"/>
		<path class="st7" d="M9.8,20.1c-0.4,0-0.7-0.3-0.7-0.7c0-0.4,0.3-0.7,0.7-0.7c0.4,0,0.7,0.3,0.7,0.7C10.5,19.8,10.2,20.1,9.8,20.1
			z"/>
		<path class="st7" d="M22.9,12.6c0,0.4-0.3,0.7-0.7,0.7c-0.4,0-0.7-0.3-0.7-0.7c0-0.4,0.3-0.7,0.7-0.7
			C22.6,11.9,22.9,12.2,22.9,12.6z"/>
		<path class="st7" d="M19.7,9.6c0,0.4-0.3,0.7-0.7,0.7c-0.4,0-0.7-0.3-0.7-0.7c0-0.4,0.3-0.7,0.7-0.7C19.5,8.9,19.7,9.2,19.7,9.6z"
			/>
		<path class="st7" d="M13.7,22.4c0,0.4-0.3,0.7-0.7,0.7c-0.4,0-0.7-0.3-0.7-0.7c0-0.4,0.3-0.7,0.7-0.7C13.4,21.7,13.7,22,13.7,22.4
			z"/>
		<path class="st7" d="M21.3,26.4c0-0.4,0.3-0.7,0.7-0.7c0.4,0,0.7,0.3,0.7,0.7c0,0.4-0.3,0.7-0.7,0.7
			C21.6,27.1,21.3,26.8,21.3,26.4z"/>
		<path class="st7" d="M10.7,5.7c0,0.4-0.3,0.6-0.7,0.6C9.6,6.3,9.3,6,9.3,5.6c0-0.4,0.3-0.7,0.7-0.7C10.4,4.9,10.7,5.2,10.7,5.7z"
			/>
		<path class="st7" d="M22,4.9c0.4,0,0.7,0.3,0.7,0.7c0,0.4-0.3,0.7-0.7,0.7c-0.4,0-0.7-0.3-0.7-0.7C21.3,5.2,21.6,4.9,22,4.9z"/>
		<path class="st7" d="M10.7,26.4c0,0.4-0.3,0.7-0.7,0.7c-0.4,0-0.7-0.3-0.7-0.7c0-0.4,0.3-0.7,0.7-0.7C10.4,25.7,10.7,26,10.7,26.4
			z"/>
		<path class="st7" d="M13.2,24.7c0,0.4-0.3,0.7-0.6,0.7c-0.4,0-0.7-0.3-0.7-0.6c0-0.4,0.3-0.7,0.7-0.7C12.9,24,13.2,24.3,13.2,24.7
			z"/>
		<path class="st7" d="M19.4,7.9c-0.4,0-0.6-0.3-0.7-0.6c0-0.4,0.3-0.7,0.7-0.7c0.4,0,0.6,0.3,0.6,0.7C20.1,7.7,19.8,7.9,19.4,7.9z"
			/>
		<path class="st7" d="M7.3,11.9c0.4,0,0.7,0.3,0.6,0.7c0,0.4-0.3,0.6-0.6,0.6c-0.4,0-0.7-0.3-0.7-0.7C6.7,12.1,6.9,11.9,7.3,11.9z"
			/>
		<path class="st7" d="M25.3,19.4c0,0.4-0.3,0.7-0.6,0.7c-0.4,0-0.7-0.3-0.7-0.7c0-0.3,0.3-0.6,0.7-0.6
			C25.1,18.8,25.3,19.1,25.3,19.4z"/>
		<path class="st7" d="M17.5,10.3c0.4,0,0.6,0.3,0.6,0.6c0,0.3-0.3,0.6-0.6,0.6c-0.4,0-0.6-0.3-0.6-0.6
			C16.9,10.5,17.1,10.3,17.5,10.3z"/>
		<path class="st7" d="M15.1,21.1c0,0.4-0.3,0.6-0.6,0.6c-0.3,0-0.6-0.3-0.6-0.7c0-0.3,0.3-0.6,0.6-0.6
			C14.9,20.5,15.1,20.7,15.1,21.1z"/>
		<path class="st7" d="M23.6,14.7c0,0.4-0.3,0.6-0.6,0.6c-0.4,0-0.7-0.3-0.6-0.6c0-0.3,0.3-0.6,0.6-0.6C23.3,14,23.6,14.3,23.6,14.7
			z"/>
		<path class="st7" d="M15.7,23c0,0.3-0.3,0.6-0.6,0.6c-0.3,0-0.6-0.3-0.6-0.6c0-0.3,0.3-0.6,0.6-0.6C15.4,22.4,15.7,22.7,15.7,23z"
			/>
		<path class="st7" d="M16.9,9.6c-0.4,0-0.6-0.3-0.6-0.6c0-0.3,0.3-0.6,0.6-0.6c0.3,0,0.6,0.3,0.6,0.6C17.5,9.3,17.3,9.6,16.9,9.6z"
			/>
		<path class="st7" d="M9,17.9c-0.3,0-0.6-0.3-0.6-0.6c0-0.3,0.3-0.6,0.6-0.6c0.4,0,0.6,0.3,0.6,0.6C9.6,17.7,9.4,17.9,9,17.9z"/>
		<path class="st7" d="M13.5,20.4c0,0.3-0.2,0.6-0.5,0.6c-0.3,0-0.5-0.3-0.5-0.6c0-0.3,0.3-0.5,0.5-0.5
			C13.3,19.8,13.5,20.1,13.5,20.4z"/>
		<path class="st7" d="M16.7,21.3c0,0.3-0.2,0.5-0.5,0.5c-0.3,0-0.6-0.3-0.6-0.5c0-0.3,0.3-0.5,0.6-0.5C16.5,20.8,16.7,21,16.7,21.3
			z"/>
		<path class="st7" d="M15.8,10.1c0.3,0,0.5,0.2,0.6,0.5c0,0.3-0.3,0.6-0.5,0.6c-0.3,0-0.5-0.3-0.5-0.6
			C15.3,10.4,15.5,10.1,15.8,10.1z"/>
		<path class="st7" d="M19.5,11.6c0,0.3-0.2,0.6-0.5,0.6c-0.3,0-0.5-0.2-0.5-0.6c0-0.3,0.2-0.5,0.5-0.5C19.3,11,19.5,11.3,19.5,11.6
			z"/>
		<path class="st7" d="M9,10.4C9,10.7,8.7,11,8.5,11c-0.3,0-0.5-0.3-0.5-0.6c0-0.3,0.2-0.5,0.5-0.5C8.8,9.9,9,10.1,9,10.4z"/>
		<path class="st7" d="M13.4,27.6c0,0.3-0.2,0.5-0.5,0.5c-0.3,0-0.5-0.2-0.5-0.5c0-0.3,0.3-0.5,0.5-0.5C13.2,27,13.4,27.3,13.4,27.6
			z"/>
		<path class="st7" d="M12.4,4.4c0-0.3,0.2-0.5,0.5-0.5c0.3,0,0.5,0.3,0.5,0.5c0,0.3-0.2,0.5-0.5,0.5C12.6,4.9,12.4,4.7,12.4,4.4z"
			/>
		<path class="st7" d="M14.9,24.8c0.3,0,0.5,0.2,0.5,0.5c0,0.3-0.2,0.5-0.5,0.5c-0.3,0-0.6-0.2-0.6-0.5C14.4,25,14.6,24.8,14.9,24.8
			z"/>
		<path class="st7" d="M17.1,6.2c0.3,0,0.5,0.2,0.5,0.5c0,0.3-0.2,0.5-0.5,0.5c-0.3,0-0.5-0.2-0.5-0.5C16.6,6.4,16.8,6.2,17.1,6.2z"
			/>
		<path class="st7" d="M19.6,4.4c0,0.3-0.2,0.5-0.5,0.5c-0.3,0-0.5-0.2-0.5-0.5c0-0.3,0.2-0.5,0.5-0.5C19.4,3.9,19.6,4.1,19.6,4.4z"
			/>
		<path class="st7" d="M19.6,27.6c0,0.3-0.2,0.5-0.5,0.5c-0.3,0-0.5-0.2-0.5-0.5c0-0.3,0.2-0.6,0.5-0.6C19.4,27,19.6,27.3,19.6,27.6
			z"/>
		<path class="st7" d="M23,21.6c0-0.3,0.2-0.5,0.5-0.5c0.3,0,0.5,0.2,0.5,0.5c0,0.3-0.2,0.5-0.5,0.5C23.2,22.1,23,21.9,23,21.6z"/>
		<path class="st7" d="M16,3.5c0.3,0,0.5,0.2,0.5,0.5c0,0.3-0.2,0.5-0.5,0.5c-0.3,0-0.5-0.2-0.5-0.5C15.5,3.7,15.7,3.5,16,3.5z"/>
		<path class="st7" d="M16.5,28c0,0.3-0.2,0.5-0.5,0.5c-0.3,0-0.5-0.2-0.5-0.5c0-0.3,0.2-0.5,0.4-0.5C16.3,27.5,16.5,27.7,16.5,28z"
			/>
		<path class="st7" d="M23,16.4c0.3,0,0.5,0.3,0.5,0.5c0,0.3-0.2,0.5-0.5,0.5c-0.3,0-0.5-0.2-0.5-0.5C22.6,16.6,22.8,16.4,23,16.4z"
			/>
		<path class="st7" d="M14.7,11c0,0.3-0.2,0.5-0.5,0.5c-0.3,0-0.5-0.2-0.5-0.5c0-0.3,0.2-0.5,0.5-0.5C14.5,10.5,14.7,10.7,14.7,11z"
			/>
		<path class="st7" d="M17.8,23c0,0.3-0.2,0.5-0.5,0.5c-0.3,0-0.5-0.2-0.5-0.5c0-0.3,0.2-0.5,0.5-0.5C17.6,22.5,17.8,22.7,17.8,23z"
			/>
		<path class="st7" d="M14.7,9.5c-0.3,0-0.5-0.2-0.5-0.5c0-0.2,0.2-0.5,0.5-0.5c0.3,0,0.5,0.2,0.5,0.5C15.2,9.3,14.9,9.5,14.7,9.5z"
			/>
		<path class="st7" d="M17.4,19.4c0-0.3,0.2-0.5,0.5-0.5c0.3,0,0.5,0.2,0.5,0.5c0,0.3-0.2,0.5-0.5,0.5
			C17.6,19.9,17.4,19.7,17.4,19.4z"/>
		<path class="st7" d="M9,15.6c-0.3,0-0.5-0.2-0.5-0.5c0-0.3,0.2-0.5,0.5-0.5c0.3,0,0.5,0.2,0.5,0.5C9.4,15.4,9.2,15.6,9,15.6z"/>
		<path class="st7" d="M14.6,12.6c0,0.3-0.2,0.5-0.5,0.5c-0.3,0-0.5-0.2-0.5-0.5c0-0.3,0.2-0.5,0.5-0.5
			C14.4,12.1,14.6,12.3,14.6,12.6z"/>
		<path class="st7" d="M11.8,18.8c0.2,0,0.5,0.2,0.5,0.5c0,0.3-0.2,0.5-0.5,0.5c-0.3,0-0.5-0.2-0.5-0.5C11.3,19,11.5,18.8,11.8,18.8
			z"/>
		<path class="st7" d="M20.7,12.7c0,0.3-0.2,0.5-0.5,0.5c-0.3,0-0.5-0.2-0.5-0.5c0-0.3,0.2-0.5,0.5-0.5
			C20.5,12.3,20.7,12.5,20.7,12.7z"/>
		<path class="st7" d="M18.3,21c0,0.3-0.2,0.5-0.5,0.5c-0.3,0-0.5-0.2-0.4-0.5c0-0.3,0.2-0.4,0.5-0.4C18.1,20.5,18.3,20.7,18.3,21z"
			/>
		<path class="st7" d="M16.7,19.4c0.2,0,0.4,0.2,0.4,0.4c0,0.2-0.2,0.4-0.4,0.4c-0.2,0-0.4-0.2-0.4-0.4
			C16.3,19.6,16.5,19.4,16.7,19.4z"/>
		<path class="st7" d="M18.8,18.2c0.2,0,0.4,0.2,0.4,0.4c0,0.2-0.2,0.4-0.4,0.5c-0.2,0-0.4-0.2-0.4-0.4
			C18.4,18.5,18.6,18.3,18.8,18.2z"/>
		<path class="st7" d="M13.2,13.7c-0.2,0-0.4-0.2-0.4-0.4c0-0.2,0.2-0.4,0.4-0.4c0.2,0,0.4,0.2,0.4,0.4
			C13.6,13.5,13.4,13.7,13.2,13.7z"/>
		<path class="st7" d="M15.3,11.7c0.2,0,0.4,0.2,0.4,0.4c0,0.3-0.2,0.4-0.4,0.4c-0.2,0-0.4-0.2-0.4-0.4
			C14.9,11.9,15.1,11.7,15.3,11.7z"/>
		<path class="st7" d="M16.9,25.2c0-0.2,0.2-0.4,0.4-0.4c0.2,0,0.4,0.2,0.4,0.4c0,0.2-0.2,0.4-0.4,0.4
			C17.1,25.7,16.9,25.4,16.9,25.2z"/>
		<path class="st7" d="M15,6.7c0,0.2-0.2,0.4-0.4,0.4c-0.2,0-0.4-0.2-0.4-0.4c0-0.2,0.2-0.4,0.4-0.4C14.9,6.4,15.1,6.5,15,6.7z"/>
		<path class="st7" d="M10.2,8.3c0.2,0,0.4,0.2,0.4,0.4c0,0.2-0.2,0.4-0.4,0.4C10,9,9.8,8.9,9.8,8.6C9.8,8.4,10,8.2,10.2,8.3z"/>
		<path class="st7" d="M21.8,23.7c-0.2,0-0.4-0.2-0.4-0.4c0-0.2,0.2-0.4,0.4-0.4c0.2,0,0.4,0.2,0.4,0.4C22.2,23.6,22,23.7,21.8,23.7
			z"/>
		<path class="st7" d="M22.8,19c0,0.2-0.2,0.4-0.4,0.4c-0.2,0-0.4-0.2-0.4-0.4c0-0.2,0.2-0.4,0.4-0.4C22.6,18.7,22.8,18.8,22.8,19z"
			/>
		<path class="st7" d="M12.6,9.4c0.2,0,0.4,0.2,0.4,0.4c0,0.2-0.2,0.4-0.4,0.4c-0.2,0-0.4-0.2-0.4-0.4C12.2,9.6,12.4,9.4,12.6,9.4z"
			/>
		<path class="st7" d="M20.1,24.6c0,0.2-0.2,0.4-0.4,0.4c-0.2,0-0.3-0.1-0.4-0.3c0-0.2,0.1-0.4,0.3-0.4
			C19.9,24.2,20.1,24.4,20.1,24.6z"/>
		<path class="st7" d="M12.3,7.8c-0.2,0-0.4-0.1-0.4-0.4c0-0.2,0.2-0.4,0.4-0.4c0.2,0,0.3,0.1,0.3,0.4C12.7,7.6,12.5,7.8,12.3,7.8z"
			/>
		<path class="st7" d="M19.8,22.2c0,0.2-0.2,0.4-0.4,0.4c-0.2,0-0.4-0.1-0.4-0.4c0-0.2,0.2-0.4,0.4-0.4C19.6,21.8,19.8,22,19.8,22.2
			z"/>
		<path class="st7" d="M9.9,12.9c0,0.2-0.1,0.4-0.4,0.4c-0.2,0-0.4-0.1-0.4-0.4c0-0.2,0.1-0.4,0.3-0.4C9.8,12.6,9.9,12.7,9.9,12.9z"
			/>
		<path class="st7" d="M11,18.1c-0.3,0-0.4-0.2-0.4-0.4c0-0.2,0.2-0.3,0.4-0.3c0.2,0,0.4,0.2,0.3,0.4C11.3,18,11.2,18.1,11,18.1z"/>
		<path class="st7" d="M16.9,12.2c0,0.2-0.1,0.3-0.4,0.3c-0.2,0-0.4-0.2-0.4-0.4c0-0.2,0.1-0.3,0.3-0.4
			C16.7,11.8,16.9,11.9,16.9,12.2z"/>
		<path class="st7" d="M21,13.9c0.2,0,0.4,0.2,0.4,0.4c0,0.2-0.1,0.3-0.4,0.4c-0.2,0-0.4-0.1-0.4-0.4C20.6,14,20.8,13.9,21,13.9z"/>
		<path class="st7" d="M12.9,14.3c0,0.2-0.2,0.4-0.4,0.3c-0.2,0-0.3-0.1-0.3-0.3c0-0.2,0.2-0.4,0.4-0.4
			C12.7,13.9,12.9,14.1,12.9,14.3z"/>
		<path class="st7" d="M19.6,20.2c0,0.2-0.1,0.3-0.4,0.4c-0.2,0-0.3-0.1-0.4-0.4c0-0.2,0.2-0.4,0.4-0.4C19.5,19.9,19.6,20,19.6,20.2
			z"/>
		<path class="st7" d="M19.5,18c-0.2,0-0.4-0.2-0.4-0.4c0-0.2,0.2-0.4,0.4-0.4c0.2,0,0.3,0.1,0.4,0.3C19.9,17.8,19.7,18,19.5,18z"/>
		<path class="st7" d="M15.8,19.8c0,0.2-0.2,0.4-0.4,0.4c-0.2,0-0.3-0.2-0.3-0.4c0-0.2,0.1-0.3,0.4-0.3
			C15.7,19.5,15.8,19.6,15.8,19.8z"/>
		<path class="st7" d="M12.8,12.1c-0.2,0-0.4-0.2-0.4-0.4c0-0.2,0.2-0.4,0.4-0.4c0.2,0,0.3,0.1,0.3,0.4C13.1,12,13,12.1,12.8,12.1z"
			/>
		<path class="st7" d="M12.5,15.5c0,0.2-0.1,0.3-0.3,0.3c-0.2,0-0.3-0.1-0.3-0.3c0-0.2,0.1-0.3,0.3-0.3
			C12.3,15.2,12.5,15.3,12.5,15.5z"/>
		<path class="st7" d="M19.8,16.9c-0.1-0.1-0.2-0.3-0.2-0.4c0-0.1,0.2-0.3,0.3-0.3c0.2,0,0.3,0.1,0.3,0.3c0,0.1-0.2,0.2-0.2,0.3
			C19.9,16.9,19.8,16.9,19.8,16.9z"/>
		<path class="st7" d="M18,12.6c-0.1,0.1-0.2,0.2-0.3,0.2c-0.2,0-0.3-0.1-0.3-0.3c0-0.2,0.1-0.3,0.3-0.3c0.1,0,0.2,0.2,0.3,0.2
			C18,12.5,18,12.5,18,12.6z"/>
		<path class="st7" d="M14.3,19.8c-0.1-0.1-0.2-0.2-0.2-0.3c0-0.2,0.1-0.3,0.3-0.3c0.2,0,0.3,0.1,0.3,0.3c0,0.1-0.1,0.2-0.2,0.4
			C14.4,19.8,14.3,19.8,14.3,19.8z"/>
		<path class="st7" d="M12,13c-0.2,0.1-0.3,0.2-0.4,0.2c-0.2,0-0.3-0.1-0.3-0.3c0-0.1,0.2-0.3,0.3-0.3C11.7,12.7,11.8,12.9,12,13z"
			/>
		<path class="st7" d="M21.7,15.9c-0.2,0.1-0.3,0.3-0.4,0.3c-0.1,0-0.3-0.2-0.3-0.3c0-0.1,0.2-0.3,0.2-0.3
			C21.4,15.6,21.5,15.7,21.7,15.9z"/>
		<path class="st7" d="M20.7,18.9c-0.1,0.2-0.1,0.4-0.3,0.3c-0.1,0-0.3-0.2-0.2-0.2c0-0.1,0.1-0.3,0.2-0.3
			C20.5,18.7,20.6,18.9,20.7,18.9z"/>
		<path class="st7" d="M10.6,16.5c-0.1-0.1-0.2-0.2-0.2-0.3c0-0.2,0.1-0.3,0.2-0.3c0.1,0,0.2,0.1,0.3,0.2
			C11,16.3,10.9,16.4,10.6,16.5z"/>
		<path class="st7" d="M21.2,20.5c0.1,0.2,0.3,0.3,0.3,0.4c0,0.1-0.2,0.3-0.2,0.3c-0.1,0-0.2-0.1-0.3-0.2
			C20.9,20.8,21,20.7,21.2,20.5z"/>
		<path class="st7" d="M10.9,11.5c-0.1-0.2-0.3-0.3-0.3-0.3c0-0.1,0.2-0.2,0.2-0.3c0.1,0.1,0.2,0.2,0.3,0.3
			C11.1,11.2,11,11.3,10.9,11.5z"/>
		<path class="st7" d="M19,13.3c-0.1,0.1-0.2,0.2-0.3,0.2c-0.1,0-0.2-0.2-0.3-0.2c0.1-0.1,0.2-0.2,0.3-0.2c0.1,0,0.2,0.1,0.3,0.2
			C19,13.2,19,13.2,19,13.3z"/>
		<path class="st7" d="M12.1,17c-0.1-0.1-0.2-0.2-0.2-0.3c0-0.1,0.1-0.2,0.2-0.2c0.1,0,0.2,0.1,0.2,0.2c0,0.1-0.1,0.2-0.2,0.3
			C12.2,17,12.2,17,12.1,17z"/>
		<path class="st7" d="M20.2,15.3c-0.2,0.1-0.3,0.2-0.4,0.2c-0.2,0-0.3-0.1-0.2-0.3c0-0.1,0.2-0.2,0.3-0.2
			C19.9,15.1,20,15.2,20.2,15.3z"/>
		<path class="st7" d="M13.6,18.9c-0.1,0.1-0.2,0.2-0.3,0.2c-0.1,0-0.2-0.2-0.2-0.2c0-0.1,0.1-0.2,0.2-0.2c0.1,0,0.2,0.1,0.3,0.2
			C13.6,18.8,13.6,18.8,13.6,18.9z"/>
		<path class="st7" d="M19.4,14.5c-0.1-0.2-0.2-0.2-0.2-0.3c0-0.1,0.1-0.1,0.2-0.2c0.1,0.1,0.2,0.1,0.2,0.2
			C19.6,14.2,19.5,14.3,19.4,14.5z"/>
		<path class="st7" d="M12.9,17.9c-0.1,0.1-0.2,0.2-0.3,0.2c-0.1,0-0.2-0.1-0.2-0.2c0-0.1,0.1-0.2,0.2-0.2
			C12.7,17.6,12.7,17.7,12.9,17.9z"/>
		<path class="st7" d="M11.2,14.5c-0.1,0.1-0.2,0.2-0.3,0.2c-0.1,0-0.1-0.1-0.2-0.2c0,0,0.1-0.2,0.2-0.2C11,14.3,11,14.4,11.2,14.5z
			"/>
		<path class="st7" d="M21.4,17.5c-0.1,0.1-0.2,0.2-0.3,0.2c-0.1,0-0.2-0.1-0.2-0.2c0-0.1,0.1-0.2,0.2-0.2
			C21.2,17.3,21.2,17.4,21.4,17.5z"/>
	</g>
</g>
</svg>
