<?xml version="1.0" encoding="utf-8"?>
<!-- Generator: Adobe Illustrator 21.1.0, SVG Export Plug-In . SVG Version: 6.00 Build 0)  -->
<svg version="1.1" id="Layer_2" xmlns="http://www.w3.org/2000/svg" xmlns:xlink="http://www.w3.org/1999/xlink" x="0px" y="0px"
	 viewBox="0 0 32 32" style="enable-background:new 0 0 32 32;" xml:space="preserve">
<style type="text/css">
	.st0{fill:#106370;}
	.st1{fill:#FFFFFF;}
</style>
<g>
	<rect x="-0.2" y="-0.6" class="st0" width="32.5" height="33.1"/>
	<path class="st1" d="M6.8,12.5c0.5,0.2,0.6,0.5,0.4,0.9c-0.2,0.3-0.3,0.4-1.1,0.1c-0.6-0.2-1,0-0.9,0.4c0,0.2,0.3,0.3,0.9,0.5
		c1.1,0.4,1.6,0.8,1.6,1.5c0.1,0.7-0.3,1.3-0.9,1.7c-0.6,0.4-1.8,0.4-2.5,0c-0.5-0.2-0.5-0.3-0.5-0.6c0-0.6,0.3-0.7,1.2-0.4
		c0.7,0.2,0.8,0.2,1.1,0c0.3-0.2,0.4-0.6,0.2-0.8c-0.1-0.1-0.5-0.2-1-0.4c-1.1-0.3-1.5-0.8-1.4-1.6c0.1-0.6,0.3-1,0.9-1.4
		C5.2,12.3,6.2,12.3,6.8,12.5z M10.9,13.9c0.5,0.2,0.6,0.4,0.5,0.8c-0.1,0.3-0.1,0.3-0.9,0.2c-0.7-0.1-0.8-0.1-1.1,0.2
		c-0.3,0.3-0.4,1.2,0,1.6C9.7,17,10,17,10.6,16.9c0.9-0.2,1.1,0.5,0.3,1c-0.6,0.3-1.6,0.2-2.1-0.2C8.4,17.3,8,16.6,8,15.9
		C8,14.4,9.5,13.3,10.9,13.9z M14.5,13.9c1.7,0.7,1.8,3.2,0.2,4c-1,0.5-2,0.1-2.7-0.8c-0.2-0.4-0.3-0.6-0.2-1.3
		c0-0.7,0.1-0.9,0.4-1.3C12.7,13.8,13.6,13.5,14.5,13.9z M17.2,13.9c0.2,0.2,0.2,0.2,0.6,0c1.2-0.6,2.5,0.4,2.5,2
		c0,1.3-0.8,2.2-1.9,2.2c-0.3,0-0.7-0.1-0.8-0.1c-0.2-0.1-0.2,0-0.2,0.6c0,0.8-0.2,1.2-0.6,1.2c-0.6,0-0.7-0.3-0.7-3.1
		c0-2.3,0-2.5,0.3-2.7C16.8,13.7,16.9,13.7,17.2,13.9z M21.8,13.9c0.2,0.2,0.2,0.4,0.2,1.5c0,1.4,0.1,1.6,0.6,1.6
		c0.7,0,0.8-0.1,0.8-1.6c0-1.1,0-1.3,0.2-1.6c0.1-0.1,0.3-0.2,0.4-0.2c0.1,0,0.2,0.1,0.4,0.2c0.2,0.2,0.2,0.4,0.2,1.5
		c0,1.5-0.2,2-0.9,2.4c-0.5,0.3-1.5,0.3-2,0c-0.7-0.3-0.9-0.8-0.9-2.4c0-1.3,0-1.4,0.3-1.6C21.4,13.7,21.5,13.7,21.8,13.9z M27.8,14
		c0.4,0.2,0.4,0.7,0.1,1c-0.1,0.1-0.3,0.1-0.7,0c-0.5-0.2-0.9-0.2-0.9,0.1c0,0.1,0.3,0.3,0.7,0.5c0.9,0.4,1.3,0.7,1.3,1.3
		c0,0.8-0.8,1.4-1.9,1.3c-0.7-0.1-1.3-0.4-1.3-0.8c0-0.4,0.3-0.6,0.8-0.4c0.6,0.2,1.1,0.3,1.2,0.1c0.1-0.2-0.2-0.5-0.7-0.7
		c-1.4-0.4-1.7-1.7-0.6-2.3C26.3,13.6,27.3,13.7,27.8,14z M13.1,15.1c-0.3,0.4-0.3,1.3,0,1.6c0.3,0.3,0.9,0.3,1.2,0
		c0.3-0.3,0.3-1.2,0-1.6C14.1,14.7,13.5,14.7,13.1,15.1z M17.7,15.1c-0.6,0.8,0,2.2,0.9,1.8c0.9-0.4,0.7-2.1-0.3-2.1
		C18.1,14.8,17.9,14.9,17.7,15.1z"/>
</g>
</svg>
