<?xml version="1.0" encoding="utf-8"?>
<!-- Generator: Adobe Illustrator 18.1.1, SVG Export Plug-In . SVG Version: 6.00 Build 0)  -->
<svg version="1.1" id="Layer_1" xmlns="http://www.w3.org/2000/svg" xmlns:xlink="http://www.w3.org/1999/xlink" x="0px" y="0px"
	 viewBox="-373 377 253 248" enable-background="new -373 377 253 248" xml:space="preserve">
<g transform="translate(0.000000,248.000000) scale(0.100000,-0.100000)">
	<path fill="#106370" d="M-2613.4-1321.7c-204.4-25.8-456.2-135.6-621.9-271.1c-149.6-121.6-267.9-279.7-345.4-457.3
		c-125.9-292.7-128-634.8-4.3-925.3c147.4-346.4,450.8-607.9,823.1-708c130.2-34.4,360.4-47.3,502.5-26.9
		c106.5,16.1,279.7,71,382,123.7c300.2,151.7,531.5,433.6,623,761.8c40.9,145.3,48.4,387.3,16.1,542.3
		c-50.6,247.5-163.5,448.7-352.9,629.4c-104.4,100.1-190.4,159.2-319.6,220.6C-2129.2-1329.3-2376.7-1290.5-2613.4-1321.7z
		 M-3267.6-2209.4c44.1-20.4,53.8-43,32.3-75.3c-19.4-29.1-29.1-31.2-95.8-12.9c-54.9,14-85,0-79.6-37.7c2.2-16.1,22.6-28,78.5-47.3
		c94.7-32.3,135.6-69.9,142-133.4c6.5-61.3-22.6-114-78.5-146.3c-54.9-31.2-151.7-33.4-216.3-3.2c-39.8,17.2-46.3,24.7-46.3,52.7
		c0,49.5,28,59.2,106.5,37.7c60.3-17.2,66.7-17.2,91.5,0c30.1,19.4,36.6,50.6,14,69.9c-8.6,6.5-46.3,21.5-86.1,33.4
		c-95.8,30.1-130.2,68.9-123.7,142c5.4,54.9,25.8,85,78.5,117.3C-3409.6-2186.8-3317.1-2185.7-3267.6-2209.4z M-2913.6-2325.6
		c44.1-18.3,53.8-32.3,45.2-66.7c-7.5-26.9-8.6-26.9-75.3-20.4c-61.3,6.5-71,5.4-91.5-15.1c-29.1-29.1-31.2-106.5-3.2-138.8
		c21.5-25.8,46.3-30.1,102.2-18.3c77.5,15.1,99-47.3,29.1-83.9c-50.6-26.9-135.6-20.4-182.9,14c-40.9,29.1-74.2,96.8-75.3,152.8
		C-3166.4-2368.6-3034.1-2275-2913.6-2325.6z M-2602.7-2325.6c143.1-59.2,151.7-278.7,14-344.3c-83.9-39.8-175.4-11.8-230.2,68.9
		c-21.5,32.3-24.7,48.4-21.5,108.7c3.2,57,9.7,78.5,32.3,108.7C-2757.6-2317-2676.9-2294.4-2602.7-2325.6z M-2368.1-2327.7
		c17.2-15.1,21.5-15.1,51.6,0c104.4,54.9,218.4-32.3,220.6-170c1.1-110.8-73.2-194.7-165.7-187.2c-26.9,3.2-57,8.6-66.7,12.9
		c-17.2,7.5-19.4,2.2-19.4-52.7c0-73.2-14-102.2-48.4-102.2c-53.8,0-60.3,30.1-57,269c3.2,200.1,4.3,218.4,23.7,232.4
		C-2402.5-2306.2-2391.8-2306.2-2368.1-2327.7z M-1971.1-2332c18.3-18.3,21.5-35.5,21.5-132.3c0-118.4,6.5-136.6,51.6-136.6
		c60.3,0,66.7,12.9,66.7,134.5c0,99,3.2,116.2,21.5,134.5c11.8,11.8,26.9,21.5,32.3,21.5c6.5,0,20.4-9.7,32.3-21.5
		c18.3-18.3,21.5-35.5,21.5-131.3c0-130.2-17.2-175.4-75.3-204.4c-45.2-23.7-127-24.7-177.5-4.3c-64.6,26.9-80.7,68.9-80.7,207.7
		c0,111.9,2.2,121.6,23.7,136.6C-2002.3-2306.2-1996.9-2306.2-1971.1-2332z M-1450.3-2335.3c31.2-21.5,37.7-61.3,11.8-82.8
		c-12.9-10.8-25.8-9.7-63.5,4.3c-47.3,18.3-81.8,14-81.8-9.7c0-7.5,29.1-25.8,63.5-40.9c77.5-33.4,108.7-64.6,108.7-110.8
		c0-71-69.9-118.4-162.5-109.7c-63.5,6.5-111.9,37.7-111.9,73.2c0,37.7,30.1,50.6,72.1,33.4c52.7-21.5,91.5-25.8,100.1-12.9
		c10.8,19.4-14,43-61.3,57c-117.3,34.4-143.1,144.2-48.4,203.4C-1581.6-2305.1-1493.4-2307.3-1450.3-2335.3z"/>
	<path fill="#106370" d="M-2719.9-2430c-29.1-32.3-28-109.7,3.2-139.9c30.1-30.1,77.5-30.1,102.2,1.1
		c23.7,30.1,25.8,104.4,2.2,137.7C-2633.9-2399.8-2692-2398.7-2719.9-2430z"/>
	<path fill="#106370" d="M-2325.1-2435.3c-55.9-71,4.3-187.2,78.5-153.9c77.5,35.5,57,181.8-25.8,181.8
		C-2292.8-2407.4-2311.1-2417-2325.1-2435.3z"/>
</g>
</svg>
