<?xml version="1.0" encoding="utf-8"?>
<!-- Generator: Adobe Illustrator 18.1.1, SVG Export Plug-In . SVG Version: 6.00 Build 0)  -->
<svg version="1.1" id="Layer_1" xmlns="http://www.w3.org/2000/svg" xmlns:xlink="http://www.w3.org/1999/xlink" x="0px" y="0px"
	 viewBox="0 0 127 127" enable-background="new 0 0 127 127" xml:space="preserve">
<g>
	<path fill="#1AC604" d="M106.8,62.8c6.6,7.7,11.9,16.4,15.7,25.8c-17.5,18.2-39.8,31.1-64.9,37.4c-6.3-8-10.8-17.1-14.3-26.5
		C78.9,93.6,98.8,72.6,106.8,62.8z"/>
	<path fill="#6817FF" d="M58.3,0C52,8,47.1,17.1,43.6,26.5c29.7,5.2,49.6,20.2,63.2,36.7c6.6-7.7,11.9-16.4,15.7-25.8
		C105.4,19.2,83.1,6.3,58.3,0z"/>
	<path d="M13.2,100.5c-7-24.1-7-49.2,0-74.7c6.6-0.7,17.1-1.4,30.4,0.7c-9.8,26.2-8,52-0.3,73.3C33.1,101.2,22.7,101.6,13.2,100.5z"
		/>
</g>
</svg>
