<?xml version="1.0" encoding="utf-8"?>
<!-- Generator: Adobe Illustrator 22.1.0, SVG Export Plug-In . SVG Version: 6.00 Build 0)  -->
<svg version="1.1" xmlns="http://www.w3.org/2000/svg" xmlns:xlink="http://www.w3.org/1999/xlink" x="0px" y="0px"
	 viewBox="0 0 178 51" style="enable-background:new 0 0 178 51;" xml:space="preserve">
<style type="text/css">
	.st0{display:none;}
	.st1{display:inline;fill:#FFFFFF;}
	.st2{fill:#FFFFFF;}
</style>
<g id="Layer_1" class="st0">
	<title>uq-logo-white</title>
	<path class="st1" d="M39.3,36.4c0,0.3,0,0.6,0,0.8l0.6-0.5c0.2-0.2,0.4-0.4,0.4-0.7c0-0.3-0.2-0.2-0.4-0.1L39.3,36.4L39.3,36.4
		L39.3,36.4z M38.9,36.3c0,0,0.2-0.2,0.4-0.3l0.7-0.5c0.5-0.4,0.7-0.3,0.7,0.1c0,0.3-0.1,0.6-0.4,0.9c0.1-0.1,0.3-0.1,0.3,0.3
		c0,0.2,0,0.4,0.1,0.6l-0.4,0.3c-0.1-0.1-0.1-0.2-0.1-0.3c0-0.5-0.1-0.6-0.4-0.3l-0.6,0.4v1l-0.4,0.3L38.9,36.3L38.9,36.3L38.9,36.3
		z"/>
	<path class="st1" d="M35,40.2V41l0.7-0.4c0.2-0.1,0.4-0.4,0.4-0.6c0-0.2-0.1-0.3-0.4-0.2L35,40.2L35,40.2L35,40.2z M35,39.2v0.7
		l0.6-0.4c0.2-0.1,0.3-0.3,0.3-0.5c0-0.3-0.1-0.3-0.3-0.2L35,39.2L35,39.2L35,39.2z M35.1,41.4l-0.5,0.2V39c0.1-0.1,0.2-0.2,0.4-0.2
		l0.8-0.4c0.4-0.2,0.7-0.2,0.7,0.3c0,0.3-0.1,0.5-0.3,0.7c0.3-0.1,0.4,0.1,0.4,0.4c0,0.5-0.4,1-0.9,1.2L35.1,41.4L35.1,41.4
		L35.1,41.4z"/>
	<path class="st1" d="M33.5,41.1L33,40.2l-0.3,1.3L33.5,41.1L33.5,41.1L33.5,41.1z M32.6,41.9l-0.2,0.8l-0.5,0.2l0.9-3l0.4-0.2
		l1.1,2.1L33.9,42l-0.3-0.6L32.6,41.9L32.6,41.9L32.6,41.9z"/>
	<path class="st1" d="M21.4,48.3L21,47.1l-0.4,1.1L21.4,48.3L21.4,48.3z M20.4,48.6l-0.2,0.7h-0.5l1-2.6h0.5l1,2.7h-0.5l-0.2-0.7
		L20.4,48.6L20.4,48.6L20.4,48.6z"/>
	<path class="st1" d="M14.5,42.7l-0.4-1.2l-0.4,1L14.5,42.7L14.5,42.7L14.5,42.7z M13.6,42.7l-0.2,0.6l-0.5-0.2l1-2.2l0.4,0.2
		l0.9,2.8l-0.4-0.1l-0.2-0.7L13.6,42.7L13.6,42.7L13.6,42.7z"/>
	<path class="st1" d="M15.2,45.4v3.3c4.4,1.6,9.3,1.6,13.8,0v-3.3c-2.2,0.6-4.5,0.9-6.9,0.9C19.8,46.3,17.4,46,15.2,45.4L15.2,45.4
		L15.2,45.4z M1.1,31.9v4.2c4,3.3,8.5,6.6,14,8.2l3.7-2.2C13,40.8,5.1,36.8,1.1,31.9L1.1,31.9L1.1,31.9z M6.9,35.5
		c-0.4-0.7-0.9-1.4-1.5-2.4v1.4C5.9,34.9,6.9,35.5,6.9,35.5L6.9,35.5L6.9,35.5z M35.2,36.9L35.2,36.9z M37.2,35.6
		c0.9-0.6,1.6-1.1,1.6-1.1l-0.1-1.4L37.2,35.6L37.2,35.6L37.2,35.6z M43.1,31.8c-4,4.9-12,9-17.7,10.2l3.7,2.2
		c2.7-0.9,5.3-2.1,7.8-3.5c4.8-3,6.3-4.8,6.3-4.8V31.8L43.1,31.8L43.1,31.8z M5.4,40.8v0.6c0,0.8-0.1,0.8,0.6,1.2l2.7,1.8v-1.6
		C7.6,42.2,6.5,41.5,5.4,40.8L5.4,40.8L5.4,40.8z M39.8,40.1v1.5c0,1.1-0.1,1.3-0.7,1.7c-1,0.6-2.4,1.7-4.7,3.1v-3
		c-1.4,0.7-2.8,1.3-4.3,1.7v4.4c-5.1,2-10.8,2-15.9,0v-4.4c-1.5-0.5-2.9-1.1-4.3-1.7v3C7.5,45,6,43.9,5,43.3
		c-0.6-0.4-0.7-0.6-0.7-1.7v-1.5c-1.5-1.1-3-2.3-4.4-3.5v-6.4h4.9c2,3.2,3.4,5.5,4.2,6.8c2.7,1.6,5.5,2.8,8.5,3.7
		c0.9,0.2,1.7,0.4,2.5,0.6v4c0.6,0,3.2,0,3.8,0v-4c0.8-0.1,1.7-0.4,2.5-0.6c3-0.9,5.9-2.1,8.6-3.7c0,0,2.2-3.6,4.1-6.8h4.9v6.4
		C42.7,37.8,41.3,39,39.8,40.1L39.8,40.1z M38.1,42.7c0.7-0.5,0.6-0.4,0.6-1.2v-0.6c-1,0.7-2.1,1.4-3.3,2v1.6L38.1,42.7L38.1,42.7
		L38.1,42.7z"/>
	<path class="st1" d="M6.1,1.1v19.7c0,7.6,6.7,15.4,16.1,18.2c9.3-2.9,16-10.6,16-18.2V1.1H6.1z M22.1,40.1C12.8,37.6,5,29.3,5,20.8
		V0h34.3v20.8C39.3,29.4,31.5,37.6,22.1,40.1L22.1,40.1L22.1,40.1z"/>
	<polygon class="st1" points="12.3,42.8 12.8,43 12.8,40.5 12.3,40.3 12.3,42.8 	"/>
	<polygon class="st1" points="10.1,39.6 10.8,40 10.8,42.2 11.3,42.4 11.3,40.2 12,40.5 12,40.1 10.1,39.2 10.1,39.6 	"/>
	<polygon class="st1" points="8,40.6 8.4,40.8 8.4,38.9 8.4,38.9 9.4,41.4 9.8,41.7 9.8,39 9.4,38.8 9.4,40.8 9.4,40.8 8.4,38.3 
		8,38 8,40.6 	"/>
	<polygon class="st1" points="6,39.4 7.6,40.4 7.6,40 6.4,39.2 6.4,38.5 7.4,39.2 7.4,38.8 6.4,38.1 6.4,37.4 7.5,38.2 7.5,37.8 
		6,36.8 6,39.4 	"/>
	<polygon class="st1" points="5.2,38.8 5.7,39.1 5.7,36.5 5.2,36.3 5.2,38.8 	"/>
	<path class="st1" d="M4.9,36.7c0-0.6-0.3-1.1-0.8-1.4c-0.6-0.4-0.9,0-0.9,0.8c0,0.7,0.3,1.5,0.9,1.9c0.5,0.3,0.8,0.1,0.8-0.5
		l-0.3-0.2c0,0.4-0.2,0.6-0.5,0.4c-0.4-0.3-0.6-0.8-0.6-1.4c0-0.5,0.2-0.9,0.6-0.6c0.3,0.2,0.4,0.5,0.5,0.8L4.9,36.7L4.9,36.7
		L4.9,36.7z"/>
	<path class="st1" d="M1.5,35c0,0.6,0.3,1.1,0.7,1.5c0.4,0.2,0.7,0.3,0.7-0.3c0-0.3-0.1-0.6-0.3-0.9c-0.1-0.1-0.5-0.5-0.5-0.6
		c-0.1-0.1-0.2-0.3-0.2-0.5c0-0.3,0.2-0.2,0.3-0.1c0.2,0.2,0.4,0.4,0.4,0.7l0.3,0.2c0-0.5-0.3-1-0.7-1.3c-0.3-0.2-0.6-0.2-0.6,0.3
		c0,0.3,0.1,0.7,0.4,0.9c0.2,0.3,0.4,0.4,0.5,0.6c0.1,0.1,0.1,0.3,0.1,0.4c0,0.2-0.1,0.3-0.4,0.1c-0.3-0.2-0.5-0.5-0.4-0.9L1.5,35
		L1.5,35L1.5,35z"/>
	<path class="st1" d="M24.8,47.5c-0.1-0.5-0.6-0.9-1.1-0.8c0,0,0,0,0,0c-0.7,0-1.3,0.7-1.3,1.4c0,0,0,0,0,0
		c-0.1,0.7,0.5,1.3,1.1,1.3c0.1,0,0.1,0,0.2,0c0.6,0,1.1-0.5,1.1-1.1h-0.5c0,0.4-0.3,0.7-0.7,0.7c-0.5,0-0.8-0.4-0.8-0.8
		c0-0.1,0-0.1,0-0.2c-0.1-0.5,0.3-1,0.8-1.1c0,0,0,0,0,0c0.3,0,0.6,0.2,0.7,0.5L24.8,47.5L24.8,47.5L24.8,47.5z"/>
	<polygon class="st1" points="41,37.2 42.4,36 42.4,35.6 41.4,36.5 41.4,35.8 42.3,34.9 42.3,34.6 41.4,35.4 41.4,34.8 42.4,33.8 
		42.4,33.5 41,34.7 41,37.2 	"/>
	<polygon class="st1" points="29.9,43.7 31.6,43 31.6,42.6 30.3,43.1 30.3,40.9 29.9,41.1 29.9,43.7 	"/>
	<path class="st1" d="M38.3,37.9c-0.1-0.4-0.3-0.7-0.8-0.2C37.1,38,37,38.5,37.1,39c0.1,0.4,0.3,0.6,0.8,0.3
		C38.2,39,38.4,38.4,38.3,37.9L38.3,37.9z M36.7,39.4c-0.1-0.7,0.2-1.5,0.7-2c0.6-0.6,1.1-0.4,1.2,0.2c0.1,0.7-0.2,1.5-0.7,2
		C37.3,40.1,36.8,40,36.7,39.4L36.7,39.4z"/>
	<path class="st1" d="M12.2,24.5c-1.1,1.2-1.9,2.6-2.4,4.2v-4.2H12.2z M27,24.5c0.9,2.7,2.7,4.5,6,5.6H11.3c3.3-1.1,5.1-2.9,6-5.6
		H27L27,24.5z M34.4,24.5v4.2c-0.5-1.6-1.3-3-2.4-4.2H34.4z"/>
	<path class="st1" d="M9.9,24.5v-18c1.4,4.3,3.9,6.1,8,6.7C17.2,9,15.5,6.5,11.3,5h21.7c-4.2,1.5-5.9,4-6.6,8.2
		c4.1-0.6,6.6-2.4,8-6.7v18H32c-1.5-1.4-3.5-2.3-5.6-2.5c0.1,0.9,0.3,1.7,0.6,2.5h-9.7c0.3-0.8,0.5-1.7,0.6-2.5
		c-2.1,0.2-4.1,1.1-5.6,2.5H9.9L9.9,24.5z M28.3,15h2.3c0.6,0,1,0.1,1,0.6c0,0.4-0.2,0.7-0.6,0.8c-0.1,0-0.2,0-0.2,0h-2.4L28.3,15
		L28.3,15L28.3,15z M15.9,16.4h-1.7c-0.1,0.2-0.4,0.4-0.7,0.4c-0.4,0-0.8-0.3-0.8-0.8c0,0,0,0,0,0v-0.1h-0.1c-0.1,0-0.2-0.1-0.3-0.2
		c0,0,0,0,0,0c0-0.1,0.1-0.2,0.2-0.2c0,0,0,0,0,0h0.1v-0.1c0-0.4,0.4-0.8,0.8-0.8c0.3,0,0.6,0.2,0.7,0.5h1.7L15.9,16.4L15.9,16.4
		L15.9,16.4z M13.8,15.9h-0.6l0,0c0,0.2,0.1,0.3,0.3,0.3c0,0,0,0,0,0C13.6,16.2,13.8,16.1,13.8,15.9C13.8,15.9,13.8,15.9,13.8,15.9
		L13.8,15.9L13.8,15.9z M13.2,15.4h0.6c0-0.2-0.1-0.3-0.3-0.3c0,0,0,0,0,0C13.3,15.1,13.2,15.2,13.2,15.4
		C13.2,15.4,13.2,15.4,13.2,15.4L13.2,15.4L13.2,15.4L13.2,15.4z M28.4,18.7h2.3c0.6,0,1,0.1,1,0.6c0,0.4-0.2,0.7-0.6,0.8
		c-0.1,0-0.2,0-0.2,0h-2.4L28.4,18.7L28.4,18.7L28.4,18.7z M15.9,20.1h-1.7c-0.1,0.2-0.4,0.4-0.7,0.4c-0.4,0-0.8-0.3-0.8-0.8
		c0,0,0,0,0,0v-0.1h-0.1c-0.1,0-0.2-0.1-0.3-0.2c0,0,0,0,0,0c0-0.1,0.1-0.2,0.2-0.2c0,0,0,0,0,0h0.1V19c0-0.4,0.4-0.8,0.8-0.8
		c0.3,0,0.6,0.2,0.7,0.5h1.7L15.9,20.1L15.9,20.1L15.9,20.1z M13.8,19.6h-0.6l0,0c0,0.2,0.1,0.3,0.3,0.3c0,0,0,0,0,0
		C13.7,19.9,13.8,19.8,13.8,19.6C13.8,19.6,13.8,19.6,13.8,19.6L13.8,19.6L13.8,19.6z M13.2,19.1h0.6c0-0.2-0.1-0.3-0.3-0.3
		c0,0,0,0,0,0C13.3,18.8,13.2,18.9,13.2,19.1C13.2,19.1,13.2,19.1,13.2,19.1L13.2,19.1L13.2,19.1L13.2,19.1z M21.7,20.1
		c-0.5-0.3-1.1-0.4-1.7-0.3h-1.8v-5.6c0.9,0,0.9-0.2,1.9-0.2c0.8-0.1,1.5,0.5,1.6,1.3c0,0,0,0,0,0L21.7,20.1L21.7,20.1L21.7,20.1z
		 M22.6,20.1c0.5-0.3,1.1-0.4,1.7-0.3H26v-5.6c-0.9,0-0.9-0.2-1.9-0.2c-0.8-0.1-1.5,0.5-1.6,1.3c0,0,0,0,0,0L22.6,20.1L22.6,20.1
		L22.6,20.1z M22.1,21.6c1.1,0,1-0.4,1.8-0.4h3.3v-6.7l-0.5-0.3v6.5h-2.6c-1.5,0-1.1,0.4-2.1,0.4s-0.6-0.4-2.1-0.4h-2.6v-6.5
		L17,14.4v6.7h3.3C21.1,21.2,21,21.6,22.1,21.6L22.1,21.6z"/>
	<path class="st1" d="M54,45.9l-0.8,2h1.7L54,45.9L54,45.9L54,45.9z M51.3,50c0.2,0,0.4-0.1,0.5-0.2c0.2-0.4,0.4-0.7,0.5-1.1
		l1.8-4.2h0.3l2.1,4.9c0.1,0.2,0.2,0.4,0.3,0.6c0.1,0.1,0.3,0.1,0.5,0.1v0.3h-2.3V50c0.2,0,0.4,0,0.5-0.1c0,0,0.1-0.1,0-0.2
		c0-0.2-0.1-0.4-0.1-0.5L55,48.5H53c-0.2,0.5-0.3,0.9-0.4,1c0,0.1-0.1,0.2-0.1,0.3c0,0.1,0,0.2,0.1,0.2c0.1,0,0.3,0.1,0.5,0.1v0.3
		h-1.8L51.3,50L51.3,50L51.3,50z"/>
	<path class="st1" d="M63.2,44.8c-0.2,0-0.4,0-0.6,0.1c-0.1,0.2-0.1,0.3-0.1,0.5v2.7c0,0.3,0,0.7,0.2,1c0.2,0.4,0.7,0.7,1.2,0.6
		c1.2,0,1.5-0.8,1.5-1.8v-2.2c0-0.3,0-0.6-0.1-0.8c-0.2-0.1-0.4-0.2-0.6-0.2v-0.3h2.1v0.3c-0.2,0-0.5,0.1-0.6,0.2
		c-0.1,0.3-0.2,0.5-0.1,0.8V48c0,0.5-0.1,1-0.3,1.4c-0.8,1.1-2.3,1.3-3.4,0.4c-0.2-0.1-0.3-0.3-0.4-0.4c-0.2-0.4-0.3-0.9-0.3-1.3
		v-2.7c0-0.2,0-0.4-0.1-0.5c-0.2-0.1-0.4-0.2-0.6-0.1v-0.3h2.5L63.2,44.8L63.2,44.8L63.2,44.8z"/>
	<path class="st1" d="M71.1,49.4c0.3,0.4,0.7,0.6,1.2,0.6c0.2,0,0.5-0.1,0.6-0.2c0.2-0.2,0.3-0.4,0.3-0.6c0-0.2-0.1-0.5-0.3-0.7
		c-0.5-0.4-1-0.7-1.5-1c-0.2-0.1-0.4-0.3-0.5-0.4c-0.2-0.3-0.4-0.6-0.4-1c0-0.8,0.6-1.6,1.5-1.6c0,0,0.1,0,0.1,0
		c0.2,0,0.5,0.1,0.7,0.1l0.4,0.1c0,0,0.1,0,0.1,0c0-0.1,0.1-0.2,0.1-0.2h0.3l0.2,2h-0.4c-0.1-0.4-0.3-0.9-0.6-1.2
		c-0.2-0.2-0.5-0.3-0.8-0.3c-0.4,0-0.7,0.3-0.8,0.6c0,0,0,0,0,0.1c0,0.2,0.1,0.4,0.2,0.5c0.2,0.2,0.4,0.4,0.6,0.5l0.7,0.5
		c0.4,0.2,0.7,0.5,1,0.8c0.2,0.3,0.3,0.6,0.3,0.9c0,0.5-0.2,0.9-0.5,1.2c-0.4,0.3-0.8,0.5-1.3,0.5c-0.3,0-0.6-0.1-0.8-0.1
		c-0.1-0.1-0.3-0.1-0.5-0.1c0,0-0.1,0-0.1,0c0,0.1-0.1,0.2-0.1,0.2h-0.3l-0.3-2h0.4C70.6,48.8,70.8,49.1,71.1,49.4L71.1,49.4
		L71.1,49.4z"/>
	<path class="st1" d="M82.9,44.5l0,1.6h-0.4c0-0.3-0.2-0.6-0.4-0.9C81.9,45,81.6,45,81.3,45h-0.4v4.3c0,0.2,0,0.4,0.1,0.5
		c0.2,0.1,0.5,0.1,0.7,0.1v0.3h-2.6V50c0.7,0,0.8-0.1,0.8-0.8V45h-0.4c-0.3,0-0.6,0-0.9,0.2c-0.2,0.3-0.3,0.6-0.4,0.9h-0.4l0-1.6
		H82.9L82.9,44.5z"/>
	<path class="st1" d="M89.8,46.1c0-0.4-0.2-0.8-0.5-0.9C89.1,45,88.8,45,88.5,45c-0.1,0-0.3,0-0.4,0c0,0.1,0,0.1,0,0.2v2
		c0.4,0,0.8-0.1,1.2-0.2C89.7,46.8,89.9,46.4,89.8,46.1L89.8,46.1L89.8,46.1z M87,49.8c0.1-0.2,0.1-0.4,0.1-0.6v-3.7
		c0-0.2,0-0.4-0.1-0.5c-0.2-0.1-0.4-0.2-0.6-0.2v-0.3h2.4c0.4,0,0.8,0.1,1.2,0.2c0.6,0.2,1,0.7,1,1.4c0,0.4-0.2,0.7-0.4,1
		c-0.3,0.2-0.6,0.4-1,0.4l1.6,2c0.2,0.2,0.4,0.4,0.7,0.4v0.4h-1.5l-2-2.6h-0.3v1.6c0,0.2,0,0.4,0.1,0.5c0.2,0.1,0.4,0.1,0.6,0.1v0.3
		h-2.5V50C86.6,50,86.8,49.9,87,49.8L87,49.8L87,49.8z"/>
	<path class="st1" d="M97.6,45.9l-0.8,2h1.7L97.6,45.9L97.6,45.9L97.6,45.9z M94.9,50c0.2,0,0.4-0.1,0.5-0.2
		c0.2-0.4,0.4-0.7,0.5-1.1l1.8-4.2H98l2.1,4.9c0.1,0.2,0.2,0.4,0.3,0.6c0.1,0.1,0.3,0.1,0.5,0.1v0.3h-2.3V50c0.2,0,0.4,0,0.5-0.1
		c0,0,0.1-0.1,0-0.2c0-0.2-0.1-0.4-0.1-0.5l-0.3-0.8h-2c-0.2,0.5-0.3,0.9-0.4,1c0,0.1-0.1,0.2-0.1,0.3c0,0.1,0,0.2,0.1,0.2
		c0.1,0,0.3,0.1,0.5,0.1v0.3H95L94.9,50L94.9,50L94.9,50z"/>
	<path class="st1" d="M104.9,49.8c0.1-0.2,0.1-0.4,0.1-0.5v-3.8c0-0.2,0-0.4-0.1-0.5c-0.2-0.1-0.4-0.2-0.6-0.1v-0.3h2.5v0.3
		c-0.2,0-0.4,0-0.6,0.1c-0.1,0.1-0.1,0.3-0.1,0.5v4.1c0,0.1,0,0.1,0,0.2c0,0,0.1,0.1,0.1,0.1h0.2h0.4c0.5,0,1,0,1.5-0.2
		c0.3-0.3,0.6-0.6,0.7-1h0.4l-0.4,1.7h-4.6V50C104.4,50,104.7,49.9,104.9,49.8L104.9,49.8L104.9,49.8z"/>
	<path class="st1" d="M113.4,49.8c0.1-0.2,0.1-0.4,0.1-0.5v-3.8c0-0.2,0-0.4-0.1-0.5c-0.2-0.1-0.5-0.2-0.7-0.1v-0.3h2.6v0.3
		c-0.2,0-0.5,0-0.7,0.1c-0.1,0.2-0.1,0.4-0.1,0.5v3.8c0,0.2,0,0.4,0.1,0.5c0.2,0.1,0.5,0.1,0.7,0.1v0.3h-2.7V50
		C112.9,50,113.1,49.9,113.4,49.8L113.4,49.8L113.4,49.8z"/>
	<path class="st1" d="M121.5,45.9l-0.8,2h1.7L121.5,45.9L121.5,45.9L121.5,45.9z M118.8,50c0.2,0,0.4-0.1,0.5-0.2
		c0.2-0.4,0.4-0.7,0.5-1.1l1.8-4.2h0.3l2.1,4.9c0.1,0.2,0.2,0.4,0.3,0.6c0.1,0.1,0.3,0.1,0.5,0.1v0.3h-2.3V50c0.2,0,0.4,0,0.5-0.1
		c0,0,0.1-0.1,0-0.2c0-0.2-0.1-0.4-0.1-0.5l-0.3-0.8h-2.1c-0.2,0.5-0.3,0.9-0.4,1c0,0.1-0.1,0.2-0.1,0.3c0,0.1,0,0.2,0.1,0.2
		c0.1,0,0.3,0.1,0.5,0.1v0.3h-1.8V50L118.8,50L118.8,50z"/>
	<path class="st1" d="M138.9,5.4v4.2h0.9c1.2,0,2.2-1,2.3-2.2c0-1.2-1-2.2-2.2-2.1c0,0,0,0,0,0C139.5,5.2,139.2,5.3,138.9,5.4
		L138.9,5.4L138.9,5.4z M143.9,7.4c-0.1,1.3-1.1,2.4-2.4,2.7l3,4c0.2,0.4,0.6,0.7,1,0.8h0.1v0.3h-2.4l-3.6-4.9H139v3.5
		c-0.1,0.5,0.2,1,0.7,1.1c0.1,0,0.2,0,0.3,0h0.1v0.3h-3.8v-0.3h0.1c0.5,0,0.9-0.4,1-0.9c0-0.1,0-0.2,0-0.2V6c0.1-0.5-0.2-1-0.7-1.1
		c-0.1,0-0.1,0-0.2,0h-0.1V4.6h2.7C143,4.4,143.9,5.7,143.9,7.4L143.9,7.4L143.9,7.4z"/>
	<path class="st1" d="M57.1,15.1v-0.4h-0.6c-0.7,0-1.2-0.6-1.1-1.3V2.8h2.4c1,0,1.6,0.8,1.7,2.2h0.3l-0.1-3.2c0,0,0-0.1-0.1-0.1H49
		c0,0-0.1,0.1-0.1,0.1L48.8,5h0.4c0.1-1.5,0.7-2.2,1.7-2.2h2.4v10.7c0,0.7-0.5,1.2-1.2,1.3h-0.6v0.4L57.1,15.1L57.1,15.1z"/>
	<path class="st1" d="M97,3c0.1-0.4-0.3-0.9-0.7-0.9c-0.1,0-0.1,0-0.2,0h-0.5V1.7h3.8v0.4H99c-0.4,0-0.8,0.3-0.9,0.7
		c0,0.1,0,0.1,0,0.2v7.8c0,2.5-1.9,4.5-5,4.5s-5.1-2-5.1-4.7V3.3c0-0.7-0.5-1.2-1.2-1.2h-0.1V1.7h4.8v0.4h-0.2
		c-0.7,0-1.2,0.6-1.2,1.2v7.3c-0.2,1.8,1.1,3.4,2.9,3.5c0.1,0,0.2,0,0.3,0c1.9,0.2,3.6-1.2,3.7-3.1c0-0.1,0-0.2,0-0.2V3L97,3z"/>
	<path class="st1" d="M67.9,10.1h-4.4v3.6c-0.1,0.5,0.2,1,0.7,1.1c0.1,0,0.2,0,0.2,0h0.1v0.3h-3.7v-0.3h0.1c0.5,0,0.9-0.3,1-0.8
		c0-0.1,0-0.2,0-0.3V5.9c0.1-0.5-0.2-1-0.6-1.1c-0.1,0-0.2,0-0.3,0h-0.1V4.5h3.7v0.3h-0.1c-0.5,0-0.9,0.4-0.9,0.9c0,0.1,0,0.1,0,0.2
		v3.4h4.4V5.9c0.1-0.5-0.2-1-0.7-1.1c-0.1,0-0.2,0-0.3,0h-0.1V4.5h3.8v0.3h-0.1c-0.5,0-0.9,0.4-1,0.9c0,0.1,0,0.2,0,0.2v7.8
		c-0.1,0.5,0.2,1,0.7,1.1c0.1,0,0.2,0,0.3,0h0.1v0.3h-3.8v-0.3h0.1c0.5,0.1,1-0.3,1-0.8c0-0.1,0-0.2,0-0.3L67.9,10.1L67.9,10.1
		L67.9,10.1z"/>
	<path class="st1" d="M74.6,9.9v3.9c0,0.3,0.2,0.5,0.5,0.5c0,0,0,0,0,0h2.6c1.2,0,2.3-0.9,2.4-2.1h0.3l-0.9,2.9h-7.7v-0.3h0.1
		c0.5,0.1,1-0.3,1-0.8c0-0.1,0-0.2,0-0.3V5.9c0.1-0.5-0.2-1-0.7-1.1c-0.1,0-0.2,0-0.3,0h-0.1V4.5h7.5l0.2,2.4h-0.3
		c0.1-0.9-0.5-1.6-1.4-1.7c0,0-0.1,0-0.1,0h-3.2v3.9h3c0.5-0.1,0.8-0.5,0.7-1V8h0.4v2.9h-0.3v-0.1c0.1-0.5-0.2-0.9-0.7-1
		c0,0,0,0,0,0H74.6L74.6,9.9z"/>
	<path class="st1" d="M114.2,13.7c-0.1,0.5,0.2,1,0.7,1.1c0.1,0,0.2,0,0.3,0l0,0v0.3h-3.7v-0.3l0,0c0.5,0,1-0.3,1-0.8
		c0-0.1,0-0.2,0-0.3V5.9c0.1-0.5-0.2-1-0.8-1.1c-0.1,0-0.2,0-0.2,0l0,0V4.5h3.7v0.3l0,0c-0.5,0-1,0.3-1,0.8c0,0.1,0,0.2,0,0.3V13.7
		L114.2,13.7z"/>
	<path class="st1" d="M121.6,15l3.6-9.3c0.1-0.5,0.5-0.9,1-0.9l0,0V4.5h-2.4v0.3h0.1c0.3,0,0.5,0.3,0.5,0.6c0,0.1,0,0.1,0,0.2
		l-2.6,6.5l-2.8-6.5c-0.1-0.3,0-0.6,0.3-0.7c0,0,0.1,0,0.1,0h0.4V4.5h-3.5v0.3c0.5,0.1,0.9,0.4,1,0.9l4,9.4
		C121.5,15.1,121.6,15.2,121.6,15c0.1,0,0.1,0,0.1,0l0,0H121.6z"/>
	<path class="st1" d="M130,9.9v3.9c0,0.3,0.2,0.5,0.5,0.5c0,0,0,0,0,0h2.6c1.2,0,2.3-0.8,2.5-2h0.3l-0.9,2.9h-7.7v-0.3h0.1
		c0.5,0,0.9-0.3,1-0.8c0-0.1,0-0.2,0-0.3V5.9c0.1-0.5-0.2-1-0.7-1.1c-0.1,0-0.2,0-0.2,0h-0.1V4.5h7.5L135,7h-0.3
		c0.1-0.9-0.5-1.6-1.4-1.7c0,0,0,0-0.1,0H130v3.9h3c0.5-0.1,0.8-0.5,0.8-1V8h0.3V11h-0.3v-0.1c0.1-0.5-0.2-0.9-0.7-1c0,0,0,0,0,0
		H130z"/>
	<path class="st1" d="M146.6,11.5h-0.3v3.6h0.3c0-0.3,0.3-0.6,0.7-0.5c0.1,0,0.2,0,0.2,0.1c1.2,0.8,2.7,0.7,3.9-0.1
		c1.1-0.8,1.5-2.3,0.9-3.5c-0.6-1.2-2.2-2.1-3.5-2.8c-1.5-0.8-1.5-2.3-0.4-3c1.4-0.8,3.4,0.6,3.4,2.6h0.3V4.5h-0.3
		c-0.1,0.5-0.5,0.6-1,0.3c-1.4-0.7-2.6-0.6-3.6,0.3c-1.1,1-1.2,2.8-0.2,3.9c0.2,0.2,0.4,0.4,0.6,0.5c1.2,0.6,2.2,1.4,3.1,2.3
		c0.6,0.7,0.5,1.7-0.2,2.2c-0.1,0-0.1,0.1-0.2,0.1C149,15.4,146.6,13.8,146.6,11.5L146.6,11.5L146.6,11.5z"/>
	<path class="st1" d="M102.4,4.5h-2.6v0.3c0.3-0.1,0.7,0.1,0.9,0.3c0.2,0.3,0.4,0.5,0.7,0.8V14c0,0.5-0.4,0.8-0.9,0.8c0,0,0,0,0,0
		h-0.1v0.3h2.9v-0.3h-0.1c-0.5,0.1-0.9-0.2-1-0.7c0,0,0,0,0-0.1V7l6.8,8.1h0.2V5.6c0-0.5,0.4-0.8,0.9-0.8c0,0,0,0,0,0h0.1V4.5h-2.9
		v0.3h0.1c0.5,0,0.9,0.3,0.9,0.7c0,0,0,0,0,0.1v6L102.4,4.5L102.4,4.5L102.4,4.5z"/>
	<path class="st1" d="M156.4,13.7c-0.1,0.5,0.2,1,0.7,1.1c0.1,0,0.2,0,0.3,0h0.1v0.3h-3.8v-0.3h0.1c0.5,0,0.9-0.3,1-0.8
		c0-0.1,0-0.2,0-0.3V5.9c0.1-0.5-0.2-1-0.7-1.1c-0.1,0-0.2,0-0.2,0h-0.1V4.5h3.7v0.3h-0.1c-0.5,0-1,0.3-1,0.8c0,0.1,0,0.2,0,0.3
		L156.4,13.7L156.4,13.7L156.4,13.7z"/>
	<path class="st1" d="M172.3,10.6l-3.2-5c-0.2-0.5-0.6-0.8-1.1-0.8V4.5h3.7v0.3h-0.2c-0.3,0-0.5,0.3-0.5,0.6c0,0.1,0,0.1,0.1,0.2
		l2.6,4.1l2.4-4.1c0.1-0.2,0.1-0.5-0.2-0.7c0,0-0.1,0-0.2-0.1h-0.3V4.5h2.5v0.3c-0.5,0-0.9,0.3-1.2,0.8l-2.8,4.9v3.2
		c-0.1,0.5,0.2,1,0.7,1.1c0.1,0,0.2,0,0.3,0h0.1v0.3h-3.8v-0.3h0.1c0.5,0.1,1-0.3,1-0.8c0-0.1,0-0.2,0-0.3L172.3,10.6L172.3,10.6
		L172.3,10.6z"/>
	<path class="st1" d="M163.8,13.8c-0.1,0.5,0.2,0.9,0.7,1c0.1,0,0.2,0,0.3,0l0,0v0.3h-3.7v-0.3l0,0c0.5,0.1,0.9-0.3,1-0.8
		c0-0.1,0-0.1,0-0.2V5.3H160c-0.8,0-1.2,0.6-1.3,1.7h-0.2l0.1-2.5c0,0,0-0.1,0.1-0.1h8.6c0,0,0.1,0,0.1,0.1l0.1,2.5h-0.3
		c-0.1-1.2-0.5-1.7-1.3-1.7h-2.1L163.8,13.8L163.8,13.8L163.8,13.8z"/>
	<path class="st1" d="M64.9,33.4c-0.1,0.5,0.2,1,0.7,1.1c0.1,0,0.2,0,0.3,0H66v0.3h-3.7v-0.3h0.1c0.5,0.1,1-0.3,1-0.8
		c0-0.1,0-0.2,0-0.3v-7.8c0.1-0.5-0.2-1-0.7-1.1c-0.1,0-0.2,0-0.3,0h-0.1v-0.3h7.9l0.2,2.5h-0.2c0.1-0.9-0.6-1.6-1.4-1.7
		c0,0,0,0,0,0h-3.7v3.9h3c0.5-0.1,0.8-0.5,0.7-0.9c0,0,0,0,0-0.1v-0.1H69v2.9h-0.3l0,0c0.1-0.5-0.2-0.9-0.7-1c0,0,0,0,0,0h-3V33.4
		L64.9,33.4L64.9,33.4z"/>
	<path class="st1" d="M102.8,29.5v3.9c0,0.3,0.2,0.6,0.5,0.6c0,0,0,0,0,0h2.6c1.2,0,2.2-0.9,2.4-2.1h0.3l-0.9,2.9h-7.7v-0.3h0.1
		c0.5,0.1,1-0.3,1-0.8c0-0.1,0-0.2,0-0.3v-7.8c0.1-0.5-0.2-1-0.7-1.1c-0.1,0-0.2,0-0.3,0h-0.1v-0.3h7.5l0.2,2.5h-0.2
		c0.1-0.8-0.5-1.6-1.4-1.7c0,0-0.1,0-0.1,0h-3.2v3.9h3c0.5-0.1,0.8-0.5,0.8-1v-0.1h0.3v2.9h-0.3l0,0c0.1-0.5-0.3-0.9-0.8-1
		L102.8,29.5L102.8,29.5z"/>
	<path class="st1" d="M97.2,25.1c0-0.4-0.3-0.7-0.6-0.7c0,0-0.1,0-0.1,0h-0.3v-0.3h2.8v0.3h-0.3c-0.4,0-0.7,0.3-0.7,0.6
		c0,0,0,0.1,0,0.1v6.2c0,2-1.5,3.5-4,3.5S90,33.3,90,31.1v-5.7c0-0.5-0.4-1-0.9-1l0,0v-0.3h3.6v0.3h0c-0.5,0.1-0.9,0.5-0.9,1v5.8
		c-0.1,1.4,0.9,2.7,2.3,2.8c0.1,0,0.1,0,0.2,0c1.5,0.1,2.9-1,3-2.5c0-0.1,0-0.1,0-0.2V25.1L97.2,25.1z"/>
	<path class="st1" d="M111.9,29.5v3.9c0,0.3,0.2,0.5,0.5,0.6c0,0,0,0,0,0h2.6c1.4,0,2.1-0.9,2.4-2.1h0.3l-0.9,2.9h-7.7v-0.3l0,0
		c0.5,0,1-0.3,1-0.8c0-0.1,0-0.2,0-0.3v-7.8c0.1-0.5-0.2-1-0.7-1.1c-0.1,0-0.2,0-0.3,0l0,0v-0.3h7.4l0.2,2.5h-0.2
		c0.1-0.9-0.5-1.6-1.4-1.7c0,0-0.1,0-0.1,0h-3.2v3.9h3c0.5,0,0.8-0.5,0.8-1c0,0,0,0,0,0v-0.1h0.3v2.9h-0.3l0,0
		c0.1-0.5-0.3-0.9-0.8-1L111.9,29.5L111.9,29.5z"/>
	<path class="st1" d="M139.7,33.3c0,0.3,0.2,0.6,0.5,0.7h2.4c1.4,0,2.1-0.9,2.4-2.1h0.3l-0.8,2.9h-7.5v-0.3h0.1c0.5,0,0.9-0.4,1-0.9
		c0-0.1,0-0.1,0-0.2v-7.7c0.1-0.5-0.3-1.1-0.8-1.1c0,0-0.1,0-0.1,0h-0.1v-0.3h3.7v0.3h-0.1c-0.6,0-1,0.4-1,1c0,0.1,0,0.1,0,0.2
		L139.7,33.3L139.7,33.3L139.7,33.3z"/>
	<path class="st1" d="M129.6,31.2h-0.3v3.6h0.3c0-0.3,0.3-0.6,0.6-0.6c0.1,0,0.2,0,0.3,0.1c1.2,0.8,2.7,0.8,3.9,0
		c1.1-0.8,1.4-2.3,0.9-3.5c-0.6-1.2-2.3-2.1-3.5-2.8c-1.5-0.8-1.5-2.3-0.4-3c1.3-0.8,3.3,0.6,3.3,2.6h0.3v-3.5h-0.3
		c-0.1,0.5-0.5,0.6-1,0.4c-1.1-0.7-2.6-0.6-3.6,0.3c-1.1,1.1-1.2,2.8-0.1,3.9c0.2,0.2,0.4,0.3,0.6,0.5c1.2,0.6,2.2,1.4,3.1,2.3
		c0.6,0.7,0.4,1.7-0.3,2.3c0,0-0.1,0-0.1,0.1C132,35,129.6,33.5,129.6,31.2L129.6,31.2L129.6,31.2z"/>
	<path class="st1" d="M120.4,24.1h-2.6v0.3c0.3-0.1,0.7,0.1,0.9,0.3c0.3,0.3,0.4,0.5,0.7,0.9v8.1c0,0.5-0.4,0.8-0.9,0.8c0,0,0,0,0,0
		h-0.1v0.3h2.9v-0.3h-0.1c-0.5,0.1-0.9-0.3-0.9-0.7c0,0,0,0,0-0.1v-7l6.8,8.1h0.2v-9.5c0-0.5,0.4-0.8,0.9-0.8c0,0,0,0,0,0h0.1v-0.3
		h-2.9v0.3h0.1c0.5-0.1,0.9,0.3,1,0.7c0,0,0,0,0,0.1v6L120.4,24.1L120.4,24.1L120.4,24.1z"/>
	<path class="st1" d="M158.8,24.1h-2.6v0.3c0.3-0.1,0.7,0.1,0.9,0.3c0.3,0.3,0.4,0.5,0.7,0.9v8.1c0,0.5-0.4,0.8-0.9,0.8c0,0,0,0,0,0
		h-0.1v0.3h2.8v-0.3l0,0c-0.5,0.1-0.9-0.2-1-0.7c0,0,0-0.1,0-0.1v-7l6.8,8.1h0.2v-9.5c0-0.5,0.4-0.8,0.9-0.8c0,0,0,0,0,0h0.1v-0.3
		h-2.8v0.3c0.5-0.1,0.9,0.3,1,0.7c0,0,0,0,0,0.1v6L158.8,24.1L158.8,24.1L158.8,24.1z"/>
	<path class="st1" d="M154.8,33.5c0.1,0.5,0.5,0.9,1,0.9h0.1v0.3h-3.6v-0.3h0.3c0.3,0,0.5-0.2,0.5-0.5c0-0.1,0-0.1,0-0.2l-1-2.4
		h-3.7l-1,2.4c-0.1,0.3,0.1,0.6,0.4,0.7c0.1,0,0.1,0,0.2,0h0.1v0.3h-2.8v-0.3h0.2c0.5-0.1,0.9-0.5,1.1-1l3.8-9.5
		c0-0.1,0.2-0.1,0.2-0.1c0,0,0.1,0.1,0.1,0.1L154.8,33.5L154.8,33.5L154.8,33.5z M148.7,30.5h3l-1.5-3.6L148.7,30.5L148.7,30.5
		L148.7,30.5z"/>
	<path class="st1" d="M178,29.4c0,2.9-2.3,5.3-5.2,5.3c0,0-0.1,0-0.1,0h-4.8v-0.3h0.1c0.5,0,0.9-0.4,1-0.9c0-0.1,0-0.2,0-0.2v-7.7
		c0.1-0.5-0.2-1-0.7-1.1c-0.1,0-0.2,0-0.2,0h-0.1v-0.3h3.9C178.4,23.9,178,29.4,178,29.4L178,29.4L178,29.4z M170.8,24.9v9
		c0.3,0.1,0.7,0.1,1,0.1c3.1,0,4.6-1.9,4.6-4.6c0-0.1,0.2-4.8-4.7-4.7C171.4,24.6,171,24.7,170.8,24.9L170.8,24.9L170.8,24.9z"/>
	<path class="st1" d="M55,21c3.8,0.1,6.2,3,6.2,6.8s-2.4,6.8-6.2,6.8s-6.2-3.1-6.2-6.8C49.1,20.7,55,21,55,21L55,21z M51.1,27.8
		c0,3.6,1.6,6,3.9,6s3.9-2.2,3.9-6.1c-0.1-5.1-2.7-5.8-3.9-5.9C52.1,22,51.1,24.9,51.1,27.8L51.1,27.8z"/>
	<path class="st1" d="M82,21.3c0,0,6.2,0,6.3,6.9c0.2,2.8-1.5,5.4-4.2,6.4c0.8,1.7,2.4,2.8,4.2,2.9v0.4c-2.8,0.1-5.6-1-7.5-3.1
		c-3.1-0.6-5-3.4-5-6.7C75.8,24.3,78.2,21.3,82,21.3L82,21.3L82,21.3z M82,22.1c0,0-3.8-0.2-3.8,6c0,3.9,1.7,6,3.9,6s3.9-2.1,3.9-6
		S84.1,22.1,82,22.1L82,22.1z"/>
</g>
<g id="Layer_2">
	<path class="st2" d="M89.4,46.7l-1.6-2c0.7-0.3,1.2-0.8,1.2-1.4c0-0.5-0.1-0.8-0.4-1c-0.4-0.4-1.1-0.5-2.2-0.5h-1.5v0.3H85
		c0.3,0,0.4,0.2,0.4,0.5v4c0,0.4-0.2,0.5-0.4,0.5h-0.1v0.3h2.1V47h-0.1c-0.3,0-0.4-0.1-0.4-0.5v-1.7h0.2l1.9,2.5h1.4V47h-0.1
		C89.6,47,89.5,46.9,89.4,46.7 M87.9,43.3c0,0.6-0.5,1-1.1,1h-0.4v-2c0.2-0.1,0.4-0.1,0.4-0.1C87.4,42.3,87.9,42.7,87.9,43.3
		 M112.8,42.1h0.1c0.2,0,0.4,0.1,0.4,0.5v4c0,0.3-0.1,0.5-0.4,0.5h-0.1v0.3h2.1V47h-0.1c-0.3,0-0.4-0.1-0.4-0.5v-4
		c0-0.4,0.2-0.5,0.4-0.5h0.1v-0.3h-2.1V42.1z M80.4,41.8h-4.5c-0.1,0-0.1,0.1-0.1,0.1l0,1.3h0.3l0-0.1c0-0.5,0.2-0.8,0.6-0.8h1v4.2
		c0,0.3-0.1,0.4-0.4,0.4h-0.1v0.3h2.1V47h-0.1c-0.3,0-0.4-0.1-0.4-0.4v-4.2h1c0.2,0,0.5,0.1,0.6,0.8l0,0.1h0.3l-0.1-1.3
		C80.5,41.8,80.5,41.8,80.4,41.8 M62.2,42.1h0.2c0.2,0,0.3,0.1,0.3,0.3v3.2c0,0.8-0.7,1.3-1.5,1.3c-0.7,0-1.2-0.6-1.2-1.3v-2.9
		c0-0.2,0.2-0.4,0.4-0.4h0.1v-0.3h-2.1V42l0,0.1h0.1c0.2,0,0.4,0.2,0.4,0.4v2.9c0,1.2,0.9,2,2.2,2c1.3,0,2.1-0.7,2.1-1.9v-3.2
		c0-0.1,0-0.3,0.3-0.3h0.3v-0.3h-1.6V42.1z M108.2,45.8c-0.2,0.7-0.6,1-1.2,1h-1.3c-0.1,0-0.2-0.1-0.2-0.3v-3.9
		c0-0.4,0.1-0.5,0.4-0.5h0.1v-0.3H104v0.3h0.1c0.1,0,0.4,0,0.4,0.5v3.9c0,0.4-0.2,0.5-0.4,0.5H104v0.3h4.1l0.5-1.6L108.2,45.8
		L108.2,45.8z M69.6,43.8l-0.1-0.1c-0.4-0.2-0.6-0.5-0.6-0.8c0-0.2,0.1-0.4,0.4-0.6c0.3-0.2,0.6-0.1,0.9,0c0.4,0.2,0.7,0.7,0.7,1.2
		v0.1h0.3v-1.9h-0.3l0,0.1c0,0.1-0.1,0.1-0.1,0.2c-0.1,0-0.2,0-0.3,0c-0.8-0.4-1.5-0.3-2,0.1c-0.3,0.3-0.5,0.8-0.5,1.3
		c0,0.5,0.3,0.9,0.7,1.1c0.1,0.1,0.3,0.2,0.4,0.3c0.5,0.3,1,0.6,1.2,0.9c0.3,0.4,0.2,0.7-0.2,1.1c-0.3,0.2-0.6,0.3-1,0.1
		c-0.4-0.2-0.8-0.7-0.8-1.4v-0.1h-0.3v2h0.3l0-0.1c0-0.1,0.1-0.2,0.1-0.2c0.1,0,0.1,0,0.2,0c0.3,0.2,0.7,0.3,1.1,0.3
		c0.4,0,0.7-0.1,1-0.3c0.6-0.5,0.8-1.3,0.5-1.9C71.1,44.6,70.3,44.1,69.6,43.8 M99.2,46.6l-2.1-4.8c0,0-0.1-0.1-0.1-0.1
		c0,0-0.1,0-0.2,0.1l-2,4.8c-0.1,0.2-0.3,0.4-0.5,0.4h-0.2v0.3h1.6V47h-0.2c-0.1,0-0.2,0-0.2-0.1c0,0,0-0.1,0-0.1l0.5-1.1h1.8
		l0.5,1.1c0,0.1,0,0.1,0,0.2C98,47,98,47,97.9,47h-0.2v0.3h2.1V47h-0.1C99.4,47,99.3,46.9,99.2,46.6 M97.3,45.1H96l0.7-1.5
		L97.3,45.1z M124.6,47c-0.2,0-0.3-0.1-0.4-0.4l-2.1-4.8c0,0-0.1-0.1-0.1-0.1c0,0-0.1,0-0.2,0.1l-2,4.8c-0.1,0.2-0.3,0.4-0.5,0.4
		h-0.2v0.3h1.6V47h-0.2c-0.1,0-0.2,0-0.2-0.1c0,0,0-0.1,0-0.1l0.5-1.1h1.8l0.5,1.1c0,0.1,0,0.1,0,0.2c0,0.1-0.1,0.1-0.2,0.1h-0.2
		v0.3h2.1V47H124.6z M122.4,45.1h-1.3l0.7-1.5L122.4,45.1z M53.7,46.6l-2.1-4.8c0,0-0.1-0.1-0.1-0.1c0,0-0.1,0-0.2,0.1l-2,4.8
		C49.2,46.8,49,47,48.8,47h-0.2v0.3h1.6V47H50c-0.1,0-0.2,0-0.2-0.1c0,0,0-0.1,0-0.1l0.5-1.1h1.8l0.5,1.1c0,0.1,0,0.1,0,0.2
		c0,0.1-0.1,0.1-0.2,0.1h-0.2v0.3h2.1V47h-0.1C53.9,47,53.8,46.9,53.7,46.6 M51.8,45.1h-1.3l0.7-1.5L51.8,45.1z M142.3,10.5
		c0.2,0.1,0.5,0.3,0.7,0.4c0.8,0.5,1.8,1.1,2.2,1.6c0.5,0.7,0.4,1.3-0.3,1.9c-0.5,0.4-1.1,0.5-1.7,0.2c-0.7-0.3-1.5-1.2-1.5-2.4
		v-0.1h-0.5v3.5h0.5l0-0.1c0.1-0.2,0.2-0.3,0.3-0.4c0.1,0,0.2,0,0.3,0c0.6,0.3,1.3,0.5,1.9,0.5c0.7,0,1.3-0.2,1.8-0.6
		c1.1-0.8,1.4-2.2,0.8-3.3c-0.6-1.1-2-1.9-3.2-2.5c-0.6-0.4-1-0.8-1-1.4c0-0.4,0.2-0.8,0.6-1.1c0.5-0.3,1.1-0.2,1.6,0.1
		c0.6,0.3,1.2,1.1,1.2,2.1v0.1h0.5V5.8H146l0,0.1c0,0.1-0.1,0.2-0.1,0.3c-0.1,0.1-0.3,0-0.6-0.1c-1.4-0.6-2.5-0.6-3.4,0.3
		c-0.6,0.6-0.9,1.4-0.8,2.2C141.1,9.4,141.5,10.1,142.3,10.5 M129.8,12.7h-0.6l0,0.1c-0.4,1.2-1,1.8-2.1,1.8h-2.4
		c-0.2,0-0.3-0.1-0.3-0.3v-3.4h2.6c0.4,0,0.6,0.5,0.6,0.8v0.2h0.5V8.9h-0.5v0.2c0,0.3-0.2,0.8-0.6,0.8h-2.6V6.7h2.8
		c0.7,0,1.1,0.6,1.2,1.4l0,0.1h0.5l-0.2-2.4h-7.1v0.5h0.2c0.5,0,0.7,0.3,0.7,0.9v7c0,0.6-0.2,0.9-0.7,0.9h-0.2v0.5h7.3L129.8,12.7z
		 M152.4,15h-0.2c-0.5,0-0.7-0.3-0.7-0.9v-7c0-0.6,0.2-0.9,0.7-0.9h0.2V5.8h-3.7v0.5h0.2c0.5,0,0.7,0.3,0.7,0.9v7
		c0,0.6-0.2,0.9-0.7,0.9h-0.2v0.5h3.7V15z M62.4,15h-0.2c-0.5,0-0.7-0.3-0.7-0.9V11h3.8v3.1c0,0.6-0.2,0.9-0.8,0.9h-0.2v0.5H68V15
		h-0.2c-0.5,0-0.7-0.3-0.7-0.9v-7c0-0.6,0.2-0.9,0.7-0.9H68V5.8h-3.7v0.5h0.2c0.5,0,0.8,0.3,0.8,0.9v2.9h-3.8V7.2
		c0-0.6,0.2-0.9,0.7-0.9h0.2V5.8h-3.7v0.5h0.2c0.5,0,0.7,0.2,0.7,0.9v7c0,0.6-0.2,0.9-0.7,0.9h-0.2v0.5h3.7V15z M77.6,12.7h-0.6
		l0,0.1c-0.4,1.2-1,1.7-2.1,1.7h-2.4c-0.2,0-0.3-0.1-0.3-0.3v-3.4h2.6c0.4,0,0.5,0.4,0.5,0.8v0.2h0.5V8.9h-0.5v0.2
		c0,0.3-0.2,0.8-0.5,0.8h-2.6V6.7H75c0.7,0,1.1,0.5,1.2,1.4l0,0.1h0.5l-0.2-2.4h-7.1v0.5h0.2c0.5,0,0.7,0.3,0.7,0.9v7
		c0,0.6-0.2,0.9-0.7,0.9h-0.2v0.5h7.3L77.6,12.7z M164,7l2.9,4.4v2.7c0,0.6-0.2,0.9-0.7,0.9H166v0.5h3.7V15h-0.2
		c-0.5,0-0.8-0.2-0.8-0.8v-2.8l2.6-4.4c0.3-0.4,0.6-0.7,1-0.7h0.1V5.8h-2.6v0.5h0.4c0.1,0,0.1,0,0.2,0.1c0,0.1,0.1,0.2,0,0.3
		l-2.1,3.5L166,6.9c-0.1-0.2,0-0.3,0-0.4c0.1-0.1,0.1-0.1,0.2-0.1h0.4V5.8H163v0.5h0.1C163.4,6.4,163.7,6.4,164,7 M96.3,6.6
		c0.1,0.1,0.2,0.2,0.3,0.4c0.1,0.1,0.2,0.2,0.3,0.3v7.2c0,0.4-0.4,0.6-0.7,0.6H96v0.5h2.9V15h-0.2c-0.4,0-0.7-0.2-0.7-0.6V8.5l6,7
		l0,0h0.4V6.9c0-0.4,0.4-0.6,0.7-0.6h0.2V5.8h-2.9v0.5h0.2c0.3,0,0.7,0.2,0.7,0.6v5L98,5.8h-2.6v0.5h0.1C95.9,6.3,96.2,6.4,96.3,6.6
		 M112.2,7l3.6,8.4l0,0c0.1,0.1,0.2,0.1,0.3,0.1c0,0,0,0,0,0c0.1,0,0.2-0.1,0.2-0.2l3.3-8.3c0.3-0.6,0.5-0.8,0.8-0.8h0.1V5.8h-2.4
		v0.5h0.3c0.1,0,0.2,0.1,0.3,0.2c0,0.1,0.1,0.2,0,0.3l-2.2,5.5L114,6.8c-0.1-0.1,0-0.2,0-0.3c0.1-0.1,0.2-0.2,0.3-0.2h0.4V5.8h-3.5
		v0.5h0.1C111.7,6.3,111.9,6.5,112.2,7 M84,4.9v6.5c0,2.5,2,4.3,4.8,4.3c2.8,0,4.7-1.7,4.7-4.1V4.7c0-0.5,0.2-0.7,0.7-0.7h0.5V3.3
		H91v0.6h0.6c0.4,0,0.7,0.2,0.7,0.7v6.9c0,2-1.7,2.9-3.3,2.9c-1.6,0-2.8-1.2-2.8-3V4.9c0-0.5,0.4-1,0.9-1h0.3V3.3h-4.7v0.6h0.3
		C83.6,3.9,84,4.5,84,4.9 M110.1,15H110c-0.5,0-0.7-0.3-0.7-0.9v-7c0-0.6,0.2-0.9,0.7-0.9h0.2V5.8h-3.6v0.5h0.2
		c0.5,0,0.8,0.3,0.8,0.9v7c0,0.6-0.2,0.9-0.8,0.9h-0.2v0.5h3.6V15z M162,5.8h-7.8c-0.1,0-0.2,0.1-0.2,0.2l-0.1,2.3h0.5l0-0.1
		c0.1-0.9,0.4-1.4,1.1-1.4h1.8v7.4c0,0.6-0.2,0.8-0.8,0.8h-0.2v0.5h3.6V15h-0.2c-0.5,0-0.7-0.2-0.7-0.8V6.8h1.8c0.4,0,1,0.1,1,1.4
		l0,0.1h0.5L162.2,6C162.2,5.9,162.1,5.8,162,5.8 M133.7,6.8c0.3-0.1,0.6-0.1,0.7-0.1c1.1,0,1.9,0.8,1.9,1.8c0,1-0.9,1.9-1.9,1.9
		h-0.7V6.8z M134.6,15h-0.2c-0.5,0-0.7-0.3-0.7-0.9v-3h0.4l3.3,4.4h2.3V15h-0.2c-0.3,0-0.5-0.3-0.7-0.5l-2.8-3.6
		c1.2-0.4,2.1-1.4,2.1-2.5c0-0.8-0.2-1.4-0.7-1.8c-0.7-0.7-2-0.9-3.9-0.8h-2.6v0.5h0.2c0.5,0,0.7,0.3,0.7,0.9v7
		c0,0.6-0.2,0.9-0.7,0.9h-0.2v0.5h3.7V15z M67.5,23.8H60v0.5h0.2c0.5,0,0.7,0.3,0.7,0.9v6.9c0,0.6-0.2,0.9-0.7,0.9H60v0.5h3.7v-0.5
		h-0.2c-0.5,0-0.7-0.3-0.7-0.8v-3.3h2.6c0.5,0,0.5,0.7,0.5,0.8v0.2h0.5V27h-0.5v0.2c0,0.1,0,0.8-0.5,0.8h-2.6v-3.2H66
		c0.7,0,1.1,0.6,1.2,1.4l0,0.1h0.5L67.5,23.8z M96.3,33.1h-0.2v0.5h7.3l0.9-2.8h-0.5l0,0.1c-0.4,1.2-1,1.8-2.1,1.8h-2.4
		c-0.2,0-0.4-0.1-0.4-0.4v-3.4h2.6c0.4,0,0.6,0.4,0.6,0.8v0.2h0.5V27H102v0.2c0,0.4-0.2,0.8-0.6,0.8h-2.6v-3.2h2.8
		c0.7,0,1.2,0.5,1.2,1.4l0,0.1h0.5l-0.2-2.4h-7.1v0.5h0.2c0.5,0,0.7,0.3,0.7,0.9v7C97,32.8,96.8,33.1,96.3,33.1 M120.8,24.4h0.2
		c0.4,0,0.7,0.2,0.7,0.6V30l-5.3-6.1l0,0h-2.6v0.5h0.1c0.4,0,0.6,0.1,0.7,0.2l0.1,0.2c0.2,0.2,0.3,0.3,0.5,0.6v7.2
		c0,0.4-0.4,0.6-0.7,0.6h-0.2v0.5h2.9V33H117c-0.4,0-0.7-0.2-0.7-0.6v-5.9l6,7l0,0h0.4v-8.6c0-0.4,0.4-0.6,0.7-0.6h0.2v-0.5h-2.9
		V24.4z M140,30.7L140,30.7c-0.4,1.3-1.1,1.9-2.1,1.9h-2.2c-0.2,0-0.4-0.2-0.4-0.5v-6.9c0-0.6,0.2-0.9,0.8-0.9h0.2v-0.5h-3.7v0.5
		h0.2c0.5,0,0.7,0.3,0.7,0.9v6.9c0,0.8-0.4,0.9-0.7,0.9h-0.2v0.5h7.1l0.9-2.8H140z M170.7,28.7c0,2.6-1.5,4-4.1,4
		c-0.3,0-0.5,0-0.8-0.1v-7.9c0.3-0.2,0.8-0.1,0.8-0.1c1.4,0,2.4,0.3,3.1,1.1C170.7,26.9,170.7,28.6,170.7,28.7 M171.2,25.3
		c-1-1.1-2.6-1.6-4.6-1.5h-3.7v0.5h0.2c0.3,0,0.7,0.1,0.7,0.9v6.9c0,0.6-0.2,0.9-0.7,0.9h-0.2v0.5h4.5c2.8,0,5-2.1,5-4.9
		C172.4,28.6,172.5,26.7,171.2,25.3 M144.2,29.6l1.2-2.7l1.2,2.7H144.2z M149.8,32.3l-3.7-8.5c0,0-0.1-0.2-0.2-0.2
		c-0.1,0-0.2,0-0.3,0.1l-3.5,8.5c-0.2,0.4-0.4,0.8-0.9,0.8h-0.3v0.5h2.8V33h-0.3c-0.2,0-0.3-0.1-0.4-0.2c-0.1-0.1-0.1-0.2,0-0.3
		l0.9-2h3.2l0.9,2c0.1,0.1,0,0.2,0,0.3c-0.1,0.1-0.2,0.2-0.3,0.2h-0.4v0.5h3.6V33h-0.2C150.2,33,150,32.8,149.8,32.3 M158.6,24.4
		h0.1c0.4,0,0.7,0.2,0.7,0.6V30l-5.3-6.1l0,0h-2.6v0.5h0.1c0.4,0,0.6,0.1,0.7,0.2l0.1,0.2c0.2,0.2,0.3,0.3,0.5,0.6v7.2
		c0,0.4-0.4,0.6-0.7,0.6h-0.2v0.5h2.9V33h-0.2c-0.4,0-0.7-0.2-0.7-0.6v-5.9l6,7l0,0h0.4v-8.6c0-0.4,0.4-0.6,0.7-0.6h0.2v-0.5h-2.8
		V24.4z M112.7,30.9c-0.4,1.2-1,1.8-2.1,1.8h-2.4c-0.2,0-0.3-0.1-0.3-0.4v-3.4h2.6c0.4,0,0.6,0.4,0.6,0.8v0.2h0.5V27h-0.5v0.2
		c0,0.4-0.2,0.8-0.6,0.8h-2.6v-3.2h2.8c0.7,0,1.1,0.5,1.2,1.4l0,0.1h0.5l-0.2-2.4h-7v0.5h0.2c0.5,0,0.7,0.3,0.7,0.9v7
		c0,0.6-0.2,0.9-0.7,0.9h-0.2v0.5h7.2l0.9-2.8L112.7,30.9L112.7,30.9z M75.1,27.5c0-2,0.5-3.5,1.4-4.4c0.8-0.8,1.8-0.8,1.9-0.8
		c0,0,0,0,0,0h0c1.7,0,3.4,1.6,3.4,5.2c0,2.6-1.1,5.2-3.4,5.2C76.5,32.7,75.1,30.6,75.1,27.5 M84.3,36.3h0.1v-0.6l-0.1,0
		c-1.8-0.1-3.1-1.3-3.7-2.4c2.3-0.8,3.8-3,3.8-5.8c-0.1-5-3.9-6.3-5.9-6.3h0c-3.4,0-5.8,2.6-5.8,6.2c0,3.1,1.9,5.6,4.6,6.1
		C79.1,35.4,81.5,36.3,84.3,36.3 M94,30.4v-5.5c0-0.3,0.2-0.5,0.5-0.5h0.4v-0.5h-2.8v0.5h0.4c0.3,0,0.5,0.2,0.5,0.5v5.5
		c0,1.5-1.3,2.3-2.6,2.3c-1.3,0-2.1-1-2.1-2.4v-5.2c0-0.4,0.3-0.8,0.7-0.8h0.2v-0.5h-3.6v0.4l0,0.1h0.1c0.4,0,0.7,0.4,0.7,0.8v5.1
		c0,2,1.6,3.4,3.9,3.4C92.5,33.7,94,32.4,94,30.4 M52.9,32.7C52.9,32.7,52.9,32.7,52.9,32.7c-0.7,0-1.4-0.3-1.9-0.8
		c-0.9-0.9-1.5-2.5-1.5-4.4c0-1.2,0.2-5.1,3.4-5.2c1.3,0.1,3.4,0.8,3.4,5.1C56.3,30.6,55,32.7,52.9,32.7 M52.9,21.2
		c-0.1,0-2.2-0.1-3.9,1.4c-1.2,1.1-1.8,2.7-1.9,4.8c0,3.6,2.4,6.2,5.8,6.2c3.4,0,5.8-2.6,5.8-6.2C58.7,23.8,56.3,21.3,52.9,21.2
		 M130.8,29.8c-0.5-1-1.9-1.8-3.1-2.4l-0.2-0.1c-0.6-0.4-1-0.9-1-1.4c0-0.4,0.2-0.8,0.7-1c0.5-0.3,1-0.3,1.6,0
		c0.8,0.4,1.3,1.3,1.3,2.2v0.1h0.5v-3.4H130l0,0.1c0,0.2-0.1,0.3-0.2,0.3c-0.1,0.1-0.3,0-0.5-0.1c-1.4-0.7-2.5-0.6-3.5,0.3
		c-0.6,0.6-0.9,1.4-0.8,2.2c0.1,0.8,0.5,1.5,1.3,1.9c0.2,0.1,0.5,0.3,0.7,0.4c0.9,0.5,1.7,1,2.1,1.6c0.5,0.7,0.4,1.3-0.3,1.9
		c-0.5,0.4-1.1,0.5-1.7,0.2c-0.7-0.3-1.5-1.2-1.5-2.4v-0.1H125v3.4h0.5l0-0.1c0-0.2,0.1-0.3,0.3-0.4c0.1,0,0.2,0,0.4,0
		c0.6,0.3,1.3,0.5,2,0.5c0.6,0,1.2-0.2,1.7-0.6C131,32.3,131.4,30.9,130.8,29.8 M57.3,3.6c0-0.1-0.1-0.2-0.2-0.2h-9.7
		c-0.1,0-0.2,0.1-0.2,0.2l-0.1,3h0.6l0-0.1c0-0.9,0.3-1.9,1.4-1.9h2.1v9.4c0,0.5-0.4,1-0.9,1h-0.7v0.6H55v-0.6h-0.7
		c-0.5,0-0.9-0.5-0.9-1V4.5h2.1c1.1,0,1.4,1,1.4,1.9l0,0.1h0.6L57.3,3.6z M38,4.3v22.4c0,8.6-7.5,17.4-18,20.7
		c-10.5-3.3-18-12.1-18-20.7V4.3H38 M38.9,3.3H38h-36H1v0.9v22.4c0,9.2,7.9,18.2,18.7,21.6l0.3,0.1l0.3-0.1
		C31,44.9,38.9,35.8,38.9,26.6V4.3V3.3z M10.5,19.6c-0.2,0-0.4,0.2-0.4,0.5h0.9C10.9,19.8,10.7,19.6,10.5,19.6 M10.5,21
		c0.2,0,0.4-0.2,0.4-0.5H10C10.1,20.8,10.3,21,10.5,21 M10.5,25c0.2,0,0.4-0.2,0.4-0.5H10C10.1,24.8,10.3,25,10.5,25 M10.5,23.6
		c-0.2,0-0.4,0.2-0.4,0.5h0.9C10.9,23.8,10.7,23.6,10.5,23.6 M34,11c-1.3,2.8-3.3,4.5-8,5.3c0.7-4.7,2.5-6.7,5.3-8v0H8.6v0
		c2.8,1.3,4.5,3.3,5.3,8c-4.7-0.7-6.7-2.5-8-5.3h0v22.6h0c1.3-2.8,3.3-4.5,8-5.3c-0.7,4.7-2.5,6.7-5.3,8v0h22.6v0
		c-2.8-1.3-4.5-3.3-5.3-8c4.7,0.7,6.7,2.5,8,5.3h0L34,11L34,11z M20.4,18.4c0-0.7,0.7-1.1,1.7-1.1c1.4,0,2.2,0.5,2.9,0.3v7.5h-2.4
		c-1.2,0-1.4,0-2.2,0.4V18.4z M14.9,17.5c0.8,0.1,1.5-0.3,2.9-0.3c1,0,1.7,0.4,1.7,1.1v7.1c-0.8-0.3-1-0.4-2.2-0.4h-2.4V17.5z
		 M29.2,23.6c0.4,0,0.7,0.3,0.7,0.7c0,0.4-0.3,0.7-0.7,0.7h-2.3v1.8h-4.3c-0.9,0-0.9,0-1.4,0.2c-0.3,0.1-0.7,0.3-1.2,0.3
		c-0.5,0-0.9-0.2-1.2-0.3c-0.6-0.2-0.6-0.2-1.4-0.2H13V25h-1.7c-0.2,0.3-0.4,0.5-0.8,0.5c-0.5,0-0.8-0.4-0.9-0.9H9.3
		c-0.1,0-0.2-0.1-0.2-0.2c0-0.1,0.1-0.2,0.2-0.2h0.3c0.1-0.5,0.5-0.9,0.9-0.9c0.3,0,0.6,0.2,0.8,0.5H13V21h-1.7
		c-0.2,0.3-0.4,0.5-0.8,0.5c-0.5,0-0.8-0.4-0.9-0.9H9.3c-0.1,0-0.2-0.1-0.2-0.2c0-0.1,0.1-0.2,0.2-0.2h0.3c0.1-0.5,0.5-0.9,0.9-0.9
		c0.3,0,0.6,0.2,0.8,0.5H13v-1.3l0.9-0.5v8.2h3.4c1.1,0,1.1,0,1.8,0.3c0.2,0.1,0.5,0.2,0.8,0.2c0.3,0,0.6-0.2,0.8-0.2
		c0.7-0.3,0.7-0.3,1.8-0.3h3.4v-8.1l0.9,0.4v1.3h2.3c0.4,0,0.7,0.3,0.7,0.7S29.5,21,29.2,21h-2.3v2.6H29.2z"/>
</g>
</svg>
