<?xml version="1.0" encoding="utf-8"?>
<!-- Generator: Adobe Illustrator 20.1.0, SVG Export Plug-In . SVG Version: 6.00 Build 0)  -->
<svg version="1.1" id="Layer_1" xmlns="http://www.w3.org/2000/svg" xmlns:xlink="http://www.w3.org/1999/xlink" x="0px" y="0px"
	 viewBox="0 0 89.9 100" style="enable-background:new 0 0 89.9 100;" xml:space="preserve">
<style type="text/css">
	.st0{fill:#FFFFFF;}
	.st1{opacity:0.5;fill:#FFFFFF;}
</style>
<path class="st0" d="M60.5,60.7l0,0.8l0.6-0.5c0.2-0.2,0.4-0.4,0.4-0.7c0-0.3-0.2-0.2-0.4-0.1L60.5,60.7L60.5,60.7z M60.1,60.6
	c0,0,0.2-0.2,0.4-0.3l0.7-0.5c0.5-0.4,0.7-0.3,0.7,0.1c0,0.5-0.3,0.8-0.4,0.9c0.1-0.1,0.3-0.1,0.3,0.3c0,0.3,0,0.5,0.1,0.6L61.5,62
	c-0.1-0.1-0.1-0.2-0.1-0.3c0-0.5-0.1-0.6-0.4-0.3l-0.5,0.4v1L60.1,63L60.1,60.6"/>
<path class="st0" d="M56.2,64.4l0,0.8l0.7-0.4c0.2-0.1,0.4-0.4,0.4-0.6c0-0.2-0.1-0.3-0.4-0.2L56.2,64.4L56.2,64.4z M56.1,63.4
	l0,0.7l0.6-0.4c0.2-0.1,0.3-0.3,0.3-0.5c0-0.3-0.1-0.3-0.3-0.2L56.1,63.4z M56.2,65.5l-0.5,0.2v-2.5c0,0,0.2-0.1,0.4-0.2l0.8-0.4
	c0.4-0.2,0.7-0.2,0.7,0.3c0,0.3-0.1,0.5-0.3,0.7c0.3-0.1,0.4,0.1,0.4,0.4c0,0.4-0.3,0.9-0.9,1.2L56.2,65.5"/>
<path class="st0" d="M54.6,65.3l-0.4-0.9l-0.3,1.3L54.6,65.3L54.6,65.3z M53.8,66.1l-0.2,0.8L53.1,67l0.8-3l0.4-0.2l1.1,2.1L55,66.2
	l-0.3-0.6L53.8,66.1"/>
<path class="st0" d="M42.5,72.3l-0.4-1.1l-0.4,1.1C41.7,72.3,42.5,72.3,42.5,72.3z M41.6,72.7l-0.3,0.7l-0.5,0l1-2.5l0.5,0l1,2.7
	l-0.5,0l-0.2-0.7L41.6,72.7"/>
<path class="st0" d="M35.6,66.8l-0.4-1.2l-0.4,0.9L35.6,66.8L35.6,66.8z M34.8,66.8l-0.2,0.6l-0.5-0.2l1-2.2l0.4,0.2l0.9,2.8
	l-0.5-0.1l-0.2-0.7L34.8,66.8"/>
<path class="st0" d="M36.3,69.5v3.2c1.8,0.8,4.3,1.2,6.9,1.2c2.6,0,5-0.4,6.9-1.2v-3.2c-2.2,0.6-4.5,0.9-6.9,0.9
	C39.7,70.4,36.3,69.5,36.3,69.5L36.3,69.5z M22.2,56.2l0,4.1c4,3.3,8.5,6.5,14.1,8l3.7-2.2C34.2,65,26.2,61,22.2,56.2z M28,59.7
	c-0.4-0.7-0.9-1.3-1.5-2.3v1.4C27.1,59.2,28,59.7,28,59.7z M58.3,59.9c0.9-0.6,1.6-1.1,1.6-1.1l-0.1-1.4L58.3,59.9z M64.2,56.2
	c-4,4.8-12,8.8-17.7,10l3.7,2.2c0,0,4.4-1.4,7.8-3.4c4.8-3,6.3-4.7,6.3-4.7L64.2,56.2L64.2,56.2z M26.6,65v0.6
	c0,0.8-0.1,0.8,0.6,1.2l2.7,1.7v-1.6C28.7,66.3,27.6,65.7,26.6,65z M60.9,64.3v1.4c0,1.1-0.1,1.3-0.7,1.7c-1,0.6-2.5,1.7-4.7,3v-2.9
	c-1.4,0.7-2.8,1.2-4.3,1.7l0,4.3c-2,0.9-4.9,1.5-8,1.5c-3,0-5.9-0.6-8-1.5v-4.3c-1.5-0.5-2.9-1-4.3-1.7v2.9c-2.3-1.4-3.8-2.4-4.7-3
	c-0.6-0.4-0.7-0.6-0.7-1.7v-1.4c-1.6-1.1-3.1-2.3-4.4-3.4v-6.2H26c2,3.1,3.5,5.4,4.2,6.6c2.7,1.6,5.7,2.8,8.5,3.6
	c0.9,0.2,1.7,0.4,2.5,0.6v3.9c0.6,0,3.2,0,3.8,0v-3.9c0.8-0.1,1.7-0.3,2.5-0.6c2.8-0.8,5.8-2,8.6-3.6c0,0,2.2-3.5,4.2-6.6l4.9,0
	l0,6.2C64,61.9,62.6,63.1,60.9,64.3L60.9,64.3z M59.3,66.8c0.7-0.4,0.6-0.4,0.6-1.2V65c-1,0.7-2.1,1.3-3.3,1.9v1.6
	C56.6,68.5,58.1,67.5,59.3,66.8"/>
<path class="st0" d="M27.2,26.1v19.3c0,7.4,6.7,15,16.1,17.8c9.3-2.8,16.1-10.4,16.1-17.8V26.1C59.4,26.1,27.2,26.1,27.2,26.1z
	 M43.3,64.3c-9.4-2.5-17.2-10.5-17.2-19V25h34.4v20.3C60.5,53.8,52.7,61.8,43.3,64.3"/>
<path class="st0" d="M33.5,67l0.4,0.2v-2.5l-0.4-0.2V67"/>
<path class="st0" d="M31.3,63.8l0.7,0.3v2.2l0.4,0.2v-2.1l0.7,0.3v-0.4l-1.8-0.9L31.3,63.8"/>
<path class="st0" d="M29.1,64.8l0.4,0.2v-1.9l0,0l1,2.4l0.4,0.2v-2.6L30.5,63v1.9l0,0l-1-2.4l-0.4-0.3V64.8"/>
<path class="st0" d="M27.1,63.6l1.5,1v-0.4l-1.2-0.8v-0.7l1.1,0.7V63l-1.1-0.7v-0.7l1.2,0.7V62l-1.5-1L27.1,63.6"/>
<path class="st0" d="M26.4,63l0.4,0.3v-2.5l-0.4-0.3V63"/>
<path class="st0" d="M26,61c0-0.6-0.4-1.1-0.8-1.4c-0.6-0.4-0.9,0-0.9,0.8c0,0.7,0.3,1.5,0.9,1.9c0.5,0.3,0.8,0.1,0.8-0.5l-0.3-0.2
	c0,0.4-0.2,0.6-0.5,0.4c-0.4-0.2-0.6-0.8-0.6-1.3c0-0.5,0.2-0.9,0.6-0.6c0.3,0.2,0.4,0.5,0.5,0.8L26,61"/>
<path class="st0" d="M22.6,59.3c0,0.6,0.3,1.1,0.7,1.4c0.4,0.2,0.7,0.3,0.7-0.3c0-0.3-0.1-0.6-0.3-0.9L23.2,59
	c-0.1-0.1-0.2-0.3-0.2-0.5c0-0.3,0.2-0.2,0.3-0.1c0.2,0.1,0.4,0.4,0.4,0.7l0.3,0.2c0-0.5-0.3-1-0.7-1.3c-0.3-0.2-0.6-0.2-0.6,0.3
	c0,0.3,0.1,0.6,0.4,0.9c0.2,0.3,0.4,0.4,0.5,0.6c0.1,0.1,0.1,0.2,0.1,0.4c0,0.2-0.1,0.3-0.4,0.1c-0.2-0.2-0.4-0.5-0.4-0.9L22.6,59.3
	"/>
<path class="st0" d="M45.9,71.6c-0.1-0.6-0.5-0.9-1.2-0.8c-0.8,0-1.3,0.7-1.3,1.4c0,0.7,0.5,1.3,1.3,1.3c0.7,0,1.1-0.5,1.1-1.1
	l-0.5,0c0,0.4-0.3,0.7-0.7,0.7c-0.6,0-0.8-0.4-0.8-0.9c0-0.5,0.2-1,0.8-1c0.4,0,0.6,0.2,0.7,0.5L45.9,71.6"/>
<path class="st0" d="M62.2,61.4l1.3-1.2v-0.4l-1,0.9v-0.7l0.9-0.8v-0.4l-0.9,0.8v-0.6l1-0.9v-0.4L62.2,59L62.2,61.4"/>
<path class="st0" d="M51,67.8l1.8-0.7v-0.4l-1.3,0.5v-2.2L51,65.3L51,67.8"/>
<path class="st0" d="M59.5,62.1c-0.1-0.4-0.3-0.6-0.8-0.2c-0.4,0.4-0.5,1-0.5,1.4c0.1,0.4,0.3,0.6,0.8,0.3
	C59.7,62.7,59.5,62.1,59.5,62.1L59.5,62.1z M57.9,63.6c-0.1-0.6,0.1-1.5,0.7-2c0.6-0.6,1.1-0.4,1.2,0.2c0,0,0.3,1-0.7,2
	C58.5,64.3,58,64.2,57.9,63.6"/>
<path class="st0" d="M33.4,49c-1,1-1.8,2.3-2.4,4.1V49C31,49,33.4,49,33.4,49z M48.1,49c0.9,2.7,2.7,4.4,6,5.5H32.4
	c3.3-1.1,5.1-2.9,6-5.5L48.1,49z M55.5,49v4.1C55,51.3,54.2,50,53.2,49L55.5,49"/>
<path class="st0" d="M31,49V31.4c1.4,4.2,3.9,6,8,6.6c-0.6-4.1-2.3-6.6-6.6-8h21.7c-4.2,1.4-5.9,3.9-6.6,8c4.1-0.6,6.6-2.4,8-6.6V49
	h-2.4c-1.4-1.4-3.2-2.1-5.6-2.5c0.1,0.9,0.3,1.7,0.6,2.5l-9.7,0c0.3-0.8,0.5-1.6,0.6-2.5c-2.4,0.4-4.2,1.1-5.6,2.5
	C33.4,49,31,49,31,49z M49.5,39.8l2.3,0c0.6,0,1,0.1,1,0.6c0,0.6-0.3,0.7-0.8,0.7h-2.4V39.8z M37,41.1h-1.7
	c-0.1,0.2-0.4,0.4-0.7,0.4c-0.4,0-0.8-0.3-0.8-0.8v-0.1h-0.1c-0.2,0-0.3-0.1-0.3-0.3c0-0.1,0.1-0.2,0.3-0.2h0.1v-0.1
	c0-0.4,0.4-0.8,0.8-0.8c0.3,0,0.6,0.2,0.7,0.5l1.7,0L37,41.1L37,41.1z M34.9,40.6h-0.6v0c0,0.2,0.1,0.3,0.3,0.3
	C34.8,41,34.9,40.8,34.9,40.6L34.9,40.6z M34.3,40.1h0.6c0-0.2-0.1-0.3-0.3-0.3C34.5,39.8,34.3,40,34.3,40.1L34.3,40.1z M49.5,43.4
	l2.3,0c0.6,0,1,0.1,1,0.6c0,0.6-0.3,0.7-0.8,0.7h-2.4V43.4z M37,44.7h-1.7c-0.1,0.2-0.4,0.4-0.7,0.4c-0.4,0-0.8-0.3-0.8-0.8v-0.1
	h-0.1c-0.2,0-0.3-0.1-0.3-0.3c0-0.1,0.1-0.2,0.3-0.2h0.1v-0.1c0-0.4,0.4-0.8,0.8-0.8c0.3,0,0.6,0.2,0.7,0.5l1.7,0L37,44.7L37,44.7z
	 M34.9,44.2h-0.6v0c0,0.2,0.1,0.3,0.3,0.3C34.8,44.6,34.9,44.4,34.9,44.2L34.9,44.2z M34.3,43.7h0.6c0-0.2-0.1-0.3-0.3-0.3
	C34.5,43.4,34.3,43.6,34.3,43.7L34.3,43.7L34.3,43.7z M42.9,44.7c-0.5-0.3-0.9-0.3-1.7-0.3h-1.8v-5.5c0.9,0,0.9-0.2,1.9-0.2
	c1,0,1.6,0.6,1.6,1.3C42.9,39.9,42.9,44.7,42.9,44.7z M43.7,44.7c0.5-0.3,0.9-0.3,1.7-0.3h1.8v-5.5c-0.9,0-0.9-0.2-1.9-0.2
	c-1,0-1.6,0.6-1.6,1.3C43.7,39.9,43.7,44.7,43.7,44.7z M43.3,46.2c1.1,0,1-0.4,1.8-0.4h3.3v-6.6L48,38.9v6.3h-2.6
	c-1.5,0-1.1,0.4-2.1,0.4c-1,0-0.6-0.4-2.1-0.4h-2.6v-6.3l-0.5,0.3v6.6h3.3C42.2,45.8,42.1,46.2,43.3,46.2"/>
<rect x="85.4" y="27.7" class="st1" width="1.2" height="44.5"/>
</svg>
