<?xml version="1.0" encoding="utf-8"?>
<!-- Generator: Adobe Illustrator 21.0.0, SVG Export Plug-In . SVG Version: 6.00 Build 0)  -->
<svg version="1.1" id="Layer_1" xmlns="http://www.w3.org/2000/svg" xmlns:xlink="http://www.w3.org/1999/xlink" x="0px" y="0px"
	 viewBox="0 0 178.2 50" style="enable-background:new 0 0 178.2 50;" xml:space="preserve">
<style type="text/css">
	.st0{fill:#111111;}
</style>
<g>
	<path class="st0" d="M39.4,35.7v0.8L40,36c0.2-0.2,0.4-0.4,0.4-0.7s-0.2-0.2-0.4-0.1L39.4,35.7L39.4,35.7z M39,35.6
		c0,0,0.2-0.2,0.4-0.3l0.7-0.5c0.5-0.4,0.7-0.3,0.7,0.1c0,0.5-0.3,0.8-0.4,0.9c0.1-0.1,0.3-0.1,0.3,0.3c0,0.3,0,0.5,0.1,0.6L40.4,37
		c-0.1-0.1-0.1-0.2-0.1-0.3c0-0.5-0.1-0.6-0.4-0.3l-0.5,0.4v1L39,38V35.6"/>
	<path class="st0" d="M35.1,39.4v0.8l0.7-0.4c0.2-0.1,0.4-0.4,0.4-0.6s-0.1-0.3-0.4-0.2L35.1,39.4L35.1,39.4z M35,38.4v0.7l0.6-0.4
		c0.2-0.1,0.3-0.3,0.3-0.5c0-0.3-0.1-0.3-0.3-0.2L35,38.4z M35.1,40.5l-0.5,0.2v-2.5c0,0,0.2-0.1,0.4-0.2l0.8-0.4
		c0.4-0.2,0.7-0.2,0.7,0.3c0,0.3-0.1,0.5-0.3,0.7c0.3-0.1,0.4,0.1,0.4,0.4c0,0.4-0.3,0.9-0.9,1.2L35.1,40.5"/>
	<path class="st0" d="M33.5,40.3l-0.4-0.9l-0.3,1.3L33.5,40.3L33.5,40.3z M32.7,41.1l-0.2,0.8L32,42l0.8-3l0.4-0.2l1.1,2.1l-0.4,0.3
		l-0.3-0.6L32.7,41.1"/>
	<path class="st0" d="M21.4,47.3L21,46.2l-0.4,1.1C20.6,47.3,21.4,47.3,21.4,47.3z M20.5,47.7l-0.3,0.7h-0.5l1-2.5h0.5l1,2.7h-0.5
		l-0.2-0.7L20.5,47.7"/>
	<path class="st0" d="M14.5,41.8l-0.4-1.2l-0.4,0.9L14.5,41.8L14.5,41.8z M13.7,41.8l-0.2,0.6L13,42.2l1-2.2l0.4,0.2l0.9,2.8
		l-0.5-0.1l-0.2-0.7L13.7,41.8"/>
	<path class="st0" d="M15.2,44.5v3.2c1.8,0.8,4.3,1.2,6.9,1.2c2.6,0,5-0.4,6.9-1.2v-3.2c-2.2,0.6-4.5,0.9-6.9,0.9
		C18.6,45.4,15.2,44.5,15.2,44.5L15.2,44.5z M1.1,31.2v4.1c4,3.3,8.5,6.5,14.1,8l3.7-2.2C13.1,40,5.1,36,1.1,31.2z M6.9,34.7
		C6.5,34,6,33.4,5.4,32.4v1.4C6,34.2,6.9,34.7,6.9,34.7z M37.2,34.9c0.9-0.6,1.6-1.1,1.6-1.1l-0.1-1.4L37.2,34.9z M43.1,31.2
		c-4,4.8-12,8.8-17.7,10l3.7,2.2c0,0,4.4-1.4,7.8-3.4c4.8-3,6.3-4.7,6.3-4.7L43.1,31.2L43.1,31.2z M5.5,40v0.6
		c0,0.8-0.1,0.8,0.6,1.2l2.7,1.7v-1.6C7.6,41.3,6.5,40.7,5.5,40z M39.8,39.3v1.4c0,1.1-0.1,1.3-0.7,1.7c-1,0.6-2.5,1.7-4.7,3v-2.9
		c-1.4,0.7-2.8,1.2-4.3,1.7v4.3c-2,0.9-4.9,1.5-8,1.5c-3,0-5.9-0.6-8-1.5v-4.3c-1.5-0.5-2.9-1-4.3-1.7v2.9C7.5,44,6,43,5.1,42.4
		c-0.6-0.4-0.7-0.6-0.7-1.7v-1.4C2.8,38.2,1.3,37,0,35.9v-6.2h4.9c2,3.1,3.5,5.4,4.2,6.6c2.7,1.6,5.7,2.8,8.5,3.6
		c0.9,0.2,1.7,0.4,2.5,0.6v3.9c0.6,0,3.2,0,3.8,0v-3.9c0.8-0.1,1.7-0.3,2.5-0.6c2.8-0.8,5.8-2,8.6-3.6c0,0,2.2-3.5,4.2-6.6h4.9v6.2
		C42.9,36.9,41.5,38.1,39.8,39.3L39.8,39.3z M38.2,41.8c0.7-0.4,0.6-0.4,0.6-1.2V40c-1,0.7-2.1,1.3-3.3,1.9v1.6
		C35.5,43.5,37,42.5,38.2,41.8"/>
	<path class="st0" d="M6.1,1.1v19.3c0,7.4,6.7,15,16.1,17.8c9.3-2.8,16.1-10.4,16.1-17.8V1.1H6.1z M22.2,39.3
		C12.8,36.8,5,28.8,5,20.3V0h34.4v20.3C39.4,28.8,31.6,36.8,22.2,39.3"/>
	<path class="st0" d="M12.4,42l0.4,0.2v-2.5l-0.4-0.2V42"/>
	<path class="st0" d="M10.2,38.8l0.7,0.3v2.2l0.4,0.2v-2.1l0.7,0.3v-0.4l-1.8-0.9L10.2,38.8"/>
	<path class="st0" d="M8,39.8L8.4,40v-1.9l0,0l1,2.4l0.4,0.2v-2.6L9.4,38v1.9l0,0l-1-2.4L8,37.2V39.8"/>
	<path class="st0" d="M6,38.6l1.5,1v-0.4l-1.2-0.8v-0.7l1.1,0.7V38l-1.1-0.7v-0.7l1.2,0.7V37L6,36V38.6"/>
	<path class="st0" d="M5.3,38l0.4,0.3v-2.5l-0.4-0.3V38"/>
	<path class="st0" d="M4.9,36c0-0.6-0.4-1.1-0.8-1.4c-0.6-0.4-0.9,0-0.9,0.8c0,0.7,0.3,1.5,0.9,1.9c0.5,0.3,0.8,0.1,0.8-0.5
		l-0.3-0.2c0,0.4-0.2,0.6-0.5,0.4c-0.4-0.2-0.6-0.8-0.6-1.3s0.2-0.9,0.6-0.6c0.3,0.2,0.4,0.5,0.5,0.8L4.9,36"/>
	<path class="st0" d="M1.5,34.3c0,0.6,0.3,1.1,0.7,1.4c0.4,0.2,0.7,0.3,0.7-0.3c0-0.3-0.1-0.6-0.3-0.9L2.1,34
		c-0.1-0.1-0.2-0.3-0.2-0.5c0-0.3,0.2-0.2,0.3-0.1c0.2,0.1,0.4,0.4,0.4,0.7l0.3,0.2c0-0.5-0.3-1-0.7-1.3c-0.3-0.2-0.6-0.2-0.6,0.3
		c0,0.3,0.1,0.6,0.4,0.9c0.2,0.3,0.4,0.4,0.5,0.6c0.1,0.1,0.1,0.2,0.1,0.4s-0.1,0.3-0.4,0.1c-0.2-0.2-0.4-0.5-0.4-0.9L1.5,34.3"/>
	<path class="st0" d="M24.8,46.6c-0.1-0.6-0.5-0.9-1.2-0.8c-0.8,0-1.3,0.7-1.3,1.4c0,0.7,0.5,1.3,1.3,1.3c0.7,0,1.1-0.5,1.1-1.1
		h-0.5c0,0.4-0.3,0.7-0.7,0.7c-0.6,0-0.8-0.4-0.8-0.9s0.2-1,0.8-1c0.4,0,0.6,0.2,0.7,0.5L24.8,46.6"/>
	<path class="st0" d="M41.1,36.4l1.3-1.2v-0.4l-1,0.9V35l0.9-0.8v-0.4l-0.9,0.8V34l1-0.9v-0.4L41.1,34V36.4"/>
	<path class="st0" d="M29.9,42.8l1.8-0.7v-0.4l-1.3,0.5V40l-0.5,0.3V42.8"/>
	<path class="st0" d="M38.4,37.1c-0.1-0.4-0.3-0.6-0.8-0.2c-0.4,0.4-0.5,1-0.5,1.4c0.1,0.4,0.3,0.6,0.8,0.3
		C38.6,37.7,38.4,37.1,38.4,37.1L38.4,37.1z M36.8,38.6c-0.1-0.6,0.1-1.5,0.7-2c0.6-0.6,1.1-0.4,1.2,0.2c0,0,0.3,1-0.7,2
		C37.4,39.3,36.9,39.2,36.8,38.6"/>
	<path class="st0" d="M12.3,24c-1,1-1.8,2.3-2.4,4.1V24C9.9,24,12.3,24,12.3,24z M27,24c0.9,2.7,2.7,4.4,6,5.5H11.3
		c3.3-1.1,5.1-2.9,6-5.5H27z M34.4,24v4.1c-0.5-1.8-1.3-3.1-2.3-4.1H34.4"/>
	<path class="st0" d="M9.9,24V6.4c1.4,4.2,3.9,6,8,6.6c-0.6-4.1-2.3-6.6-6.6-8H33c-4.2,1.4-5.9,3.9-6.6,8c4.1-0.6,6.6-2.4,8-6.6V24
		H32c-1.4-1.4-3.2-2.1-5.6-2.5c0.1,0.9,0.3,1.7,0.6,2.5h-9.7c0.3-0.8,0.5-1.6,0.6-2.5c-2.4,0.4-4.2,1.1-5.6,2.5H9.9z M28.4,14.8h2.3
		c0.6,0,1,0.1,1,0.6c0,0.6-0.3,0.7-0.8,0.7h-2.4L28.4,14.8L28.4,14.8z M15.9,16.1h-1.7c-0.1,0.2-0.4,0.4-0.7,0.4
		c-0.4,0-0.8-0.3-0.8-0.8v-0.1h-0.1c-0.2,0-0.3-0.1-0.3-0.3c0-0.1,0.1-0.2,0.3-0.2h0.1V15c0-0.4,0.4-0.8,0.8-0.8
		c0.3,0,0.6,0.2,0.7,0.5h1.7V16.1L15.9,16.1z M13.8,15.6h-0.6l0,0c0,0.2,0.1,0.3,0.3,0.3C13.7,16,13.8,15.8,13.8,15.6L13.8,15.6z
		 M13.2,15.1h0.6c0-0.2-0.1-0.3-0.3-0.3C13.4,14.8,13.2,15,13.2,15.1L13.2,15.1z M28.4,18.4h2.3c0.6,0,1,0.1,1,0.6
		c0,0.6-0.3,0.7-0.8,0.7h-2.4L28.4,18.4L28.4,18.4z M15.9,19.7h-1.7c-0.1,0.2-0.4,0.4-0.7,0.4c-0.4,0-0.8-0.3-0.8-0.8v-0.1h-0.1
		c-0.2,0-0.3-0.1-0.3-0.3c0-0.1,0.1-0.2,0.3-0.2h0.1v-0.1c0-0.4,0.4-0.8,0.8-0.8c0.3,0,0.6,0.2,0.7,0.5h1.7V19.7L15.9,19.7z
		 M13.8,19.2h-0.6l0,0c0,0.2,0.1,0.3,0.3,0.3C13.7,19.6,13.8,19.4,13.8,19.2L13.8,19.2z M13.2,18.7h0.6c0-0.2-0.1-0.3-0.3-0.3
		C13.4,18.4,13.2,18.6,13.2,18.7L13.2,18.7L13.2,18.7z M21.8,19.7c-0.5-0.3-0.9-0.3-1.7-0.3h-1.8v-5.5c0.9,0,0.9-0.2,1.9-0.2
		s1.6,0.6,1.6,1.3C21.8,14.9,21.8,19.7,21.8,19.7z M22.6,19.7c0.5-0.3,0.9-0.3,1.7-0.3h1.8v-5.5c-0.9,0-0.9-0.2-1.9-0.2
		s-1.6,0.6-1.6,1.3C22.6,14.9,22.6,19.7,22.6,19.7z M22.2,21.2c1.1,0,1-0.4,1.8-0.4h3.3v-6.6l-0.4-0.3v6.3h-2.6
		c-1.5,0-1.1,0.4-2.1,0.4s-0.6-0.4-2.1-0.4h-2.6v-6.3L17,14.2v6.6h3.3C21.1,20.8,21,21.2,22.2,21.2"/>
	<path class="st0" d="M54.1,45l-0.8,2h1.6L54.1,45z M51.4,49c0.2,0,0.4-0.1,0.5-0.2s0.3-0.5,0.5-1.1l1.8-4.1h0.3l2.1,4.8
		c0.1,0.3,0.2,0.5,0.3,0.6c0.1,0.1,0.3,0.1,0.4,0.1v0.3H55V49c0.2,0,0.4,0,0.5-0.1c0,0,0.1,0,0.1-0.2c0-0.1-0.1-0.4-0.1-0.5
		l-0.3-0.8h-2.1l-0.4,0.9l-0.1,0.3c0,0.1,0,0.2,0.1,0.2s0.3,0.1,0.4,0.1v0.3h-1.8L51.4,49"/>
	<path class="st0" d="M63.3,43.9c-0.2,0-0.5,0-0.7,0.1c-0.1,0.1-0.1,0.2-0.1,0.5v2.7c0,0.4,0.1,0.8,0.2,1c0.2,0.4,0.6,0.6,1.2,0.6
		c1.3,0,1.5-0.7,1.5-1.8v-2.2c0-0.5-0.1-0.7-0.1-0.8c-0.1-0.2-0.5-0.2-0.6-0.2v-0.3h2.1v0.3c-0.2,0-0.5,0.1-0.7,0.2
		c-0.2,0.2-0.2,0.5-0.2,0.9v2.2c0,0.6-0.1,1-0.3,1.4c-0.3,0.6-1,0.9-1.9,0.9s-1.6-0.3-1.9-0.9c-0.2-0.3-0.3-0.8-0.3-1.3v-2.6
		c0-0.3-0.1-0.5-0.1-0.5c-0.1-0.1-0.5-0.1-0.6-0.2v-0.3h2.5V43.9"/>
	<path class="st0" d="M71.2,48.3c0.3,0.4,0.7,0.6,1.2,0.6c0.2,0,0.5-0.1,0.6-0.2c0.2-0.1,0.3-0.4,0.3-0.6s-0.1-0.5-0.3-0.6
		c-0.3-0.3-1.2-0.8-1.5-1c-0.2-0.1-0.4-0.3-0.5-0.4c-0.2-0.3-0.4-0.6-0.4-0.9c0-0.9,0.7-1.6,1.6-1.6c0.2,0,0.4,0,0.7,0.1l0.4,0.1
		h0.1c0.1-0.1,0.1-0.2,0.1-0.2h0.4l0.2,1.9h-0.4c-0.1-0.4-0.3-0.9-0.6-1.1c-0.3-0.2-0.6-0.3-0.8-0.3c-0.4,0-0.8,0.2-0.8,0.7
		c0,0.2,0.1,0.4,0.2,0.5s0.3,0.3,0.6,0.5l0.7,0.5c0.5,0.3,0.8,0.5,1,0.8s0.3,0.6,0.3,0.9c0,0.5-0.2,0.9-0.5,1.2
		c-0.3,0.3-0.8,0.5-1.3,0.5c-0.3,0-0.5-0.1-0.8-0.2s-0.4-0.1-0.5-0.1h-0.1h-0.2h-0.3l-0.3-1.9h0.3C70.8,47.8,70.9,48.1,71.2,48.3"/>
	<path class="st0" d="M83,43.6v1.6h-0.4c-0.1-0.2-0.2-0.7-0.4-0.9c-0.1-0.1-0.4-0.2-0.9-0.2h-0.4v4.2c0,0.3,0.1,0.5,0.1,0.5
		c0.1,0.1,0.5,0.1,0.7,0.1v0.3h-2.6V49c0.7-0.1,0.8-0.1,0.8-0.8v-4.1h-0.4c-0.5,0-0.7,0.1-0.9,0.2c-0.2,0.2-0.3,0.7-0.4,0.9h-0.4
		l0.1-1.6H83"/>
	<path class="st0" d="M90,45.1c0-0.5-0.2-0.8-0.5-0.9c-0.2-0.1-0.5-0.1-0.8-0.1c-0.2,0-0.4,0-0.4,0v0.2v2c0.6,0,0.9-0.1,1.2-0.2
		C89.8,45.9,90,45.6,90,45.1L90,45.1z M87.1,48.8c0.1-0.1,0.1-0.3,0.1-0.6v-3.6c0-0.3,0-0.5-0.1-0.5C87,44,86.6,44,86.5,43.9v-0.3
		h2.4c0.5,0,0.9,0.1,1.2,0.2c0.6,0.2,1,0.7,1,1.4c0,0.4-0.1,0.8-0.4,1s-0.6,0.4-1,0.4l1.6,2c0.2,0.3,0.4,0.3,0.7,0.4v0.3h-1.5
		l-2-2.6h-0.3v1.6c0,0.3,0,0.5,0.1,0.5c0.1,0.1,0.5,0.1,0.6,0.1v0.3h-2.5V49C86.6,48.9,87,48.9,87.1,48.8"/>
	<path class="st0" d="M97.8,45L97,47h1.7L97.8,45L97.8,45z M95.1,49c0.2,0,0.4-0.1,0.5-0.2s0.3-0.5,0.5-1.1l1.8-4.1h0.3l2.1,4.8
		c0.1,0.3,0.2,0.5,0.3,0.6c0.1,0.1,0.3,0.1,0.4,0.1v0.3h-2.3V49c0.2,0,0.4,0,0.5-0.1c0,0,0.1,0,0.1-0.2c0-0.1-0.1-0.4-0.1-0.5
		l-0.3-0.8h-2.1l-0.4,0.9l-0.1,0.3c0,0.1,0,0.2,0.1,0.2s0.3,0.1,0.4,0.1v0.3H95L95.1,49"/>
	<path class="st0" d="M105,48.8c0.1,0,0.1-0.2,0.1-0.5v-3.7c0-0.3,0-0.5-0.1-0.5c-0.1-0.1-0.5-0.1-0.6-0.2v-0.3h2.5v0.3
		c-0.2,0-0.5,0-0.7,0.1c-0.1,0.1-0.1,0.2-0.1,0.5v4v0.2l0.1,0.1h0.2h0.4c0.7,0,1.2-0.1,1.5-0.2c0.3-0.2,0.6-0.6,0.7-0.9h0.4
		l-0.5,1.6h-4.6V49C104.5,48.9,104.9,48.9,105,48.8"/>
	<path class="st0" d="M113.5,48.8c0.1,0,0.1-0.2,0.1-0.5v-3.7c0-0.3-0.1-0.5-0.1-0.5c-0.1-0.1-0.5-0.1-0.7-0.1v-0.3h2.6V44
		c-0.2,0-0.6,0-0.7,0.1c-0.1,0.1-0.1,0.2-0.1,0.5v3.7c0,0.3,0.1,0.5,0.1,0.5c0.1,0.1,0.5,0.1,0.7,0.1v0.3h-2.6V49
		C113,48.9,113.4,48.9,113.5,48.8"/>
	<path class="st0" d="M121.7,45l-0.8,2h1.7L121.7,45L121.7,45z M118.9,49c0.2,0,0.4-0.1,0.5-0.2s0.3-0.5,0.5-1.1l1.8-4.1h0.3
		l2.1,4.8c0.1,0.3,0.2,0.5,0.3,0.6s0.3,0.1,0.4,0.1v0.3h-2.3V49c0.2,0,0.4,0,0.5-0.1c0,0,0.1,0,0.1-0.2c0-0.1-0.1-0.4-0.1-0.5
		l-0.3-0.8h-2.1l-0.4,0.9l-0.1,0.3c0,0.1,0,0.2,0.1,0.2s0.3,0.1,0.4,0.1v0.3h-1.7V49"/>
	<path class="st0" d="M139.1,5.3v4.1h0.9c1.3,0,2.3-1,2.3-2.2s-1-2.1-2.3-2.1C140,5.2,139.6,5.1,139.1,5.3L139.1,5.3z M144.1,7.3
		c0,1.2-1,2.2-2.3,2.6l3,4c0.3,0.3,0.6,0.8,1,0.8h0.1V15h-2.3l-3.6-4.8h-0.7v3.4c0,0.7,0.3,1.1,1,1.1h0.1V15h-3.7v-0.3h0.1
		c0.7,0,0.9-0.4,0.9-1.1V6c0-0.7-0.3-1.1-0.9-1.1h-0.1V4.6h2.7C143.2,4.3,144,5.6,144.1,7.3"/>
	<path class="st0" d="M57.2,14.8v-0.4h-0.6c-0.6,0-1.2-0.6-1.2-1.2V2.8h2.5c1,0,1.6,0.7,1.7,2.2h0.3l-0.1-3.1l-0.1-0.1H49.1L49,1.9
		L48.9,5h0.3c0.1-1.5,0.7-2.2,1.7-2.2h2.4v10.4c0,0.7-0.5,1.2-1.2,1.2h-0.6v0.4H57.2"/>
	<path class="st0" d="M97.1,3c0-0.6-0.4-0.9-0.9-0.9h-0.5V1.7h3.8v0.4h-0.4c-0.6,0-0.9,0.3-0.9,0.9v7.6c0,2.5-1.9,4.4-5,4.4
		S88,13.1,88,10.4V3.3c0-0.6-0.5-1.2-1.2-1.2h-0.2V1.7h4.8v0.4h-0.2c-0.7,0-1.2,0.6-1.2,1.2v7.2c0,1.9,1.2,3.5,3.2,3.5
		c1.9,0,3.7-1.2,3.7-3.3L97.1,3"/>
	<path class="st0" d="M68,9.9h-4.4v3.6c0,0.7,0.3,1.1,0.9,1.1h0.1v0.3h-3.7v-0.3l0,0c0.7,0,0.9-0.4,0.9-1.1V5.9
		c0-0.7-0.2-1.1-0.9-1.1l0,0V4.5h3.7v0.3h-0.1c-0.7,0-0.9,0.4-0.9,1.1v3.3H68V5.9c0-0.7-0.3-1.1-1-1.1h-0.1V4.5h3.8v0.3h-0.1
		c-0.7,0-0.9,0.4-0.9,1.1v7.6c0,0.7,0.3,1.1,0.9,1.1h0.1v0.3h-3.8v-0.3H67c0.7,0,1-0.4,1-1.1V9.9"/>
	<path class="st0" d="M74.7,9.7v3.8c0,0.3,0.2,0.5,0.5,0.5h2.6c1.4,0,2.1-0.8,2.4-2h0.3l-0.9,2.8h-7.7v-0.3H72c0.7,0,1-0.4,1-1.1
		V5.8c0-0.7-0.3-1.1-1-1.1h-0.1V4.4h7.5l0.2,2.4h-0.3c-0.1-1.1-0.7-1.7-1.5-1.7h-3.2v3.8h3c0.5,0,0.7-0.5,0.7-1V7.8h0.3v2.9h-0.3
		v-0.1c0-0.5-0.2-1-0.7-1L74.7,9.7"/>
	<path class="st0" d="M114.3,13.5c0,0.7,0.3,1.1,1,1.1l0,0v0.3h-3.7v-0.3l0,0c0.7,0,1-0.4,1-1.1V5.9c0-0.7-0.3-1.1-1-1.1l0,0V4.5
		h3.7v0.3l0,0c-0.7,0-1,0.4-1,1.1V13.5"/>
	<path class="st0" d="M121.8,14.8l3.6-9.1c0.3-0.6,0.5-0.9,1-0.9V4.5H124v0.3h0.2c0.3,0,0.6,0.3,0.5,0.7l-2.6,6.4l-2.8-6.4
		c-0.2-0.4,0.2-0.7,0.5-0.7h0.3V4.5h-3.5v0.3c0.4,0,0.7,0.3,1,0.9l4,9.2C121.5,14.9,121.7,14.9,121.8,14.8"/>
	<path class="st0" d="M130.2,9.7v3.8c0,0.3,0.2,0.5,0.5,0.5h2.6c1.4,0,2.1-0.8,2.4-2h0.3l-0.9,2.8h-7.7v-0.3h0.1
		c0.7,0,0.9-0.4,0.9-1.1V5.8c0-0.7-0.3-1.1-0.9-1.1h-0.1V4.4h7.5l0.2,2.4h-0.2c-0.1-1.1-0.7-1.7-1.5-1.7h-3.2v3.8h3
		c0.5,0,0.8-0.5,0.8-1V7.8h0.3v2.9H134v-0.1c0-0.5-0.2-1-0.8-1L130.2,9.7"/>
	<path class="st0" d="M146.9,11.3h-0.3v3.5h0.3c0.1-0.5,0.5-0.7,0.9-0.5c1.3,0.7,2.8,0.8,3.9-0.1c1-0.8,1.5-2.3,0.8-3.4
		c-0.6-1.2-2.2-2-3.5-2.7c-1.5-0.8-1.5-2.2-0.4-2.9c1.3-0.8,3.4,0.6,3.4,2.6h0.3V4.4H152c-0.1,0.5-0.5,0.5-1,0.3
		c-1.4-0.7-2.6-0.6-3.6,0.3c-1.1,1-1.4,3.2,0.5,4.3c1.1,0.7,2.6,1.5,3.2,2.2c0.5,0.7,0.6,1.5-0.4,2.3
		C149.3,15.1,146.9,13.6,146.9,11.3"/>
	<path class="st0" d="M102.6,4.4h-2.7v0.3c0.4,0,0.7,0,0.9,0.3l0.7,0.8v7.9c0,0.5-0.5,0.8-0.9,0.8h-0.1v0.3h2.9v-0.3h-0.1
		c-0.5,0-1-0.3-1-0.8V6.8l6.9,7.9h0.2V5.4c0-0.5,0.5-0.8,0.9-0.8h0.1V4.3h-2.9v0.3h0.1c0.5,0,0.9,0.3,0.9,0.8v5.9L102.6,4.4"/>
	<path class="st0" d="M156.6,13.5c0,0.7,0.3,1.1,1,1.1h0.1v0.3h-3.8v-0.3h0.1c0.7,0,0.9-0.4,0.9-1.1V5.9c0-0.7-0.3-1.1-0.9-1.1h-0.1
		V4.5h3.7v0.3h-0.1c-0.7,0-1,0.4-1,1.1v7.6"/>
	<path class="st0" d="M172.5,10.4l-3.2-4.9c-0.3-0.6-0.7-0.8-1.1-0.8V4.4h3.7v0.3h-0.2c-0.3,0-0.6,0.4-0.4,0.8l2.6,4l2.4-4
		c0.2-0.3,0-0.7-0.3-0.7h-0.3V4.5h2.5v0.3c-0.5,0-0.9,0.3-1.2,0.8l-2.8,4.8v3.1c0,0.7,0.3,1.1,1,1.1h0.1v0.3h-3.8v-0.3h0.1
		c0.7,0,1-0.4,1-1.1L172.5,10.4"/>
	<path class="st0" d="M164,13.5c0,0.7,0.3,1,1,1l0,0v0.3h-3.7v-0.3l0,0c0.7,0,1-0.3,1-1V5.2h-2.1c-0.8,0-1.2,0.5-1.3,1.7h-0.2
		l0.1-2.4l0.1-0.1h8.6l0.1,0.1l0.1,2.4h-0.3c-0.1-1.1-0.5-1.7-1.3-1.7H164L164,13.5"/>
	<path class="st0" d="M65,32.7c0,0.7,0.3,1.1,0.9,1.1H66V34h-3.7v-0.3h0.1c0.7,0,1-0.4,1-1.1V25c0-0.7-0.3-1.1-1-1.1h-0.1v-0.3h7.9
		l0.2,2.4h-0.2c-0.1-1.1-0.7-1.7-1.5-1.7H65v3.8h3c0.5,0,0.7-0.5,0.7-1V27H69v3h-0.3l0,0c0-0.5-0.2-1-0.7-1h-3L65,32.7"/>
	<path class="st0" d="M102.9,28.9v3.8c0,0.3,0.3,0.5,0.6,0.5h2.6c1.4,0,2.1-0.9,2.4-2h0.3L108,34h-7.7v-0.3h0.1c0.7,0,1-0.4,1-1.1
		V25c0-0.7-0.3-1.1-1-1.1h-0.1v-0.3h7.5L108,26h-0.2c0-1.1-0.7-1.7-1.5-1.7h-3.4v3.8h3c0.5,0,0.8-0.5,0.8-1V27h0.3v3h-0.3l0,0
		c0-0.5-0.3-1-0.8-1L102.9,28.9"/>
	<path class="st0" d="M97.4,24.7c0-0.5-0.3-0.7-0.7-0.7h-0.3v-0.3h2.8V24h-0.3c-0.4,0-0.7,0.3-0.7,0.7v6.1c0,2-1.5,3.4-4,3.4
		s-4.1-1.5-4.1-3.6V25c0-0.5-0.4-1-0.9-1l0,0v-0.3h3.6V24h-0.1c-0.5,0-0.9,0.5-0.9,1v5.7c0,1.5,0.9,2.8,2.5,2.8c1.5,0,3-0.9,3-2.6
		L97.4,24.7"/>
	<path class="st0" d="M112.1,28.9v3.8c0,0.3,0.2,0.5,0.5,0.5h2.6c1.4,0,2.1-0.9,2.4-2h0.3L117,34h-7.7v-0.3l0,0c0.7,0,1-0.4,1-1.1
		V25c0-0.7-0.3-1.1-1-1.1l0,0v-0.3h7.4l0.2,2.4h-0.2c-0.1-1.1-0.7-1.7-1.5-1.7H112v3.8h3c0.5,0,0.8-0.5,0.8-1V27h0.3v3h-0.2l0,0
		c0-0.5-0.3-1-0.8-1L112.1,28.9"/>
	<path class="st0" d="M139.9,32.6c0,0.3,0.3,0.7,0.5,0.7h2.4c1.4,0,2.1-0.9,2.4-2.1h0.3l-0.8,2.8h-7.5v-0.3h0.1
		c0.7,0,0.9-0.4,0.9-1.1V25c0-0.7-0.3-1.1-0.9-1.1h-0.1v-0.3h3.7v0.3l0,0c-0.7,0-1,0.4-1,1.1L139.9,32.6"/>
	<path class="st0" d="M129.8,30.5h-0.3V34h0.3c0.1-0.5,0.5-0.7,0.9-0.5c1.3,0.7,2.8,0.8,3.9,0c1-0.8,1.5-2.3,0.8-3.4
		c-0.6-1.2-2.3-2-3.5-2.7c-1.5-0.8-1.5-2.2-0.4-2.9c1.4-0.8,3.4,0.5,3.4,2.5h0.3v-3.4h-0.3c-0.1,0.5-0.5,0.6-1,0.4
		c-1.5-0.7-2.7-0.6-3.7,0.3c-1.1,1-1.3,3.2,0.5,4.3c1.1,0.7,2.6,1.5,3.2,2.2c0.5,0.6,0.6,1.5-0.4,2.3
		C132.2,34.3,129.8,32.8,129.8,30.5"/>
	<path class="st0" d="M120.6,23.7h-2.7V24c0.4,0,0.7,0.1,0.9,0.3c0.3,0.3,0.4,0.5,0.7,0.8V33c0,0.5-0.5,0.8-0.9,0.8h-0.1V34h2.9
		v-0.3h-0.1c-0.5,0-0.9-0.3-0.9-0.8V26l6.8,7.9h0.2v-9.3c0-0.5,0.5-0.8,0.9-0.8h0.1v-0.3h-2.8v0.3h0.1c0.5,0,1,0.3,1,0.8v5.9
		L120.6,23.7"/>
	<path class="st0" d="M159.1,23.7h-2.7V24c0.4,0,0.7,0.1,0.9,0.3c0.3,0.3,0.4,0.5,0.7,0.8V33c0,0.5-0.5,0.8-0.9,0.8H157V34h2.9v-0.3
		l0,0c-0.5,0-1-0.3-1-0.8V26l6.8,7.9h0.2v-9.3c0-0.5,0.5-0.8,0.9-0.8h0.1v-0.3h-2.8v0.3c0.5,0,1,0.3,1,0.8v5.9L159.1,23.7"/>
	<path class="st0" d="M155,32.8c0.2,0.6,0.5,0.9,1,0.9h0.1V34h-3.6v-0.3h0.3c0.3,0,0.7-0.3,0.5-0.7l-1-2.3h-3.7l-1,2.3
		c-0.2,0.4,0.2,0.7,0.6,0.7h0.1V34h-2.8v-0.3h0.2c0.4,0,0.8-0.3,1.1-0.9l3.8-9.3c0.2-0.3,0.4,0,0.4,0L155,32.8L155,32.8z
		 M148.9,29.9h3l-1.5-3.5L148.9,29.9"/>
	<path class="st0" d="M178.2,28.9c0,2.9-2.3,5.2-5.4,5.2H168v-0.3h0.1c0.7,0,0.9-0.4,0.9-1.1v-7.6c0-0.7-0.3-1.1-0.9-1.1H168v-0.3
		h3.9C178.7,23.5,178.2,28.9,178.2,28.9L178.2,28.9z M171,24.4v8.8c0.4,0.1,0.6,0.1,1,0.1c3.1,0,4.6-1.8,4.6-4.5
		c0-0.1,0.2-4.7-4.7-4.6C172,24.2,171.4,24.2,171,24.4"/>
	<path class="st0" d="M55.1,20.6c3.8,0.1,6.2,3,6.2,6.7S58.9,34,55.1,34s-6.2-3-6.2-6.7C49.2,20.3,55.1,20.6,55.1,20.6z M51.2,27.3
		c0,3.5,1.6,5.9,3.9,5.9c2.1,0,3.9-2.1,3.9-6c-0.1-5-2.7-5.7-3.9-5.8C52.2,21.6,51.2,24.5,51.2,27.3"/>
	<path class="st0" d="M82.1,20.8c0,0,6.2,0,6.3,6.8c0,3-1.6,5.4-4.2,6.3c0.6,1.3,2.1,2.7,4.2,2.9v0.3c-3,0-5.6-1-7.5-3
		c-3.1-0.6-5-3.3-5-6.6C75.9,23.8,78.3,20.9,82.1,20.8L82.1,20.8z M82.1,21.6c0,0-3.8-0.2-3.8,5.9c0,3.9,1.7,5.9,3.9,5.9
		c2.1,0,3.9-2,3.9-5.9C86.1,23.7,84.2,21.6,82.1,21.6"/>
</g>
</svg>
