<svg xmlns="http://www.w3.org/2000/svg" viewBox="0 0 431.5 100"><style type="text/css">
	.st0{display:none;}
	.st1{display:inline;fill:#FFFFFF;}
	.st2{fill:#FFFFFF;}
	.st3{fill-rule:evenodd;clip-rule:evenodd;fill:#FFFFFF;}
</style><g class="st0"><path class="st1" d="M60.5 60.7v0.8l0.6-0.5c0.2-0.2 0.4-0.4 0.4-0.7s-0.2-0.2-0.4-0.1L60.5 60.7 60.5 60.7zM60.1 60.6c0 0 0.2-0.2 0.4-0.3l0.7-0.5c0.5-0.4 0.7-0.3 0.7 0.1 0 0.5-0.3 0.8-0.4 0.9 0.1-0.1 0.3-0.1 0.3 0.3 0 0.3 0 0.5 0.1 0.6L61.5 62c-0.1-0.1-0.1-0.2-0.1-0.3 0-0.5-0.1-0.6-0.4-0.3l-0.5 0.4v1L60.1 63V60.6"/><path class="st1" d="M56.2 64.4v0.8l0.7-0.4c0.2-0.1 0.4-0.4 0.4-0.6s-0.1-0.3-0.4-0.2L56.2 64.4 56.2 64.4zM56.1 63.4v0.7l0.6-0.4c0.2-0.1 0.3-0.3 0.3-0.5 0-0.3-0.1-0.3-0.3-0.2L56.1 63.4zM56.2 65.5l-0.5 0.2v-2.5c0 0 0.2-0.1 0.4-0.2l0.8-0.4c0.4-0.2 0.7-0.2 0.7 0.3 0 0.3-0.1 0.5-0.3 0.7 0.3-0.1 0.4 0.1 0.4 0.4 0 0.4-0.3 0.9-0.9 1.2L56.2 65.5"/><path class="st1" d="M54.6 65.3l-0.4-0.9 -0.3 1.3L54.6 65.3 54.6 65.3zM53.8 66.1l-0.2 0.8L53.1 67l0.8-3 0.4-0.2 1.1 2.1L55 66.2l-0.3-0.6L53.8 66.1"/><path class="st1" d="M42.5 72.3l-0.4-1.1 -0.4 1.1C41.7 72.3 42.5 72.3 42.5 72.3zM41.6 72.7l-0.3 0.7h-0.5l1-2.5h0.5l1 2.7h-0.5l-0.2-0.7L41.6 72.7"/><path class="st1" d="M35.6 66.8l-0.4-1.2 -0.4 0.9L35.6 66.8 35.6 66.8zM34.8 66.8l-0.2 0.6 -0.5-0.2 1-2.2 0.4 0.2 0.9 2.8 -0.5-0.1 -0.2-0.7L34.8 66.8"/><path class="st1" d="M36.3 69.5v3.2c1.8 0.8 4.3 1.2 6.9 1.2 2.6 0 5-0.4 6.9-1.2v-3.2c-2.2 0.6-4.5 0.9-6.9 0.9C39.7 70.4 36.3 69.5 36.3 69.5L36.3 69.5zM22.2 56.2v4.1c4 3.3 8.5 6.5 14.1 8l3.7-2.2C34.2 65 26.2 61 22.2 56.2zM28 59.7c-0.4-0.7-0.9-1.3-1.5-2.3v1.4C27.1 59.2 28 59.7 28 59.7zM58.3 59.9c0.9-0.6 1.6-1.1 1.6-1.1l-0.1-1.4L58.3 59.9zM64.2 56.2c-4 4.8-12 8.8-17.7 10l3.7 2.2c0 0 4.4-1.4 7.8-3.4 4.8-3 6.3-4.7 6.3-4.7L64.2 56.2 64.2 56.2zM26.6 65v0.6c0 0.8-0.1 0.8 0.6 1.2l2.7 1.7v-1.6C28.7 66.3 27.6 65.7 26.6 65zM60.9 64.3v1.4c0 1.1-0.1 1.3-0.7 1.7 -1 0.6-2.5 1.7-4.7 3v-2.9c-1.4 0.7-2.8 1.2-4.3 1.7v4.3c-2 0.9-4.9 1.5-8 1.5 -3 0-5.9-0.6-8-1.5v-4.3c-1.5-0.5-2.9-1-4.3-1.7v2.9c-2.3-1.4-3.8-2.4-4.7-3 -0.6-0.4-0.7-0.6-0.7-1.7v-1.4c-1.6-1.1-3.1-2.3-4.4-3.4v-6.2H26c2 3.1 3.5 5.4 4.2 6.6 2.7 1.6 5.7 2.8 8.5 3.6 0.9 0.2 1.7 0.4 2.5 0.6v3.9c0.6 0 3.2 0 3.8 0v-3.9c0.8-0.1 1.7-0.3 2.5-0.6 2.8-0.8 5.8-2 8.6-3.6 0 0 2.2-3.5 4.2-6.6h4.9v6.2C64 61.9 62.6 63.1 60.9 64.3L60.9 64.3zM59.3 66.8c0.7-0.4 0.6-0.4 0.6-1.2V65c-1 0.7-2.1 1.3-3.3 1.9v1.6C56.6 68.5 58.1 67.5 59.3 66.8"/><path class="st1" d="M27.2 26.1v19.3c0 7.4 6.7 15 16.1 17.8 9.3-2.8 16.1-10.4 16.1-17.8V26.1H27.2zM43.3 64.3c-9.4-2.5-17.2-10.5-17.2-19V25h34.4v20.3C60.5 53.8 52.7 61.8 43.3 64.3"/><path class="st1" d="M33.5 67l0.4 0.2v-2.5l-0.4-0.2V67"/><path class="st1" d="M31.3 63.8l0.7 0.3v2.2l0.4 0.2v-2.1l0.7 0.3v-0.4l-1.8-0.9L31.3 63.8"/><path class="st1" d="M29.1 64.8l0.4 0.2v-1.9l0 0 1 2.4 0.4 0.2v-2.6L30.5 63v1.9l0 0 -1-2.4 -0.4-0.3V64.8"/><path class="st1" d="M27.1 63.6l1.5 1v-0.4l-1.2-0.8v-0.7l1.1 0.7V63l-1.1-0.7v-0.7l1.2 0.7V62l-1.5-1V63.6"/><path class="st1" d="M26.4 63l0.4 0.3v-2.5l-0.4-0.3V63"/><path class="st1" d="M26 61c0-0.6-0.4-1.1-0.8-1.4 -0.6-0.4-0.9 0-0.9 0.8 0 0.7 0.3 1.5 0.9 1.9 0.5 0.3 0.8 0.1 0.8-0.5l-0.3-0.2c0 0.4-0.2 0.6-0.5 0.4 -0.4-0.2-0.6-0.8-0.6-1.3s0.2-0.9 0.6-0.6c0.3 0.2 0.4 0.5 0.5 0.8L26 61"/><path class="st1" d="M22.6 59.3c0 0.6 0.3 1.1 0.7 1.4 0.4 0.2 0.7 0.3 0.7-0.3 0-0.3-0.1-0.6-0.3-0.9L23.2 59c-0.1-0.1-0.2-0.3-0.2-0.5 0-0.3 0.2-0.2 0.3-0.1 0.2 0.1 0.4 0.4 0.4 0.7l0.3 0.2c0-0.5-0.3-1-0.7-1.3 -0.3-0.2-0.6-0.2-0.6 0.3 0 0.3 0.1 0.6 0.4 0.9 0.2 0.3 0.4 0.4 0.5 0.6 0.1 0.1 0.1 0.2 0.1 0.4s-0.1 0.3-0.4 0.1c-0.2-0.2-0.4-0.5-0.4-0.9L22.6 59.3"/><path class="st1" d="M45.9 71.6c-0.1-0.6-0.5-0.9-1.2-0.8 -0.8 0-1.3 0.7-1.3 1.4 0 0.7 0.5 1.3 1.3 1.3 0.7 0 1.1-0.5 1.1-1.1h-0.5c0 0.4-0.3 0.7-0.7 0.7 -0.6 0-0.8-0.4-0.8-0.9s0.2-1 0.8-1c0.4 0 0.6 0.2 0.7 0.5L45.9 71.6"/><path class="st1" d="M62.2 61.4l1.3-1.2v-0.4l-1 0.9V60l0.9-0.8v-0.4l-0.9 0.8V59l1-0.9v-0.4L62.2 59V61.4"/><path class="st1" d="M51 67.8l1.8-0.7v-0.4l-1.3 0.5V65L51 65.3V67.8"/><path class="st1" d="M59.5 62.1c-0.1-0.4-0.3-0.6-0.8-0.2 -0.4 0.4-0.5 1-0.5 1.4 0.1 0.4 0.3 0.6 0.8 0.3C59.7 62.7 59.5 62.1 59.5 62.1L59.5 62.1zM57.9 63.6c-0.1-0.6 0.1-1.5 0.7-2 0.6-0.6 1.1-0.4 1.2 0.2 0 0 0.3 1-0.7 2C58.5 64.3 58 64.2 57.9 63.6"/><path class="st1" d="M33.4 49c-1 1-1.8 2.3-2.4 4.1V49C31 49 33.4 49 33.4 49zM48.1 49c0.9 2.7 2.7 4.4 6 5.5H32.4c3.3-1.1 5.1-2.9 6-5.5H48.1zM55.5 49v4.1C55 51.3 54.2 50 53.2 49H55.5"/><path class="st1" d="M31 49V31.4c1.4 4.2 3.9 6 8 6.6 -0.6-4.1-2.3-6.6-6.6-8h21.7c-4.2 1.4-5.9 3.9-6.6 8 4.1-0.6 6.6-2.4 8-6.6V49h-2.4c-1.4-1.4-3.2-2.1-5.6-2.5 0.1 0.9 0.3 1.7 0.6 2.5h-9.7c0.3-0.8 0.5-1.6 0.6-2.5 -2.4 0.4-4.2 1.1-5.6 2.5H31zM49.5 39.8h2.3c0.6 0 1 0.1 1 0.6 0 0.6-0.3 0.7-0.8 0.7h-2.4L49.5 39.8 49.5 39.8zM37 41.1h-1.7c-0.1 0.2-0.4 0.4-0.7 0.4 -0.4 0-0.8-0.3-0.8-0.8v-0.1h-0.1c-0.2 0-0.3-0.1-0.3-0.3 0-0.1 0.1-0.2 0.3-0.2h0.1V40c0-0.4 0.4-0.8 0.8-0.8 0.3 0 0.6 0.2 0.7 0.5H37V41.1L37 41.1zM34.9 40.6h-0.6l0 0c0 0.2 0.1 0.3 0.3 0.3C34.8 41 34.9 40.8 34.9 40.6L34.9 40.6zM34.3 40.1h0.6c0-0.2-0.1-0.3-0.3-0.3C34.5 39.8 34.3 40 34.3 40.1L34.3 40.1zM49.5 43.4h2.3c0.6 0 1 0.1 1 0.6 0 0.6-0.3 0.7-0.8 0.7h-2.4L49.5 43.4 49.5 43.4zM37 44.7h-1.7c-0.1 0.2-0.4 0.4-0.7 0.4 -0.4 0-0.8-0.3-0.8-0.8v-0.1h-0.1c-0.2 0-0.3-0.1-0.3-0.3 0-0.1 0.1-0.2 0.3-0.2h0.1v-0.1c0-0.4 0.4-0.8 0.8-0.8 0.3 0 0.6 0.2 0.7 0.5H37V44.7L37 44.7zM34.9 44.2h-0.6l0 0c0 0.2 0.1 0.3 0.3 0.3C34.8 44.6 34.9 44.4 34.9 44.2L34.9 44.2zM34.3 43.7h0.6c0-0.2-0.1-0.3-0.3-0.3C34.5 43.4 34.3 43.6 34.3 43.7L34.3 43.7 34.3 43.7zM42.9 44.7c-0.5-0.3-0.9-0.3-1.7-0.3h-1.8v-5.5c0.9 0 0.9-0.2 1.9-0.2s1.6 0.6 1.6 1.3C42.9 39.9 42.9 44.7 42.9 44.7zM43.7 44.7c0.5-0.3 0.9-0.3 1.7-0.3h1.8v-5.5c-0.9 0-0.9-0.2-1.9-0.2s-1.6 0.6-1.6 1.3C43.7 39.9 43.7 44.7 43.7 44.7zM43.3 46.2c1.1 0 1-0.4 1.8-0.4h3.3v-6.6L48 38.9v6.3h-2.6c-1.5 0-1.1 0.4-2.1 0.4s-0.6-0.4-2.1-0.4h-2.6v-6.3l-0.5 0.3v6.6h3.3C42.2 45.8 42.1 46.2 43.3 46.2"/><path class="st1" d="M75.2 70l-0.8 2H76L75.2 70zM72.5 74c0.2 0 0.4-0.1 0.5-0.2s0.3-0.5 0.5-1.1l1.8-4.1h0.3l2.1 4.8c0.1 0.3 0.2 0.5 0.3 0.6 0.1 0.1 0.3 0.1 0.4 0.1v0.3h-2.3V74c0.2 0 0.4 0 0.5-0.1 0 0 0.1 0 0.1-0.2 0-0.1-0.1-0.4-0.1-0.5l-0.3-0.8h-2.1l-0.4 0.9 -0.1 0.3c0 0.1 0 0.2 0.1 0.2s0.3 0.1 0.4 0.1v0.3h-1.8L72.5 74"/><path class="st1" d="M84.4 68.9c-0.2 0-0.5 0-0.7 0.1 -0.1 0.1-0.1 0.2-0.1 0.5v2.7c0 0.4 0.1 0.8 0.2 1 0.2 0.4 0.6 0.6 1.2 0.6 1.3 0 1.5-0.7 1.5-1.8v-2.2c0-0.5-0.1-0.7-0.1-0.8 -0.1-0.2-0.5-0.2-0.6-0.2v-0.3h2.1v0.3c-0.2 0-0.5 0.1-0.7 0.2C87 69.2 87 69.5 87 69.9v2.2c0 0.6-0.1 1-0.3 1.4 -0.3 0.6-1 0.9-1.9 0.9s-1.6-0.3-1.9-0.9c-0.2-0.3-0.3-0.8-0.3-1.3v-2.6c0-0.3-0.1-0.5-0.1-0.5C82.4 69 82 69 81.9 68.9v-0.3h2.5V68.9"/><path class="st1" d="M92.3 73.3c0.3 0.4 0.7 0.6 1.2 0.6 0.2 0 0.5-0.1 0.6-0.2 0.2-0.1 0.3-0.4 0.3-0.6s-0.1-0.5-0.3-0.6c-0.3-0.3-1.2-0.8-1.5-1 -0.2-0.1-0.4-0.3-0.5-0.4 -0.2-0.3-0.4-0.6-0.4-0.9 0-0.9 0.7-1.6 1.6-1.6 0.2 0 0.4 0 0.7 0.1l0.4 0.1h0.1c0.1-0.1 0.1-0.2 0.1-0.2H95l0.2 1.9h-0.4c-0.1-0.4-0.3-0.9-0.6-1.1 -0.3-0.2-0.6-0.3-0.8-0.3 -0.4 0-0.8 0.2-0.8 0.7 0 0.2 0.1 0.4 0.2 0.5s0.3 0.3 0.6 0.5l0.7 0.5c0.5 0.3 0.8 0.5 1 0.8s0.3 0.6 0.3 0.9c0 0.5-0.2 0.9-0.5 1.2 -0.3 0.3-0.8 0.5-1.3 0.5 -0.3 0-0.5-0.1-0.8-0.2s-0.4-0.1-0.5-0.1h-0.1H92h-0.3l-0.3-1.9h0.3C91.9 72.8 92 73.1 92.3 73.3"/><path class="st1" d="M104.1 68.6v1.6h-0.4c-0.1-0.2-0.2-0.7-0.4-0.9 -0.1-0.1-0.4-0.2-0.9-0.2H102v4.2c0 0.3 0.1 0.5 0.1 0.5 0.1 0.1 0.5 0.1 0.7 0.1v0.3h-2.6V74c0.7-0.1 0.8-0.1 0.8-0.8v-4.1h-0.4c-0.5 0-0.7 0.1-0.9 0.2 -0.2 0.2-0.3 0.7-0.4 0.9h-0.4l0.1-1.6H104.1"/><path class="st1" d="M111.1 70.1c0-0.5-0.2-0.8-0.5-0.9 -0.2-0.1-0.5-0.1-0.8-0.1 -0.2 0-0.4 0-0.4 0v0.2 2c0.6 0 0.9-0.1 1.2-0.2C110.9 70.9 111.1 70.6 111.1 70.1L111.1 70.1zM108.2 73.8c0.1-0.1 0.1-0.3 0.1-0.6v-3.6c0-0.3 0-0.5-0.1-0.5 -0.1-0.1-0.5-0.1-0.6-0.2v-0.3h2.4c0.5 0 0.9 0.1 1.2 0.2 0.6 0.2 1 0.7 1 1.4 0 0.4-0.1 0.8-0.4 1s-0.6 0.4-1 0.4l1.6 2c0.2 0.3 0.4 0.3 0.7 0.4v0.3h-1.5l-2-2.6h-0.3v1.6c0 0.3 0 0.5 0.1 0.5 0.1 0.1 0.5 0.1 0.6 0.1v0.3h-2.5V74C107.7 73.9 108.1 73.9 108.2 73.8"/><path class="st1" d="M118.9 70l-0.8 2h1.7L118.9 70 118.9 70zM116.2 74c0.2 0 0.4-0.1 0.5-0.2s0.3-0.5 0.5-1.1l1.8-4.1h0.3l2.1 4.8c0.1 0.3 0.2 0.5 0.3 0.6 0.1 0.1 0.3 0.1 0.4 0.1v0.3h-2.3V74c0.2 0 0.4 0 0.5-0.1 0 0 0.1 0 0.1-0.2 0-0.1-0.1-0.4-0.1-0.5l-0.3-0.8h-2.1l-0.4 0.9 -0.1 0.3c0 0.1 0 0.2 0.1 0.2s0.3 0.1 0.4 0.1v0.3h-1.8L116.2 74"/><path class="st1" d="M126.1 73.8c0.1 0 0.1-0.2 0.1-0.5v-3.7c0-0.3 0-0.5-0.1-0.5 -0.1-0.1-0.5-0.1-0.6-0.2v-0.3h2.5v0.3c-0.2 0-0.5 0-0.7 0.1 -0.1 0.1-0.1 0.2-0.1 0.5v4 0.2l0.1 0.1h0.2 0.4c0.7 0 1.2-0.1 1.5-0.2 0.3-0.2 0.6-0.6 0.7-0.9h0.4l-0.5 1.6h-4.6V74C125.6 73.9 126 73.9 126.1 73.8"/><path class="st1" d="M134.6 73.8c0.1 0 0.1-0.2 0.1-0.5v-3.7c0-0.3-0.1-0.5-0.1-0.5 -0.1-0.1-0.5-0.1-0.7-0.1v-0.3h2.6V69c-0.2 0-0.6 0-0.7 0.1 -0.1 0.1-0.1 0.2-0.1 0.5v3.7c0 0.3 0.1 0.5 0.1 0.5 0.1 0.1 0.5 0.1 0.7 0.1v0.3h-2.6V74C134.1 73.9 134.5 73.9 134.6 73.8"/><path class="st1" d="M142.8 70l-0.8 2h1.7L142.8 70 142.8 70zM140 74c0.2 0 0.4-0.1 0.5-0.2s0.3-0.5 0.5-1.1l1.8-4.1h0.3l2.1 4.8c0.1 0.3 0.2 0.5 0.3 0.6s0.3 0.1 0.4 0.1v0.3h-2.3V74c0.2 0 0.4 0 0.5-0.1 0 0 0.1 0 0.1-0.2 0-0.1-0.1-0.4-0.1-0.5l-0.3-0.8h-2.1l-0.4 0.9 -0.1 0.3c0 0.1 0 0.2 0.1 0.2s0.3 0.1 0.4 0.1v0.3H140V74"/><path class="st1" d="M160.2 30.3v4.1h0.9c1.3 0 2.3-1 2.3-2.2s-1-2.1-2.3-2.1C161.1 30.2 160.7 30.1 160.2 30.3L160.2 30.3zM165.2 32.3c0 1.2-1 2.2-2.3 2.6l3 4c0.3 0.3 0.6 0.8 1 0.8h0.1V40h-2.3l-3.6-4.8h-0.7v3.4c0 0.7 0.3 1.1 1 1.1h0.1V40h-3.7v-0.3h0.1c0.7 0 0.9-0.4 0.9-1.1V31c0-0.7-0.3-1.1-0.9-1.1h-0.1v-0.3h2.7C164.3 29.3 165.1 30.6 165.2 32.3"/><path class="st1" d="M78.3 39.8v-0.4h-0.6c-0.6 0-1.2-0.6-1.2-1.2V27.8H79c1 0 1.6 0.7 1.7 2.2H81l-0.1-3.1 -0.1-0.1H70.2l-0.1 0.1L70 30h0.3c0.1-1.5 0.7-2.2 1.7-2.2h2.4v10.4c0 0.7-0.5 1.2-1.2 1.2h-0.6v0.4H78.3"/><path class="st1" d="M118.2 28c0-0.6-0.4-0.9-0.9-0.9h-0.5v-0.4h3.8v0.4h-0.4c-0.6 0-0.9 0.3-0.9 0.9v7.6c0 2.5-1.9 4.4-5 4.4s-5.2-1.9-5.2-4.6v-7.1c0-0.6-0.5-1.2-1.2-1.2h-0.2v-0.4h4.8v0.4h-0.2c-0.7 0-1.2 0.6-1.2 1.2v7.2c0 1.9 1.2 3.5 3.2 3.5 1.9 0 3.7-1.2 3.7-3.3L118.2 28"/><path class="st1" d="M89.1 34.9h-4.4v3.6c0 0.7 0.3 1.1 0.9 1.1h0.1v0.3H82v-0.3l0 0c0.7 0 0.9-0.4 0.9-1.1v-7.6c0-0.7-0.2-1.1-0.9-1.1l0 0v-0.3h3.7v0.3h-0.1c-0.7 0-0.9 0.4-0.9 1.1v3.3h4.4v-3.3c0-0.7-0.3-1.1-1-1.1H88v-0.3h3.8v0.3h-0.1c-0.7 0-0.9 0.4-0.9 1.1v7.6c0 0.7 0.3 1.1 0.9 1.1h0.1v0.3H88v-0.3h0.1c0.7 0 1-0.4 1-1.1V34.9"/><path class="st1" d="M95.8 34.7v3.8c0 0.3 0.2 0.5 0.5 0.5h2.6c1.4 0 2.1-0.8 2.4-2h0.3l-0.9 2.8H93v-0.3h0.1c0.7 0 1-0.4 1-1.1v-7.6c0-0.7-0.3-1.1-1-1.1H93v-0.3h7.5l0.2 2.4h-0.3c-0.1-1.1-0.7-1.7-1.5-1.7h-3.2v3.8h3c0.5 0 0.7-0.5 0.7-1v-0.1h0.3v2.9h-0.3v-0.1c0-0.5-0.2-1-0.7-1L95.8 34.7"/><path class="st1" d="M135.4 38.5c0 0.7 0.3 1.1 1 1.1l0 0v0.3h-3.7v-0.3l0 0c0.7 0 1-0.4 1-1.1v-7.6c0-0.7-0.3-1.1-1-1.1l0 0v-0.3h3.7v0.3l0 0c-0.7 0-1 0.4-1 1.1V38.5"/><path class="st1" d="M142.9 39.8l3.6-9.1c0.3-0.6 0.5-0.9 1-0.9v-0.3h-2.4v0.3h0.2c0.3 0 0.6 0.3 0.5 0.7l-2.6 6.4 -2.8-6.4c-0.2-0.4 0.2-0.7 0.5-0.7h0.3v-0.3h-3.5v0.3c0.4 0 0.7 0.3 1 0.9l4 9.2C142.6 39.9 142.8 39.9 142.9 39.8"/><path class="st1" d="M151.3 34.7v3.8c0 0.3 0.2 0.5 0.5 0.5h2.6c1.4 0 2.1-0.8 2.4-2h0.3l-0.9 2.8h-7.7v-0.3h0.1c0.7 0 0.9-0.4 0.9-1.1v-7.6c0-0.7-0.3-1.1-0.9-1.1h-0.1v-0.3h7.5l0.2 2.4H156c-0.1-1.1-0.7-1.7-1.5-1.7h-3.2v3.8h3c0.5 0 0.8-0.5 0.8-1v-0.1h0.3v2.9h-0.3v-0.1c0-0.5-0.2-1-0.8-1L151.3 34.7"/><path class="st1" d="M168 36.3h-0.3v3.5h0.3c0.1-0.5 0.5-0.7 0.9-0.5 1.3 0.7 2.8 0.8 3.9-0.1 1-0.8 1.5-2.3 0.8-3.4 -0.6-1.2-2.2-2-3.5-2.7 -1.5-0.8-1.5-2.2-0.4-2.9 1.3-0.8 3.4 0.6 3.4 2.6h0.3v-3.4h-0.3c-0.1 0.5-0.5 0.5-1 0.3 -1.4-0.7-2.6-0.6-3.6 0.3 -1.1 1-1.4 3.2 0.5 4.3 1.1 0.7 2.6 1.5 3.2 2.2 0.5 0.7 0.6 1.5-0.4 2.3C170.4 40.1 168 38.6 168 36.3"/><path class="st1" d="M123.7 29.4H121v0.3c0.4 0 0.7 0 0.9 0.3l0.7 0.8v7.9c0 0.5-0.5 0.8-0.9 0.8h-0.1v0.3h2.9v-0.3h-0.1c-0.5 0-1-0.3-1-0.8v-6.9l6.9 7.9h0.2v-9.3c0-0.5 0.5-0.8 0.9-0.8h0.1v-0.3h-2.9v0.3h0.1c0.5 0 0.9 0.3 0.9 0.8v5.9L123.7 29.4"/><path class="st1" d="M177.7 38.5c0 0.7 0.3 1.1 1 1.1h0.1v0.3H175v-0.3h0.1c0.7 0 0.9-0.4 0.9-1.1v-7.6c0-0.7-0.3-1.1-0.9-1.1H175v-0.3h3.7v0.3h-0.1c-0.7 0-1 0.4-1 1.1v7.6"/><path class="st1" d="M193.6 35.4l-3.2-4.9c-0.3-0.6-0.7-0.8-1.1-0.8v-0.3h3.7v0.3h-0.2c-0.3 0-0.6 0.4-0.4 0.8l2.6 4 2.4-4c0.2-0.3 0-0.7-0.3-0.7h-0.3v-0.3h2.5v0.3c-0.5 0-0.9 0.3-1.2 0.8l-2.8 4.8v3.1c0 0.7 0.3 1.1 1 1.1h0.1v0.3h-3.8v-0.3h0.1c0.7 0 1-0.4 1-1.1L193.6 35.4"/><path class="st1" d="M185.1 38.5c0 0.7 0.3 1 1 1l0 0v0.3h-3.7v-0.3l0 0c0.7 0 1-0.3 1-1v-8.3h-2.1c-0.8 0-1.2 0.5-1.3 1.7h-0.2l0.1-2.4 0.1-0.1h8.6l0.1 0.1 0.1 2.4h-0.3c-0.1-1.1-0.5-1.7-1.3-1.7h-2.1L185.1 38.5"/><path class="st1" d="M86.1 57.7c0 0.7 0.3 1.1 0.9 1.1h0.1V59h-3.7v-0.3h0.1c0.7 0 1-0.4 1-1.1V50c0-0.7-0.3-1.1-1-1.1h-0.1v-0.3h7.9l0.2 2.4h-0.2c-0.1-1.1-0.7-1.7-1.5-1.7h-3.7v3.8h3c0.5 0 0.7-0.5 0.7-1V52h0.3v3h-0.3l0 0c0-0.5-0.2-1-0.7-1h-3L86.1 57.7"/><path class="st1" d="M124 53.9v3.8c0 0.3 0.3 0.5 0.6 0.5h2.6c1.4 0 2.1-0.9 2.4-2h0.3l-0.8 2.8h-7.7v-0.3h0.1c0.7 0 1-0.4 1-1.1V50c0-0.7-0.3-1.1-1-1.1h-0.1v-0.3h7.5l0.2 2.4h-0.2c0-1.1-0.7-1.7-1.5-1.7H124v3.8h3c0.5 0 0.8-0.5 0.8-1V52h0.3v3h-0.3l0 0c0-0.5-0.3-1-0.8-1L124 53.9"/><path class="st1" d="M118.5 49.7c0-0.5-0.3-0.7-0.7-0.7h-0.3v-0.3h2.8V49H120c-0.4 0-0.7 0.3-0.7 0.7v6.1c0 2-1.5 3.4-4 3.4s-4.1-1.5-4.1-3.6V50c0-0.5-0.4-1-0.9-1l0 0v-0.3h3.6V49h-0.1c-0.5 0-0.9 0.5-0.9 1v5.7c0 1.5 0.9 2.8 2.5 2.8 1.5 0 3-0.9 3-2.6L118.5 49.7"/><path class="st1" d="M133.2 53.9v3.8c0 0.3 0.2 0.5 0.5 0.5h2.6c1.4 0 2.1-0.9 2.4-2h0.3l-0.9 2.8h-7.7v-0.3l0 0c0.7 0 1-0.4 1-1.1V50c0-0.7-0.3-1.1-1-1.1l0 0v-0.3h7.4L138 51h-0.2c-0.1-1.1-0.7-1.7-1.5-1.7h-3.2v3.8h3c0.5 0 0.8-0.5 0.8-1V52h0.3v3H137l0 0c0-0.5-0.3-1-0.8-1L133.2 53.9"/><path class="st1" d="M161 57.6c0 0.3 0.3 0.7 0.5 0.7h2.4c1.4 0 2.1-0.9 2.4-2.1h0.3l-0.8 2.8h-7.5v-0.3h0.1c0.7 0 0.9-0.4 0.9-1.1V50c0-0.7-0.3-1.1-0.9-1.1h-0.1v-0.3h3.7v0.3l0 0c-0.7 0-1 0.4-1 1.1L161 57.6"/><path class="st1" d="M150.9 55.5h-0.3V59h0.3c0.1-0.5 0.5-0.7 0.9-0.5 1.3 0.7 2.8 0.8 3.9 0 1-0.8 1.5-2.3 0.8-3.4 -0.6-1.2-2.3-2-3.5-2.7 -1.5-0.8-1.5-2.2-0.4-2.9C154 48.7 156 50 156 52h0.3v-3.4H156c-0.1 0.5-0.5 0.6-1 0.4 -1.5-0.7-2.7-0.6-3.7 0.3 -1.1 1-1.3 3.2 0.5 4.3 1.1 0.7 2.6 1.5 3.2 2.2 0.5 0.6 0.6 1.5-0.4 2.3C153.3 59.3 150.9 57.8 150.9 55.5"/><path class="st1" d="M141.7 48.7H139V49c0.4 0 0.7 0.1 0.9 0.3 0.3 0.3 0.4 0.5 0.7 0.8V58c0 0.5-0.5 0.8-0.9 0.8h-0.1V59h2.9v-0.3h-0.1c-0.5 0-0.9-0.3-0.9-0.8V51l6.8 7.9h0.2v-9.3c0-0.5 0.5-0.8 0.9-0.8h0.1v-0.3h-2.8v0.3h0.1c0.5 0 1 0.3 1 0.8v5.9L141.7 48.7"/><path class="st1" d="M180.2 48.7h-2.7V49c0.4 0 0.7 0.1 0.9 0.3 0.3 0.3 0.4 0.5 0.7 0.8V58c0 0.5-0.5 0.8-0.9 0.8h-0.1V59h2.9v-0.3l0 0c-0.5 0-1-0.3-1-0.8V51l6.8 7.9h0.2v-9.3c0-0.5 0.5-0.8 0.9-0.8h0.1v-0.3h-2.8v0.3c0.5 0 1 0.3 1 0.8v5.9L180.2 48.7"/><path class="st1" d="M176.1 57.8c0.2 0.6 0.5 0.9 1 0.9h0.1V59h-3.6v-0.3h0.3c0.3 0 0.7-0.3 0.5-0.7l-1-2.3h-3.7l-1 2.3c-0.2 0.4 0.2 0.7 0.6 0.7h0.1V59h-2.8v-0.3h0.2c0.4 0 0.8-0.3 1.1-0.9l3.8-9.3c0.2-0.3 0.4 0 0.4 0L176.1 57.8 176.1 57.8zM170 54.9h3l-1.5-3.5L170 54.9"/><path class="st1" d="M199.3 53.9c0 2.9-2.3 5.2-5.4 5.2h-4.8v-0.3h0.1c0.7 0 0.9-0.4 0.9-1.1v-7.6c0-0.7-0.3-1.1-0.9-1.1h-0.1v-0.3h3.9C199.8 48.5 199.3 53.9 199.3 53.9L199.3 53.9zM192.1 49.4v8.8c0.4 0.1 0.6 0.1 1 0.1 3.1 0 4.6-1.8 4.6-4.5 0-0.1 0.2-4.7-4.7-4.6C193.1 49.2 192.5 49.2 192.1 49.4"/><path class="st1" d="M76.2 45.6c3.8 0.1 6.2 3 6.2 6.7S80 59 76.2 59 70 56 70 52.3C70.3 45.3 76.2 45.6 76.2 45.6zM72.3 52.3c0 3.5 1.6 5.9 3.9 5.9 2.1 0 3.9-2.1 3.9-6 -0.1-5-2.7-5.7-3.9-5.8C73.3 46.6 72.3 49.5 72.3 52.3"/><path class="st1" d="M103.2 45.8c0 0 6.2 0 6.3 6.8 0 3-1.6 5.4-4.2 6.3 0.6 1.3 2.1 2.7 4.2 2.9v0.3c-3 0-5.6-1-7.5-3 -3.1-0.6-5-3.3-5-6.6C97 48.8 99.4 45.9 103.2 45.8L103.2 45.8zM103.2 46.6c0 0-3.8-0.2-3.8 5.9 0 3.9 1.7 5.9 3.9 5.9 2.1 0 3.9-2 3.9-5.9C107.2 48.7 105.3 46.6 103.2 46.6"/></g><polygon class="st2" points="212.4 21.9 214.2 21.9 214.2 75.1 212.4 75.1 212.4 21.9 "/><path class="st3" d="M386.2 56.8c-2.7 0-2.7-2.6-2.7-4.8 0-1.9-0.2-3.8-1-5.5 -1.1-2.3-3.4-4.3-8.1-5.3 3.9-0.7 10.2-1.9 10.2-7.7 0-3-2-5.4-4.6-6.5 -2.3-0.9-4.1-0.9-6.4-0.9h-17.4v1.2h5v29.4h-6.1l-3.6-10.2 -7.5-21.1h-0.7l-7.8 21.1 -3.7 10.1c-0.4 0.1-0.8 0.1-1.2 0.1 -2.7 0-2.7-2.6-2.7-4.8 0-1.9-0.2-3.8-1-5.5 -1.1-2.3-3.4-4.3-8.1-5.3 3.9-0.7 10.2-1.9 10.2-7.7 0-3-2-5.4-4.6-6.5 -2.3-0.9-4.1-0.9-6.4-0.9h-17.4v1.2h5v29.4h-5v1.2h15.7v-1.2h-5V41.6h3c1.8 0 2.9 0 4.5 0.8 1.7 0.8 2.5 2.6 2.8 4.1 0.1 0.5 0.1 0.9 0.1 1.3l-0.1 4c0 1.3 0.6 3.5 2.1 4.9 0.8 0.7 2.1 1.6 5 1.6 1.2 0 2.1-0.2 2.9-0.4h7.4v-1.2h-5.9l3.3-8.7h10.1l3.1 8.7h-5.2v1.2h27.6v-1.2h-5V41.6h3c1.8 0 2.9 0 4.5 0.8 1.7 0.8 2.5 2.6 2.8 4.1 0.1 0.5 0.1 0.9 0.1 1.3l-0.1 4c0 1.3 0.6 3.5 2.1 4.9 0.8 0.7 2.1 1.6 5 1.6 1.8 0 3-0.4 4-0.7v-1.2C387.5 56.6 386.9 56.8 386.2 56.8zM315.3 40.5h-4.3V27.3h5.4c3 0 6.3 0 6.3 5.9C322.7 40.4 319.8 40.5 315.3 40.5zM336.6 46.8l0.1-0.3 4.5-12.4 4.5 12.4 0.1 0.3H336.6zM371.1 40.5h-4.3V27.3h5.4c3 0 6.3 0 6.3 5.9C378.5 40.4 375.6 40.5 371.1 40.5z"/><path class="st2" d="M239.3 27.3h5.3v-1.2h-15.9v1.2h5v29.4h-5v1.2h26.7l0.9-10.4h-1.1c-0.8 3.2-1.5 5.7-3 7.2 -1.8 1.9-3.5 1.9-5.7 1.9h-7.1V27.3L239.3 27.3z"/><polygon class="st2" points="261.3 56.7 256.1 56.7 256.1 57.9 272.1 57.9 272.1 56.7 266.9 56.7 266.9 27.3 272.1 27.3 272.1 26.1 256.1 26.1 256.1 27.3 261.3 27.3 261.3 56.7 "/><path class="st3" d="M277.8 56.7h-4.9v1.2h16.2c2.5 0 4.4 0 6.2-0.6 5-1.6 6.5-5.4 6.5-7.8 0-5.2-4.9-7.4-9.8-8.2v-0.1c2.1-0.4 8.7-1.8 8.7-7.4 0-1.9-0.9-5.2-4.8-6.8 -2.2-0.9-4.2-0.9-6.6-0.9h-16.4v1.2h4.9V56.7L277.8 56.7zM288.3 27.3c3.6 0 6.4 0 6.4 6.2 0 6.2-2.3 7.2-6.9 7.2h-4.4V27.3H288.3L288.3 27.3zM287.8 41.9c4.9 0 7.7 1.2 7.7 7.2 0 7.6-3.8 7.6-7.5 7.6h-4.5V41.9H287.8L287.8 41.9z"/><polygon class="st2" points="382.4 26.1 382.4 27.3 386.6 27.3 397.3 43.3 397.3 56.7 391.9 56.7 391.9 57.9 408.2 57.9 408.2 56.7 402.9 56.7 402.9 42.5 412.9 27.3 417 27.3 417 26.1 405.7 26.1 405.7 27.3 411.5 27.3 402.3 41.4 393 27.3 398.2 27.3 398.2 26.1 382.4 26.1 "/><path class="st2" d="M244.8 63h-1.6l0.1-0.4h3.6l-0.1 0.4h-1.4l-4.7 5.5 -1 4.8h1.6l-0.1 0.4H236l0.1-0.4h1.6l1-4.6 -2.9-5.8h-1.4l0.1-0.4h5.2l-0.1 0.4h-1.7l2.5 5.1L244.8 63z"/><path class="st2" d="M249.8 69.8c0 2.2-2 4.2-3.8 4.2 -1.6 0-2.4-1.3-2.4-2.9 0-2.3 1.9-4.1 3.8-4.1C249.2 67 249.8 68.7 249.8 69.8zM245.5 70.5c-0.3 1-0.4 1.5-0.4 2.1 0 0.8 0.6 1 0.9 1 1 0 1.4-1.5 1.5-1.9 0.2-0.8 0.7-2.5 0.7-3.3 0-0.5-0.2-1-0.9-1C246.3 67.4 246.1 68.1 245.5 70.5z"/><path class="st2" d="M256.6 71.9c0 0-0.1 0.2-0.1 0.3 -0.1 0.2-0.1 0.5-0.1 0.7 0 0.2 0.1 0.4 0.3 0.4 0.4 0 1.1-0.9 1.5-1.9h0.4c-0.8 2.1-1.9 2.6-2.5 2.6 -1.1 0-1.1-1.3-1.1-1.3 0-0.1 0-0.4 0.1-0.5l0 0c-0.4 0.5-1.4 1.9-2.7 1.9 -0.7 0-1.5-0.4-1.5-1.5 0-0.2 0-0.4 0.1-0.8 0-0.1 0.1-0.2 0.1-0.3l0.9-3.8h-1.3l0.1-0.4h1.4c0.6 0 0.6 0 1.2-0.1 0.1 0 0.3 0 0.4 0l-1.1 4.8c-0.1 0.2-0.2 0.8-0.2 1 0 0.5 0.5 0.5 0.5 0.5 0.5 0 1.3-0.7 1.7-1.2 0.5-0.7 0.8-1.5 0.9-2.2l0.7-2.8h1.6L256.6 71.9z"/><path class="st2" d="M261.5 69.2L261.5 69.2c0.6-1.1 1.3-2.2 2.1-2.2 0.4 0 0.8 0.3 0.8 0.8 0 0.4-0.3 0.8-0.8 0.8 -0.1 0-0.4 0-0.6-0.2 -0.1-0.1-0.2-0.2-0.2-0.2 -0.3 0-1.3 1.5-1.6 3 0 0.1-0.1 0.3-0.1 0.4l-0.5 2.3h-1.6l1.4-6.2H259l0.1-0.4h1c0.6 0 1.2 0 1.8-0.1L261.5 69.2z"/><path class="st2" d="M271.1 68.2L271.1 68.2c0.3-0.3 0.9-1.2 2.2-1.2 1.5 0 2.3 1.3 2.3 2.6 0 2.1-2 4.3-3.9 4.3 -1.1 0-1.4-0.6-1.6-1.1h0l-1.1 4.8h1.4l-0.1 0.4h-4.3l0.1-0.4h1.3l2.3-10h-1.5l0.1-0.4h1c0.6 0 1.5 0 2.1-0.1L271.1 68.2zM272.2 67.6c-0.4 0.3-0.9 0.7-1.2 1.5 -0.2 0.4-0.7 2.3-0.7 3 0 0.5 0.2 0.9 0.5 1.1 0.3 0.2 0.6 0.3 0.9 0.3 1 0 1.5-1.1 1.6-1.5 0.5-1.4 0.8-3.1 0.8-3.7 0-0.3 0-1-0.8-1C273 67.4 272.6 67.4 272.2 67.6z"/><path class="st2" d="M282 71.9c-0.1 0.4-0.2 0.7-0.2 1 0 0.3 0.2 0.3 0.2 0.3 0.2 0 0.8-0.5 1.3-1.9h0.3c-0.7 2.3-1.8 2.6-2.2 2.6 -1 0-1.1-1.1-1.1-1.5h0c-0.3 0.5-0.8 1.5-2.1 1.5 -1.1 0-2-1.2-2-2.6 0-2.5 2.2-4.3 3.6-4.3 1.1 0 1.3 0.8 1.4 1.2h0l0.2-1.1h1.6L282 71.9zM278.5 69.5c-0.2 0.8-0.6 2.6-0.6 3.2 0 0.5 0.2 0.8 0.6 0.8 0.4 0 1-0.3 1.2-0.7 0.1-0.2 1.4-1.9 1.4-4 0-0.7-0.3-1.5-1.1-1.5C279.3 67.4 278.9 67.8 278.5 69.5z"/><path class="st2" d="M286.6 69.2L286.6 69.2c0.6-1.1 1.3-2.2 2.1-2.2 0.4 0 0.8 0.3 0.8 0.8 0 0.4-0.3 0.8-0.8 0.8 -0.1 0-0.4 0-0.6-0.2 -0.1-0.1-0.2-0.2-0.2-0.2 -0.3 0-1.3 1.5-1.6 3 0 0.1-0.1 0.3-0.1 0.4l-0.5 2.3h-1.6l1.4-6.2h-1.3l0.1-0.4h1c0.6 0 1.2 0 1.8-0.1L286.6 69.2z"/><path class="st2" d="M292.6 67.2h1.1l-0.1 0.4h-1.1l-1.1 4.7c-0.1 0.5-0.1 0.6-0.1 0.8 0 0.2 0.1 0.3 0.3 0.3 0.6 0 1.2-1.2 1.5-2h0.3c-0.6 1.8-1.5 2.6-2.4 2.6 -0.9 0-1.2-0.6-1.2-1.2 0-0.3 0.1-0.7 0.2-1.2l0.9-3.9h-1.1l0.1-0.4h1.1l0.4-1.6c0.7 0 1-0.1 1.6-0.2L292.6 67.2z"/><path class="st2" d="M296.7 68.9L296.7 68.9c0.6-0.7 1.6-1.9 2.9-1.9 0.7 0 1.3 0.4 1.3 1.2 0 0.3 0 0.4-0.1 0.8l-0.8 3.1c-0.1 0.4-0.1 0.5-0.1 0.7 0 0.1 0 0.4 0.3 0.4 0.4 0 1-0.5 1.5-1.8h0.4c-0.9 2.5-2.4 2.5-2.6 2.5 -0.1 0-1.1 0-1.1-1.1 0-0.3 0.1-0.8 0.2-1.1l0.6-2.5c0 0 0-0.1 0.1-0.2 0-0.1 0-0.1 0-0.2 0.1-0.4 0.1-0.5 0.1-0.7 0-0.4-0.2-0.6-0.4-0.6 -0.4 0-1.2 0.5-1.7 1.2 -0.7 0.9-1 2.1-1.1 2.8l-0.5 2.1H294l1.4-6.1H294l0.1-0.4h1.1c0.6 0 1.4 0 2-0.1L296.7 68.9z"/><path class="st2" d="M304.1 71.3c-0.1 0.7-0.2 1.2-0.2 1.4 0 0.3 0.2 0.9 1 0.9 1.5 0 2.3-1.6 2.6-2h0.4c-1 2.2-2.5 2.4-3 2.4 -1.5 0-2.4-1.5-2.4-2.8 0-2 1.9-4.1 3.7-4.1 1.4 0 1.8 1.1 1.8 1.7 0 0.2-0.1 1.3-1.4 1.9 -0.5 0.2-1 0.2-2.3 0.3L304.1 71.3zM305.8 70.2c0.6-0.4 0.9-1.5 0.9-2.1 0-0.3-0.1-0.8-0.7-0.8 -1.1 0-1.3 1.1-1.7 3.1C304.9 70.5 305.4 70.5 305.8 70.2z"/><path class="st2" d="M310.8 69.2L310.8 69.2c0.6-1.1 1.3-2.2 2.1-2.2 0.4 0 0.8 0.3 0.8 0.8 0 0.4-0.3 0.8-0.8 0.8 -0.1 0-0.4 0-0.6-0.2 -0.1-0.1-0.2-0.2-0.2-0.2 -0.3 0-1.3 1.5-1.6 3 0 0.1-0.1 0.3-0.1 0.4l-0.5 2.3h-1.6l1.4-6.2h-1.3l0.1-0.4h1c0.6 0 1.2 0 1.8-0.1L310.8 69.2z"/><path class="st2" d="M319.2 72.2c-0.1 0.2-0.1 0.5-0.1 0.8 0 0.2 0.1 0.3 0.3 0.3 0.4 0 1.2-0.6 1.9-2.2h0.4c-0.4 1-1.2 2.9-3 2.9 -0.6 0-1.1-0.3-1.1-1.1 0-0.2 0-0.4 0.2-1 0-0.1 0.1-0.3 0.1-0.4l0.9-3.8h-1.6l0.1-0.4h1c1.1 0 1.7-0.1 2.2-0.2L319.2 72.2zM321.3 63.5c0 0.5-0.4 0.9-0.9 0.9 -0.5 0-0.9-0.4-0.9-0.9 0-0.5 0.4-0.9 0.9-0.9C320.9 62.6 321.3 63 321.3 63.5z"/><path class="st2" d="M324.8 68.9L324.8 68.9c0.6-0.7 1.6-1.9 2.9-1.9 0.7 0 1.3 0.4 1.3 1.2 0 0.3 0 0.4-0.1 0.8l-0.8 3.1c-0.1 0.4-0.1 0.5-0.1 0.7 0 0.1 0 0.4 0.3 0.4 0.4 0 1-0.5 1.5-1.8h0.4c-0.9 2.5-2.4 2.5-2.6 2.5 -0.1 0-1.1 0-1.1-1.1 0-0.3 0.1-0.8 0.2-1.1l0.6-2.5c0 0 0-0.1 0.1-0.2 0-0.1 0-0.1 0-0.2 0.1-0.4 0.1-0.5 0.1-0.7 0-0.4-0.2-0.6-0.4-0.6 -0.4 0-1.2 0.5-1.7 1.2 -0.7 0.9-1 2.1-1.1 2.8l-0.5 2.1h-1.6l1.4-6.1h-1.4l0.1-0.4h1.1c0.6 0 1.4 0 2-0.1L324.8 68.9z"/><path class="st2" d="M336 74c-1.3 0-2.2-0.7-2.2-1.4 0-0.4 0.3-0.8 0.7-0.8 0.5 0 0.7 0.5 0.7 0.7 0 0.2-0.1 0.4-0.1 0.4 -0.1 0.2-0.1 0.2-0.1 0.3 0 0.4 0.9 0.5 1 0.5 1.2 0 1.7-0.6 1.7-1.1 0-0.7-0.8-1.1-1.3-1.4 -0.5-0.3-1.7-0.9-1.7-2.1 0-0.8 0.8-2.1 2.5-2.1 1.1 0 1.9 0.4 1.9 1.2 0 0.4-0.4 0.7-0.7 0.7 -0.4 0-0.6-0.3-0.6-0.7 0-0.1 0-0.2 0.1-0.4 0-0.1 0-0.2 0-0.3 0-0.2-0.3-0.3-0.7-0.3 -0.9 0-1.4 0.4-1.4 0.9 0 0.6 0.6 0.9 1.1 1.2 1.2 0.6 1.9 1.2 1.9 2.2C338.9 73.1 337.4 74 336 74z"/><path class="st2" d="M344.9 71.7c-0.7 1.5-1.7 2.2-2.8 2.2 -1.7 0-2.4-1.7-2.4-2.9 0-1.8 1.5-4.1 4-4.1 0.9 0 1.5 0.6 1.5 1.2 0 0.6-0.5 0.9-0.8 0.9 -0.3 0-0.8-0.2-0.8-0.8 0-0.2 0.1-0.5 0.3-0.6 0.1-0.1 0.1-0.1 0.1-0.2 0-0.1-0.1-0.1-0.5-0.1 -0.9 0-1.3 0.9-1.4 1.2 -0.2 0.6-0.9 3-0.9 3.8 0 0.7 0.4 1.2 1 1.2 1.1 0 1.9-1.2 2.3-1.9H344.9z"/><path class="st2" d="M347.9 68.7L347.9 68.7c0.4-0.4 1.4-1.7 2.8-1.7 0.4 0 1.2 0.1 1.2 1.2 0 0.3-0.1 0.6-0.2 1l-0.7 2.7c-0.1 0.2-0.2 0.7-0.2 0.9 0 0.3 0.1 0.4 0.3 0.4 0.6 0 1-1.2 1.3-1.8h0.4c-0.4 1.4-1.1 2.5-2.4 2.5 -0.6 0-1.1-0.3-1.1-1.2 0-0.3 0.1-0.8 0.2-1l0.7-2.8c0.1-0.2 0.1-0.6 0.1-0.8 0-0.4-0.2-0.6-0.4-0.6 -0.2 0-0.6 0.2-1.1 0.6 -1 0.9-1.2 1.6-1.4 2.6l-0.7 3h-1.6l2.5-10.8h-1.1l0.1-0.4h1.1c0.7 0 0.9 0 1.7-0.1L347.9 68.7z"/><path class="st2" d="M359.3 69.8c0 2.2-2 4.2-3.8 4.2 -1.6 0-2.4-1.3-2.4-2.9 0-2.3 1.9-4.1 3.8-4.1C358.7 67 359.3 68.7 359.3 69.8zM355 70.5c-0.3 1-0.4 1.5-0.4 2.1 0 0.8 0.6 1 0.9 1 1 0 1.4-1.5 1.5-1.9 0.2-0.8 0.7-2.5 0.7-3.3 0-0.5-0.2-1-0.9-1C355.8 67.4 355.6 68.1 355 70.5z"/><path class="st2" d="M361.5 72.2c-0.1 0.2-0.1 0.5-0.1 0.8 0 0.3 0.2 0.3 0.2 0.3 0.7 0 1.3-1.5 1.4-1.9h0.4c-0.4 1.2-1.2 2.7-2.5 2.7 -0.4 0-1.1-0.2-1.1-1.1 0-0.2 0-0.3 0.1-0.7L362 63h-1.1l0.1-0.4h1.1c0.1 0 0.7 0 1.7-0.1L361.5 72.2z"/><path class="st2" d="M369.4 71.9c-0.1 0.4-0.2 0.7-0.2 1 0 0.3 0.2 0.3 0.2 0.3 0.2 0 0.8-0.5 1.3-1.9h0.3c-0.7 2.3-1.8 2.6-2.2 2.6 -1 0-1.1-1.1-1.1-1.5h0c-0.3 0.5-0.8 1.5-2.1 1.5 -1.1 0-2-1.2-2-2.6 0-2.5 2.2-4.3 3.6-4.3 1.1 0 1.3 0.8 1.4 1.2h0l0.2-1.1h1.6L369.4 71.9zM365.9 69.5c-0.2 0.8-0.6 2.6-0.6 3.2 0 0.5 0.2 0.8 0.6 0.8 0.4 0 1-0.3 1.2-0.7 0.1-0.2 1.4-1.9 1.4-4 0-0.7-0.3-1.5-1.1-1.5C366.7 67.4 366.3 67.8 365.9 69.5z"/><path class="st2" d="M374 69.2L374 69.2c0.6-1.1 1.3-2.2 2.1-2.2 0.4 0 0.8 0.3 0.8 0.8 0 0.4-0.3 0.8-0.8 0.8 -0.1 0-0.4 0-0.6-0.2 -0.1-0.1-0.2-0.2-0.2-0.2 -0.3 0-1.3 1.5-1.6 3 0 0.1-0.1 0.3-0.1 0.4l-0.5 2.3h-1.6l1.4-6.2h-1.3l0.1-0.4h1c0.6 0 1.2 0 1.8-0.1L374 69.2z"/><path class="st2" d="M378.6 74c-1.3 0-2.2-0.7-2.2-1.4 0-0.4 0.3-0.8 0.7-0.8 0.5 0 0.7 0.5 0.7 0.7 0 0.2-0.1 0.4-0.1 0.4 -0.1 0.2-0.1 0.2-0.1 0.3 0 0.4 0.9 0.5 1 0.5 1.2 0 1.7-0.6 1.7-1.1 0-0.7-0.8-1.1-1.3-1.4 -0.5-0.3-1.7-0.9-1.7-2.1 0-0.8 0.8-2.1 2.5-2.1 1.1 0 1.9 0.4 1.9 1.2 0 0.4-0.4 0.7-0.7 0.7 -0.4 0-0.6-0.3-0.6-0.7 0-0.1 0-0.2 0.1-0.4 0-0.1 0-0.2 0-0.3 0-0.2-0.3-0.3-0.7-0.3 -0.9 0-1.4 0.4-1.4 0.9 0 0.6 0.6 0.9 1.1 1.2 1.2 0.6 1.9 1.2 1.9 2.2C381.5 73.1 380 74 378.6 74z"/><path class="st2" d="M384.8 68.7L384.8 68.7c0.4-0.4 1.4-1.7 2.8-1.7 0.4 0 1.2 0.1 1.2 1.2 0 0.3-0.1 0.6-0.2 1l-0.7 2.7c-0.1 0.2-0.2 0.7-0.2 0.9 0 0.3 0.1 0.4 0.3 0.4 0.6 0 1-1.2 1.3-1.8h0.4c-0.4 1.4-1.1 2.5-2.4 2.5 -0.6 0-1.1-0.3-1.1-1.2 0-0.3 0.1-0.8 0.2-1l0.7-2.8c0.1-0.2 0.1-0.6 0.1-0.8 0-0.4-0.2-0.6-0.4-0.6 -0.2 0-0.6 0.2-1.1 0.6 -1 0.9-1.2 1.6-1.4 2.6l-0.7 3h-1.6l2.5-10.8h-1.1l0.1-0.4h1.1c0.7 0 0.9 0 1.7-0.1L384.8 68.7z"/><path class="st2" d="M392.3 72.2c-0.1 0.2-0.1 0.5-0.1 0.8 0 0.2 0.1 0.3 0.3 0.3 0.4 0 1.2-0.6 1.9-2.2h0.4c-0.4 1-1.2 2.9-3 2.9 -0.6 0-1.1-0.3-1.1-1.1 0-0.2 0-0.4 0.2-1 0-0.1 0.1-0.3 0.1-0.4l0.9-3.8h-1.6l0.1-0.4h1c1.1 0 1.7-0.1 2.2-0.2L392.3 72.2zM394.4 63.5c0 0.5-0.4 0.9-0.9 0.9 -0.5 0-0.9-0.4-0.9-0.9 0-0.5 0.4-0.9 0.9-0.9C394 62.6 394.4 63 394.4 63.5z"/><path class="st2" d="M398.3 68.2L398.3 68.2c0.3-0.3 0.9-1.2 2.2-1.2 1.5 0 2.3 1.3 2.3 2.6 0 2.1-2 4.3-3.9 4.3 -1.1 0-1.4-0.6-1.6-1.1h0l-1.1 4.8h1.4l-0.1 0.4h-4.3l0.1-0.4h1.3l2.3-10h-1.5l0.1-0.4h1c0.6 0 1.5 0 2.1-0.1L398.3 68.2zM399.4 67.6c-0.4 0.3-0.9 0.7-1.2 1.5 -0.2 0.4-0.7 2.3-0.7 3 0 0.5 0.2 0.9 0.5 1.1 0.3 0.2 0.6 0.3 0.9 0.3 1 0 1.5-1.1 1.6-1.5 0.5-1.4 0.8-3.1 0.8-3.7 0-0.3 0-1-0.8-1C400.2 67.4 399.8 67.4 399.4 67.6z"/><path class="st2" d="M59.8 59.3c0 0.3 0 0.6 0 0.8l0.6-0.5c0.2-0.2 0.4-0.4 0.4-0.7 0-0.3-0.2-0.2-0.4-0.1L59.8 59.3 59.8 59.3zM59.4 59.2c0 0 0.2-0.2 0.4-0.3l0.7-0.5c0.5-0.4 0.7-0.3 0.7 0.1 0 0.5-0.3 0.8-0.3 0.9 0.1-0.1 0.3-0.1 0.3 0.3 0 0.3 0 0.5 0.1 0.6l-0.4 0.3c-0.1-0.1-0.1-0.2-0.1-0.3 0-0.5-0.1-0.6-0.4-0.3l-0.5 0.4v1l-0.4 0.3V59.2L59.4 59.2z"/><path class="st2" d="M55.5 63l0 0.8 0.7-0.4c0.2-0.1 0.4-0.4 0.4-0.6 0-0.3-0.1-0.3-0.4-0.2L55.5 63 55.5 63zM55.5 62l0 0.7 0.6-0.4c0.2-0.1 0.3-0.3 0.3-0.5 0-0.3-0.1-0.3-0.3-0.2L55.5 62 55.5 62zM55.5 64.2l-0.5 0.2v-2.6c0 0 0.2-0.1 0.4-0.2l0.7-0.4c0.4-0.2 0.7-0.2 0.7 0.3 0 0.3-0.1 0.5-0.3 0.7 0.3-0.1 0.4 0.1 0.4 0.4 0 0.4-0.3 0.9-0.9 1.2L55.5 64.2 55.5 64.2z"/><path class="st2" d="M54 64l-0.4-0.9 -0.3 1.3L54 64 54 64zM53.1 64.7l-0.2 0.8 -0.5 0.2 0.8-3 0.4-0.2 1.1 2.1 -0.4 0.2 -0.3-0.6L53.1 64.7 53.1 64.7z"/><path class="st2" d="M42 71.1l-0.4-1.1L41.2 71 42 71.1 42 71.1zM41 71.4l-0.3 0.7 -0.5 0 1-2.5 0.5 0 1 2.7 -0.5 0 -0.2-0.7C41.8 71.5 41.3 71.4 41 71.4L41 71.4z"/><path class="st2" d="M35.1 65.5l-0.4-1.2 -0.4 0.9L35.1 65.5 35.1 65.5zM34.3 65.5l-0.2 0.6 -0.5-0.2 1-2.2 0.4 0.2 0.9 2.8 -0.4-0.1 -0.2-0.7L34.3 65.5 34.3 65.5z"/><path class="st2" d="M35.8 68.2v3.2c1.8 0.8 4.2 1.2 6.8 1.2 2.6 0 5-0.4 6.8-1.2v-3.2c-2.1 0.6-4.4 0.9-6.8 0.9C39.2 69.1 35.8 68.2 35.8 68.2L35.8 68.2 35.8 68.2zM21.8 54.8l0 4.2c4 3.3 8.4 6.6 13.9 8.1l3.6-2.2C33.7 63.7 25.8 59.7 21.8 54.8L21.8 54.8zM27.6 58.4c-0.4-0.7-0.8-1.4-1.5-2.4v1.4C26.6 57.8 27.6 58.4 27.6 58.4L27.6 58.4zM55.7 59.8L55.7 59.8 55.7 59.8 55.7 59.8zM57.7 58.5c0.9-0.6 1.6-1.1 1.6-1.1L59.2 56 57.7 58.5 57.7 58.5zM63.5 54.8c-4 4.9-11.9 8.9-17.6 10.1l3.6 2.2c0 0 4.4-1.4 7.7-3.5 4.7-3 6.2-4.8 6.2-4.8V54.8L63.5 54.8zM26.1 63.7v0.6c0 0.8-0.1 0.8 0.6 1.2l2.7 1.8v-1.6C28.2 65 27.2 64.3 26.1 63.7L26.1 63.7zM60.2 62.9v1.4c0 1.1-0.1 1.3-0.7 1.7 -0.9 0.6-2.4 1.7-4.7 3.1v-3c-1.4 0.7-2.8 1.2-4.3 1.7l0 4.3c-2 0.9-4.9 1.5-7.9 1.5s-5.9-0.6-7.9-1.5v-4.3c-1.5-0.5-2.9-1.1-4.3-1.7v3c-2.3-1.4-3.8-2.4-4.7-3.1 -0.6-0.4-0.7-0.6-0.7-1.7v-1.4c-1.6-1.1-3-2.3-4.3-3.5v-6.3h4.9c2 3.2 3.4 5.4 4.2 6.7 2.7 1.6 5.6 2.8 8.4 3.6 0.9 0.2 1.7 0.4 2.5 0.6v3.9c0.6 0 3.2 0 3.8 0V64c0.8-0.1 1.7-0.3 2.5-0.6 2.8-0.8 5.8-2.1 8.5-3.6 0 0 2.2-3.6 4.1-6.7l4.9 0 0 6.3C63.3 60.6 61.8 61.8 60.2 62.9L60.2 62.9zM58.6 65.5c0.7-0.5 0.6-0.4 0.6-1.2v-0.6c-1 0.7-2.1 1.3-3.3 2v1.6C55.9 67.2 57.4 66.2 58.6 65.5L58.6 65.5z"/><path class="st2" d="M26.8 24.4v19.5c0 7.5 6.7 15.2 16 18 9.3-2.8 15.9-10.5 15.9-18V24.4H26.8L26.8 24.4zM42.7 63c-9.3-2.5-17-10.7-17-19.2V23.3h34.1v20.5C59.8 52.3 52 60.5 42.7 63L42.7 63z"/><polygon class="st2" points="33 65.7 33.4 65.8 33.4 63.3 33 63.1 33 65.7 "/><polygon class="st3" points="30.8 62.5 31.5 62.8 31.5 65 31.9 65.2 31.9 63.1 32.6 63.4 32.6 63 30.8 62.1 30.8 62.5 "/><polygon class="st2" points="28.7 63.5 29 63.7 29 61.8 29.1 61.8 30 64.3 30.4 64.5 30.4 61.9 30.1 61.7 30.1 63.6 30.1 63.6 29.1 61.1 28.7 60.9 28.7 63.5 "/><polygon class="st3" points="26.7 62.2 28.2 63.2 28.2 62.8 27.1 62.1 27.1 61.3 28.1 62 28.1 61.6 27.1 61 27.1 60.3 28.2 61 28.2 60.6 26.7 59.7 26.7 62.2 "/><polygon class="st2" points="26 61.7 26.4 62 26.4 59.4 26 59.2 26 61.7 "/><path class="st2" d="M25.6 59.6c0-0.6-0.4-1.1-0.8-1.4 -0.6-0.4-0.9 0-0.9 0.8 0 0.7 0.3 1.6 0.9 1.9 0.5 0.3 0.8 0.1 0.8-0.5l-0.3-0.2c0 0.4-0.2 0.6-0.5 0.4 -0.4-0.3-0.6-0.8-0.6-1.3 0-0.5 0.2-0.9 0.6-0.6 0.3 0.2 0.4 0.5 0.5 0.8L25.6 59.6 25.6 59.6z"/><path class="st2" d="M22.2 57.9c0 0.6 0.3 1.2 0.7 1.4 0.3 0.2 0.7 0.3 0.7-0.3 0-0.3-0.1-0.6-0.3-0.9 -0.1-0.1-0.5-0.5-0.5-0.6 -0.1-0.1-0.2-0.3-0.2-0.5 0-0.3 0.2-0.2 0.3-0.1 0.2 0.1 0.4 0.4 0.4 0.7l0.3 0.2c0-0.5-0.3-1-0.7-1.3 -0.3-0.2-0.6-0.2-0.6 0.3 0 0.3 0.1 0.6 0.4 0.9 0.2 0.3 0.4 0.4 0.5 0.6 0.1 0.1 0.1 0.2 0.1 0.4 0 0.2-0.1 0.3-0.4 0.1 -0.2-0.2-0.4-0.5-0.4-0.9L22.2 57.9 22.2 57.9z"/><path class="st2" d="M45.3 70.3c-0.1-0.6-0.5-0.9-1.1-0.8 -0.8 0-1.3 0.7-1.2 1.4 0 0.7 0.5 1.3 1.3 1.3 0.7 0 1.1-0.5 1.1-1.1l-0.5 0c0 0.4-0.3 0.7-0.7 0.7 -0.6 0-0.8-0.5-0.8-0.9 0-0.5 0.2-1 0.8-1 0.4 0 0.6 0.2 0.7 0.5L45.3 70.3 45.3 70.3z"/><polygon class="st3" points="61.5 60.1 62.8 58.9 62.8 58.5 61.8 59.4 61.8 58.7 62.7 57.9 62.7 57.5 61.8 58.3 61.8 57.7 62.8 56.8 62.8 56.4 61.5 57.6 61.5 60.1 "/><polygon class="st3" points="50.4 66.5 52.2 65.8 52.2 65.4 50.8 65.9 50.8 63.8 50.4 63.9 50.4 66.5 "/><path class="st3" d="M58.8 60.8c-0.1-0.4-0.3-0.7-0.8-0.3 -0.4 0.4-0.5 1-0.4 1.4 0.1 0.4 0.3 0.6 0.8 0.3C59 61.4 58.8 60.8 58.8 60.8L58.8 60.8zM57.2 62.2c-0.1-0.6 0.1-1.5 0.7-2 0.6-0.6 1.1-0.4 1.2 0.2 0 0 0.3 1-0.7 2C57.8 63 57.3 62.9 57.2 62.2L57.2 62.2z"/><path class="st3" d="M34.1 46.5c-1.6 1.1-2.7 2.7-3.5 5.1v-5.1L34.1 46.5 34.1 46.5zM47.3 46.5c0.8 3.2 2.6 5.3 6.2 6.5H32c3.6-1.2 5.4-3.3 6.2-6.5H47.3L47.3 46.5zM54.9 46.5v5.1c-0.8-2.4-1.9-4-3.5-5.1L54.9 46.5 54.9 46.5z"/><path class="st3" d="M30.5 46.5V29.7c1.4 4.3 3.9 6 8 6.7 -0.6-4.2-2.3-6.7-6.5-8.1h21.5c-4.2 1.4-5.9 3.9-6.5 8.1 4.1-0.6 6.5-2.4 7.9-6.7v16.8l-3.5 0c-1.2-0.8-2.7-1.3-4.4-1.6 0.1 0.5 0.2 1.1 0.3 1.6h-9.1c0.1-0.5 0.2-1 0.3-1.6 -1.8 0.3-3.2 0.8-4.4 1.6L30.5 46.5 30.5 46.5zM48.9 38.2l2.2 0c0.6 0 1 0.1 1 0.6 0 0.6-0.3 0.7-0.8 0.7h-2.4V38.2L48.9 38.2zM36.5 39.5h-1.7c-0.1 0.2-0.4 0.4-0.7 0.4 -0.4 0-0.8-0.3-0.8-0.8V39h-0.1c-0.2 0-0.3-0.1-0.3-0.3 0-0.1 0.1-0.2 0.3-0.2h0.1v-0.1c0-0.4 0.4-0.8 0.8-0.8 0.3 0 0.6 0.2 0.7 0.5l1.7 0L36.5 39.5 36.5 39.5zM34.4 39h-0.5v0c0 0.2 0.1 0.3 0.3 0.3C34.3 39.4 34.4 39.3 34.4 39L34.4 39 34.4 39zM33.9 38.6h0.5c0-0.2-0.1-0.3-0.3-0.3C34 38.2 33.9 38.4 33.9 38.6L33.9 38.6 33.9 38.6zM48.9 41.8l2.2 0c0.6 0 1 0.1 1 0.6 0 0.6-0.3 0.7-0.8 0.7h-2.4V41.8L48.9 41.8zM36.5 43.2h-1.7c-0.1 0.2-0.4 0.4-0.7 0.4 -0.4 0-0.8-0.3-0.8-0.8v-0.1h-0.1c-0.2 0-0.3-0.1-0.3-0.3 0-0.1 0.1-0.2 0.3-0.2h0.1v-0.1c0-0.4 0.4-0.8 0.8-0.8 0.3 0 0.6 0.2 0.7 0.5l1.7 0L36.5 43.2 36.5 43.2zM34.4 42.7h-0.5v0c0 0.2 0.1 0.3 0.3 0.3C34.3 43 34.4 42.9 34.4 42.7L34.4 42.7 34.4 42.7zM33.9 42.2h0.5c0-0.2-0.1-0.3-0.3-0.3C34 41.9 33.9 42 33.9 42.2L33.9 42.2 33.9 42.2zM42.3 43.2c-0.5-0.3-0.9-0.3-1.7-0.3h-1.8v-5.6c0.9 0 0.9-0.2 1.9-0.2 1 0 1.5 0.6 1.5 1.3V43.2L42.3 43.2zM43.1 43.2c0.5-0.3 0.9-0.3 1.7-0.3h1.8v-5.6c-0.9 0-0.9-0.2-1.9-0.2 -1 0-1.5 0.6-1.5 1.3V43.2L43.1 43.2zM42.7 44.7c1.1 0 1-0.4 1.8-0.4h3.3v-6.6l-0.5-0.3v6.4h-2.6c-1.5 0-1.1 0.4-2.1 0.4 -1 0-0.6-0.4-2.1-0.4h-2.6v-6.4l-0.5 0.3v6.6h3.3C41.7 44.2 41.6 44.7 42.7 44.7L42.7 44.7z"/><path class="st3" d="M74.4 68.7l-0.8 2h1.6L74.4 68.7 74.4 68.7zM71.7 72.7c0.2 0 0.4-0.1 0.5-0.2 0.1-0.1 0.3-0.5 0.5-1.1l1.7-4.2h0.3l2.1 4.8c0.1 0.3 0.2 0.5 0.3 0.6 0.1 0.1 0.3 0.1 0.4 0.1V73h-2.3v-0.3c0.2 0 0.4 0 0.5-0.1 0 0 0.1 0 0.1-0.2 0-0.1-0.1-0.4-0.1-0.5l-0.3-0.8h-2.1c-0.2 0.5-0.3 0.8-0.4 1 0 0.1-0.1 0.2-0.1 0.3 0 0.1 0 0.2 0.1 0.2 0.1 0 0.3 0.1 0.4 0.1V73h-1.8V72.7L71.7 72.7z"/><path class="st2" d="M83.5 67.6c-0.2 0-0.5 0-0.6 0.1 -0.1 0.1-0.1 0.2-0.1 0.5V71c0 0.4 0.1 0.8 0.2 1 0.2 0.4 0.6 0.6 1.2 0.6 1.2 0 1.5-0.7 1.5-1.8v-2.2c0-0.5-0.1-0.7-0.1-0.8 -0.1-0.2-0.4-0.2-0.6-0.2v-0.3h2.1v0.3c-0.2 0-0.5 0.1-0.6 0.2 -0.1 0.1-0.1 0.3-0.1 0.8v2.2c0 0.6-0.1 1.1-0.3 1.4 -0.3 0.6-1 0.9-1.9 0.9 -0.9 0-1.6-0.3-1.9-0.9 -0.2-0.3-0.3-0.8-0.3-1.3v-2.6c0-0.3-0.1-0.5-0.1-0.5 -0.1-0.1-0.5-0.1-0.6-0.2v-0.3h2.5V67.6L83.5 67.6z"/><path class="st2" d="M91.3 72.1c0.3 0.4 0.7 0.6 1.2 0.6 0.2 0 0.5-0.1 0.6-0.2 0.2-0.2 0.3-0.4 0.3-0.6 0-0.3-0.1-0.5-0.3-0.7 -0.3-0.3-1.2-0.8-1.5-1 -0.2-0.1-0.4-0.3-0.5-0.4 -0.2-0.3-0.4-0.6-0.4-0.9 0-1 0.7-1.6 1.6-1.6 0.2 0 0.4 0.1 0.7 0.1 0.3 0.1 0.4 0.1 0.4 0.1 0.1 0 0.1 0 0.1 0 0.1-0.1 0.1-0.2 0.1-0.2H94l0.2 2h-0.4c-0.1-0.4-0.3-0.9-0.6-1.1 -0.3-0.2-0.6-0.3-0.8-0.3 -0.4 0-0.8 0.2-0.8 0.7 0 0.2 0.1 0.4 0.2 0.5 0.1 0.1 0.3 0.3 0.6 0.5l0.7 0.5c0.5 0.3 0.8 0.6 1 0.8 0.2 0.3 0.3 0.6 0.3 0.9 0 0.5-0.2 0.9-0.5 1.2 -0.3 0.3-0.8 0.5-1.3 0.5 -0.3 0-0.5-0.1-0.8-0.2 -0.3-0.1-0.4-0.1-0.4-0.1 -0.1 0-0.1 0-0.1 0 0 0.1-0.1 0.1-0.1 0.2h-0.3l-0.3-2h0.3C90.9 71.5 91.1 71.8 91.3 72.1L91.3 72.1z"/><path class="st2" d="M103 67.3l0.1 1.6h-0.4c-0.1-0.2-0.2-0.7-0.4-0.9 -0.1-0.1-0.4-0.2-0.9-0.2h-0.4V72c0 0.3 0.1 0.5 0.1 0.5 0.1 0.1 0.5 0.1 0.7 0.1V73h-2.6v-0.3c0.7-0.1 0.8-0.1 0.8-0.8v-4.1h-0.4c-0.5 0-0.7 0.1-0.9 0.2 -0.2 0.2-0.3 0.7-0.4 0.9h-0.4l0.1-1.6H103L103 67.3z"/><path class="st3" d="M110 68.8c0-0.5-0.2-0.8-0.5-0.9 -0.2-0.1-0.5-0.1-0.8-0.1 -0.2 0-0.4 0-0.4 0 0 0 0 0 0 0.2v2c0.5 0 0.9-0.1 1.2-0.2C109.8 69.6 110 69.3 110 68.8L110 68.8zM107.1 72.6c0.1-0.1 0.1-0.3 0.1-0.6v-3.6c0-0.3 0-0.5-0.1-0.5 -0.1-0.1-0.5-0.1-0.6-0.2v-0.3h2.4c0.5 0 0.9 0.1 1.2 0.2 0.6 0.2 1 0.7 1 1.4 0 0.4-0.1 0.8-0.4 1 -0.3 0.2-0.6 0.4-1 0.4l1.6 2c0.2 0.3 0.4 0.3 0.7 0.4V73h-1.5l-2-2.6 -0.3 0V72c0 0.3 0 0.5 0.1 0.5 0.1 0.1 0.5 0.1 0.6 0.1V73h-2.5v-0.3C106.6 72.7 107 72.7 107.1 72.6L107.1 72.6z"/><path class="st3" d="M117.7 68.7l-0.8 2h1.6L117.7 68.7 117.7 68.7zM115 72.7c0.2 0 0.4-0.1 0.5-0.2 0.1-0.1 0.3-0.5 0.5-1.1l1.7-4.2h0.3l2.1 4.8c0.1 0.3 0.2 0.5 0.3 0.6 0.1 0.1 0.3 0.1 0.4 0.1V73h-2.3v-0.3c0.2 0 0.4 0 0.5-0.1 0 0 0.1 0 0.1-0.2 0-0.1-0.1-0.4-0.1-0.5l-0.3-0.8h-2.1c-0.2 0.5-0.3 0.8-0.4 1 0 0.1-0.1 0.2-0.1 0.3 0 0.1 0 0.2 0.1 0.2 0.1 0 0.3 0.1 0.4 0.1V73H115V72.7L115 72.7z"/><path class="st2" d="M124.9 72.6c0.1 0 0.1-0.2 0.1-0.5v-3.7c0-0.3 0-0.5-0.1-0.5 -0.1-0.1-0.5-0.1-0.6-0.2v-0.3h2.5v0.3c-0.2 0-0.5 0-0.6 0.1 -0.1 0.1-0.1 0.2-0.1 0.5v4c0 0.1 0 0.1 0 0.2 0 0 0 0 0.1 0.1l0.2 0 0.4 0c0.7 0 1.2-0.1 1.5-0.2 0.3-0.2 0.6-0.7 0.7-1h0.4l-0.5 1.6h-4.6v-0.3C124.4 72.7 124.7 72.7 124.9 72.6L124.9 72.6z"/><path class="st2" d="M133.3 72.6c0.1 0 0.1-0.2 0.1-0.5v-3.7c0-0.3-0.1-0.5-0.1-0.5 -0.1-0.1-0.5-0.1-0.7-0.1v-0.3h2.6v0.3c-0.2 0-0.6 0-0.7 0.1 -0.1 0.1-0.1 0.2-0.1 0.5V72c0 0.3 0.1 0.5 0.1 0.5 0.1 0.1 0.5 0.1 0.7 0.1V73h-2.6v-0.3C132.8 72.7 133.2 72.7 133.3 72.6L133.3 72.6z"/><path class="st3" d="M141.4 68.7l-0.8 2h1.6L141.4 68.7 141.4 68.7zM138.7 72.7c0.2 0 0.4-0.1 0.5-0.2 0.1-0.1 0.3-0.5 0.5-1.1l1.7-4.2h0.3l2.1 4.8c0.1 0.3 0.2 0.5 0.3 0.6 0.1 0.1 0.3 0.1 0.4 0.1V73h-2.3v-0.3c0.2 0 0.4 0 0.5-0.1 0 0 0.1 0 0.1-0.2 0-0.1-0.1-0.4-0.1-0.5l-0.3-0.8h-2.1c-0.2 0.5-0.3 0.8-0.4 1 0 0.1-0.1 0.2-0.1 0.3 0 0.1 0 0.2 0.1 0.2 0.1 0 0.3 0.1 0.4 0.1V73h-1.8V72.7L138.7 72.7z"/><path class="st3" d="M158.7 28.6v4.1h0.9c1.3 0 2.2-1 2.2-2.2 0-1.2-1-2.1-2.2-2.1C159.6 28.5 159.2 28.4 158.7 28.6L158.7 28.6zM163.6 30.6c0 1.2-1 2.2-2.3 2.6l3 4c0.3 0.4 0.6 0.8 1 0.8h0.1v0.3H163l-3.6-4.8h-0.7v3.5c0 0.7 0.3 1.1 0.9 1.1h0.1v0.3H156V38h0.1c0.6 0 0.9-0.4 0.9-1.1v-7.7c0-0.7-0.3-1.1-0.9-1.1H156v-0.3h2.7C162.7 27.6 163.6 28.9 163.6 30.6L163.6 30.6z"/><path class="st2" d="M77.5 38.2v-0.4h-0.6c-0.6 0-1.1-0.6-1.1-1.3V26.1h2.4c1 0 1.6 0.7 1.7 2.2h0.3L80 25.1c0 0-0.1-0.1-0.1-0.1H69.4c0 0-0.1 0.1-0.1 0.1l-0.1 3.2h0.3c0.1-1.5 0.7-2.2 1.7-2.2h2.4v10.6c0 0.7-0.5 1.3-1.2 1.3h-0.6v0.4H77.5L77.5 38.2z"/><path class="st2" d="M117.1 26.3c0-0.6-0.4-0.9-0.9-0.9h-0.5V25h3.7v0.4H119c-0.6 0-0.9 0.3-0.9 0.9V34c0 2.5-1.9 4.4-5 4.4 -3.1 0-5.1-2-5.1-4.6v-7.2c0-0.6-0.5-1.2-1.2-1.2h-0.2V25h4.8v0.4h-0.2c-0.6 0-1.2 0.6-1.2 1.2v7.2c0 1.9 1.2 3.5 3.2 3.5 1.9 0 3.7-1.2 3.7-3.3V26.3L117.1 26.3z"/><path class="st2" d="M88.2 33.2h-4.4v3.6c0 0.7 0.3 1.1 0.9 1.1h0.1v0.3h-3.7v-0.3h0.1c0.7 0 0.9-0.4 0.9-1.1v-7.7c0-0.7-0.2-1.1-0.9-1.1h-0.1v-0.3h3.7V28h-0.1c-0.6 0-0.9 0.4-0.9 1.1v3.4h4.4v-3.4c0-0.7-0.3-1.1-1-1.1h-0.1v-0.3h3.7V28h-0.1c-0.7 0-0.9 0.4-0.9 1.1v7.7c0 0.7 0.3 1.1 0.9 1.1h0.1v0.3h-3.7v-0.3h0.1c0.7 0 1-0.4 1-1.1V33.2L88.2 33.2z"/><path class="st2" d="M94.8 33.1v3.9c0 0.3 0.2 0.5 0.5 0.5h2.6c1.4 0 2.1-0.9 2.4-2h0.3l-0.9 2.8h-7.7v-0.3h0.1c0.7 0 0.9-0.4 0.9-1.1v-7.7c0-0.7-0.3-1.1-0.9-1.1h-0.1v-0.3h7.4l0.2 2.4h-0.3c-0.1-1.1-0.7-1.7-1.4-1.7h-3.2v3.8h3c0.5 0 0.7-0.5 0.7-1v-0.1h0.3v2.9h-0.3v-0.1c0-0.5-0.2-1-0.7-1H94.8L94.8 33.1z"/><path class="st2" d="M134.1 36.8c0 0.7 0.3 1.1 0.9 1.1h0v0.3h-3.7v-0.3h0c0.7 0 1-0.4 1-1.1v-7.7c0-0.7-0.3-1.1-1-1.1h0v-0.3h3.7V28h0c-0.7 0-0.9 0.4-0.9 1.1V36.8L134.1 36.8z"/><path class="st2" d="M141.5 38.2l3.6-9.2c0.3-0.6 0.5-0.9 0.9-0.9l0 0v-0.3h-2.4V28h0.2c0.3 0 0.6 0.3 0.5 0.7l-2.5 6.5 -2.8-6.5c-0.2-0.4 0.2-0.7 0.5-0.7h0.3v-0.3h-3.5V28c0.4 0 0.7 0.3 0.9 0.9l3.9 9.3C141.3 38.3 141.4 38.3 141.5 38.2L141.5 38.2z"/><path class="st2" d="M149.9 33.1v3.9c0 0.3 0.2 0.5 0.5 0.5h2.6c1.4 0 2-0.9 2.4-2h0.3l-0.9 2.8h-7.6v-0.3h0.1c0.7 0 0.9-0.4 0.9-1.1v-7.7c0-0.7-0.3-1.1-0.9-1.1h-0.1v-0.3h7.4l0.2 2.4h-0.3c-0.1-1.1-0.7-1.7-1.4-1.7h-3.2v3.8h3c0.5 0 0.8-0.5 0.8-1v-0.1h0.3v2.9h-0.3v-0.1c0-0.5-0.2-1-0.8-1H149.9L149.9 33.1z"/><path class="st2" d="M166.4 34.7h-0.3v3.6h0.3c0.1-0.5 0.5-0.7 0.9-0.5 1.3 0.7 2.8 0.8 3.9-0.1 1-0.8 1.5-2.3 0.8-3.5 -0.6-1.2-2.2-2.1-3.5-2.7 -1.4-0.8-1.5-2.2-0.4-3 1.3-0.8 3.3 0.6 3.3 2.6h0.3v-3.4h-0.3c-0.1 0.5-0.5 0.5-1 0.3 -1.4-0.7-2.6-0.6-3.6 0.3 -1.1 1.1-1.4 3.2 0.5 4.3 1.1 0.7 2.6 1.5 3.1 2.2 0.5 0.7 0.6 1.5-0.4 2.3C168.8 38.5 166.4 37 166.4 34.7L166.4 34.7z"/><path class="st2" d="M122.5 27.7h-2.6V28c0.4 0 0.7 0 0.9 0.3 0.2 0.3 0.4 0.5 0.7 0.8v8c0 0.5-0.5 0.8-0.9 0.8h-0.1v0.3h2.9v-0.3h-0.1c-0.5 0-0.9-0.3-0.9-0.8v-6.9l6.8 8h0.2v-9.4c0-0.5 0.5-0.8 0.9-0.8h0.1v-0.3h-2.8V28h0.1c0.5 0 0.9 0.3 0.9 0.8v6L122.5 27.7 122.5 27.7z"/><path class="st2" d="M176 36.8c0 0.7 0.3 1.1 0.9 1.1h0.1v0.3h-3.7v-0.3h0.1c0.7 0 0.9-0.4 0.9-1.1v-7.7c0-0.7-0.3-1.1-0.9-1.1h-0.1v-0.3h3.7V28H177c-0.7 0-0.9 0.4-0.9 1.1V36.8L176 36.8z"/><path class="st2" d="M191.8 33.8l-3.2-4.9c-0.3-0.6-0.7-0.8-1.1-0.8v-0.3h3.6V28H191c-0.3 0-0.6 0.4-0.4 0.8l2.6 4 2.4-4.1c0.2-0.3 0-0.7-0.3-0.7H195v-0.3h2.5V28c-0.5 0-0.9 0.3-1.2 0.8l-2.8 4.9v3.2c0 0.7 0.3 1.1 1 1.1h0.1v0.3h-3.8v-0.3h0.1c0.7 0 0.9-0.4 0.9-1.1V33.8L191.8 33.8z"/><path class="st2" d="M183.4 36.9c0 0.7 0.3 1 0.9 1h0v0.3h-3.7v-0.3h0c0.7 0 1-0.3 1-1v-8.4h-2.1c-0.8 0-1.2 0.5-1.3 1.7h-0.2l0.1-2.4c0 0 0-0.1 0.1-0.1h8.5c0 0 0.1 0 0.1 0.1l0.1 2.4h-0.3c-0.1-1.1-0.5-1.7-1.3-1.7h-2V36.9L183.4 36.9z"/><path class="st2" d="M85.2 56.3c0 0.7 0.3 1.1 0.9 1.1h0.1v0.3h-3.7v-0.3h0.1c0.7 0 0.9-0.4 0.9-1.1v-7.7c0-0.7-0.3-1.1-0.9-1.1h-0.1v-0.3h7.9l0.2 2.4h-0.2c-0.1-1.1-0.7-1.7-1.4-1.7h-3.7v3.8h3c0.5 0 0.7-0.5 0.7-1v-0.1h0.3v2.9H89v0c0-0.5-0.2-1-0.7-1h-3V56.3L85.2 56.3z"/><path class="st2" d="M122.8 52.5v3.9c0 0.3 0.3 0.5 0.6 0.5h2.6c1.4 0 2.1-0.9 2.4-2.1h0.3l-0.8 2.8h-7.7v-0.3h0.1c0.7 0 0.9-0.4 0.9-1.1v-7.7c0-0.7-0.3-1.1-0.9-1.1h-0.1v-0.3h7.4l0.2 2.4h-0.2c0-1.1-0.7-1.7-1.5-1.7h-3.2v3.8h3c0.5 0 0.8-0.5 0.8-1v-0.1h0.3v2.9h-0.3v0c0-0.5-0.3-1-0.8-1H122.8L122.8 52.5z"/><path class="st2" d="M117.3 48.2c0-0.5-0.3-0.7-0.7-0.7h-0.3v-0.3h2.8v0.3h-0.3c-0.4 0-0.7 0.3-0.7 0.7v6.1c0 2-1.5 3.5-3.9 3.5 -2.5 0-4.1-1.5-4.1-3.6v-5.7c0-0.5-0.4-1-0.9-1h0v-0.3h3.6v0.3h-0.1c-0.5 0-0.9 0.5-0.9 1v5.7c0 1.5 0.9 2.8 2.5 2.8 1.5 0 3-0.9 3-2.7V48.2L117.3 48.2z"/><path class="st2" d="M131.9 52.5v3.9c0 0.3 0.2 0.5 0.5 0.5h2.6c1.4 0 2-0.9 2.4-2.1h0.3l-0.9 2.8h-7.6v-0.3h0c0.7 0 0.9-0.4 0.9-1.1v-7.7c0-0.7-0.3-1.1-0.9-1.1h0v-0.3h7.4l0.2 2.4h-0.2c-0.1-1.1-0.7-1.7-1.4-1.7h-3.2v3.8h3c0.5 0 0.8-0.5 0.8-1v-0.1h0.3v2.9h-0.3v0c0-0.5-0.3-1-0.8-1H131.9L131.9 52.5z"/><path class="st2" d="M159.5 56.2c0 0.3 0.3 0.7 0.5 0.7h2.4c1.4 0 2-0.9 2.4-2.1h0.3l-0.8 2.9h-7.5v-0.3h0.1c0.6 0 0.9-0.4 0.9-1.1v-7.7c0-0.7-0.3-1.1-0.9-1.1h-0.1v-0.3h3.7v0.3h-0.1c-0.7 0-1 0.4-1 1.1V56.2L159.5 56.2z"/><path class="st2" d="M149.5 54.1h-0.3v3.5h0.3c0.1-0.5 0.5-0.7 0.9-0.5 1.3 0.7 2.8 0.8 3.9 0 1-0.8 1.5-2.3 0.8-3.5 -0.6-1.2-2.3-2.1-3.5-2.7 -1.5-0.8-1.5-2.3-0.4-2.9 1.3-0.8 3.3 0.6 3.3 2.6h0.3v-3.4h-0.3c-0.1 0.5-0.5 0.6-0.9 0.4 -1.4-0.7-2.6-0.6-3.6 0.3 -1.1 1.1-1.3 3.2 0.5 4.4 1.1 0.7 2.6 1.5 3.1 2.2 0.5 0.6 0.6 1.5-0.4 2.3C151.9 57.9 149.5 56.4 149.5 54.1L149.5 54.1z"/><path class="st2" d="M140.3 47.2h-2.6v0.3c0.4 0 0.7 0.1 0.9 0.3 0.3 0.3 0.4 0.5 0.7 0.8v8c0 0.5-0.5 0.8-0.9 0.8h-0.1v0.3h2.8v-0.3h-0.1c-0.5 0-0.9-0.3-0.9-0.8v-6.9l6.8 8h0.2v-9.4c0-0.5 0.5-0.8 0.9-0.8h0.1v-0.3h-2.8v0.3h0.1c0.5 0 0.9 0.3 0.9 0.8v6L140.3 47.2 140.3 47.2z"/><path class="st2" d="M178.5 47.2h-2.6v0.3c0.4 0 0.7 0.1 0.9 0.3 0.3 0.3 0.4 0.5 0.7 0.8v8c0 0.5-0.5 0.8-0.9 0.8h-0.1v0.3h2.8v-0.3h0c-0.5 0-0.9-0.3-0.9-0.8v-6.9l6.8 8h0.2v-9.4c0-0.5 0.5-0.8 0.9-0.8h0.1v-0.3h-2.8v0.3c0.5 0 0.9 0.3 0.9 0.8v6L178.5 47.2 178.5 47.2z"/><path class="st3" d="M174.5 56.4c0.2 0.6 0.5 0.9 0.9 0.9h0.1v0.3H172v-0.3h0.3c0.3 0 0.6-0.3 0.5-0.7l-1-2.3h-3.6l-1 2.3c-0.2 0.4 0.2 0.7 0.6 0.7h0.1v0.3h-2.7v-0.3h0.2c0.4 0 0.8-0.3 1.1-0.9l3.8-9.4c0.2-0.3 0.4 0 0.4 0L174.5 56.4 174.5 56.4zM168.4 53.5h3l-1.5-3.5L168.4 53.5 168.4 53.5z"/><path class="st3" d="M197.5 52.4c0 2.9-2.3 5.3-5.3 5.3h-4.8v-0.3h0.1c0.7 0 0.9-0.4 0.9-1.1v-7.7c0-0.7-0.3-1.1-0.9-1.1h-0.1v-0.3h3.9C197.9 47 197.5 52.4 197.5 52.4L197.5 52.4zM190.3 47.9v8.9c0.4 0.1 0.6 0.1 1 0.1 3.1 0 4.6-1.9 4.6-4.6 0-0.1 0.2-4.8-4.6-4.6C191.3 47.8 190.7 47.7 190.3 47.9L190.3 47.9z"/><path class="st3" d="M75.4 44.1c3.8 0.1 6.2 3 6.2 6.7 0 3.7-2.4 6.7-6.2 6.7s-6.2-3-6.2-6.7C69.5 43.8 75.4 44.1 75.4 44.1L75.4 44.1zM71.5 50.8c0 3.5 1.6 6 3.9 5.9 2.1 0 3.9-2.2 3.9-6 -0.1-5.1-2.6-5.8-3.9-5.8C72.5 45.1 71.5 48 71.5 50.8L71.5 50.8z"/><path class="st3" d="M102.2 44.3c0 0 6.1 0 6.2 6.8 0 3-1.6 5.5-4.2 6.3 0.6 1.3 2.1 2.8 4.2 2.9v0.4c-2.9 0-5.5-1-7.5-3 -3.1-0.6-5-3.4-5-6.7C96 47.3 98.4 44.3 102.2 44.3L102.2 44.3zM102.2 45.1c0 0-3.8-0.2-3.8 5.9 0 3.9 1.7 5.9 3.9 5.9 2.1 0 3.8-2 3.8-5.9C106.1 47.2 104.3 45.1 102.2 45.1L102.2 45.1z"/></svg>