<?xml version="1.0" encoding="utf-8"?>
<!-- Generator: Adobe Illustrator 20.1.0, SVG Export Plug-In . SVG Version: 6.00 Build 0)  -->
<svg version="1.1" id="Layer_1" xmlns="http://www.w3.org/2000/svg" xmlns:xlink="http://www.w3.org/1999/xlink" x="0px" y="0px"
	 viewBox="0 0 276 100" style="enable-background:new 0 0 276 100;" xml:space="preserve">
<style type="text/css">
	.st0{fill:#FFFFFF;}
	.st1{opacity:0.5;fill:#FFFFFF;enable-background:new    ;}
</style>
<g>
	<path class="st0" d="M60.5,60.7v0.8l0.6-0.5c0.2-0.2,0.4-0.4,0.4-0.7s-0.2-0.2-0.4-0.1L60.5,60.7L60.5,60.7z M60.1,60.6
		c0,0,0.2-0.2,0.4-0.3l0.7-0.5c0.5-0.4,0.7-0.3,0.7,0.1c0,0.5-0.3,0.8-0.4,0.9c0.1-0.1,0.3-0.1,0.3,0.3c0,0.3,0,0.5,0.1,0.6L61.5,62
		c-0.1-0.1-0.1-0.2-0.1-0.3c0-0.5-0.1-0.6-0.4-0.3l-0.5,0.4v1L60.1,63V60.6"/>
	<path class="st0" d="M56.2,64.4v0.8l0.7-0.4c0.2-0.1,0.4-0.4,0.4-0.6s-0.1-0.3-0.4-0.2L56.2,64.4L56.2,64.4z M56.1,63.4v0.7
		l0.6-0.4c0.2-0.1,0.3-0.3,0.3-0.5c0-0.3-0.1-0.3-0.3-0.2L56.1,63.4z M56.2,65.5l-0.5,0.2v-2.5c0,0,0.2-0.1,0.4-0.2l0.8-0.4
		c0.4-0.2,0.7-0.2,0.7,0.3c0,0.3-0.1,0.5-0.3,0.7c0.3-0.1,0.4,0.1,0.4,0.4c0,0.4-0.3,0.9-0.9,1.2L56.2,65.5"/>
	<path class="st0" d="M54.6,65.3l-0.4-0.9l-0.3,1.3L54.6,65.3L54.6,65.3z M53.8,66.1l-0.2,0.8L53.1,67l0.8-3l0.4-0.2l1.1,2.1
		L55,66.2l-0.3-0.6L53.8,66.1"/>
	<path class="st0" d="M42.5,72.3l-0.4-1.1l-0.4,1.1C41.7,72.3,42.5,72.3,42.5,72.3z M41.6,72.7l-0.3,0.7h-0.5l1-2.5h0.5l1,2.7h-0.5
		l-0.2-0.7L41.6,72.7"/>
	<path class="st0" d="M35.6,66.8l-0.4-1.2l-0.4,0.9L35.6,66.8L35.6,66.8z M34.8,66.8l-0.2,0.6l-0.5-0.2l1-2.2l0.4,0.2l0.9,2.8
		l-0.5-0.1l-0.2-0.7L34.8,66.8"/>
	<path class="st0" d="M36.3,69.5v3.2c1.8,0.8,4.3,1.2,6.9,1.2c2.6,0,5-0.4,6.9-1.2v-3.2c-2.2,0.6-4.5,0.9-6.9,0.9
		C39.7,70.4,36.3,69.5,36.3,69.5L36.3,69.5z M22.2,56.2v4.1c4,3.3,8.5,6.5,14.1,8l3.7-2.2C34.2,65,26.2,61,22.2,56.2z M28,59.7
		c-0.4-0.7-0.9-1.3-1.5-2.3v1.4C27.1,59.2,28,59.7,28,59.7z M58.3,59.9c0.9-0.6,1.6-1.1,1.6-1.1l-0.1-1.4L58.3,59.9z M64.2,56.2
		c-4,4.8-12,8.8-17.7,10l3.7,2.2c0,0,4.4-1.4,7.8-3.4c4.8-3,6.3-4.7,6.3-4.7L64.2,56.2L64.2,56.2z M26.6,65v0.6
		c0,0.8-0.1,0.8,0.6,1.2l2.7,1.7v-1.6C28.7,66.3,27.6,65.7,26.6,65z M60.9,64.3v1.4c0,1.1-0.1,1.3-0.7,1.7c-1,0.6-2.5,1.7-4.7,3
		v-2.9c-1.4,0.7-2.8,1.2-4.3,1.7v4.3c-2,0.9-4.9,1.5-8,1.5c-3,0-5.9-0.6-8-1.5v-4.3c-1.5-0.5-2.9-1-4.3-1.7v2.9
		c-2.3-1.4-3.8-2.4-4.7-3c-0.6-0.4-0.7-0.6-0.7-1.7v-1.4c-1.6-1.1-3.1-2.3-4.4-3.4v-6.2H26c2,3.1,3.5,5.4,4.2,6.6
		c2.7,1.6,5.7,2.8,8.5,3.6c0.9,0.2,1.7,0.4,2.5,0.6v3.9c0.6,0,3.2,0,3.8,0v-3.9c0.8-0.1,1.7-0.3,2.5-0.6c2.8-0.8,5.8-2,8.6-3.6
		c0,0,2.2-3.5,4.2-6.6h4.9v6.2C64,61.9,62.6,63.1,60.9,64.3L60.9,64.3z M59.3,66.8c0.7-0.4,0.6-0.4,0.6-1.2V65
		c-1,0.7-2.1,1.3-3.3,1.9v1.6C56.6,68.5,58.1,67.5,59.3,66.8"/>
	<path class="st0" d="M27.2,26.1v19.3c0,7.4,6.7,15,16.1,17.8c9.3-2.8,16.1-10.4,16.1-17.8V26.1H27.2z M43.3,64.3
		c-9.4-2.5-17.2-10.5-17.2-19V25h34.4v20.3C60.5,53.8,52.7,61.8,43.3,64.3"/>
	<path class="st0" d="M33.5,67l0.4,0.2v-2.5l-0.4-0.2V67"/>
	<path class="st0" d="M31.3,63.8l0.7,0.3v2.2l0.4,0.2v-2.1l0.7,0.3v-0.4l-1.8-0.9L31.3,63.8"/>
	<path class="st0" d="M29.1,64.8l0.4,0.2v-1.9l0,0l1,2.4l0.4,0.2v-2.6L30.5,63v1.9l0,0l-1-2.4l-0.4-0.3V64.8"/>
	<path class="st0" d="M27.1,63.6l1.5,1v-0.4l-1.2-0.8v-0.7l1.1,0.7V63l-1.1-0.7v-0.7l1.2,0.7V62l-1.5-1V63.6"/>
	<path class="st0" d="M26.4,63l0.4,0.3v-2.5l-0.4-0.3V63"/>
	<path class="st0" d="M26,61c0-0.6-0.4-1.1-0.8-1.4c-0.6-0.4-0.9,0-0.9,0.8c0,0.7,0.3,1.5,0.9,1.9c0.5,0.3,0.8,0.1,0.8-0.5l-0.3-0.2
		c0,0.4-0.2,0.6-0.5,0.4c-0.4-0.2-0.6-0.8-0.6-1.3s0.2-0.9,0.6-0.6c0.3,0.2,0.4,0.5,0.5,0.8L26,61"/>
	<path class="st0" d="M22.6,59.3c0,0.6,0.3,1.1,0.7,1.4c0.4,0.2,0.7,0.3,0.7-0.3c0-0.3-0.1-0.6-0.3-0.9L23.2,59
		c-0.1-0.1-0.2-0.3-0.2-0.5c0-0.3,0.2-0.2,0.3-0.1c0.2,0.1,0.4,0.4,0.4,0.7l0.3,0.2c0-0.5-0.3-1-0.7-1.3c-0.3-0.2-0.6-0.2-0.6,0.3
		c0,0.3,0.1,0.6,0.4,0.9c0.2,0.3,0.4,0.4,0.5,0.6c0.1,0.1,0.1,0.2,0.1,0.4s-0.1,0.3-0.4,0.1c-0.2-0.2-0.4-0.5-0.4-0.9L22.6,59.3"/>
	<path class="st0" d="M45.9,71.6c-0.1-0.6-0.5-0.9-1.2-0.8c-0.8,0-1.3,0.7-1.3,1.4c0,0.7,0.5,1.3,1.3,1.3c0.7,0,1.1-0.5,1.1-1.1
		h-0.5c0,0.4-0.3,0.7-0.7,0.7c-0.6,0-0.8-0.4-0.8-0.9s0.2-1,0.8-1c0.4,0,0.6,0.2,0.7,0.5L45.9,71.6"/>
	<path class="st0" d="M62.2,61.4l1.3-1.2v-0.4l-1,0.9V60l0.9-0.8v-0.4l-0.9,0.8V59l1-0.9v-0.4L62.2,59V61.4"/>
	<path class="st0" d="M51,67.8l1.8-0.7v-0.4l-1.3,0.5V65L51,65.3V67.8"/>
	<path class="st0" d="M59.5,62.1c-0.1-0.4-0.3-0.6-0.8-0.2c-0.4,0.4-0.5,1-0.5,1.4c0.1,0.4,0.3,0.6,0.8,0.3
		C59.7,62.7,59.5,62.1,59.5,62.1L59.5,62.1z M57.9,63.6c-0.1-0.6,0.1-1.5,0.7-2c0.6-0.6,1.1-0.4,1.2,0.2c0,0,0.3,1-0.7,2
		C58.5,64.3,58,64.2,57.9,63.6"/>
	<path class="st0" d="M33.4,49c-1,1-1.8,2.3-2.4,4.1V49C31,49,33.4,49,33.4,49z M48.1,49c0.9,2.7,2.7,4.4,6,5.5H32.4
		c3.3-1.1,5.1-2.9,6-5.5H48.1z M55.5,49v4.1C55,51.3,54.2,50,53.2,49H55.5"/>
	<path class="st0" d="M31,49V31.4c1.4,4.2,3.9,6,8,6.6c-0.6-4.1-2.3-6.6-6.6-8h21.7c-4.2,1.4-5.9,3.9-6.6,8c4.1-0.6,6.6-2.4,8-6.6
		V49h-2.4c-1.4-1.4-3.2-2.1-5.6-2.5c0.1,0.9,0.3,1.7,0.6,2.5h-9.7c0.3-0.8,0.5-1.6,0.6-2.5c-2.4,0.4-4.2,1.1-5.6,2.5H31z M49.5,39.8
		h2.3c0.6,0,1,0.1,1,0.6c0,0.6-0.3,0.7-0.8,0.7h-2.4L49.5,39.8L49.5,39.8z M37,41.1h-1.7c-0.1,0.2-0.4,0.4-0.7,0.4
		c-0.4,0-0.8-0.3-0.8-0.8v-0.1h-0.1c-0.2,0-0.3-0.1-0.3-0.3c0-0.1,0.1-0.2,0.3-0.2h0.1V40c0-0.4,0.4-0.8,0.8-0.8
		c0.3,0,0.6,0.2,0.7,0.5H37V41.1L37,41.1z M34.9,40.6h-0.6l0,0c0,0.2,0.1,0.3,0.3,0.3C34.8,41,34.9,40.8,34.9,40.6L34.9,40.6z
		 M34.3,40.1h0.6c0-0.2-0.1-0.3-0.3-0.3C34.5,39.8,34.3,40,34.3,40.1L34.3,40.1z M49.5,43.4h2.3c0.6,0,1,0.1,1,0.6
		c0,0.6-0.3,0.7-0.8,0.7h-2.4L49.5,43.4L49.5,43.4z M37,44.7h-1.7c-0.1,0.2-0.4,0.4-0.7,0.4c-0.4,0-0.8-0.3-0.8-0.8v-0.1h-0.1
		c-0.2,0-0.3-0.1-0.3-0.3c0-0.1,0.1-0.2,0.3-0.2h0.1v-0.1c0-0.4,0.4-0.8,0.8-0.8c0.3,0,0.6,0.2,0.7,0.5H37V44.7L37,44.7z M34.9,44.2
		h-0.6l0,0c0,0.2,0.1,0.3,0.3,0.3C34.8,44.6,34.9,44.4,34.9,44.2L34.9,44.2z M34.3,43.7h0.6c0-0.2-0.1-0.3-0.3-0.3
		C34.5,43.4,34.3,43.6,34.3,43.7L34.3,43.7L34.3,43.7z M42.9,44.7c-0.5-0.3-0.9-0.3-1.7-0.3h-1.8v-5.5c0.9,0,0.9-0.2,1.9-0.2
		s1.6,0.6,1.6,1.3C42.9,39.9,42.9,44.7,42.9,44.7z M43.7,44.7c0.5-0.3,0.9-0.3,1.7-0.3h1.8v-5.5c-0.9,0-0.9-0.2-1.9-0.2
		s-1.6,0.6-1.6,1.3C43.7,39.9,43.7,44.7,43.7,44.7z M43.3,46.2c1.1,0,1-0.4,1.8-0.4h3.3v-6.6L48,38.9v6.3h-2.6
		c-1.5,0-1.1,0.4-2.1,0.4s-0.6-0.4-2.1-0.4h-2.6v-6.3l-0.5,0.3v6.6h3.3C42.2,45.8,42.1,46.2,43.3,46.2"/>
	<path class="st0" d="M75.2,70l-0.8,2H76L75.2,70z M72.5,74c0.2,0,0.4-0.1,0.5-0.2s0.3-0.5,0.5-1.1l1.8-4.1h0.3l2.1,4.8
		c0.1,0.3,0.2,0.5,0.3,0.6c0.1,0.1,0.3,0.1,0.4,0.1v0.3h-2.3V74c0.2,0,0.4,0,0.5-0.1c0,0,0.1,0,0.1-0.2c0-0.1-0.1-0.4-0.1-0.5
		l-0.3-0.8h-2.1l-0.4,0.9l-0.1,0.3c0,0.1,0,0.2,0.1,0.2s0.3,0.1,0.4,0.1v0.3h-1.8L72.5,74"/>
	<path class="st0" d="M84.4,68.9c-0.2,0-0.5,0-0.7,0.1c-0.1,0.1-0.1,0.2-0.1,0.5v2.7c0,0.4,0.1,0.8,0.2,1c0.2,0.4,0.6,0.6,1.2,0.6
		c1.3,0,1.5-0.7,1.5-1.8v-2.2c0-0.5-0.1-0.7-0.1-0.8c-0.1-0.2-0.5-0.2-0.6-0.2v-0.3h2.1v0.3c-0.2,0-0.5,0.1-0.7,0.2
		C87,69.2,87,69.5,87,69.9v2.2c0,0.6-0.1,1-0.3,1.4c-0.3,0.6-1,0.9-1.9,0.9s-1.6-0.3-1.9-0.9c-0.2-0.3-0.3-0.8-0.3-1.3v-2.6
		c0-0.3-0.1-0.5-0.1-0.5C82.4,69,82,69,81.9,68.9v-0.3h2.5L84.4,68.9"/>
	<path class="st0" d="M92.3,73.3c0.3,0.4,0.7,0.6,1.2,0.6c0.2,0,0.5-0.1,0.6-0.2c0.2-0.1,0.3-0.4,0.3-0.6s-0.1-0.5-0.3-0.6
		c-0.3-0.3-1.2-0.8-1.5-1c-0.2-0.1-0.4-0.3-0.5-0.4c-0.2-0.3-0.4-0.6-0.4-0.9c0-0.9,0.7-1.6,1.6-1.6c0.2,0,0.4,0,0.7,0.1l0.4,0.1
		h0.1c0.1-0.1,0.1-0.2,0.1-0.2H95l0.2,1.9h-0.4c-0.1-0.4-0.3-0.9-0.6-1.1c-0.3-0.2-0.6-0.3-0.8-0.3c-0.4,0-0.8,0.2-0.8,0.7
		c0,0.2,0.1,0.4,0.2,0.5s0.3,0.3,0.6,0.5l0.7,0.5c0.5,0.3,0.8,0.5,1,0.8s0.3,0.6,0.3,0.9c0,0.5-0.2,0.9-0.5,1.2
		c-0.3,0.3-0.8,0.5-1.3,0.5c-0.3,0-0.5-0.1-0.8-0.2s-0.4-0.1-0.5-0.1h-0.1l-0.2,0h-0.3l-0.3-1.9h0.3C91.9,72.8,92,73.1,92.3,73.3"/>
	<path class="st0" d="M104.1,68.6v1.6h-0.4c-0.1-0.2-0.2-0.7-0.4-0.9c-0.1-0.1-0.4-0.2-0.9-0.2H102v4.2c0,0.3,0.1,0.5,0.1,0.5
		c0.1,0.1,0.5,0.1,0.7,0.1v0.3h-2.6V74c0.7-0.1,0.8-0.1,0.8-0.8v-4.1h-0.4c-0.5,0-0.7,0.1-0.9,0.2c-0.2,0.2-0.3,0.7-0.4,0.9h-0.4
		l0.1-1.6H104.1"/>
	<path class="st0" d="M111.1,70.1c0-0.5-0.2-0.8-0.5-0.9c-0.2-0.1-0.5-0.1-0.8-0.1c-0.2,0-0.4,0-0.4,0v0.2v2c0.6,0,0.9-0.1,1.2-0.2
		C110.9,70.9,111.1,70.6,111.1,70.1L111.1,70.1z M108.2,73.8c0.1-0.1,0.1-0.3,0.1-0.6v-3.6c0-0.3,0-0.5-0.1-0.5
		c-0.1-0.1-0.5-0.1-0.6-0.2v-0.3h2.4c0.5,0,0.9,0.1,1.2,0.2c0.6,0.2,1,0.7,1,1.4c0,0.4-0.1,0.8-0.4,1s-0.6,0.4-1,0.4l1.6,2
		c0.2,0.3,0.4,0.3,0.7,0.4v0.3h-1.5l-2-2.6h-0.3v1.6c0,0.3,0,0.5,0.1,0.5c0.1,0.1,0.5,0.1,0.6,0.1v0.3h-2.5V74
		C107.7,73.9,108.1,73.9,108.2,73.8"/>
	<path class="st0" d="M118.9,70l-0.8,2h1.7L118.9,70L118.9,70z M116.2,74c0.2,0,0.4-0.1,0.5-0.2s0.3-0.5,0.5-1.1l1.8-4.1h0.3
		l2.1,4.8c0.1,0.3,0.2,0.5,0.3,0.6c0.1,0.1,0.3,0.1,0.4,0.1v0.3h-2.3V74c0.2,0,0.4,0,0.5-0.1c0,0,0.1,0,0.1-0.2
		c0-0.1-0.1-0.4-0.1-0.5l-0.3-0.8h-2.1l-0.4,0.9l-0.1,0.3c0,0.1,0,0.2,0.1,0.2s0.3,0.1,0.4,0.1v0.3h-1.8L116.2,74"/>
	<path class="st0" d="M126.1,73.8c0.1,0,0.1-0.2,0.1-0.5v-3.7c0-0.3,0-0.5-0.1-0.5c-0.1-0.1-0.5-0.1-0.6-0.2v-0.3h2.5v0.3
		c-0.2,0-0.5,0-0.7,0.1c-0.1,0.1-0.1,0.2-0.1,0.5v4v0.2l0.1,0.1h0.2h0.4c0.7,0,1.2-0.1,1.5-0.2c0.3-0.2,0.6-0.6,0.7-0.9h0.4
		l-0.5,1.6h-4.6V74C125.6,73.9,126,73.9,126.1,73.8"/>
	<path class="st0" d="M134.6,73.8c0.1,0,0.1-0.2,0.1-0.5v-3.7c0-0.3-0.1-0.5-0.1-0.5c-0.1-0.1-0.5-0.1-0.7-0.1v-0.3h2.6V69
		c-0.2,0-0.6,0-0.7,0.1c-0.1,0.1-0.1,0.2-0.1,0.5v3.7c0,0.3,0.1,0.5,0.1,0.5c0.1,0.1,0.5,0.1,0.7,0.1v0.3h-2.6V74
		C134.1,73.9,134.5,73.9,134.6,73.8"/>
	<path class="st0" d="M142.8,70l-0.8,2h1.7L142.8,70L142.8,70z M140,74c0.2,0,0.4-0.1,0.5-0.2s0.3-0.5,0.5-1.1l1.8-4.1h0.3l2.1,4.8
		c0.1,0.3,0.2,0.5,0.3,0.6s0.3,0.1,0.4,0.1v0.3h-2.3V74c0.2,0,0.4,0,0.5-0.1c0,0,0.1,0,0.1-0.2c0-0.1-0.1-0.4-0.1-0.5l-0.3-0.8h-2.1
		l-0.4,0.9l-0.1,0.3c0,0.1,0,0.2,0.1,0.2s0.3,0.1,0.4,0.1v0.3H140V74"/>
	<path class="st0" d="M160.2,30.3v4.1h0.9c1.3,0,2.3-1,2.3-2.2s-1-2.1-2.3-2.1C161.1,30.2,160.7,30.1,160.2,30.3L160.2,30.3z
		 M165.2,32.3c0,1.2-1,2.2-2.3,2.6l3,4c0.3,0.3,0.6,0.8,1,0.8h0.1V40h-2.3l-3.6-4.8h-0.7v3.4c0,0.7,0.3,1.1,1,1.1h0.1V40h-3.7v-0.3
		h0.1c0.7,0,0.9-0.4,0.9-1.1V31c0-0.7-0.3-1.1-0.9-1.1h-0.1v-0.3h2.7C164.3,29.3,165.1,30.6,165.2,32.3"/>
	<path class="st0" d="M78.3,39.8v-0.4h-0.6c-0.6,0-1.2-0.6-1.2-1.2V27.8H79c1,0,1.6,0.7,1.7,2.2H81l-0.1-3.1l-0.1-0.1H70.2l-0.1,0.1
		L70,30h0.3c0.1-1.5,0.7-2.2,1.7-2.2h2.4v10.4c0,0.7-0.5,1.2-1.2,1.2h-0.6v0.4H78.3"/>
	<path class="st0" d="M118.2,28c0-0.6-0.4-0.9-0.9-0.9h-0.5v-0.4h3.8v0.4h-0.4c-0.6,0-0.9,0.3-0.9,0.9v7.6c0,2.5-1.9,4.4-5,4.4
		s-5.2-1.9-5.2-4.6v-7.1c0-0.6-0.5-1.2-1.2-1.2h-0.2v-0.4h4.8v0.4h-0.2c-0.7,0-1.2,0.6-1.2,1.2v7.2c0,1.9,1.2,3.5,3.2,3.5
		c1.9,0,3.7-1.2,3.7-3.3L118.2,28"/>
	<path class="st0" d="M89.1,34.9h-4.4v3.6c0,0.7,0.3,1.1,0.9,1.1h0.1v0.3H82v-0.3l0,0c0.7,0,0.9-0.4,0.9-1.1v-7.6
		c0-0.7-0.2-1.1-0.9-1.1l0,0v-0.3h3.7v0.3h-0.1c-0.7,0-0.9,0.4-0.9,1.1v3.3h4.4v-3.3c0-0.7-0.3-1.1-1-1.1H88v-0.3h3.8v0.3h-0.1
		c-0.7,0-0.9,0.4-0.9,1.1v7.6c0,0.7,0.3,1.1,0.9,1.1h0.1v0.3H88v-0.3h0.1c0.7,0,1-0.4,1-1.1V34.9"/>
	<path class="st0" d="M95.8,34.7v3.8c0,0.3,0.2,0.5,0.5,0.5h2.6c1.4,0,2.1-0.8,2.4-2h0.3l-0.9,2.8H93v-0.3h0.1c0.7,0,1-0.4,1-1.1
		v-7.6c0-0.7-0.3-1.1-1-1.1H93v-0.3h7.5l0.2,2.4h-0.3c-0.1-1.1-0.7-1.7-1.5-1.7h-3.2v3.8h3c0.5,0,0.7-0.5,0.7-1v-0.1h0.3v2.9h-0.3
		v-0.1c0-0.5-0.2-1-0.7-1L95.8,34.7"/>
	<path class="st0" d="M135.4,38.5c0,0.7,0.3,1.1,1,1.1l0,0v0.3h-3.7v-0.3l0,0c0.7,0,1-0.4,1-1.1v-7.6c0-0.7-0.3-1.1-1-1.1l0,0v-0.3
		h3.7v0.3l0,0c-0.7,0-1,0.4-1,1.1V38.5"/>
	<path class="st0" d="M142.9,39.8l3.6-9.1c0.3-0.6,0.5-0.9,1-0.9v-0.3h-2.4v0.3h0.2c0.3,0,0.6,0.3,0.5,0.7l-2.6,6.4l-2.8-6.4
		c-0.2-0.4,0.2-0.7,0.5-0.7h0.3v-0.3h-3.5v0.3c0.4,0,0.7,0.3,1,0.9l4,9.2C142.6,39.9,142.8,39.9,142.9,39.8"/>
	<path class="st0" d="M151.3,34.7v3.8c0,0.3,0.2,0.5,0.5,0.5h2.6c1.4,0,2.1-0.8,2.4-2h0.3l-0.9,2.8h-7.7v-0.3h0.1
		c0.7,0,0.9-0.4,0.9-1.1v-7.6c0-0.7-0.3-1.1-0.9-1.1h-0.1v-0.3h7.5l0.2,2.4H156c-0.1-1.1-0.7-1.7-1.5-1.7h-3.2v3.8h3
		c0.5,0,0.8-0.5,0.8-1v-0.1h0.3v2.9h-0.3v-0.1c0-0.5-0.2-1-0.8-1L151.3,34.7"/>
	<path class="st0" d="M168,36.3h-0.3v3.5h0.3c0.1-0.5,0.5-0.7,0.9-0.5c1.3,0.7,2.8,0.8,3.9-0.1c1-0.8,1.5-2.3,0.8-3.4
		c-0.6-1.2-2.2-2-3.5-2.7c-1.5-0.8-1.5-2.2-0.4-2.9c1.3-0.8,3.4,0.6,3.4,2.6h0.3v-3.4h-0.3c-0.1,0.5-0.5,0.5-1,0.3
		c-1.4-0.7-2.6-0.6-3.6,0.3c-1.1,1-1.4,3.2,0.5,4.3c1.1,0.7,2.6,1.5,3.2,2.2c0.5,0.7,0.6,1.5-0.4,2.3C170.4,40.1,168,38.6,168,36.3"
		/>
	<path class="st0" d="M123.7,29.4H121v0.3c0.4,0,0.7,0,0.9,0.3l0.7,0.8v7.9c0,0.5-0.5,0.8-0.9,0.8h-0.1v0.3h2.9v-0.3h-0.1
		c-0.5,0-1-0.3-1-0.8v-6.9l6.9,7.9h0.2v-9.3c0-0.5,0.5-0.8,0.9-0.8h0.1v-0.3h-2.9v0.3h0.1c0.5,0,0.9,0.3,0.9,0.8v5.9L123.7,29.4"/>
	<path class="st0" d="M177.7,38.5c0,0.7,0.3,1.1,1,1.1h0.1v0.3H175v-0.3h0.1c0.7,0,0.9-0.4,0.9-1.1v-7.6c0-0.7-0.3-1.1-0.9-1.1H175
		v-0.3h3.7v0.3h-0.1c-0.7,0-1,0.4-1,1.1v7.6"/>
	<path class="st0" d="M193.6,35.4l-3.2-4.9c-0.3-0.6-0.7-0.8-1.1-0.8v-0.3h3.7v0.3h-0.2c-0.3,0-0.6,0.4-0.4,0.8l2.6,4l2.4-4
		c0.2-0.3,0-0.7-0.3-0.7h-0.3v-0.3h2.5v0.3c-0.5,0-0.9,0.3-1.2,0.8l-2.8,4.8v3.1c0,0.7,0.3,1.1,1,1.1h0.1v0.3h-3.8v-0.3h0.1
		c0.7,0,1-0.4,1-1.1L193.6,35.4"/>
	<path class="st0" d="M185.1,38.5c0,0.7,0.3,1,1,1l0,0v0.3h-3.7v-0.3l0,0c0.7,0,1-0.3,1-1v-8.3h-2.1c-0.8,0-1.2,0.5-1.3,1.7h-0.2
		l0.1-2.4l0.1-0.1h8.6l0.1,0.1l0.1,2.4h-0.3c-0.1-1.1-0.5-1.7-1.3-1.7h-2.1L185.1,38.5"/>
	<path class="st0" d="M86.1,57.7c0,0.7,0.3,1.1,0.9,1.1h0.1V59h-3.7v-0.3h0.1c0.7,0,1-0.4,1-1.1V50c0-0.7-0.3-1.1-1-1.1h-0.1v-0.3
		h7.9l0.2,2.4h-0.2c-0.1-1.1-0.7-1.7-1.5-1.7h-3.7v3.8h3c0.5,0,0.7-0.5,0.7-1V52h0.3v3h-0.3l0,0c0-0.5-0.2-1-0.7-1h-3L86.1,57.7"/>
	<path class="st0" d="M124,53.9v3.8c0,0.3,0.3,0.5,0.6,0.5h2.6c1.4,0,2.1-0.9,2.4-2h0.3l-0.8,2.8h-7.7v-0.3h0.1c0.7,0,1-0.4,1-1.1
		V50c0-0.7-0.3-1.1-1-1.1h-0.1v-0.3h7.5l0.2,2.4h-0.2c0-1.1-0.7-1.7-1.5-1.7H124v3.8h3c0.5,0,0.8-0.5,0.8-1V52h0.3v3h-0.3l0,0
		c0-0.5-0.3-1-0.8-1L124,53.9"/>
	<path class="st0" d="M118.5,49.7c0-0.5-0.3-0.7-0.7-0.7h-0.3v-0.3h2.8V49H120c-0.4,0-0.7,0.3-0.7,0.7v6.1c0,2-1.5,3.4-4,3.4
		s-4.1-1.5-4.1-3.6V50c0-0.5-0.4-1-0.9-1l0,0v-0.3h3.6V49h-0.1c-0.5,0-0.9,0.5-0.9,1v5.7c0,1.5,0.9,2.8,2.5,2.8c1.5,0,3-0.9,3-2.6
		L118.5,49.7"/>
	<path class="st0" d="M133.2,53.9v3.8c0,0.3,0.2,0.5,0.5,0.5h2.6c1.4,0,2.1-0.9,2.4-2h0.3l-0.9,2.8h-7.7v-0.3l0,0c0.7,0,1-0.4,1-1.1
		V50c0-0.7-0.3-1.1-1-1.1l0,0v-0.3h7.4L138,51h-0.2c-0.1-1.1-0.7-1.7-1.5-1.7h-3.2v3.8h3c0.5,0,0.8-0.5,0.8-1V52h0.3v3H137l0,0
		c0-0.5-0.3-1-0.8-1L133.2,53.9"/>
	<path class="st0" d="M161,57.6c0,0.3,0.3,0.7,0.5,0.7h2.4c1.4,0,2.1-0.9,2.4-2.1h0.3l-0.8,2.8h-7.5v-0.3h0.1c0.7,0,0.9-0.4,0.9-1.1
		V50c0-0.7-0.3-1.1-0.9-1.1h-0.1v-0.3h3.7v0.3h0c-0.7,0-1,0.4-1,1.1V57.6"/>
	<path class="st0" d="M150.9,55.5h-0.3V59h0.3c0.1-0.5,0.5-0.7,0.9-0.5c1.3,0.7,2.8,0.8,3.9,0c1-0.8,1.5-2.3,0.8-3.4
		c-0.6-1.2-2.3-2-3.5-2.7c-1.5-0.8-1.5-2.2-0.4-2.9C154,48.7,156,50,156,52h0.3v-3.4H156c-0.1,0.5-0.5,0.6-1,0.4
		c-1.5-0.7-2.7-0.6-3.7,0.3c-1.1,1-1.3,3.2,0.5,4.3c1.1,0.7,2.6,1.5,3.2,2.2c0.5,0.6,0.6,1.5-0.4,2.3
		C153.3,59.3,150.9,57.8,150.9,55.5"/>
	<path class="st0" d="M141.7,48.7H139V49c0.4,0,0.7,0.1,0.9,0.3c0.3,0.3,0.4,0.5,0.7,0.8V58c0,0.5-0.5,0.8-0.9,0.8h-0.1V59h2.9v-0.3
		h-0.1c-0.5,0-0.9-0.3-0.9-0.8V51l6.8,7.9h0.2v-9.3c0-0.5,0.5-0.8,0.9-0.8h0.1v-0.3h-2.8v0.3h0.1c0.5,0,1,0.3,1,0.8v5.9L141.7,48.7"
		/>
	<path class="st0" d="M180.2,48.7h-2.7V49c0.4,0,0.7,0.1,0.9,0.3c0.3,0.3,0.4,0.5,0.7,0.8V58c0,0.5-0.5,0.8-0.9,0.8h-0.1V59h2.9
		v-0.3l0,0c-0.5,0-1-0.3-1-0.8V51l6.8,7.9h0.2v-9.3c0-0.5,0.5-0.8,0.9-0.8h0.1v-0.3h-2.8v0.3c0.5,0,1,0.3,1,0.8v5.9L180.2,48.7"/>
	<path class="st0" d="M176.1,57.8c0.2,0.6,0.5,0.9,1,0.9h0.1V59h-3.6v-0.3h0.3c0.3,0,0.7-0.3,0.5-0.7l-1-2.3h-3.7l-1,2.3
		c-0.2,0.4,0.2,0.7,0.6,0.7h0.1V59h-2.8v-0.3h0.2c0.4,0,0.8-0.3,1.1-0.9l3.8-9.3c0.2-0.3,0.4,0,0.4,0L176.1,57.8L176.1,57.8z
		 M170,54.9h3l-1.5-3.5L170,54.9"/>
	<path class="st0" d="M199.3,53.9c0,2.9-2.3,5.2-5.4,5.2h-4.8v-0.3h0.1c0.7,0,0.9-0.4,0.9-1.1v-7.6c0-0.7-0.3-1.1-0.9-1.1h-0.1v-0.3
		h3.9C199.8,48.5,199.3,53.9,199.3,53.9L199.3,53.9z M192.1,49.4v8.8c0.4,0.1,0.6,0.1,1,0.1c3.1,0,4.6-1.8,4.6-4.5
		c0-0.1,0.2-4.7-4.7-4.6C193.1,49.2,192.5,49.2,192.1,49.4"/>
	<path class="st0" d="M76.2,45.6c3.8,0.1,6.2,3,6.2,6.7S80,59,76.2,59S70,56,70,52.3C70.3,45.3,76.2,45.6,76.2,45.6z M72.3,52.3
		c0,3.5,1.6,5.9,3.9,5.9c2.1,0,3.9-2.1,3.9-6c-0.1-5-2.7-5.7-3.9-5.8C73.3,46.6,72.3,49.5,72.3,52.3"/>
	<path class="st0" d="M103.2,45.8c0,0,6.2,0,6.3,6.8c0,3-1.6,5.4-4.2,6.3c0.6,1.3,2.1,2.7,4.2,2.9v0.3c-3,0-5.6-1-7.5-3
		c-3.1-0.6-5-3.3-5-6.6C97,48.8,99.4,45.9,103.2,45.8L103.2,45.8z M103.2,46.6c0,0-3.8-0.2-3.8,5.9c0,3.9,1.7,5.9,3.9,5.9
		c2.1,0,3.9-2,3.9-5.9C107.2,48.7,105.3,46.6,103.2,46.6"/>
</g>
<rect x="262.4" y="27.7" class="st1" width="1.2" height="44.5"/>
</svg>
