<?xml version="1.0" encoding="UTF-8"?><svg id="a" xmlns="http://www.w3.org/2000/svg" viewBox="0 0 200 200"><defs><style>.j{fill:none;stroke:#999490;stroke-linecap:round;stroke-linejoin:round;stroke-width:6px;}</style></defs><g><path id="b" class="j" d="M79.25,133h47.75c1.66,0,3-1.34,3-3v-46.94"/><path id="c" class="j" d="M120.48,67h-47.48c-1.66,0-3,1.34-3,3v47.93"/><path id="d" class="j" d="M97.23,115h32.77"/><path id="e" class="j" d="M70,115h3.25"/><path id="f" class="j" d="M95.39,91.27c-1.06-1.51-2.75-2.45-4.59-2.55-1.84-.1-3.62,.65-4.84,2.04l-15.96,18.24"/><path id="g" class="j" d="M112,115l-6.31-9.02"/><path id="h" class="j" d="M105,78.5c-.83,0-1.5,.67-1.5,1.5,0,.83,.67,1.5,1.5,1.5,.83,0,1.5-.67,1.5-1.5,0-.83-.67-1.5-1.5-1.5"/></g><path id="i" class="j" d="M139,61L61,139"/></svg>