<?xml version="1.0" encoding="UTF-8"?><svg id="Layer_1" xmlns="http://www.w3.org/2000/svg" viewBox="0 0 200 200"><defs><style>.cls-1{fill:none;stroke:#ada9a6;stroke-linecap:round;stroke-linejoin:round;stroke-width:5.97px;}</style></defs><path id="Rectangle-path_36" class="cls-1" d="M70.15,70.15c0-1.65,1.34-2.98,2.98-2.98h53.73c1.65,0,2.98,1.34,2.98,2.98v59.7c0,1.65-1.34,2.98-2.98,2.98h-53.73c-1.65,0-2.98-1.34-2.98-2.98v-59.7Z"/><path id="Shape_150" class="cls-1" d="M129.85,114.92h-59.7"/><path id="Shape_151" class="cls-1" d="M88.06,114.92l16.53-23.61c1.05-1.5,2.74-2.44,4.57-2.54,1.83-.1,3.61,.65,4.81,2.03l15.88,18.15"/><path id="Shape_152" class="cls-1" d="M85.08,80.6c.82,0,1.49,.67,1.49,1.49s-.67,1.49-1.49,1.49-1.49-.67-1.49-1.49,.67-1.49,1.49-1.49"/></svg>