<?xml version="1.0" encoding="utf-8"?>
<!-- Generator: Adobe Illustrator 22.1.0, SVG Export Plug-In . SVG Version: 6.00 Build 0)  -->
<svg version="1.1" id="Layer_1" xmlns="http://www.w3.org/2000/svg" xmlns:xlink="http://www.w3.org/1999/xlink" x="0px" y="0px"
	 viewBox="0 0 89.9 100" style="enable-background:new 0 0 89.9 100;" xml:space="preserve">
<style type="text/css">
	.st0{opacity:0.5;fill:#FFFFFF;enable-background:new    ;}
	.st1{fill:#FFFFFF;}
</style>
<rect x="85.4" y="27.7" class="st0" width="1.2" height="44.5"/>
<path class="st1" d="M56.5,25.9v24.8c0,9.6-8.3,19.3-20,23c-11.6-3.6-20-13.4-20-23V25.9H56.5 M57.5,24.9h-1h-40h-1v1v24.8
	c0,10.1,8.7,20.2,20.7,24l0.3,0.1l0.3-0.1c12-3.7,20.7-13.8,20.7-24V25.9V24.9z M26,42.9c-0.2,0-0.4,0.2-0.5,0.5h1
	C26.4,43.1,26.2,42.9,26,42.9 M26,44.5c0.2,0,0.4-0.2,0.5-0.5h-1C25.6,44.2,25.8,44.5,26,44.5 M26,48.9c0.2,0,0.4-0.2,0.5-0.5h-1
	C25.6,48.7,25.8,48.9,26,48.9 M26,47.3c-0.2,0-0.4,0.2-0.5,0.5h1C26.4,47.6,26.2,47.3,26,47.3 M52.1,33.4c-1.5,3.1-3.7,5-8.9,5.9
	c0.8-5.2,2.8-7.5,5.9-8.9v0H24v0c3.1,1.5,5,3.7,5.9,8.9c-5.2-0.8-7.5-2.8-8.9-5.9h0v25h0c1.5-3.1,3.7-5,8.9-5.9
	C29,57.8,27,60,24,61.5v0h25v0c-3.1-1.5-5-3.7-5.9-8.9c5.2,0.8,7.5,2.8,8.9,5.9h0L52.1,33.4L52.1,33.4z M37,41.5
	c0-0.8,0.8-1.2,1.8-1.2c1.6,0,2.4,0.5,3.3,0.3V49h-2.7c-1.3,0-1.5,0-2.4,0.4V41.5z M30.9,40.6c0.9,0.2,1.7-0.3,3.3-0.3
	c1.1,0,1.9,0.5,1.9,1.2v7.8c-0.9-0.4-1.1-0.4-2.4-0.4h-2.7V40.6z M46.7,47.3c0.4,0,0.8,0.4,0.8,0.8s-0.3,0.8-0.8,0.8h-2.5v2h-4.8
	c-1,0-1,0-1.6,0.3c-0.3,0.1-0.8,0.3-1.3,0.3c-0.5,0-1-0.2-1.3-0.3c-0.6-0.3-0.6-0.3-1.6-0.3h-4.8v-2h-1.9c-0.2,0.3-0.5,0.5-0.8,0.5
	c-0.5,0-0.9-0.4-1-1h-0.3c-0.1,0-0.3-0.1-0.3-0.3s0.1-0.3,0.3-0.3H25c0.1-0.6,0.5-1,1-1c0.3,0,0.6,0.2,0.8,0.5h1.9v-2.9h-1.9
	C26.6,44.8,26.3,45,26,45c-0.5,0-0.9-0.4-1-1h-0.3c-0.1,0-0.3-0.1-0.3-0.3c0-0.1,0.1-0.3,0.3-0.3H25c0.1-0.6,0.5-1,1-1
	c0.3,0,0.6,0.2,0.8,0.5h1.9v-1.5l1-0.6v9.1h3.8c1.2,0,1.3,0,2,0.3c0.2,0.1,0.5,0.3,0.9,0.3c0.4,0,0.7-0.2,0.9-0.3
	c0.7-0.3,0.8-0.3,2-0.3h3.8V41l1,0.5v1.5h2.5c0.4,0,0.8,0.4,0.8,0.8c0,0.4-0.3,0.8-0.8,0.8h-2.5v2.9H46.7z"/>
</svg>
